<?xml version="1.0" encoding="utf-8"?>
<!-- Generator: Adobe Illustrator 22.1.0, SVG Export Plug-In . SVG Version: 6.00 Build 0)  -->
<svg version="1.1" id="图层_1" xmlns="http://www.w3.org/2000/svg" xmlns:xlink="http://www.w3.org/1999/xlink" x="0px" y="0px"
	 viewBox="0 0 1280 800" style="enable-background:new 0 0 1280 800;" xml:space="preserve">
<style type="text/css">
	.st0{fill:#333333;}
	.st1{fill:none;stroke:#333333;stroke-miterlimit:10;}
</style>
<title>网页版</title>
<path class="st0" d="M66.3,764.9h2.9v-8.4h-2.4v-1.6c1.1-0.2,2.1-0.5,3.1-1.1h2v11.2h2.5v2.1h-8L66.3,764.9z"/>
<path class="st0" d="M77.8,764.2c0.6,0.6,1.3,0.9,2.1,0.9c1.5,0,2.7-1.1,2.8-4.5c-0.7,0.9-1.7,1.4-2.7,1.5c-2.2,0-3.8-1.4-3.8-4.2
	c-0.1-2.3,1.6-4.3,3.9-4.4c0.1,0,0.2,0,0.3,0c2.5,0,4.8,2,4.8,6.6c0,5-2.5,7.2-5.1,7.2c-1.4,0-2.7-0.5-3.7-1.5L77.8,764.2z
	 M82.7,758.8c-0.2-2.4-1.2-3.3-2.3-3.3c-1,0-1.8,0.8-1.8,2.5s0.7,2.3,1.9,2.3C81.4,760.2,82.3,759.6,82.7,758.8z"/>
<path class="st0" d="M86.8,765.5c3.6-3.2,5.8-5.7,5.8-7.8c0.1-1-0.6-2-1.6-2.1c-0.1,0-0.2,0-0.4,0c-1,0.1-1.9,0.6-2.4,1.4l-1.4-1.4
	c1-1.3,2.6-2,4.2-2c2.2-0.2,4,1.5,4.2,3.6c0,0.2,0,0.3,0,0.5c0,2.4-2,5-4.4,7.4c0.7-0.1,1.6-0.1,2.2-0.1h2.9v2.2h-8.9V765.5z"/>
<path class="st0" d="M97.5,760.3c0-4.6,1.8-6.9,4.5-6.9s4.5,2.3,4.5,6.9s-1.8,7-4.5,7S97.5,764.9,97.5,760.3z M104,760.3
	c0-3.7-0.9-4.8-2-4.8s-2,1.1-2,4.8s0.9,4.9,2,4.9S104,764.1,104,760.3L104,760.3z"/>
<path class="st0" d="M107.7,765.9l1.2-1.7c0.7,0.7,1.7,1.1,2.7,1.1c1,0,1.5-0.4,1.5-1.1s-1-1.1-2.1-1.5c-1.3-0.5-2.8-1.3-2.8-2.9
	s1.5-3.1,3.7-3.1c1.3,0,2.5,0.5,3.4,1.2l-1.2,1.6c-0.6-0.5-1.4-0.8-2.2-0.9c-0.9,0-1.3,0.4-1.3,1c0,0.7,1,1,2,1.4
	c1.3,0.5,2.8,1.2,2.8,3s-1.4,3.2-4,3.2C110.1,767.3,108.8,766.8,107.7,765.9z"/>
<path class="st0" d="M223.5,764.9h2.9v-8.4h-2.4v-1.6c1.1-0.2,2.1-0.5,3.1-1.1h2v11.2h2.5v2.1h-8L223.5,764.9z"/>
<path class="st0" d="M234.9,764.2c0.5,0.6,1.3,0.9,2.1,0.9c1.5,0,2.7-1.1,2.9-4.5c-0.7,0.9-1.7,1.4-2.7,1.5c-2.2,0-3.8-1.4-3.8-4.2
	c-0.1-2.3,1.6-4.3,3.9-4.4c0.1,0,0.2,0,0.3,0c2.5,0,4.8,2,4.8,6.6c0,5-2.5,7.2-5.1,7.2c-1.4,0-2.7-0.5-3.6-1.5L234.9,764.2z
	 M239.8,758.8c-0.2-2.4-1.1-3.3-2.3-3.3c-1,0-1.8,0.8-1.8,2.5s0.7,2.3,1.9,2.3C238.6,760.2,239.4,759.6,239.8,758.8z"/>
<path class="st0" d="M243.7,765.4l1.2-1.7c0.8,0.8,1.9,1.3,3,1.4c1.4,0,2.3-0.7,2.3-1.8s-0.8-2.1-3.7-2.1v-1.9c2.4,0,3.2-0.8,3.2-2
	c0.1-0.9-0.6-1.6-1.5-1.7c-0.1,0-0.2,0-0.3,0c-1,0.1-1.9,0.5-2.5,1.2l-1.4-1.6c1.1-1,2.5-1.6,4-1.6c2.6,0,4.3,1.3,4.3,3.5
	c0,1.4-0.9,2.6-2.2,3v0.1c1.6,0.3,2.7,1.7,2.7,3.3c0,2.5-2.1,3.9-4.7,3.9C246.5,767.4,244.8,766.7,243.7,765.4z"/>
<path class="st0" d="M254.6,760.3c0-4.6,1.8-6.9,4.5-6.9s4.5,2.3,4.5,6.9s-1.8,7-4.5,7S254.6,764.9,254.6,760.3z M261.1,760.3
	c0-3.7-0.9-4.8-2-4.8s-2,1.1-2,4.8s0.9,4.9,2,4.9S261.1,764.1,261.1,760.3z"/>
<path class="st0" d="M264.9,765.9l1.2-1.7c0.7,0.7,1.7,1.1,2.7,1.1c1,0,1.5-0.4,1.5-1.1s-1-1.1-2.1-1.5c-1.3-0.5-2.8-1.3-2.8-2.9
	s1.5-3.1,3.7-3.1c1.3,0,2.5,0.5,3.4,1.2l-1.2,1.6c-0.6-0.5-1.4-0.8-2.2-0.9c-0.9,0-1.3,0.4-1.3,1c0,0.7,1,1,2.1,1.4
	c1.3,0.5,2.8,1.2,2.8,3s-1.4,3.2-4,3.2C267.3,767.3,266,766.8,264.9,765.9z"/>
<path class="st0" d="M380.6,764.9h2.9v-8.4H381v-1.6c1.1-0.2,2.1-0.5,3.1-1.1h2v11.2h2.5v2.1h-8L380.6,764.9z"/>
<path class="st0" d="M392,764.2c0.5,0.6,1.3,0.9,2.1,0.9c1.5,0,2.7-1.1,2.9-4.5c-0.7,0.9-1.7,1.4-2.7,1.5c-2.2,0-3.8-1.4-3.8-4.2
	c-0.1-2.3,1.6-4.3,3.9-4.4c0.1,0,0.2,0,0.3,0c2.5,0,4.8,2,4.8,6.6c0,5-2.5,7.2-5.1,7.2c-1.4,0-2.7-0.5-3.7-1.5L392,764.2z
	 M396.9,758.8c-0.2-2.4-1.1-3.3-2.3-3.3s-1.8,0.8-1.8,2.5s0.7,2.3,1.9,2.3C395.7,760.2,396.6,759.7,396.9,758.8L396.9,758.8z"/>
<path class="st0" d="M410.4,763.6h-1.6v3.4h-2.5v-3.5h-5.7v-1.8l5-8.1h3.2v7.8h1.6L410.4,763.6z M406.4,761.6v-2.7
	c0-0.8,0.1-2,0.1-2.8h-0.1c-0.3,0.7-0.7,1.4-1.1,2.2l-2.1,3.3H406.4z"/>
<path class="st0" d="M411.7,760.3c0-4.6,1.8-6.9,4.5-6.9s4.5,2.3,4.5,6.9s-1.8,7-4.5,7S411.7,764.9,411.7,760.3z M418.2,760.3
	c0-3.7-0.9-4.8-2-4.8s-2,1.1-2,4.8s0.9,4.9,2,4.9S418.2,764.1,418.2,760.3L418.2,760.3z"/>
<path class="st0" d="M422,765.9l1.2-1.7c0.7,0.7,1.7,1.1,2.7,1.1c1,0,1.5-0.4,1.5-1.1s-1-1.1-2.1-1.5c-1.3-0.5-2.8-1.3-2.8-2.9
	s1.5-3.1,3.8-3.1c1.3,0,2.5,0.5,3.4,1.2l-1.2,1.6c-0.6-0.5-1.4-0.8-2.2-0.9c-0.9,0-1.3,0.4-1.3,1c0,0.7,1,1,2,1.4
	c1.3,0.5,2.8,1.2,2.8,3s-1.4,3.2-4,3.2C424.4,767.3,423.1,766.8,422,765.9z"/>
<path class="st0" d="M537.7,764.9h2.9v-8.4h-2.4v-1.6c1.1-0.2,2.1-0.5,3.1-1.1h2v11.2h2.5v2.1h-8L537.7,764.9z"/>
<path class="st0" d="M549.2,764.2c0.6,0.6,1.3,0.9,2.1,0.9c1.5,0,2.7-1.1,2.8-4.5c-0.7,0.9-1.7,1.4-2.7,1.5c-2.2,0-3.8-1.4-3.8-4.2
	c-0.1-2.3,1.6-4.3,3.9-4.4c0.1,0,0.2,0,0.3,0c2.5,0,4.8,2,4.8,6.6c0,5-2.5,7.2-5.1,7.2c-1.4,0-2.7-0.5-3.7-1.5L549.2,764.2z
	 M554.1,758.8c-0.2-2.4-1.2-3.3-2.3-3.3s-1.8,0.8-1.8,2.5s0.7,2.3,1.9,2.3C552.8,760.2,553.6,759.6,554.1,758.8L554.1,758.8z"/>
<path class="st0" d="M557.9,765.5l1.2-1.7c0.8,0.8,1.8,1.3,2.9,1.3c1.2,0.1,2.3-0.9,2.4-2.1c0-0.1,0-0.2,0-0.3
	c0.1-1.2-0.7-2.3-1.9-2.4c-0.1,0-0.2,0-0.4,0c-0.7,0-1.4,0.2-2,0.7l-1.2-0.8l0.4-6.5h7.1v2.2h-4.8l-0.3,2.8c0.5-0.3,1.1-0.4,1.6-0.4
	c2.1-0.1,4,1.5,4.1,3.6c0,0.2,0,0.4,0,0.6c0.1,2.5-1.8,4.6-4.3,4.7c-0.1,0-0.2,0-0.3,0C560.7,767.3,559.1,766.7,557.9,765.5z"/>
<path class="st0" d="M568.8,760.3c0-4.6,1.8-6.9,4.5-6.9s4.5,2.3,4.5,6.9s-1.8,7-4.5,7S568.8,764.9,568.8,760.3z M575.4,760.3
	c0-3.7-0.9-4.8-2-4.8s-2,1.1-2,4.8s0.9,4.9,2,4.9S575.3,764.1,575.4,760.3L575.4,760.3z"/>
<path class="st0" d="M579.1,765.9l1.2-1.7c0.7,0.7,1.7,1.1,2.7,1.1c1,0,1.5-0.4,1.5-1.1s-1-1.1-2.1-1.5c-1.3-0.5-2.8-1.3-2.8-2.9
	s1.5-3.1,3.8-3.1c1.3,0,2.5,0.5,3.4,1.3l-1.2,1.6c-0.6-0.5-1.4-0.8-2.2-0.9c-0.9,0-1.3,0.4-1.3,1c0,0.7,1,1,2,1.4
	c1.3,0.5,2.8,1.2,2.8,3s-1.4,3.2-4,3.2C581.5,767.3,580.2,766.8,579.1,765.9z"/>
<path class="st0" d="M694.8,764.9h2.9v-8.4h-2.4v-1.6c1.1-0.2,2.1-0.5,3.1-1.1h2v11.2h2.5v2.1h-8L694.8,764.9z"/>
<path class="st0" d="M706.3,764.2c0.6,0.6,1.3,0.9,2.1,0.9c1.5,0,2.7-1.1,2.8-4.5c-0.7,0.9-1.7,1.4-2.7,1.5c-2.2,0-3.8-1.4-3.8-4.2
	c-0.1-2.3,1.6-4.3,3.9-4.4c0.1,0,0.2,0,0.3,0c2.5,0,4.8,2,4.8,6.6c0,5-2.5,7.2-5.1,7.2c-1.4,0-2.7-0.5-3.7-1.5L706.3,764.2z
	 M711.2,758.8c-0.2-2.4-1.2-3.3-2.3-3.3s-1.8,0.8-1.8,2.5s0.7,2.3,1.9,2.3C709.9,760.2,710.8,759.6,711.2,758.8z"/>
<path class="st0" d="M722.8,756.6c-0.5-0.6-1.3-1-2.1-1c-1.5,0-2.8,1.2-2.9,4.5c0.7-0.8,1.7-1.3,2.7-1.4c2.2,0,3.8,1.3,3.8,4.2
	c0.1,2.3-1.6,4.3-3.9,4.4c-0.1,0-0.2,0-0.3,0c-2.5,0-4.8-2-4.8-6.7c0-5,2.5-7.1,5.2-7.1c1.4,0,2.7,0.5,3.6,1.5L722.8,756.6z
	 M722,762.8c0-1.6-0.7-2.3-1.9-2.3c-0.9,0.1-1.8,0.6-2.2,1.4c0.2,2.4,1.2,3.4,2.3,3.4S722,764.5,722,762.8z"/>
<path class="st0" d="M726,760.3c0-4.6,1.8-6.9,4.5-6.9s4.5,2.3,4.5,6.9s-1.8,7-4.5,7S726,764.9,726,760.3z M732.5,760.3
	c0-3.7-0.9-4.8-2-4.8s-2,1.1-2,4.8s0.9,4.9,2,4.9S732.5,764.1,732.5,760.3L732.5,760.3z"/>
<path class="st0" d="M736.2,765.9l1.2-1.7c0.7,0.7,1.7,1.1,2.7,1.1c1,0,1.5-0.4,1.5-1.1s-1-1.1-2.1-1.5c-1.3-0.5-2.8-1.3-2.8-2.9
	s1.5-3.1,3.7-3.1c1.3,0,2.5,0.5,3.4,1.2l-1.2,1.6c-0.6-0.5-1.4-0.8-2.2-0.9c-0.9,0-1.3,0.4-1.3,1c0,0.7,1,1,2,1.4
	c1.3,0.5,2.8,1.2,2.8,3s-1.4,3.2-4,3.2C738.6,767.3,737.3,766.8,736.2,765.9z"/>
<path class="st0" d="M852,764.9h2.9v-8.4h-2.4v-1.6c1.1-0.2,2.1-0.5,3.1-1.1h2v11.2h2.5v2.1h-8V764.9z"/>
<path class="st0" d="M863.4,764.2c0.5,0.6,1.3,0.9,2.1,0.9c1.5,0,2.7-1.1,2.8-4.5c-0.7,0.9-1.7,1.4-2.7,1.5c-2.2,0-3.8-1.4-3.8-4.2
	c-0.1-2.3,1.6-4.3,3.9-4.4c0.1,0,0.2,0,0.3,0c2.5,0,4.8,2,4.8,6.6c0,5-2.5,7.2-5.1,7.2c-1.4,0-2.7-0.5-3.7-1.5L863.4,764.2z
	 M868.3,758.8c-0.2-2.4-1.2-3.3-2.3-3.3s-1.8,0.8-1.8,2.5s0.7,2.3,1.9,2.3C867.1,760.2,867.9,759.6,868.3,758.8L868.3,758.8z"/>
<path class="st0" d="M878.6,755.9h-6v-2.2h8.9v1.6c-3.1,3.8-3.5,6.5-3.7,11.7H875C875.3,762.4,876,759.5,878.6,755.9z"/>
<path class="st0" d="M883.1,760.3c0-4.6,1.8-6.9,4.5-6.9s4.5,2.3,4.5,6.9s-1.8,7-4.5,7S883.1,764.9,883.1,760.3z M889.6,760.3
	c0-3.7-0.9-4.8-2-4.8s-2,1.1-2,4.8s0.9,4.9,2,4.9S889.6,764.1,889.6,760.3L889.6,760.3z"/>
<path class="st0" d="M893.4,765.9l1.2-1.7c0.7,0.7,1.7,1.1,2.7,1.1c1,0,1.5-0.4,1.5-1.1s-1-1.1-2.1-1.5c-1.3-0.5-2.8-1.3-2.8-2.9
	s1.5-3.1,3.8-3.1c1.2,0,2.4,0.5,3.4,1.3l-1.2,1.6c-0.6-0.5-1.4-0.8-2.2-0.9c-0.9,0-1.3,0.4-1.3,1c0,0.7,1,1,2.1,1.4
	c1.3,0.5,2.8,1.2,2.8,3s-1.4,3.2-4,3.2C895.8,767.3,894.4,766.8,893.4,765.9z"/>
<path class="st0" d="M1009.1,764.9h2.9v-8.4h-2.4v-1.6c1.1-0.2,2.1-0.5,3.1-1.1h2v11.2h2.5v2.1h-8L1009.1,764.9z"/>
<path class="st0" d="M1020.5,764.2c0.5,0.6,1.3,0.9,2.1,0.9c1.5,0,2.7-1.1,2.8-4.5c-0.7,0.9-1.7,1.4-2.7,1.5c-2.2,0-3.8-1.4-3.8-4.2
	c-0.1-2.3,1.6-4.3,3.9-4.4c0.1,0,0.2,0,0.3,0c2.5,0,4.8,2,4.8,6.6c0,5-2.5,7.2-5.1,7.2c-1.4,0-2.7-0.5-3.7-1.5L1020.5,764.2z
	 M1025.4,758.8c-0.2-2.4-1.2-3.3-2.3-3.3s-1.8,0.8-1.8,2.5s0.7,2.3,1.9,2.3C1024.2,760.2,1025,759.6,1025.4,758.8L1025.4,758.8z"/>
<path class="st0" d="M1029.7,763.7c0-1.5,0.9-2.9,2.3-3.5v-0.1c-1.1-0.7-1.8-1.9-1.8-3.2c0-2.1,1.7-3.5,4-3.5s3.9,1.4,3.9,3.5
	c-0.1,1.2-0.7,2.3-1.7,3v0.1c1.4,0.7,2.3,2,2.2,3.6c0,2-1.8,3.6-4.5,3.6C1031.6,767.3,1029.7,765.8,1029.7,763.7z M1036.1,763.6
	c0-1.4-1.2-2-3-2.7c-0.8,0.6-1.2,1.5-1.2,2.5c0,1.1,0.9,2,2,2c0.1,0,0.2,0,0.2,0c1,0.1,1.8-0.5,2-1.5
	C1036.1,763.8,1036.1,763.7,1036.1,763.6L1036.1,763.6z M1035.9,757.2c0.1-0.9-0.6-1.8-1.5-1.8c-0.1,0-0.2,0-0.2,0
	c-0.9,0-1.6,0.6-1.6,1.5c0,0.1,0,0.1,0,0.2c0,1.3,1,1.9,2.4,2.4C1035.5,758.8,1035.9,758,1035.9,757.2L1035.9,757.2z"/>
<path class="st0" d="M1040.2,760.3c0-4.6,1.8-6.9,4.5-6.9s4.5,2.3,4.5,6.9s-1.8,7-4.5,7S1040.2,764.9,1040.2,760.3z M1046.7,760.3
	c0-3.7-0.9-4.8-2-4.8s-2,1.1-2,4.8s0.9,4.9,2,4.9S1046.7,764.1,1046.7,760.3z"/>
<path class="st0" d="M1050.5,765.9l1.2-1.7c0.7,0.7,1.7,1.1,2.7,1.1c1,0,1.5-0.4,1.5-1.1s-1-1.1-2.1-1.5c-1.3-0.5-2.8-1.3-2.8-2.9
	s1.5-3.1,3.8-3.1c1.3,0,2.5,0.5,3.4,1.2l-1.2,1.6c-0.6-0.5-1.4-0.8-2.2-0.9c-0.9,0-1.3,0.4-1.3,1c0,0.7,1,1,2,1.4
	c1.3,0.5,2.8,1.2,2.8,3s-1.4,3.2-4,3.2C1052.9,767.3,1051.6,766.8,1050.5,765.9z"/>
<path class="st0" d="M1166.2,764.9h2.9v-8.4h-2.4v-1.6c1.1-0.2,2.1-0.5,3.1-1.1h2v11.2h2.5v2.1h-8L1166.2,764.9z"/>
<path class="st0" d="M1177.7,764.2c0.6,0.6,1.3,0.9,2.1,0.9c1.5,0,2.7-1.1,2.8-4.5c-0.7,0.9-1.7,1.4-2.7,1.5c-2.2,0-3.8-1.4-3.8-4.2
	c-0.1-2.3,1.6-4.3,3.9-4.4c0.1,0,0.2,0,0.3,0c2.5,0,4.8,2,4.8,6.6c0,5-2.5,7.2-5.1,7.2c-1.4,0-2.7-0.5-3.7-1.5L1177.7,764.2z
	 M1182.6,758.8c-0.2-2.4-1.2-3.3-2.3-3.3s-1.8,0.8-1.8,2.5s0.7,2.3,1.9,2.3C1181.3,760.2,1182.1,759.6,1182.6,758.8L1182.6,758.8z"
	/>
<path class="st0" d="M1188.2,764.2c0.6,0.6,1.3,0.9,2.1,0.9c1.5,0,2.7-1.1,2.8-4.5c-0.7,0.9-1.7,1.4-2.7,1.5c-2.2,0-3.8-1.4-3.8-4.2
	c-0.1-2.3,1.6-4.3,3.9-4.4c0.1,0,0.2,0,0.3,0c2.5,0,4.8,2,4.8,6.6c0,5-2.5,7.2-5.1,7.2c-1.4,0-2.7-0.5-3.7-1.5L1188.2,764.2z
	 M1193.2,758.8c-0.2-2.4-1.2-3.3-2.3-3.3s-1.8,0.8-1.8,2.5s0.7,2.3,1.9,2.3C1191.9,760.2,1192.7,759.6,1193.2,758.8z"/>
<path class="st0" d="M1197.3,760.3c0-4.6,1.8-6.9,4.5-6.9s4.5,2.3,4.5,6.9s-1.8,7-4.5,7S1197.3,764.9,1197.3,760.3z M1203.8,760.3
	c0-3.7-0.9-4.8-2-4.8s-2,1.1-2,4.8s0.9,4.9,2,4.9S1203.8,764.1,1203.8,760.3z"/>
<path class="st0" d="M1207.6,765.9l1.2-1.7c0.7,0.7,1.7,1.1,2.7,1.1c1,0,1.5-0.4,1.5-1.1s-1-1.1-2.1-1.5c-1.3-0.5-2.8-1.3-2.8-2.9
	s1.5-3.1,3.8-3.1c1.3,0,2.5,0.5,3.4,1.2l-1.2,1.6c-0.6-0.5-1.4-0.8-2.2-0.9c-0.9,0-1.3,0.4-1.3,1c0,0.7,1,1,2.1,1.4
	c1.3,0.5,2.8,1.2,2.8,3s-1.4,3.2-4,3.2C1210,767.3,1208.7,766.8,1207.6,765.9z"/>
<line class="st1" x1="331.9" y1="737.2" x2="474.7" y2="737.2"/>
<line class="st1" x1="489.1" y1="737.2" x2="631.9" y2="737.2"/>
<line class="st1" x1="175.8" y1="737.2" x2="318.6" y2="737.2"/>
<line class="st1" x1="19.1" y1="737.2" x2="161.9" y2="737.2"/>
<line class="st1" x1="646.4" y1="737.2" x2="789.2" y2="737.2"/>
<line class="st1" x1="803.6" y1="737.2" x2="946.4" y2="737.2"/>
<line class="st1" x1="960.8" y1="737.2" x2="1103.6" y2="737.2"/>
<line class="st1" x1="1118.1" y1="737.2" x2="1260.9" y2="737.2"/>
<path class="st0" d="M83,713.6h3.8v-11.2h-3.2v-2.2c1.5-0.2,2.9-0.7,4.1-1.5h2.6v14.9h3.3v2.9H83V713.6z"/>
<path class="st0" d="M242.6,713.6h3.8v-11.2h-3.2v-2.2c1.5-0.2,2.9-0.7,4.1-1.5h2.6v14.9h3.3v2.9h-10.7V713.6z"/>
<path class="st0" d="M387.5,700.5c4.8-4.3,7.7-7.7,7.7-10.4c0-1.8-1-2.9-2.7-2.9c-1.3,0.1-2.5,0.8-3.3,1.8l-1.9-1.9
	c1.4-1.7,3.4-2.7,5.6-2.7c2.9-0.2,5.4,1.9,5.6,4.8c0,0.2,0,0.4,0,0.7c0,3.2-2.7,6.7-5.9,9.8c0.9-0.1,2.1-0.2,2.9-0.2h3.9v3h-11.9
	V700.5z"/>
<path class="st0" d="M402,698.1c0-2,1.2-3.8,3-4.6v-0.1c-1.5-0.9-2.3-2.5-2.4-4.2c0-2.9,2.2-4.7,5.4-4.7s5.2,1.9,5.2,4.7
	c-0.1,1.6-0.9,3.1-2.3,4.1v0.1c1.8,0.9,3,2.7,3,4.8c0,2.7-2.4,4.8-6,4.8C404.5,702.9,402,700.9,402,698.1z M410.6,698
	c0-1.8-1.6-2.6-3.9-3.5c-1,0.8-1.6,2-1.6,3.3c0,1.5,1.3,2.7,2.8,2.7c0.1,0,0.1,0,0.2,0c1.3,0.1,2.4-0.8,2.6-2.1
	C410.6,698.2,410.6,698.1,410.6,698L410.6,698z M410.3,689.4c0.1-1.2-0.8-2.3-2-2.5c-0.1,0-0.2,0-0.3,0c-1.1-0.1-2.1,0.8-2.2,2
	c0,0.1,0,0.2,0,0.3c0,1.7,1.4,2.5,3.2,3.2C409.9,691.6,410.3,690.5,410.3,689.4L410.3,689.4z"/>
<path class="st0" d="M541.1,518.5l1.6-2.3c1,1.1,2.4,1.8,3.9,1.8c1.7,0.1,3.1-1.2,3.1-2.8c0-0.1,0-0.3,0-0.4c0.2-1.6-0.9-3-2.5-3.2
	c-0.2,0-0.3,0-0.5,0c-1,0-1.9,0.3-2.7,0.9l-1.6-1.1l0.5-8.6h9.5v3h-6.5l-0.3,3.8c0.7-0.3,1.4-0.5,2.1-0.5c3,0,5.5,1.8,5.5,5.6
	c0.1,3.3-2.4,6.1-5.8,6.2c-0.2,0-0.3,0-0.5,0C544.9,521,542.7,520.1,541.1,518.5z"/>
<path class="st0" d="M564.1,505.8h-8v-2.9h11.8v2.1c-4.1,5-4.7,8.7-5,15.6h-3.6C559.7,514.4,560.7,510.5,564.1,505.8z"/>
<path class="st0" d="M685.7,140.9h3.8v-11.2h-3.2v-2.2c1.5-0.2,2.9-0.7,4.1-1.5h2.6v14.9h3.3v2.9h-10.7V140.9z"/>
<path class="st0" d="M699.3,147c1.8-0.7,2.9-1.9,2.9-3.3H702c-1.1,0.1-2.1-0.8-2.2-1.9c0-0.1,0-0.1,0-0.2c0-1.2,1-2.1,2.1-2.1
	c0,0,0.1,0,0.1,0c1.6,0,2.5,1.3,2.5,3.5c0,2.8-1.9,5.2-4.5,5.9L699.3,147z"/>
<path class="st0" d="M717.1,129.8c-0.7-0.8-1.7-1.3-2.7-1.3c-2,0-3.7,1.5-3.9,6c0.9-1.1,2.2-1.8,3.7-1.9c3,0,5.1,1.8,5.1,5.6
	c0.2,3.1-2.1,5.7-5.2,5.9c-0.1,0-0.2,0-0.4,0c-3.4,0-6.4-2.7-6.4-9c0-6.6,3.3-9.5,6.9-9.5c1.8,0,3.6,0.7,4.8,2L717.1,129.8z
	 M716,138.2c0-2.1-1-3.1-2.5-3.1c-1.2,0.1-2.3,0.8-2.9,1.9c0.3,3.2,1.5,4.5,3,4.5C715,141.4,716,140.3,716,138.2L716,138.2z"/>
<path class="st0" d="M729.7,129h-8v-3h11.8v2.1c-4.1,5-4.7,8.7-5,15.6H725C725.3,137.6,726.3,133.7,729.7,129z"/>
<path class="st0" d="M854.2,537.5l1.6-2.3c1,1.1,2.4,1.8,3.9,1.8c1.7,0.1,3.1-1.2,3.1-2.8c0-0.1,0-0.3,0-0.4c0.2-1.6-0.9-3-2.5-3.2
	c-0.2,0-0.3,0-0.5,0c-1,0-1.9,0.3-2.7,0.9l-1.6-1l0.5-8.6h9.5v3h-6.5l-0.3,3.8c0.7-0.3,1.4-0.5,2.1-0.5c3,0,5.5,1.8,5.5,5.6
	c0.1,3.3-2.4,6.1-5.8,6.2c-0.2,0-0.3,0-0.5,0C857.9,540,855.7,539.1,854.2,537.5z"/>
<path class="st0" d="M869.9,536.8h3.8v-11.2h-3.2v-2.2c1.5-0.2,2.9-0.7,4.1-1.5h2.6v14.9h3.3v2.8h-10.7V536.8z"/>
<path class="st0" d="M883.4,530.7c0-6.1,2.4-9.1,6-9.1s6,3,6,9.1s-2.4,9.3-6,9.3S883.4,536.8,883.4,530.7z M892,530.7
	c0-5-1.2-6.4-2.7-6.4s-2.7,1.4-2.7,6.4s1.2,6.5,2.7,6.5S892,535.6,892,530.7z"/>
<path class="st0" d="M1010.5,659.4h3.8v-11.2h-3.2V646c1.5-0.2,2.9-0.7,4.1-1.5h2.6v14.9h3.3v2.8h-10.7V659.4z"/>
<path class="st0" d="M1023.5,660.2l1.6-2.3c1,1.1,2.4,1.8,3.9,1.8c1.7,0.1,3.1-1.2,3.2-2.8c0-0.1,0-0.3,0-0.4c0-2.1-1.2-3.2-3-3.2
	c-1,0-1.9,0.3-2.7,0.9l-1.6-1.1l0.5-8.6h9.5v3h-6.5l-0.3,3.8c0.7-0.3,1.4-0.5,2.1-0.5c3,0,5.5,1.8,5.5,5.6c0.1,3.3-2.4,6.1-5.8,6.2
	c-0.2,0-0.3,0-0.5,0C1027.3,662.6,1025.1,661.8,1023.5,660.2z"/>
<path class="st0" d="M1040.4,658.4c0.7,0.8,1.7,1.2,2.8,1.2c2,0,3.7-1.5,3.8-6c-0.9,1.1-2.2,1.9-3.7,2c-3,0-5.1-1.8-5.1-5.6
	c-0.2-3.1,2.1-5.7,5.2-5.9c0.1,0,0.3,0,0.4,0c3.4,0,6.4,2.6,6.4,8.8c0,6.7-3.3,9.6-6.8,9.6c-1.8,0-3.6-0.7-4.9-2L1040.4,658.4z
	 M1046.9,651.2c-0.3-3.2-1.5-4.4-3.1-4.4c-1.3,0-2.4,1.1-2.4,3.3s1,3.1,2.5,3.1C1045.2,653.1,1046.3,652.3,1046.9,651.2z"/>
<path class="st0" d="M1176.2,700.5c4.8-4.3,7.7-7.7,7.7-10.4c0-1.8-1-2.9-2.7-2.9c-1.3,0.1-2.5,0.8-3.3,1.8l-1.9-1.9
	c1.4-1.7,3.4-2.7,5.6-2.7c2.9-0.2,5.4,1.9,5.6,4.8c0,0.2,0,0.4,0,0.7c0,3.2-2.7,6.7-5.9,9.8c0.9-0.1,2.1-0.2,2.9-0.2h3.9v3h-11.9
	L1176.2,700.5z"/>
<path class="st0" d="M1190.7,698.1c0-2,1.2-3.8,3-4.6v-0.1c-1.5-0.9-2.3-2.5-2.3-4.2c0-2.8,2.2-4.7,5.3-4.7s5.2,1.9,5.2,4.7
	c-0.1,1.6-0.9,3.1-2.3,4.1v0.1c1.8,0.9,3,2.7,3,4.8c0,2.7-2.4,4.8-6,4.8C1193.3,702.9,1190.7,700.9,1190.7,698.1z M1199.3,698
	c0-1.8-1.6-2.6-3.9-3.5c-1,0.8-1.6,2-1.6,3.3c0,1.5,1.3,2.7,2.8,2.7c0.1,0,0.1,0,0.2,0c1.3,0.1,2.4-0.8,2.6-2.1
	C1199.3,698.2,1199.3,698.1,1199.3,698L1199.3,698z M1199,689.4c0.1-1.2-0.8-2.3-2-2.5c-0.1,0-0.2,0-0.3,0c-1.1-0.1-2.1,0.8-2.2,2
	c0,0.1,0,0.2,0,0.2c0,1.7,1.4,2.5,3.2,3.2C1198.6,691.6,1199,690.5,1199,689.4L1199,689.4z"/>
<path class="st0" d="M737.2,141.7c4.8-4.3,7.7-7.7,7.7-10.4c0-1.8-1-2.9-2.7-2.9c-1.3,0.1-2.5,0.8-3.3,1.8l-1.9-1.9
	c1.4-1.7,3.4-2.7,5.6-2.7c2.9-0.2,5.4,1.9,5.6,4.8c0,0.2,0,0.4,0,0.7c0,3.2-2.7,6.7-5.9,9.8c0.9-0.1,2.1-0.2,2.9-0.2h3.9v3h-11.9
	V141.7z"/>
<path class="st0" d="M580.8,506.7c-0.7-0.8-1.7-1.2-2.7-1.3c-2,0-3.7,1.5-3.8,5.8c0.9-1.1,2.2-1.7,3.6-1.8c3,0,5.1,1.7,5.1,5.4
	c0.2,3-2.1,5.5-5.2,5.7c-0.1,0-0.3,0-0.4,0c-3.4,0-6.3-2.6-6.3-8.6c0-6.4,3.3-9.1,6.8-9.1c1.8,0,3.5,0.7,4.8,1.9L580.8,506.7z
	 M579.7,514.7c0-2-1-3-2.5-3c-1.2,0.1-2.3,0.8-2.9,1.8c0.3,3.1,1.5,4.3,3,4.3S579.7,516.8,579.7,514.7z"/>
</svg>
