<?xml version="1.0" encoding="utf-8"?>
<!-- Generator: Adobe Illustrator 22.1.0, SVG Export Plug-In . SVG Version: 6.00 Build 0)  -->
<svg version="1.1" id="图层_1" xmlns="http://www.w3.org/2000/svg" xmlns:xlink="http://www.w3.org/1999/xlink" x="0px" y="0px"
	 viewBox="0 0 750 1334" style="enable-background:new 0 0 750 1334;" xml:space="preserve">
<style type="text/css">
	.st0{fill:#E6E6E6;}
	.st1{fill:#333333;}
	.st2{fill:#666666;}
</style>
<path class="st0" d="M53.2,313.6h74.1v26.9H53.2V313.6z"/>
<path class="st1" d="M60.8,331.4H64V322h-2.7v-1.8c1.2-0.2,2.4-0.6,3.4-1.2h2.2v12.4h2.8v2.4h-8.9L60.8,331.4z"/>
<path class="st1" d="M73.5,330.6c0.6,0.6,1.5,1,2.3,1c1.7,0,3-1.3,3.2-5c-0.7,0.9-1.8,1.5-3,1.6c-2.5,0-4.2-1.5-4.2-4.7
	c-0.2-2.6,1.8-4.8,4.3-4.9c0.1,0,0.2,0,0.3,0c2.8,0,5.3,2.2,5.3,7.3c0,5.6-2.7,8-5.7,8c-1.5,0.1-3-0.5-4.1-1.6L73.5,330.6z
	 M79,324.6c-0.3-2.7-1.3-3.7-2.5-3.7c-1.1,0-2,0.9-2,2.7s0.8,2.6,2.1,2.6C77.6,326.2,78.5,325.6,79,324.6L79,324.6z"/>
<path class="st1" d="M83.6,332.1c4-3.6,6.4-6.4,6.4-8.7c0.2-1.2-0.7-2.2-1.8-2.4c-0.1,0-0.3,0-0.4,0c-1.1,0.1-2.1,0.7-2.7,1.5
	l-1.6-1.6c1.1-1.4,2.9-2.2,4.7-2.2c2.4-0.2,4.5,1.6,4.7,4c0,0.2,0,0.4,0,0.6c0,2.7-2.2,5.6-4.9,8.2c0.7-0.1,1.7-0.2,2.4-0.2h3.2v2.5
	h-9.9L83.6,332.1z"/>
<path class="st1" d="M95.4,326.3c0-5.1,2-7.6,5-7.6s5,2.5,5,7.6s-2,7.7-5,7.7S95.4,331.4,95.4,326.3z M102.6,326.3
	c0-4.1-1-5.3-2.2-5.3s-2.2,1.2-2.2,5.3s1,5.4,2.2,5.4S102.6,330.5,102.6,326.3z"/>
<path class="st1" d="M106.8,332.5l1.3-1.8c0.8,0.7,1.9,1.2,3,1.2s1.6-0.5,1.6-1.2s-1.2-1.2-2.3-1.7c-1.4-0.5-3.1-1.4-3.1-3.3
	c0-2,1.6-3.4,4.2-3.4c1.4,0,2.7,0.5,3.8,1.4l-1.3,1.8c-0.7-0.6-1.5-0.9-2.4-1c-1,0-1.5,0.4-1.5,1.1c0,0.8,1.1,1.1,2.3,1.6
	c1.5,0.6,3.1,1.3,3.1,3.4S114,334,111,334C109.5,334,108,333.5,106.8,332.5z"/>
<path class="st0" d="M53,565.1h74.1V592H53V565.1z"/>
<path class="st1" d="M60.6,582.9h3.2v-9.4h-2.7v-1.9c1.2-0.2,2.4-0.6,3.4-1.2h2.2v12.4h2.8v2.4h-8.9V582.9z"/>
<path class="st1" d="M73.3,582.1c0.6,0.6,1.5,1,2.3,1c1.7,0,3-1.3,3.2-5c-0.7,0.9-1.8,1.5-3,1.6c-2.5,0-4.2-1.5-4.2-4.7
	c-0.2-2.6,1.8-4.8,4.3-4.9c0.1,0,0.2,0,0.3,0c2.8,0,5.3,2.2,5.3,7.3c0,5.6-2.7,8-5.7,8c-1.5,0.1-3-0.5-4.1-1.6L73.3,582.1z
	 M78.8,576.1c-0.3-2.7-1.3-3.7-2.5-3.7c-1.1,0-2,0.9-2,2.7s0.8,2.6,2.1,2.6C77.4,577.6,78.3,577,78.8,576.1L78.8,576.1z"/>
<path class="st1" d="M83.1,583.5l1.4-1.9c0.8,0.9,2,1.5,3.3,1.5c1.4,0.1,2.5-1,2.6-2.3c0-0.1,0-0.3,0-0.4c0.2-1.3-0.8-2.5-2.1-2.7
	c-0.1,0-0.3,0-0.4,0c-0.8,0-1.6,0.3-2.2,0.8l-1.3-0.9l0.4-7.2h7.9v2.5h-5.4L87,576c0.6-0.3,1.2-0.4,1.8-0.4c2.5,0,4.6,1.5,4.6,4.7
	c0.1,2.8-2,5.1-4.8,5.2c-0.1,0-0.3,0-0.4,0C86.2,585.6,84.4,584.9,83.1,583.5L83.1,583.5z"/>
<path class="st1" d="M95.2,577.8c0-5.1,2-7.6,5-7.6s5,2.5,5,7.6s-2,7.7-5,7.7S95.2,582.9,95.2,577.8z M102.4,577.8
	c0-4.1-1-5.3-2.2-5.3s-2.2,1.2-2.2,5.3s1,5.4,2.2,5.4C101.5,583.3,102.4,582,102.4,577.8z"/>
<path class="st1" d="M106.6,584l1.3-1.8c0.8,0.7,1.9,1.2,3,1.2s1.6-0.5,1.6-1.2s-1.2-1.2-2.3-1.7c-1.4-0.5-3.1-1.4-3.1-3.3
	c0-2,1.6-3.4,4.2-3.4c1.4,0,2.7,0.5,3.8,1.4l-1.4,1.8c-0.7-0.6-1.5-0.9-2.4-1c-1,0-1.5,0.4-1.5,1.1c0,0.8,1.1,1.1,2.3,1.6
	c1.5,0.6,3.1,1.3,3.1,3.4s-1.5,3.5-4.5,3.5C109.3,585.5,107.8,584.9,106.6,584z"/>
<path class="st0" d="M53.9,1116H128v26.9H53.9V1116z"/>
<path class="st1" d="M61.5,1133.8h3.2v-9.4H62v-1.8c1.2-0.2,2.4-0.6,3.4-1.2h2.2v12.4h2.8v2.4h-8.9V1133.8z"/>
<path class="st1" d="M74.2,1133c0.6,0.6,1.5,1,2.3,1c1.7,0,3-1.3,3.2-5c-0.7,0.9-1.8,1.5-3,1.6c-2.5,0-4.2-1.5-4.2-4.7
	c-0.2-2.6,1.8-4.8,4.3-4.9c0.1,0,0.2,0,0.3,0c2.8,0,5.3,2.2,5.3,7.3c0,5.6-2.7,8-5.7,8c-1.5,0-3-0.6-4.1-1.7L74.2,1133z M79.6,1127
	c-0.3-2.7-1.3-3.7-2.5-3.7c-1.1,0-2,0.9-2,2.7s0.8,2.6,2.1,2.6C78.2,1128.5,79.2,1127.9,79.6,1127L79.6,1127z"/>
<path class="st1" d="M84.3,1132.5c0-1.7,1-3.2,2.5-3.9v-0.1c-1.2-0.8-2-2.1-2-3.5c0-2.4,1.9-3.9,4.5-3.9s4.3,1.6,4.3,3.9
	c-0.1,1.4-0.8,2.6-1.9,3.4v0.1c1.5,0.7,2.5,2.3,2.5,4c0,2.2-2,4-5,4C86.4,1136.5,84.3,1134.8,84.3,1132.5L84.3,1132.5z M91.5,1132.4
	c0-1.5-1.4-2.2-3.3-3c-0.8,0.7-1.3,1.7-1.4,2.7c0,1.3,1.1,2.2,2.3,2.2c0.1,0,0.1,0,0.2,0c1.1,0.1,2-0.6,2.1-1.7
	C91.5,1132.5,91.5,1132.5,91.5,1132.4z M91.3,1125.2c0.1-1-0.7-2-1.7-2.1c-0.1,0-0.2,0-0.3,0c-0.9,0-1.8,0.7-1.8,1.6
	c0,0.1,0,0.1,0,0.2c0,1.4,1.1,2.1,2.7,2.7C90.9,1127.1,91.2,1126.1,91.3,1125.2L91.3,1125.2z"/>
<path class="st1" d="M96,1128.7c0-5.1,2-7.6,5-7.6s5,2.5,5,7.6s-2,7.7-5,7.7S96,1133.8,96,1128.7z M103.3,1128.7
	c0-4.1-1-5.3-2.2-5.3s-2.2,1.2-2.2,5.3s1,5.4,2.2,5.4S103.3,1132.9,103.3,1128.7z"/>
<path class="st1" d="M107.5,1134.9l1.3-1.8c0.8,0.7,1.9,1.2,3,1.2s1.6-0.5,1.6-1.2s-1.2-1.2-2.3-1.7c-1.4-0.5-3.1-1.4-3.1-3.3
	c0-2,1.6-3.4,4.2-3.4c1.4,0,2.7,0.5,3.8,1.4l-1.3,1.8c-0.7-0.6-1.5-0.9-2.4-1c-1,0-1.5,0.4-1.5,1.1c0,0.8,1.1,1.1,2.3,1.6
	c1.5,0.6,3.1,1.3,3.1,3.4s-1.5,3.5-4.5,3.5C110.2,1136.4,108.7,1135.8,107.5,1134.9z"/>
<path class="st0" d="M53.2,1202.3h74.1v26.9H53.2V1202.3z"/>
<path class="st1" d="M60.8,1220.2H64v-9.4h-2.7v-1.8c1.2-0.2,2.4-0.6,3.4-1.2h2.2v12.4h2.8v2.4h-8.9L60.8,1220.2z"/>
<path class="st1" d="M73.5,1219.4c0.6,0.6,1.5,1,2.3,1c1.7,0,3-1.3,3.2-5c-0.7,0.9-1.8,1.5-3,1.6c-2.5,0-4.2-1.5-4.2-4.7
	c-0.2-2.6,1.8-4.8,4.3-4.9c0.1,0,0.2,0,0.3,0c2.8,0,5.3,2.2,5.3,7.3c0,5.6-2.7,8-5.7,8c-1.5,0-3-0.6-4.1-1.7L73.5,1219.4z
	 M79,1213.4c-0.3-2.7-1.3-3.7-2.5-3.7c-1.1,0-2,0.9-2,2.7s0.8,2.6,2.1,2.6C77.6,1214.9,78.5,1214.3,79,1213.4L79,1213.4z"/>
<path class="st1" d="M85.3,1219.4c0.6,0.6,1.5,1,2.3,1c1.7,0,3-1.3,3.2-5c-0.7,0.9-1.8,1.5-3,1.6c-2.5,0-4.2-1.5-4.2-4.7
	c-0.2-2.6,1.8-4.8,4.3-4.9c0.1,0,0.2,0,0.3,0c2.8,0,5.3,2.2,5.3,7.3c0,5.6-2.7,8-5.7,8c-1.5,0-3-0.6-4.1-1.7L85.3,1219.4z
	 M90.8,1213.4c-0.3-2.7-1.3-3.7-2.5-3.7c-1.1,0-2,0.9-2,2.7s0.8,2.6,2.1,2.6C89.4,1214.9,90.3,1214.3,90.8,1213.4L90.8,1213.4z"/>
<path class="st1" d="M95.4,1215.1c0-5.1,2-7.6,5-7.6s5,2.5,5,7.6s-2,7.7-5,7.7S95.4,1220.2,95.4,1215.1z M102.6,1215.1
	c0-4.1-1-5.3-2.2-5.3s-2.2,1.2-2.2,5.3s1,5.4,2.2,5.4S102.6,1219.2,102.6,1215.1z"/>
<path class="st1" d="M106.8,1221.2l1.3-1.8c0.8,0.7,1.9,1.2,3,1.2s1.6-0.5,1.6-1.2s-1.2-1.2-2.3-1.7c-1.4-0.5-3.1-1.4-3.1-3.3
	c0-2,1.6-3.4,4.2-3.4c1.4,0,2.7,0.5,3.8,1.4l-1.3,1.8c-0.7-0.6-1.5-0.9-2.4-1c-1,0-1.5,0.4-1.5,1.1c0,0.8,1.1,1.1,2.3,1.6
	c1.5,0.6,3.1,1.3,3.1,3.4s-1.5,3.5-4.5,3.5C109.5,1222.7,108,1222.2,106.8,1221.2z"/>
<path class="st0" d="M52.3,983h74.1v26.9H52.3V983z"/>
<path class="st1" d="M59.9,1000.8h3.2v-9.4h-2.7v-1.8c1.2-0.2,2.4-0.6,3.4-1.2H66v12.4h2.8v2.4h-8.9V1000.8z"/>
<path class="st1" d="M72.6,1000c0.6,0.6,1.5,1,2.3,1c1.7,0,3-1.3,3.2-5c-0.7,0.9-1.8,1.5-3,1.6c-2.5,0-4.2-1.5-4.2-4.7
	c-0.2-2.6,1.8-4.8,4.3-4.9c0.1,0,0.2,0,0.3,0c2.8,0,5.3,2.2,5.3,7.3c0,5.6-2.7,8-5.7,8c-1.5,0.1-3-0.5-4.1-1.6L72.6,1000z M78.1,994
	c-0.3-2.7-1.3-3.7-2.5-3.7c-1.1,0-2,0.9-2,2.7s0.8,2.6,2.1,2.6C76.7,995.5,77.6,994.9,78.1,994L78.1,994z"/>
<path class="st1" d="M89.5,990.9h-6.7v-2.5h9.8v1.8c-3.4,4.2-3.9,7.2-4.1,13h-3C85.8,998.1,86.7,994.8,89.5,990.9z"/>
<path class="st1" d="M94.5,995.7c0-5.1,2-7.6,5-7.6s5,2.5,5,7.6s-2,7.7-5,7.7S94.5,1000.8,94.5,995.7z M101.7,995.7
	c0-4.1-1-5.3-2.2-5.3s-2.2,1.2-2.2,5.3s1,5.4,2.2,5.4C100.8,1001.2,101.7,999.9,101.7,995.7z"/>
<path class="st1" d="M105.9,1001.9l1.3-1.8c0.8,0.7,1.9,1.2,3,1.2s1.6-0.5,1.6-1.2s-1.2-1.2-2.3-1.7c-1.4-0.5-3.1-1.4-3.1-3.3
	c0-2,1.6-3.4,4.2-3.4c1.4,0,2.7,0.5,3.8,1.4l-1.4,1.8c-0.7-0.6-1.5-0.9-2.4-1c-1,0-1.5,0.4-1.5,1.1c0,0.8,1.1,1.1,2.3,1.6
	c1.5,0.6,3.1,1.3,3.1,3.4s-1.5,3.5-4.5,3.5C108.6,1003.4,107.1,1002.9,105.9,1001.9z"/>
<path class="st0" d="M52.8,715.8h74.1v26.9H52.8V715.8z"/>
<path class="st1" d="M60.4,733.6h3.2v-9.4h-2.7v-1.8c1.2-0.2,2.4-0.6,3.4-1.2h2.2v12.4h2.8v2.4h-8.9V733.6z"/>
<path class="st1" d="M73.1,732.8c0.6,0.6,1.5,1,2.3,1c1.7,0,3-1.3,3.2-5c-0.7,0.9-1.8,1.5-3,1.6c-2.5,0-4.2-1.5-4.2-4.7
	c-0.2-2.6,1.8-4.8,4.3-4.9c0.1,0,0.2,0,0.3,0c2.8,0,5.3,2.2,5.3,7.3c0,5.6-2.7,8-5.7,8c-1.5,0.1-3-0.5-4.1-1.6L73.1,732.8z
	 M78.6,726.8c-0.3-2.7-1.3-3.7-2.5-3.7c-1.1,0-2,0.9-2,2.7s0.8,2.6,2.1,2.6C77.2,728.3,78.1,727.7,78.6,726.8L78.6,726.8z"/>
<path class="st1" d="M91.5,724.3c-0.6-0.7-1.4-1-2.3-1.1c-1.7,0-3.1,1.3-3.2,5c0.7-0.9,1.8-1.5,3-1.6c2.5,0,4.2,1.5,4.2,4.7
	c0.2,2.6-1.8,4.8-4.3,4.9c-0.1,0-0.2,0-0.3,0c-2.8,0-5.3-2.3-5.3-7.5c0-5.5,2.7-7.9,5.7-7.9c1.5,0,3,0.6,4,1.7L91.5,724.3z
	 M90.6,731.3c0-1.8-0.8-2.6-2.1-2.6c-1,0.1-1.9,0.7-2.4,1.6c0.3,2.7,1.3,3.7,2.5,3.7S90.6,733.1,90.6,731.3L90.6,731.3z"/>
<path class="st1" d="M95,728.5c0-5.1,2-7.6,5-7.6s5,2.5,5,7.6s-2,7.7-5,7.7S95,733.6,95,728.5z M102.2,728.5c0-4.1-1-5.3-2.2-5.3
	s-2.2,1.2-2.2,5.3s1,5.4,2.2,5.4S102.2,732.7,102.2,728.5z"/>
<path class="st1" d="M106.4,734.7l1.3-1.8c0.8,0.7,1.9,1.2,3,1.2s1.6-0.5,1.6-1.2s-1.2-1.2-2.3-1.7c-1.4-0.5-3.1-1.4-3.1-3.3
	c0-2,1.6-3.4,4.2-3.4c1.4,0,2.7,0.5,3.8,1.4l-1.3,1.7c-0.7-0.6-1.5-0.9-2.4-1c-1,0-1.5,0.4-1.5,1.1c0,0.8,1.1,1.1,2.3,1.6
	c1.5,0.6,3.1,1.3,3.1,3.4s-1.5,3.5-4.5,3.5C109.1,736.2,107.6,735.7,106.4,734.7L106.4,734.7z"/>
<path class="st0" d="M53.2,480.1h74.1V507H53.2V480.1z"/>
<path class="st1" d="M60.8,497.9H64v-9.4h-2.7v-1.8c1.2-0.2,2.4-0.6,3.4-1.2h2.2v12.4h2.8v2.4h-8.9L60.8,497.9z"/>
<path class="st1" d="M73.5,497.1c0.6,0.6,1.5,1,2.3,1c1.7,0,3-1.3,3.2-5c-0.7,0.9-1.8,1.5-3,1.6c-2.5,0-4.2-1.5-4.2-4.7
	c-0.2-2.6,1.8-4.8,4.3-4.9c0.1,0,0.2,0,0.3,0c2.8,0,5.3,2.2,5.3,7.3c0,5.6-2.7,8-5.7,8c-1.5,0.1-3-0.5-4.1-1.6L73.5,497.1z
	 M79,491.1c-0.3-2.7-1.3-3.7-2.5-3.7c-1.1,0-2,0.9-2,2.7s0.8,2.6,2.1,2.6C77.6,492.6,78.5,492,79,491.1L79,491.1z"/>
<path class="st1" d="M94,496.4h-1.8v3.8h-2.7v-3.8h-6.3v-2l5.5-9h3.5v8.7H94V496.4z M89.5,494.2v-3c0-0.9,0.1-2.2,0.1-3.1h-0.1
	c-0.4,0.8-0.8,1.6-1.2,2.4l-2.4,3.7H89.5z"/>
<path class="st1" d="M95.4,492.8c0-5.1,2-7.6,5-7.6s5,2.5,5,7.6s-2,7.7-5,7.7S95.4,497.9,95.4,492.8z M102.6,492.8
	c0-4.1-1-5.3-2.2-5.3s-2.2,1.2-2.2,5.3s1,5.4,2.2,5.4S102.6,497,102.6,492.8z"/>
<path class="st1" d="M106.8,499l1.3-1.8c0.8,0.7,1.9,1.2,3,1.2s1.6-0.5,1.6-1.2s-1.2-1.2-2.3-1.7c-1.4-0.5-3.1-1.4-3.1-3.3
	c0-2,1.6-3.4,4.2-3.4c1.4,0,2.7,0.5,3.8,1.4L114,492c-0.7-0.6-1.5-0.9-2.4-1c-1,0-1.5,0.4-1.5,1.1c0,0.8,1.1,1.1,2.3,1.6
	c1.5,0.6,3.1,1.3,3.1,3.4s-1.5,3.5-4.5,3.5C109.5,500.5,108,500,106.8,499z"/>
<path class="st0" d="M53.2,396.9h74.1v26.9H53.2V396.9z"/>
<path class="st1" d="M60.8,414.7H64v-9.4h-2.7v-1.8c1.2-0.2,2.4-0.6,3.4-1.2h2.2v12.4h2.8v2.4h-8.9L60.8,414.7z"/>
<path class="st1" d="M73.5,413.9c0.6,0.6,1.5,1,2.3,1c1.7,0,3-1.3,3.2-5c-0.7,0.9-1.8,1.5-3,1.6c-2.5,0-4.2-1.5-4.2-4.7
	c-0.1-2.6,1.9-4.7,4.4-4.8c0.1,0,0.1,0,0.2,0c2.8,0,5.3,2.2,5.3,7.3c0,5.6-2.7,8-5.7,8c-1.5,0-3-0.6-4.1-1.7L73.5,413.9z M79,407.9
	c-0.3-2.7-1.3-3.7-2.5-3.7c-1.1,0-2,0.9-2,2.7s0.8,2.6,2.1,2.6C77.6,409.4,78.5,408.8,79,407.9L79,407.9z"/>
<path class="st1" d="M83.2,415.3l1.4-1.9c0.9,0.9,2,1.5,3.3,1.5c1.5,0,2.5-0.7,2.5-2.1s-0.9-2.4-4.1-2.4v-2.1c2.7,0,3.6-0.9,3.6-2.3
	c0.1-1-0.7-1.8-1.7-1.9c-0.1,0-0.2,0-0.3,0c-1.1,0.1-2.1,0.5-2.8,1.3l-1.5-1.8c1.2-1.1,2.8-1.8,4.5-1.8c2.9,0,4.8,1.4,4.8,3.9
	c0,1.6-1,2.9-2.5,3.4v0.1c1.7,0.3,3,1.9,3,3.6c0,2.7-2.4,4.3-5.2,4.3C86.4,417.5,84.5,416.7,83.2,415.3L83.2,415.3z"/>
<path class="st1" d="M95.4,409.6c0-5.1,2-7.6,5-7.6s5,2.5,5,7.6s-2,7.8-5,7.8S95.4,414.7,95.4,409.6z M102.6,409.6
	c0-4.1-1-5.3-2.2-5.3s-2.2,1.2-2.2,5.3s1,5.4,2.2,5.4S102.6,413.8,102.6,409.6z"/>
<path class="st1" d="M106.8,415.8l1.3-1.8c0.8,0.7,1.9,1.2,3,1.2s1.6-0.5,1.6-1.2s-1.2-1.2-2.3-1.7c-1.4-0.5-3.1-1.4-3.1-3.3
	c0-2,1.6-3.4,4.2-3.4c1.4,0,2.7,0.5,3.8,1.4l-1.3,1.8c-0.7-0.6-1.5-0.9-2.4-1c-1,0-1.5,0.4-1.5,1.1c0,0.8,1.1,1.1,2.3,1.6
	c1.5,0.6,3.1,1.3,3.1,3.4s-1.5,3.5-4.5,3.5C109.5,417.3,108,416.7,106.8,415.8z"/>
<path class="st1" d="M138.4,336.2h4.8v-14h-4v-2.7c1.8-0.3,3.6-0.9,5.2-1.9h3.3v18.6h4.2v3.6h-13.4L138.4,336.2z"/>
<path class="st1" d="M138.4,419.4h4.8v-14h-4v-2.7c1.8-0.3,3.6-0.9,5.2-1.9h3.3v18.6h4.2v3.6h-13.4L138.4,419.4z"/>
<path class="st1" d="M137.2,500.7c6-5.4,9.6-9.6,9.6-13c0-2.2-1.2-3.6-3.3-3.6c-1.6,0.1-3.1,1-4.1,2.3L137,484c2-2.2,4-3.4,7.1-3.4
	c4.2,0,7,2.7,7,6.8s-3.3,8.3-7.4,12.3c1.1-0.1,2.6-0.2,3.6-0.2h4.8v3.7h-14.9L137.2,500.7z"/>
<path class="st1" d="M155.3,497.8c0-2.5,1.5-4.8,3.8-5.8v-0.1c-1.8-1.1-2.9-3.1-2.9-5.3c0-3.6,2.8-5.9,6.7-5.9s6.4,2.4,6.4,5.9
	c-0.1,2-1.2,3.9-2.9,5.1v0.1c2.3,1.1,3.8,3.4,3.7,5.9c0,3.4-3,5.9-7.5,5.9C158.5,503.7,155.3,501.2,155.3,497.8L155.3,497.8z
	 M166.1,497.6c0-2.3-2-3.3-4.9-4.4c-1.2,1-2,2.5-2,4.1c0,2,1.6,3.3,3.7,3.3C164.7,500.6,166.1,499.5,166.1,497.6L166.1,497.6z
	 M165.7,486.9c0.1-1.6-1-2.9-2.6-3.1c-0.1,0-0.3,0-0.4,0c-1.4-0.1-2.6,1-2.7,2.5c0,0.1,0,0.2,0,0.3c0,2.1,1.7,3.1,4.1,4
	C165.1,489.6,165.7,488.3,165.7,486.9z"/>
<path class="st1" d="M136.5,588.5l2-2.8c1.3,1.4,3,2.2,4.9,2.2c2.1,0.1,3.8-1.5,3.9-3.5c0-0.2,0-0.4,0-0.6c0-2.6-1.5-4-3.8-4
	c-1.2,0-2.4,0.4-3.3,1.2l-2-1.3l0.6-10.8h12v3.7h-8.1l-0.4,4.7c0.8-0.4,1.7-0.6,2.7-0.6c3.7,0,6.8,2.2,6.8,7
	c0.2,4.1-3.1,7.6-7.2,7.8c-0.2,0-0.4,0-0.6,0C141.2,591.6,138.5,590.5,136.5,588.5L136.5,588.5z"/>
<path class="st1" d="M165.2,572.6h-10v-3.7H170v2.7c-5.2,6.3-5.9,10.8-6.2,19.5h-4.5C159.7,583.4,161,578.5,165.2,572.6L165.2,572.6
	z"/>
<path class="st1" d="M185.4,573.7c-0.9-1-2.1-1.6-3.4-1.6c-2.6,0-4.6,1.9-4.8,7.5c1.1-1.4,2.8-2.2,4.6-2.4c3.7,0,6.4,2.2,6.4,7
	c0,4.6-3.2,7.4-7,7.4c-4.2,0-8-3.4-8-11.2c0-8.3,4.1-11.8,8.6-11.8c2.3,0,4.4,0.9,6,2.5L185.4,573.7z M184.1,584.1
	c0-2.6-1.2-3.9-3.1-3.9c-1.5,0.1-2.9,1-3.6,2.3c0.4,4,1.9,5.6,3.8,5.6C182.7,588.2,184.1,586.8,184.1,584.1L184.1,584.1z"/>
<path class="st1" d="M138.1,736h4.8v-14h-4v-2.7c1.8-0.3,3.6-0.9,5.2-1.9h3.3V736h4.2v3.6h-13.4V736H138.1z"/>
<path class="st1" d="M155.1,743.6c2.3-0.9,3.6-2.4,3.6-4.1h-0.3c-1.4,0.1-2.7-1-2.8-2.4c0-0.1,0-0.1,0-0.2c0-1.5,1.2-2.6,2.7-2.6
	c0.1,0,0.1,0,0.2,0c2,0,3.2,1.6,3.2,4.3c0,3.5-2.1,6.2-5.7,7.4L155.1,743.6z"/>
<path class="st1" d="M177.3,722.1c-0.9-1-2.1-1.6-3.4-1.6c-2.6,0-4.6,1.9-4.8,7.5c1.1-1.4,2.8-2.2,4.6-2.4c3.7,0,6.4,2.2,6.4,7
	c0,4.6-3.2,7.4-7,7.4c-4.2,0-8-3.4-8-11.2c0-8.3,4.1-11.8,8.6-11.8c2.3,0,4.4,0.9,6,2.5L177.3,722.1z M175.9,732.6
	c0-2.6-1.2-3.9-3.1-3.9c-1.5,0.1-2.9,1-3.6,2.3c0.4,4,1.9,5.6,3.8,5.6C174.6,736.7,175.9,735.3,175.9,732.6z"/>
<path class="st1" d="M193.1,721.1h-10v-3.7h14.8v2.7c-5.2,6.3-5.9,10.8-6.2,19.5h-4.5C187.6,731.9,188.8,727,193.1,721.1
	L193.1,721.1z"/>
<path class="st1" d="M200.8,737.1c6-5.4,9.6-9.6,9.6-13c0-2.2-1.2-3.6-3.3-3.6c-1.6,0.1-3.1,1-4.1,2.3l-2.4-2.4c2-2.2,4-3.4,7-3.4
	c4.2,0,7,2.7,7,6.8s-3.3,8.3-7.4,12.3c1.1-0.1,2.6-0.2,3.6-0.2h4.8v3.7h-14.8L200.8,737.1z"/>
<path class="st1" d="M135.8,1005.3l2-2.8c1.3,1.4,3,2.2,4.9,2.2c2.1,0.1,3.8-1.5,3.9-3.5c0-0.2,0-0.4,0-0.6c0-2.6-1.5-4-3.8-4
	c-1.2,0-2.4,0.4-3.3,1.2l-2-1.3l0.6-10.8h12v3.7H142l-0.4,4.7c0.8-0.4,1.7-0.6,2.7-0.6c3.7,0,6.8,2.2,6.8,7c0.2,4.1-3.1,7.6-7.2,7.8
	c-0.2,0-0.4,0-0.6,0C140.5,1008.4,137.8,1007.3,135.8,1005.3L135.8,1005.3z"/>
<path class="st1" d="M155.5,1004.4h4.8v-14h-4v-2.7c1.8-0.3,3.6-0.9,5.2-1.9h3.3v18.6h4.2v3.6h-13.4L155.5,1004.4z"/>
<path class="st1" d="M172.3,996.8c0-7.7,3-11.4,7.5-11.4s7.5,3.8,7.5,11.4s-3,11.6-7.5,11.6S172.3,1004.4,172.3,996.8z M183.1,996.8
	c0-6.2-1.4-8-3.3-8s-3.4,1.8-3.4,8s1.4,8.2,3.4,8.2S183.1,1003,183.1,996.8L183.1,996.8z"/>
<path class="st1" d="M139,1135.8h4.8v-14h-4v-2.7c1.8-0.3,3.6-0.9,5.2-1.9h3.3v18.6h4.2v3.6H139V1135.8z"/>
<path class="st1" d="M155.3,1136.7l2-2.8c1.3,1.4,3,2.2,4.9,2.2c2.1,0.1,3.8-1.5,3.9-3.5c0-0.2,0-0.4,0-0.6c0-2.6-1.5-4-3.8-4
	c-1.2,0-2.4,0.4-3.3,1.2l-2-1.3l0.6-10.8h11.9v3.7h-8.1l-0.4,4.7c0.8-0.4,1.7-0.6,2.7-0.6c3.7,0,6.8,2.2,6.8,7
	c0.2,4.1-3,7.6-7.2,7.8c-0.2,0-0.4,0-0.6,0C160,1139.8,157.3,1138.7,155.3,1136.7L155.3,1136.7z"/>
<path class="st1" d="M176.4,1134.6c0.9,1,2.2,1.5,3.5,1.6c2.5,0,4.6-1.9,4.7-7.5c-1.1,1.4-2.8,2.3-4.6,2.4c-3.7,0-6.4-2.3-6.4-7
	s3.2-7.4,7-7.4c4.2,0,8,3.3,8,11c0,8.4-4.1,12-8.5,12c-2.3,0-4.5-0.9-6.1-2.5L176.4,1134.6z M184.6,1125.6c-0.4-4.1-1.9-5.6-3.8-5.6
	c-1.6,0-3,1.3-3,4.1s1.2,3.8,3.1,3.8C182.5,1127.9,183.9,1127,184.6,1125.6L184.6,1125.6z"/>
<path class="st1" d="M137.2,1224.8c6-5.4,9.6-9.6,9.6-13c0-2.2-1.2-3.6-3.3-3.6c-1.6,0.1-3.1,1-4.1,2.3l-2.4-2.4
	c2-2.2,4-3.4,7.1-3.4c4.2,0,7,2.7,7,6.8s-3.3,8.3-7.4,12.3c1.1-0.1,2.6-0.2,3.6-0.2h4.8v3.7h-14.9L137.2,1224.8z"/>
<path class="st1" d="M155.3,1221.9c0-2.5,1.5-4.8,3.8-5.8v-0.2c-1.8-1.1-2.9-3.1-2.9-5.3c0-3.6,2.8-5.8,6.7-5.8s6.4,2.4,6.4,5.9
	c-0.1,2-1.2,3.9-2.9,5.1v0.2c2.3,1.1,3.8,3.4,3.7,5.9c0,3.4-3,5.9-7.5,5.9C158.5,1227.8,155.3,1225.4,155.3,1221.9L155.3,1221.9z
	 M166.1,1221.7c0-2.3-2-3.3-4.9-4.4c-1.2,1-2,2.5-2,4.1c0,2,1.6,3.3,3.7,3.3C164.7,1224.7,166.1,1223.7,166.1,1221.7L166.1,1221.7z
	 M165.7,1211c0.1-1.6-1-2.9-2.6-3.1c-0.1,0-0.3,0-0.4,0c-1.4-0.1-2.6,1-2.7,2.5c0,0.1,0,0.2,0,0.3c0,2.1,1.7,3.1,4.1,4
	C165.1,1213.7,165.7,1212.4,165.7,1211L165.7,1211z"/>
<path class="st2" d="M53.9,1116h2.3v26.9h-2.3V1116z"/>
<path class="st2" d="M52.3,983h2.3v26.9h-2.3V983z"/>
<path class="st2" d="M52.8,715.8h2.3v26.9h-2.3V715.8z"/>
<path class="st2" d="M53.1,565.1h2.3V592h-2.3V565.1z"/>
<path class="st2" d="M53.2,480.1h2.3V507h-2.3V480.1z"/>
<path class="st2" d="M53.2,396.9h2.3v26.9h-2.3V396.9z"/>
<path class="st2" d="M53.2,313.6h2.3v26.9h-2.3V313.6z"/>
<path class="st2" d="M53.2,1202.3h2.3v26.9h-2.3V1202.3z"/>
</svg>
