<svg id="CGTN_LOGO_RGB_图像_复制" data-name="CGTN_LOGO_RGB 图像_复制" xmlns="http://www.w3.org/2000/svg" viewBox="0 0 792.47 210.89"><title>CGTNlogo</title><path d="M746.65,0h-1.11V130a12.79,12.79,0,0,1-1.58-1.28Q698.63,73.58,653.33,18.39L637.23,0H597V210.89h47.31v-132a11.45,11.45,0,0,1,1.42,1.28q16.08,19.75,32.14,39.54l75,91.2h39.65V0Z" fill="#bead62"/><path d="M174.25,155.88l-.27-.76c-.14-.43-.28-.8-.42-1.14l-1.13-3.07-6,2.83v0c-18.37,9.45-37.55,15-58.85,13.54C67.92,164.53,41.39,130,50.12,91.72c8-34.84,38.29-49.17,68.9-48.16a103.3,103.3,0,0,1,43.33,11.11c.15.08.28.12.42.19l2.95,1.39,19-37L180.23,17A175.75,175.75,0,0,0,153.64,6.55c-31-9.66-61.88-9.36-94.08,5.53h0a99.35,99.35,0,0,0-26.91,18l-.3.27h0c-1.74,1.65-3.45,3.38-5.1,5.19C5.24,59.71-3,88.39,1,120.35,5.43,155.7,23.35,183,56.11,198.14c41.78,19.31,83.3,15.7,123.6-4.27h0l7.09-3.62Z" fill="#bead62"/><path d="M486.48,0q-10.71,0-21.42,0H395.77V40.86h56.58c3.58,0,7.16,0,10.74,0h.33v170h48.06l-.18-57.68V71.9c0-10.32,0-20.64,0-31h65.32V0H531Q508.77,0,486.48,0Z" fill="#bead62"/><path d="M385.38,108.41c0-.23,0-.44,0-.65l-.11-6.25H341.16l.21,57.8s-2.08,2.54-9.11,4.44h0c-10.37,3.35-21,4.2-32.06,3.66-32.26-1.6-60.52-24.48-59.22-62.59,1.32-38.84,28.95-63,69.17-62.07a132.33,132.33,0,0,1,44.77,9.1l7.43,3L378,24.26l1.83-3.48a10.29,10.29,0,0,0,.46-1l1-2L375.65,15c-2.51-1.09-5-2.15-7.58-3.15A149.52,149.52,0,0,0,327.29,1.35c-18-2.21-35.73-1.92-52.93,2.19V3.47c-18.93,4.52-36,13-50.33,26.65-22.56,21.55-32.83,48.32-31.53,79.22,1.83,43.46,23.11,74.16,63,91.76,22.38,9.86,46,11.49,70,8.33,20.25-2.67,39.47-8.61,56.6-20.2a11,11,0,0,0,3.13-3.28,24.94,24.94,0,0,0,.06-2.81C385.21,158.15,385.25,133.4,385.38,108.41Z" fill="#bead62"/></svg>