<svg id="分组_29" data-name="分组 29" xmlns="http://www.w3.org/2000/svg" viewBox="0 0 24 24">
  <defs>
    <style>
      .cls-1 {
        fill: #1d62f2;
      }

      .cls-2 {
        fill: #fff;
      }
    </style>
  </defs>
  <circle id="椭圆形_copy_38" data-name="椭圆形 copy 38" class="cls-1" cx="12" cy="12" r="12"/>
  <g id="链接" transform="translate(6 6)">
    <path id="形状" class="cls-2" d="M2.88,12a2.816,2.816,0,0,1-2.006-.828l-.048-.047a2.842,2.842,0,0,1,0-4.012L2.615,5.325A3.95,3.95,0,0,0,2.9,6.877L1.747,8.033a1.537,1.537,0,0,0,0,2.173l.047.048a1.539,1.539,0,0,0,2.173,0L6.523,7.7a1.539,1.539,0,0,0,0-2.173l-.048-.047a1.52,1.52,0,0,0-.306-.235l.936-.936a2.9,2.9,0,0,1,.29.251l.047.048a2.844,2.844,0,0,1,0,4.011L4.886,11.173A2.816,2.816,0,0,1,2.88,12ZM4.9,7.694h0a2.833,2.833,0,0,1-.289-.251L4.558,7.4a2.84,2.84,0,0,1,0-4.011L7.114.827a2.847,2.847,0,0,1,4.012,0l.047.048a2.844,2.844,0,0,1,0,4.011L9.384,6.674A3.95,3.95,0,0,0,9.1,5.123l1.156-1.157a1.537,1.537,0,0,0,0-2.173l-.047-.047a1.539,1.539,0,0,0-2.173,0L5.477,4.3a1.537,1.537,0,0,0,0,2.173l.047.048a1.538,1.538,0,0,0,.306.235L4.9,7.693Z" transform="translate(0 0)"/>
  </g>
</svg>
