<?xml version="1.0" encoding="utf-8"?>
<!-- Generator: Adobe Illustrator 22.1.0, SVG Export Plug-In . SVG Version: 6.00 Build 0)  -->
<svg version="1.1" id="图层_1" xmlns="http://www.w3.org/2000/svg" xmlns:xlink="http://www.w3.org/1999/xlink" x="0px" y="0px"
	 viewBox="0 0 1280 800" style="enable-background:new 0 0 1280 800;" xml:space="preserve">
<style type="text/css">
	.st0{fill:#333333;}
</style>
<title>网页版1280*800</title>
<path class="st0" d="M49.4,115.3h4.9c3.3,0,5.8,1.1,5.8,4.6s-2.5,4.9-5.7,4.9h-2v5.3h-3V115.3z M54.1,122.5c2,0,3-0.9,3-2.6
	s-1.1-2.3-3.1-2.3h-1.7v4.9H54.1z"/>
<path class="st0" d="M62.5,114.1h2.9v4l-0.1,2.1c0.9-1,2.2-1.6,3.5-1.6c2.4,0,3.5,1.7,3.5,4.5v7h-2.9v-6.6c0-1.7-0.5-2.3-1.6-2.3
	c-0.9,0.1-1.8,0.5-2.3,1.3v7.7h-2.9L62.5,114.1L62.5,114.1z"/>
<path class="st0" d="M75.5,115.3h4.1c4.5,0,7.3,2.3,7.3,7.3s-2.8,7.5-7.2,7.5h-4.2C75.5,130.1,75.5,115.3,75.5,115.3z M79.4,127.7
	c2.8,0,4.5-1.5,4.5-5.1s-1.7-5-4.5-5h-0.9v10.1H79.4z"/>
<path class="st0" d="M564.1,131.8l2-2.8c1.3,1.4,3,2.2,4.9,2.2c2.1,0.1,3.8-1.5,3.9-3.5c0-0.2,0-0.4,0-0.6c0-2.6-1.5-4-3.8-4
	c-1.2,0-2.4,0.4-3.3,1.2l-2-1.3l0.6-10.8h11.9v3.7h-8.1l-0.4,4.7c0.8-0.4,1.7-0.6,2.7-0.6c3.7,0,6.8,2.2,6.8,7
	c0.2,4.1-3,7.6-7.2,7.8c-0.2,0-0.4,0-0.6,0C568.8,134.8,566,133.7,564.1,131.8z"/>
<path class="st0" d="M582.7,128.8c0-2.5,1.5-4.8,3.8-5.8v-0.2c-1.8-1.1-2.9-3.1-2.9-5.3c0-3.6,2.8-5.8,6.7-5.8s6.5,2.4,6.5,5.9
	c-0.1,2-1.2,3.9-2.9,5.1v0.2c2.3,1.1,3.8,3.4,3.7,5.9c0,3.4-3,5.9-7.5,5.9C585.9,134.8,582.7,132.3,582.7,128.8z M593.5,128.7
	c0-2.3-2-3.3-4.9-4.4c-1.2,1-2,2.5-2,4.1c0,2,1.7,3.3,3.7,3.3C592.1,131.7,593.5,130.6,593.5,128.7z M593.1,118
	c0.2-1.6-1-2.9-2.5-3.1c-0.1,0-0.3,0-0.4,0c-1.4-0.1-2.6,1-2.7,2.5c0,0.1,0,0.2,0,0.3c0,2.1,1.7,3.1,4,4
	C592.5,120.7,593,119.4,593.1,118z"/>
<path class="st0" d="M616.1,128.6h-2.6v5.8h-4.1v-5.8h-9.5v-3l8.3-13.4h5.3v13.1h2.6V128.6z M609.3,125.2v-4.5
	c0-1.3,0.1-3.3,0.2-4.6h-0.1c-0.5,1.2-1.1,2.4-1.8,3.6l-3.5,5.5H609.3z"/>
<path class="st0" d="M564.7,339.2c0-2.5,1.5-4.8,3.8-5.8v-0.1c-1.8-1.1-2.9-3.1-2.9-5.3c0-3.6,2.8-5.9,6.7-5.9s6.5,2.4,6.5,5.9
	c-0.1,2-1.2,3.9-2.8,5.1v0.1c2.3,1.1,3.8,3.4,3.7,5.9c0,3.4-3,5.9-7.5,5.9C567.9,345.1,564.7,342.7,564.7,339.2z M575.5,339
	c0-2.3-2-3.3-4.9-4.4c-1.2,1-2,2.5-2,4.1c0,2,1.7,3.3,3.7,3.3C574.1,342,575.5,341,575.5,339L575.5,339z M575.1,328.3
	c0.1-1.6-1-2.9-2.6-3.1c-0.1,0-0.3,0-0.4,0c-1.4-0.1-2.6,1-2.7,2.5c0,0.1,0,0.2,0,0.3c0,2.1,1.7,3.1,4,4
	C574.5,331,575.1,329.7,575.1,328.3L575.1,328.3z"/>
<path class="st0" d="M582,342l2.1-2.8c1.3,1.4,3.1,2.2,5,2.3c2.2,0,3.8-1.1,3.8-3.1c0-2.2-1.3-3.5-6.1-3.5v-3.2
	c4.1,0,5.4-1.4,5.4-3.4c0-1.7-1.1-2.8-3-2.8c-1.6,0.1-3.1,0.8-4.2,2l-2.2-2.7c1.8-1.7,4.2-2.7,6.7-2.7c4.3,0,7.2,2.1,7.2,5.9
	c0,2.3-1.5,4.4-3.7,5.1v0.1c2.6,0.5,4.5,2.8,4.4,5.5c0,4.1-3.6,6.5-7.8,6.5C586.7,345.2,583.9,344.1,582,342z"/>
<path class="st0" d="M52.4,325.6h3.3l2.5,6.9c0.3,0.9,0.6,1.9,0.9,2.9h0.1c0.3-1,0.6-1.9,0.9-2.9l2.5-6.9h3.3v14.8h-2.7v-6.2
	c0-1.4,0.2-3.5,0.4-4.9h-0.1l-1.2,3.5L60,339h-1.7l-2.3-6.2l-1.2-3.5h-0.1c0.1,1.4,0.4,3.5,0.4,4.9v6.2h-2.7
	C52.4,340.4,52.4,325.6,52.4,325.6z"/>
<path class="st0" d="M68.6,337.4c0-2.4,1.9-3.7,6.4-4.1c0-1.1-0.5-1.9-1.9-1.9c-1.1,0.1-2.2,0.4-3.1,1.1l-1.1-1.9
	c1.4-0.9,3-1.4,4.7-1.5c2.8,0,4.3,1.7,4.3,4.9v6.5h-2.4l-0.2-1.2h-0.1c-0.9,0.9-2.1,1.4-3.3,1.5c-1.8,0.1-3.3-1.2-3.4-3
	C68.6,337.6,68.6,337.5,68.6,337.4z M75.1,337.3V335c-2.7,0.4-3.6,1.1-3.6,2.1s0.6,1.3,1.5,1.3C73.8,338.3,74.5,337.9,75.1,337.3z"
	/>
<path class="st0" d="M80,339.1l1.3-1.8c0.8,0.7,1.9,1.2,3,1.2s1.6-0.5,1.6-1.2s-1.2-1.2-2.3-1.7c-1.4-0.5-3.1-1.4-3.1-3.3
	c0-2,1.6-3.4,4.2-3.4c1.4,0,2.7,0.5,3.8,1.4l-1.3,1.8c-0.7-0.6-1.5-0.9-2.4-1c-1,0-1.5,0.4-1.5,1.1c0,0.8,1.1,1.1,2.3,1.6
	c1.5,0.6,3.1,1.3,3.1,3.4s-1.5,3.5-4.5,3.5C82.7,340.6,81.2,340.1,80,339.1z"/>
<path class="st0" d="M90.9,336.5v-5h-1.6v-2.2l1.7-0.1l0.3-3h2.5v3h2.8v2.3h-2.8v5c0,1.3,0.5,1.9,1.5,1.9c0.4,0,0.7-0.1,1.1-0.2
	l0.5,2.1c-0.8,0.3-1.6,0.4-2.4,0.4C91.9,340.7,90.9,339,90.9,336.5z"/>
<path class="st0" d="M97.8,334.8c0-3.6,2.5-5.9,5.2-5.9c3.1,0,4.7,2.3,4.7,5.4c0,0.5,0,0.9-0.1,1.3h-6.9c0.1,1.6,1.5,2.9,3.1,2.8
	l0,0c0.9,0,1.8-0.3,2.5-0.8l1,1.8c-1.2,0.8-2.5,1.2-3.9,1.2C100.2,340.7,97.8,338.5,97.8,334.8z M105.2,333.7c0-1.5-0.7-2.5-2.1-2.5
	c-1.3,0-2.4,1.1-2.4,2.5H105.2z"/>
<path class="st0" d="M110.1,329.2h2.4l0.2,2h0.1c0.6-1.3,1.8-2.1,3.2-2.3c0.5,0,0.9,0.1,1.3,0.2l-0.5,2.5c-0.4-0.1-0.8-0.2-1.2-0.2
	c-0.9,0-1.9,0.6-2.6,2.2v6.7h-2.9V329.2z"/>
<path class="st0" d="M564.6,623.5l2-2.8c1.3,1.4,3,2.2,4.9,2.2c2.1,0.1,3.8-1.5,3.9-3.5c0-0.2,0-0.4,0-0.6c0-2.6-1.5-4-3.8-4
	c-1.2,0-2.4,0.4-3.3,1.2l-2-1.3l0.6-10.8h11.9v3.7h-8.1l-0.4,4.7c0.8-0.4,1.7-0.6,2.7-0.6c3.7,0,6.8,2.2,6.8,7
	c0.2,4.1-3,7.6-7.2,7.8c-0.2,0-0.4,0-0.6,0C569.2,626.6,566.5,625.5,564.6,623.5z"/>
<path class="st0" d="M583,623.5c6-5.4,9.6-9.6,9.6-13c0-2.2-1.2-3.6-3.3-3.6c-1.6,0.1-3.1,1-4.1,2.3l-2.4-2.4c2-2.2,4-3.4,7-3.4
	c4.2,0,7,2.7,7,6.8s-3.3,8.3-7.4,12.3c1.1-0.1,2.6-0.2,3.6-0.2h4.8v3.7H583V623.5z"/>
<path class="st0" d="M52.4,607h4.9c3,0,5.4,0.9,5.4,3.6c0.1,1.4-0.7,2.6-2,3.2v0.1c1.7,0.3,2.9,1.8,2.8,3.5c0,3-2.5,4.4-5.7,4.4
	h-5.3V607H52.4z M57,613c1.9,0,2.7-0.8,2.7-1.9s-0.9-1.8-2.7-1.8h-1.7v3.8L57,613L57,613z M57.3,619.5c2,0,3.1-0.7,3.1-2.3
	s-1.1-2-3.1-2h-2v4.3H57.3z"/>
<path class="st0" d="M65.2,618.8c0-2.4,1.9-3.7,6.4-4.1c0-1.1-0.5-1.9-1.9-1.9c-1.1,0.1-2.2,0.4-3.1,1.1l-1.1-1.9
	c1.4-0.9,3-1.4,4.7-1.5c2.8,0,4.3,1.7,4.3,4.9v6.5h-2.4l-0.2-1.2h-0.1c-0.9,0.9-2.1,1.4-3.4,1.5c-1.8,0.1-3.2-1.3-3.3-3
	C65.2,619,65.2,618.9,65.2,618.8z M71.6,618.7v-2.3c-2.7,0.4-3.6,1.1-3.6,2.1s0.6,1.3,1.5,1.3C70.3,619.7,71.1,619.3,71.6,618.7z"/>
<path class="st0" d="M76.9,616.2c-0.2-3.1,2.2-5.7,5.3-5.9c0.1,0,0.3,0,0.5,0c1.2,0,2.4,0.4,3.3,1.2l-1.4,1.9
	c-0.5-0.5-1.1-0.7-1.7-0.7c-1.7,0-2.9,1.4-2.9,3.5s1.2,3.5,2.8,3.5c0.8,0,1.6-0.4,2.2-0.9l1.2,1.9c-1,0.9-2.3,1.4-3.7,1.4
	C79.2,622.1,76.9,619.9,76.9,616.2z"/>
<path class="st0" d="M88.1,605.8H91v4l-0.1,2.2c0.9-1,2.2-1.6,3.5-1.6c2.4,0,3.5,1.7,3.5,4.5v7H95v-6.6c0-1.7-0.5-2.3-1.6-2.3
	c-0.9,0-1.8,0.5-2.4,1.2v7.7h-2.9V605.8z"/>
<path class="st0" d="M100.2,616.2c0-3.6,2.5-5.9,5.2-5.9c3.1,0,4.7,2.3,4.7,5.4c0,0.4,0,0.9-0.1,1.3h-6.9c0.1,1.6,1.5,2.9,3.1,2.8
	l0,0c0.9,0,1.8-0.3,2.5-0.8l1,1.8c-1.2,0.8-2.5,1.2-3.9,1.2C102.6,622.1,100.2,619.9,100.2,616.2z M107.6,615.1
	c0-1.5-0.7-2.5-2.1-2.5c-1.3,0-2.4,1.1-2.4,2.5H107.6z"/>
<path class="st0" d="M112.5,618.7v-12.8h2.9v13c0,0.7,0.3,0.9,0.6,0.9c0.1,0,0.3,0,0.4,0l0.4,2.2c-0.5,0.2-1,0.3-1.5,0.3
	C113.2,622.1,112.5,620.7,112.5,618.7z"/>
<path class="st0" d="M118.1,616.2c0-3.7,2.6-5.9,5.4-5.9s5.4,2.2,5.4,5.9s-2.6,5.9-5.4,5.9S118.1,619.9,118.1,616.2z M125.9,616.2
	c0-2.1-0.9-3.5-2.4-3.5s-2.4,1.4-2.4,3.5s0.9,3.5,2.4,3.5S125.9,618.3,125.9,616.2z"/>
<path class="st0" d="M131.3,610.6h2.4l0.2,2h0.1c0.6-1.3,1.8-2.1,3.2-2.3c0.5,0,0.9,0.1,1.3,0.2L138,613c-0.4-0.1-0.8-0.2-1.2-0.2
	c-0.9,0-1.9,0.6-2.6,2.2v6.7h-2.9V610.6z"/>
<path class="st0" d="M1175.3,130.8h4.8v-14h-4V114c1.8-0.3,3.6-0.9,5.2-1.9h3.3v18.6h4.2v3.6h-13.3L1175.3,130.8z"/>
<path class="st0" d="M1191.6,131.7l2.1-2.8c1.3,1.4,3.1,2.2,4.9,2.3c2.2,0,3.8-1.1,3.8-3.1c0-2.2-1.3-3.5-6.1-3.5v-3.2
	c4.1,0,5.4-1.4,5.4-3.4c0-1.7-1.1-2.8-3-2.8c-1.6,0.1-3.1,0.8-4.2,2l-2.2-2.7c1.8-1.7,4.2-2.7,6.7-2.7c4.3,0,7.2,2.1,7.2,5.9
	c0,2.3-1.5,4.4-3.7,5.1v0.2c2.6,0.5,4.5,2.8,4.4,5.5c0,4.1-3.6,6.4-7.8,6.4C1196.2,134.9,1193.5,133.8,1191.6,131.7z"/>
<path class="st0" d="M1210.2,128.8c0-2.5,1.5-4.8,3.8-5.8v-0.2c-1.8-1.1-2.9-3.1-2.9-5.3c0-3.6,2.8-5.8,6.7-5.8s6.4,2.4,6.4,5.9
	c-0.1,2-1.2,3.9-2.8,5.1v0.2c2.3,1.1,3.8,3.4,3.7,5.9c0,3.4-3,5.9-7.5,5.9C1213.3,134.8,1210.2,132.3,1210.2,128.8z M1220.9,128.7
	c0-2.3-2-3.3-4.9-4.4c-1.2,1-2,2.5-2,4.1c0,2,1.7,3.3,3.7,3.3C1219.6,131.7,1220.9,130.6,1220.9,128.7L1220.9,128.7z M1220.6,117.9
	c0.1-1.6-1-2.9-2.6-3.1c-0.1,0-0.3,0-0.4,0c-1.4-0.1-2.6,1-2.7,2.5c0,0.1,0,0.2,0,0.3c0,2.1,1.7,3.1,4,4
	C1219.9,120.7,1220.5,119.4,1220.6,117.9L1220.6,117.9z"/>
<path class="st0" d="M668.6,126.3h-4.8l-1,3.8h-3l4.8-14.8h3.5l4.8,14.8h-3.1L668.6,126.3z M667.9,124l-0.4-1.6
	c-0.5-1.5-0.9-3.2-1.3-4.8h-0.1c-0.4,1.6-0.8,3.3-1.3,4.8l-0.4,1.6H667.9z"/>
<path class="st0" d="M673.5,128.8l1.3-1.8c0.8,0.7,1.9,1.2,3,1.2s1.6-0.5,1.6-1.2s-1.2-1.2-2.3-1.7c-1.4-0.5-3.1-1.4-3.1-3.3
	c0-2,1.6-3.4,4.2-3.4c1.4,0,2.7,0.5,3.8,1.4l-1.3,1.8c-0.7-0.6-1.5-0.9-2.4-1c-1,0-1.5,0.4-1.5,1.1c0,0.8,1.1,1.1,2.3,1.6
	c1.5,0.6,3.1,1.3,3.1,3.4c0,2.1-1.5,3.5-4.5,3.5C676.2,130.3,674.7,129.7,673.5,128.8z"/>
<path class="st0" d="M683.4,128.8l1.3-1.8c0.8,0.7,1.9,1.2,3,1.2s1.6-0.5,1.6-1.2s-1.2-1.2-2.3-1.7c-1.4-0.5-3.1-1.4-3.1-3.3
	c0-2,1.6-3.4,4.2-3.4c1.4,0,2.8,0.5,3.8,1.4l-1.3,1.8c-0.7-0.6-1.5-0.9-2.4-1c-1,0-1.5,0.4-1.5,1.1c0,0.8,1.1,1.1,2.3,1.6
	c1.5,0.6,3.1,1.3,3.1,3.4c0,2.1-1.5,3.5-4.5,3.5C686.2,130.3,684.6,129.7,683.4,128.8z"/>
<path class="st0" d="M693.7,124.5c0-3.7,2.6-5.9,5.4-5.9s5.4,2.2,5.4,5.9s-2.6,5.9-5.4,5.9S693.7,128.2,693.7,124.5z M701.5,124.5
	c0-2.1-0.9-3.5-2.4-3.5s-2.4,1.4-2.4,3.5s0.9,3.5,2.4,3.5S701.5,126.6,701.5,124.5z"/>
<path class="st0" d="M706.2,124.5c-0.2-3.1,2.2-5.7,5.3-5.9c0.2,0,0.3,0,0.5,0c1.2,0,2.4,0.4,3.3,1.2l-1.4,1.9
	c-0.5-0.5-1.1-0.7-1.7-0.7c-1.7,0-2.9,1.4-2.9,3.5s1.2,3.5,2.8,3.5c0.8,0,1.6-0.4,2.2-0.9l1.2,1.9c-1,0.9-2.3,1.4-3.7,1.4
	C708.6,130.3,706.2,128.2,706.2,124.5z"/>
<path class="st0" d="M717.2,115.5c0.1-1,0.9-1.7,1.9-1.6c0.9,0.1,1.6,0.8,1.6,1.6c-0.1,1-0.9,1.7-1.9,1.6
	C717.9,117,717.2,116.3,717.2,115.5z M717.5,118.9h2.9v11.2h-2.9V118.9z"/>
<path class="st0" d="M723,127c0-2.4,1.9-3.7,6.5-4.1c0.1-1-0.6-1.8-1.5-1.9c-0.1,0-0.2,0-0.4,0c-1.1,0.1-2.2,0.4-3.1,1.1l-1.1-1.9
	c1.4-0.9,3-1.4,4.7-1.5c2.8,0,4.3,1.7,4.3,4.9v6.5H730l-0.2-1.2h-0.1c-0.9,0.9-2.1,1.4-3.4,1.5c-1.8,0.1-3.2-1.3-3.3-3
	C723,127.2,723,127.1,723,127z M729.5,126.9v-2.3c-2.7,0.4-3.7,1.1-3.7,2.1s0.6,1.3,1.5,1.3C728.1,128,728.9,127.6,729.5,126.9
	L729.5,126.9z"/>
<path class="st0" d="M735.4,126.1v-5h-1.6V119l1.7-0.1l0.3-3h2.5v3h2.8v2.3h-2.8v5c0,1.3,0.5,1.9,1.5,1.9c0.4,0,0.7-0.1,1.1-0.2
	l0.5,2.1c-0.8,0.3-1.6,0.4-2.4,0.4C736.4,130.3,735.4,128.7,735.4,126.1z"/>
<path class="st0" d="M742.3,124.5c0-3.6,2.5-5.9,5.2-5.9c3.1,0,4.7,2.3,4.7,5.4c0,0.5,0,0.9-0.1,1.3h-6.9c0.1,1.6,1.5,2.9,3.1,2.8
	l0,0c0.9,0,1.8-0.3,2.5-0.8l1,1.8c-1.2,0.8-2.5,1.2-3.9,1.2C744.7,130.3,742.3,128.2,742.3,124.5z M749.7,123.3
	c0-1.5-0.7-2.5-2.1-2.5c-1.3,0-2.4,1.1-2.4,2.5H749.7z"/>
<path class="st0" d="M754,124.5c0-3.7,2.3-5.9,4.7-5.9c1.1,0,2.1,0.4,2.8,1.2l-0.1-1.8v-3.9h2.9v16H762l-0.2-1.2h-0.1
	c-0.8,0.9-1.9,1.4-3.1,1.4C755.8,130.3,754,128.1,754,124.5z M761.4,126.8v-4.9c-0.6-0.5-1.3-0.8-2.1-0.8c-1.3,0-2.3,1.2-2.3,3.4
	s0.8,3.5,2.3,3.5C760.2,127.9,761,127.5,761.4,126.8L761.4,126.8z"/>
<path class="st0" d="M771.5,122.7c0-4.9,3.1-7.7,6.9-7.7c1.6,0,3.2,0.7,4.3,1.9l-1.6,1.9c-0.7-0.8-1.7-1.2-2.7-1.2
	c-2.2,0-3.9,1.9-3.9,5.1s1.5,5.2,3.9,5.2c1.2,0,2.3-0.6,3.1-1.5l1.6,1.8c-1.2,1.4-2.9,2.2-4.7,2.2
	C774.6,130.3,771.5,127.7,771.5,122.7z"/>
<path class="st0" d="M784.5,124.5c0-3.7,2.6-5.9,5.4-5.9s5.4,2.2,5.4,5.9s-2.6,5.9-5.4,5.9S784.5,128.2,784.5,124.5z M792.2,124.5
	c0-2.1-0.9-3.5-2.4-3.5s-2.4,1.4-2.4,3.5s0.9,3.5,2.4,3.5S792.2,126.6,792.2,124.5z"/>
<path class="st0" d="M797.7,126.9v-12.8h2.9v13c0,0.7,0.3,0.9,0.6,0.9c0.1,0,0.3,0,0.4,0l0.4,2.2c-0.5,0.2-1,0.3-1.5,0.3
	C798.4,130.3,797.7,129,797.7,126.9z"/>
<path class="st0" d="M804,126.9v-12.8h2.9v13c0,0.7,0.3,0.9,0.6,0.9c0.1,0,0.3,0,0.4,0l0.4,2.2c-0.5,0.2-1,0.3-1.5,0.3
	C804.7,130.3,804,129,804,126.9z"/>
<path class="st0" d="M809.6,124.5c0-3.6,2.5-5.9,5.2-5.9c3.1,0,4.7,2.3,4.7,5.4c0,0.5,0,0.9-0.1,1.3h-6.9c0.1,1.6,1.5,2.9,3.1,2.8
	l0,0c0.9,0,1.8-0.3,2.5-0.8l1,1.8c-1.2,0.8-2.5,1.2-3.9,1.2C812,130.3,809.6,128.2,809.6,124.5z M817,123.3c0-1.5-0.7-2.5-2.1-2.5
	c-1.3,0-2.4,1.1-2.4,2.5H817z"/>
<path class="st0" d="M820.9,132c0.1-1,0.7-1.9,1.6-2.3v-0.1c-0.6-0.4-1-1.1-1-1.9c0.1-0.9,0.5-1.6,1.2-2.1v-0.1
	c-0.9-0.7-1.5-1.8-1.5-2.9c0-2.6,2.1-4.1,4.5-4.1c0.6,0,1.1,0.1,1.7,0.3h4v2.2h-1.9c0.4,0.5,0.5,1.1,0.5,1.7c0,2.5-1.9,3.8-4.3,3.8
	c-0.5,0-1-0.1-1.4-0.3c-0.3,0.2-0.5,0.6-0.5,1c0,0.6,0.4,0.9,1.8,0.9h1.9c2.7,0,4.2,0.8,4.2,2.8c0,2.3-2.3,4-6.1,4
	C823,134.9,820.9,134,820.9,132z M828.9,131.4c0-0.8-0.7-1-1.9-1h-1.4c-0.5,0-1,0-1.6-0.2c-0.4,0.3-0.7,0.8-0.7,1.3
	c0,0.9,1,1.5,2.7,1.5S828.9,132.3,828.9,131.4L828.9,131.4z M827.6,122.6c0-1.3-0.7-2.1-1.8-2.1s-1.8,0.7-1.8,2.1
	c-0.1,1,0.6,1.9,1.6,2c0.1,0,0.1,0,0.2,0C826.8,124.7,827.5,124,827.6,122.6L827.6,122.6z"/>
<path class="st0" d="M832.5,124.5c0-3.6,2.5-5.9,5.2-5.9c3.1,0,4.7,2.3,4.7,5.4c0,0.5,0,0.9-0.2,1.3h-6.9c0.1,1.6,1.5,2.9,3.1,2.8
	l0,0c0.9,0,1.8-0.3,2.5-0.8l1,1.8c-1.2,0.8-2.5,1.2-3.9,1.2C835,130.3,832.5,128.2,832.5,124.5z M839.9,123.3c0-1.5-0.7-2.5-2.1-2.5
	c-1.3,0-2.4,1.1-2.4,2.5H839.9z"/>
<path class="st0" d="M848.9,122.7c0-4.9,3.2-7.7,7.1-7.7c1.7,0,3.4,0.7,4.6,1.9l-1.6,1.9c-0.8-0.8-1.8-1.3-2.9-1.2
	c-2.5,0-4.2,1.9-4.2,5.1s1.5,5.2,4.4,5.2c0.7,0,1.3-0.2,1.9-0.6v-2.9h-2.6V122h5.3v6.7c-1.3,1.2-3,1.8-4.8,1.8
	C852,130.3,848.9,127.7,848.9,122.7z"/>
<path class="st0" d="M863.7,118.9h2.4l0.2,2h0.1c0.6-1.3,1.8-2.1,3.2-2.3c0.5,0,0.9,0.1,1.3,0.2l-0.5,2.5c-0.4-0.1-0.8-0.2-1.2-0.2
	c-0.9,0-1.9,0.6-2.6,2.2v6.7h-2.9V118.9z"/>
<path class="st0" d="M871.3,127c0-2.4,1.9-3.7,6.4-4.1c0-1.1-0.5-1.9-1.9-1.9c-1.1,0.1-2.2,0.4-3.1,1.1l-1.1-1.9
	c1.4-0.9,3-1.4,4.7-1.5c2.8,0,4.3,1.7,4.3,4.9v6.5h-2.4l-0.2-1.2l0,0c-0.9,0.9-2.1,1.4-3.4,1.5c-1.8,0.1-3.3-1.2-3.3-3
	C871.3,127.2,871.3,127.1,871.3,127z M877.7,126.9v-2.3c-2.7,0.4-3.6,1.1-3.6,2.1s0.6,1.3,1.5,1.3
	C876.4,128,877.2,127.6,877.7,126.9L877.7,126.9z"/>
<path class="st0" d="M883,124.5c0-3.7,2.3-5.9,4.7-5.9c1.1,0,2.1,0.4,2.8,1.2l-0.1-1.8v-3.9h3v16H891l-0.2-1.2h-0.1
	c-0.8,0.9-1.9,1.4-3.1,1.4C884.8,130.3,883,128.1,883,124.5z M890.4,126.8v-4.9c-0.6-0.5-1.3-0.8-2.1-0.8c-1.3,0-2.3,1.2-2.3,3.4
	s0.8,3.5,2.3,3.5C889.2,127.9,890,127.5,890.4,126.8L890.4,126.8z"/>
<path class="st0" d="M896.4,125.9v-7h2.9v6.6c0,1.7,0.5,2.3,1.6,2.3c1,0,1.8-0.6,2.3-1.4v-7.6h3V130h-2.4l-0.2-1.6h-0.1
	c-0.8,1.2-2.2,1.9-3.6,1.9C897.5,130.3,896.4,128.7,896.4,125.9z"/>
<path class="st0" d="M908.7,127c0-2.4,1.9-3.7,6.4-4.1c0-1.1-0.5-1.9-1.9-1.9c-1.1,0.1-2.2,0.4-3.1,1.1l-1.1-1.9
	c1.4-0.9,3-1.4,4.7-1.5c2.8,0,4.3,1.7,4.3,4.9v6.5h-2.4l-0.2-1.2h-0.1c-0.9,0.9-2.1,1.4-3.4,1.5c-1.8,0.1-3.2-1.3-3.3-3
	C908.7,127.2,908.7,127.1,908.7,127z M915.2,126.9v-2.3c-2.7,0.4-3.6,1.1-3.6,2.1s0.6,1.2,1.5,1.2
	C913.8,128,914.6,127.6,915.2,126.9L915.2,126.9z"/>
<path class="st0" d="M921.1,126.1v-5h-1.6V119l1.7-0.1l0.3-3h2.5v3h2.8v2.3H924v5c0,1.3,0.5,1.9,1.5,1.9c0.4,0,0.7-0.1,1.1-0.2
	l0.5,2.1c-0.8,0.3-1.6,0.4-2.4,0.4C922.2,130.3,921.1,128.7,921.1,126.1z"/>
<path class="st0" d="M928,124.5c0-3.6,2.5-5.9,5.2-5.9c3.1,0,4.7,2.3,4.7,5.4c0,0.5,0,0.9-0.1,1.3h-6.9c0.1,1.6,1.5,2.9,3.1,2.8l0,0
	c0.9,0,1.8-0.3,2.5-0.8l1,1.8c-1.2,0.8-2.5,1.2-3.9,1.2C930.5,130.3,928,128.2,928,124.5z M935.4,123.3c0-1.5-0.7-2.5-2.1-2.5
	c-1.3,0-2.4,1.1-2.4,2.5H935.4z"/>
<path class="st0" d="M1175.3,342.5h4.8v-14h-4v-2.7c1.8-0.3,3.6-0.9,5.2-1.9h3.3v18.6h4.2v3.6h-13.3L1175.3,342.5z"/>
<path class="st0" d="M1193.2,342.5h4.8v-14h-4v-2.7c1.8-0.3,3.6-0.9,5.2-1.9h3.3v18.6h4.2v3.6h-13.3L1193.2,342.5z"/>
<path class="st0" d="M1225.6,340.3h-2.6v5.8h-4.1v-5.8h-9.4v-3l8.3-13.4h5.3V337h2.6L1225.6,340.3z M1218.8,337v-4.5
	c0-1.3,0.1-3.3,0.2-4.6h-0.1c-0.5,1.2-1.1,2.4-1.8,3.6l-3.4,5.5H1218.8z"/>
<path class="st0" d="M661.6,327h3v5.8h5.6V327h2.9v14.8h-3v-6.4h-5.6v6.4h-3L661.6,327z"/>
<path class="st0" d="M676.2,327.2c0.1-1,0.9-1.7,1.9-1.6c0.9,0.1,1.6,0.8,1.6,1.6c-0.1,1-0.9,1.7-1.9,1.6
	C677,328.7,676.3,328,676.2,327.2z M676.5,330.6h2.9v11.2h-2.9V330.6z"/>
<path class="st0" d="M681.9,343.8c0.1-1,0.7-1.9,1.6-2.3v-0.1c-0.6-0.4-1-1.1-1-1.9c0.1-0.9,0.5-1.6,1.2-2.1v-0.1
	c-0.9-0.7-1.5-1.8-1.5-2.9c0-2.6,2.1-4.1,4.5-4.1c0.6,0,1.1,0.1,1.7,0.3h4v2.2h-1.9c0.4,0.5,0.5,1.1,0.5,1.7c0,2.5-1.9,3.8-4.3,3.8
	c-0.5,0-1-0.1-1.4-0.3c-0.3,0.2-0.5,0.6-0.5,1c0,0.6,0.4,0.9,1.8,0.9h1.9c2.7,0,4.2,0.8,4.2,2.8c0,2.3-2.3,4-6.1,4
	C683.9,346.6,681.9,345.7,681.9,343.8z M689.9,343.2c0-0.8-0.7-1-1.9-1h-1.4c-0.5,0-1,0-1.6-0.2c-0.4,0.3-0.7,0.8-0.7,1.3
	c0,0.9,1,1.5,2.7,1.5S689.8,344,689.9,343.2L689.9,343.2z M688.5,334.4c0-1.3-0.7-2.1-1.8-2.1s-1.8,0.7-1.8,2.1
	c-0.1,1,0.6,1.9,1.6,2c0.1,0,0.1,0,0.2,0C687.7,336.4,688.5,335.7,688.5,334.4L688.5,334.4z"/>
<path class="st0" d="M694.5,325.8h2.9v4l-0.1,2.1c0.9-1,2.2-1.6,3.5-1.6c2.4,0,3.5,1.7,3.5,4.5v7h-2.9v-6.6c0-1.7-0.5-2.3-1.6-2.3
	c-0.9,0.1-1.8,0.5-2.3,1.3v7.7h-2.9v-16.1H694.5z"/>
<path class="st0" d="M711.2,339.9l1.7-2c1,1,2.3,1.6,3.8,1.6s2.4-0.7,2.4-1.7s-0.9-1.4-2.2-2l-2-0.8c-1.8-0.6-3-2.2-3-4
	c0-2.4,2.1-4.3,5.1-4.3c1.7,0,3.4,0.7,4.7,1.9l-1.5,1.9c-0.9-0.8-2-1.2-3.2-1.2c-1.3,0-2.1,0.6-2.1,1.6s1.1,1.4,2.3,1.9l1.9,0.8
	c1.8,0.7,3,1.9,3,4c0,2.4-2,4.5-5.5,4.5C714.5,342.1,712.6,341.3,711.2,339.9z"/>
<path class="st0" d="M723.7,336.2c-0.2-3.1,2.2-5.7,5.3-5.9c0.1,0,0.3,0,0.5,0c1.2,0,2.4,0.4,3.3,1.2l-1.4,1.9
	c-0.5-0.5-1.1-0.7-1.7-0.7c-1.7,0-2.9,1.4-2.9,3.5s1.2,3.5,2.8,3.5c0.8,0,1.6-0.4,2.2-0.9l1.2,1.9c-1,0.9-2.3,1.4-3.7,1.4
	C726,342.1,723.7,339.9,723.7,336.2z"/>
<path class="st0" d="M734.9,325.8h2.9v4l-0.1,2.1c0.9-1,2.2-1.6,3.5-1.6c2.4,0,3.5,1.7,3.5,4.5v7h-3v-6.6c0-1.7-0.5-2.3-1.6-2.3
	c-0.9,0.1-1.8,0.5-2.3,1.3v7.7h-2.9L734.9,325.8z"/>
<path class="st0" d="M747,336.2c0-3.7,2.6-5.9,5.4-5.9s5.4,2.2,5.4,5.9s-2.6,5.9-5.4,5.9S747,339.9,747,336.2z M754.8,336.2
	c0-2.1-0.9-3.5-2.4-3.5s-2.4,1.4-2.4,3.5s0.9,3.5,2.4,3.5S754.8,338.3,754.8,336.2L754.8,336.2z"/>
<path class="st0" d="M759.5,336.2c0-3.7,2.6-5.9,5.4-5.9s5.4,2.2,5.4,5.9s-2.6,5.9-5.4,5.9S759.5,339.9,759.5,336.2z M767.3,336.2
	c0-2.1-0.9-3.5-2.4-3.5s-2.4,1.4-2.4,3.5s0.9,3.5,2.4,3.5S767.3,338.3,767.3,336.2L767.3,336.2z"/>
<path class="st0" d="M772.8,338.6v-12.8h2.9v13c0,0.7,0.3,0.9,0.6,0.9c0.1,0,0.3,0,0.4,0l0.4,2.2c-0.5,0.2-1,0.3-1.5,0.3
	C773.5,342.1,772.8,340.7,772.8,338.6z"/>
<path class="st0" d="M783.1,334.4c0-4.9,3.2-7.7,7.1-7.7c1.7,0,3.4,0.7,4.6,1.9l-1.6,1.9c-0.7-0.8-1.8-1.3-2.9-1.2
	c-2.5,0-4.2,1.9-4.2,5.1s1.5,5.2,4.4,5.2c0.7,0,1.3-0.2,1.9-0.6v-3h-2.6v-2.4h5.3v6.7c-1.3,1.2-3,1.8-4.8,1.8
	C786.2,342.1,783.1,339.4,783.1,334.4z"/>
<path class="st0" d="M797.9,330.6h2.4l0.2,2h0.1c0.6-1.3,1.8-2.1,3.2-2.3c0.5,0,0.9,0.1,1.3,0.2l-0.5,2.5c-0.4-0.1-0.8-0.2-1.2-0.2
	c-0.9,0-1.9,0.6-2.6,2.2v6.7h-2.9V330.6z"/>
<path class="st0" d="M805.5,338.7c0-2.4,1.9-3.7,6.4-4.1c0-1.1-0.5-1.9-1.9-1.9c-1.1,0.1-2.2,0.4-3.1,1.1l-1.1-1.9
	c1.4-0.9,3-1.4,4.7-1.5c2.8,0,4.3,1.7,4.3,4.9v6.5h-2.4l-0.2-1.2h-0.1c-0.9,0.9-2.1,1.4-3.4,1.5c-1.8,0.1-3.2-1.3-3.3-3
	C805.5,338.9,805.5,338.8,805.5,338.7z M811.9,338.7v-2.3c-2.7,0.4-3.6,1.1-3.6,2.1s0.6,1.3,1.5,1.3
	C810.6,339.7,811.4,339.3,811.9,338.7z"/>
<path class="st0" d="M817.2,336.2c0-3.7,2.3-5.9,4.7-5.9c1.1,0,2.1,0.4,2.8,1.2l-0.1-1.8v-3.9h2.9v16h-2.4l-0.2-1.2h-0.1
	c-0.8,0.9-1.9,1.4-3.1,1.4C819,342.1,817.2,339.9,817.2,336.2z M824.6,338.5v-4.9c-0.6-0.5-1.3-0.8-2.1-0.8c-1.3,0-2.3,1.2-2.3,3.4
	s0.8,3.5,2.3,3.5C823.4,339.6,824.2,339.2,824.6,338.5z"/>
<path class="st0" d="M830.6,337.6v-7h2.9v6.6c0,1.7,0.5,2.3,1.6,2.3c1,0,1.8-0.6,2.3-1.4v-7.6h2.9v11.2h-2.4l-0.2-1.6h-0.1
	c-0.8,1.2-2.2,1.9-3.6,1.9C831.7,342.1,830.6,340.4,830.6,337.6z"/>
<path class="st0" d="M842.9,338.7c0-2.4,1.9-3.7,6.4-4.1c0-1.1-0.5-1.9-1.9-1.9c-1.1,0.1-2.2,0.4-3.1,1.1l-1.1-1.9
	c1.4-0.9,3-1.4,4.7-1.5c2.8,0,4.3,1.7,4.3,4.9v6.5h-2.4l-0.2-1.2h-0.1c-0.9,0.9-2.1,1.4-3.4,1.5c-1.8,0.1-3.2-1.3-3.3-3
	C842.9,338.9,842.9,338.8,842.9,338.7z M849.3,338.7v-2.3c-2.7,0.4-3.6,1.1-3.6,2.1s0.6,1.3,1.5,1.3
	C848,339.7,848.8,339.3,849.3,338.7z"/>
<path class="st0" d="M855.3,337.9v-5h-1.6v-2.2l1.7-0.1l0.3-3h2.5v3h2.7v2.3h-2.8v5c0,1.3,0.5,1.9,1.5,1.9c0.4,0,0.7-0.1,1.1-0.2
	l0.5,2.1c-0.8,0.3-1.6,0.4-2.4,0.4C856.3,342.1,855.3,340.4,855.3,337.9z"/>
<path class="st0" d="M862.2,336.2c0-3.6,2.5-5.9,5.2-5.9c3.1,0,4.7,2.3,4.7,5.4c0,0.5,0,0.9-0.1,1.3h-6.9c0.1,1.6,1.5,2.9,3.1,2.8
	l0,0c0.9,0,1.8-0.3,2.5-0.8l1,1.8c-1.2,0.8-2.5,1.2-3.9,1.2C864.7,342.1,862.2,339.9,862.2,336.2z M869.6,335.1
	c0-1.5-0.7-2.5-2.1-2.5c-1.3,0-2.4,1.1-2.4,2.5H869.6z"/>
<path class="st0" d="M878.4,336.2c0-3.7,2.6-5.9,5.4-5.9s5.4,2.2,5.4,5.9s-2.6,5.9-5.4,5.9S878.4,339.9,878.4,336.2z M886.2,336.2
	c0-2.1-0.9-3.5-2.4-3.5s-2.4,1.4-2.4,3.5s0.9,3.5,2.4,3.5S886.2,338.3,886.2,336.2z"/>
<path class="st0" d="M891.6,330.6h2.4l0.2,2h0.1c0.6-1.3,1.8-2.1,3.2-2.3c0.5,0,0.9,0.1,1.3,0.2l-0.5,2.5c-0.4-0.1-0.8-0.2-1.2-0.2
	c-0.9,0-1.9,0.6-2.6,2.2v6.7h-2.9V330.6z"/>
<path class="st0" d="M905.1,327h3v12.3h6v2.5h-9V327z"/>
<path class="st0" d="M915.4,336.2c0-3.7,2.6-5.9,5.4-5.9s5.4,2.2,5.4,5.9s-2.6,5.9-5.4,5.9S915.4,339.9,915.4,336.2z M923.2,336.2
	c0-2.1-0.9-3.5-2.4-3.5s-2.4,1.4-2.4,3.5s0.9,3.5,2.4,3.5S923.2,338.3,923.2,336.2z"/>
<path class="st0" d="M927.4,330.6h2.9l1.2,5.5c0.2,1.1,0.4,2.2,0.6,3.3h0.1c0.2-1.1,0.4-2.2,0.7-3.3l1.3-5.5h2.6l1.4,5.5
	c0.3,1.1,0.5,2.2,0.7,3.3h0.1c0.2-1.1,0.3-2.2,0.6-3.3l1.2-5.5h2.7l-2.8,11.2h-3.5l-1.2-4.9c-0.2-1.1-0.4-2.1-0.6-3.3h-0.1
	c-0.2,1.2-0.4,2.2-0.6,3.3l-1.1,4.9h-3.4L927.4,330.6z"/>
<path class="st0" d="M944.9,336.2c0-3.6,2.5-5.9,5.2-5.9c3.1,0,4.7,2.3,4.7,5.4c0,0.5,0,0.9-0.1,1.3h-6.9c0.1,1.6,1.5,2.9,3.1,2.8
	l0,0c0.9,0,1.8-0.3,2.5-0.8l1,1.8c-1.2,0.8-2.5,1.2-3.9,1.2C947.3,342.1,944.9,339.9,944.9,336.2z M952.2,335.1
	c0-1.5-0.7-2.5-2.1-2.5c-1.3,0-2.4,1.1-2.4,2.5H952.2z"/>
<path class="st0" d="M957.2,330.6h2.4l0.2,2h0.1c0.6-1.3,1.8-2.1,3.2-2.3c0.5,0,0.9,0.1,1.3,0.2l-0.5,2.5c-0.4-0.1-0.8-0.2-1.2-0.2
	c-0.9,0-1.9,0.6-2.6,2.2v6.7h-2.9V330.6z"/>
<path class="st0" d="M1184.3,502.6h-10V499h14.8v2.7c-5.2,6.3-5.8,10.8-6.2,19.5h-4.5C1178.8,513.5,1180.1,508.5,1184.3,502.6z"/>
<path class="st0" d="M1202.3,502.6h-10V499h14.8v2.7c-5.2,6.3-5.8,10.8-6.2,19.5h-4.5C1196.8,513.5,1198.1,508.5,1202.3,502.6z"/>
<path class="st0" d="M1220.2,502.6h-10V499h14.8v2.7c-5.2,6.3-5.8,10.8-6.2,19.5h-4.5C1214.7,513.5,1216,508.5,1220.2,502.6z"/>
<path class="st0" d="M661.5,510.2v-8.1h3v8.4c0,3.1,1.1,4.1,2.8,4.1s2.9-1,2.9-4.1v-8.4h2.8v8.1c0,4.9-2.1,6.9-5.7,6.9
	S661.5,515.1,661.5,510.2z"/>
<path class="st0" d="M676.3,505.7h2.4l0.2,1.5l0,0c0.9-1.1,2.2-1.7,3.7-1.8c2.4,0,3.5,1.7,3.5,4.5v7h-2.9v-6.6
	c0-1.7-0.5-2.3-1.6-2.3c-0.9,0.1-1.8,0.5-2.3,1.3v7.7h-2.9L676.3,505.7z"/>
<path class="st0" d="M689.2,500.9h2.8v9.6h0.1l3.9-4.8h3.2l-3.9,4.6l4.2,6.6h-3.2l-2.7-4.6l-1.6,1.8v2.8h-2.9L689.2,500.9z"/>
<path class="st0" d="M701.3,505.7h2.4l0.2,1.5h0.1c0.9-1.1,2.2-1.7,3.7-1.8c2.4,0,3.5,1.7,3.5,4.5v7h-2.9v-6.6
	c0-1.7-0.5-2.3-1.6-2.3c-0.9,0.1-1.8,0.5-2.3,1.3v7.7h-2.9L701.3,505.7z"/>
<path class="st0" d="M713.4,511.3c0-3.7,2.6-5.9,5.4-5.9s5.4,2.2,5.4,5.9c0,3.7-2.6,5.9-5.4,5.9S713.4,515,713.4,511.3z
	 M721.2,511.3c0-2.1-0.9-3.5-2.4-3.5s-2.4,1.4-2.4,3.5c0,2.1,0.9,3.5,2.4,3.5S721.2,513.4,721.2,511.3L721.2,511.3z"/>
<path class="st0" d="M725.4,505.7h2.9l1.2,5.5c0.2,1.1,0.4,2.2,0.6,3.3h0.1c0.2-1.1,0.4-2.2,0.7-3.3l1.3-5.5h2.6l1.4,5.5
	c0.3,1.1,0.5,2.2,0.7,3.3h0.1c0.2-1.1,0.3-2.2,0.6-3.3l1.2-5.5h2.7l-2.8,11.2h-3.5L734,512c-0.2-1.1-0.4-2.1-0.6-3.3h-0.1
	c-0.2,1.2-0.4,2.2-0.6,3.3l-1.2,4.9h-3.4L725.4,505.7z"/>
<path class="st0" d="M743.7,505.7h2.4l0.2,1.5h0.1c0.9-1.1,2.2-1.7,3.7-1.8c2.4,0,3.5,1.7,3.5,4.5v7h-2.9v-6.6
	c0-1.7-0.5-2.3-1.6-2.3c-0.9,0.1-1.8,0.5-2.3,1.3v7.7h-2.9L743.7,505.7z"/>
<path class="st0" d="M612.4,327.4c-0.9-1-2.1-1.6-3.4-1.6c-2.6,0-4.6,1.9-4.8,7.5c1.1-1.4,2.8-2.2,4.6-2.4c3.7,0,6.4,2.2,6.4,7
	c0,4.6-3.2,7.4-7,7.4c-4.2,0-8-3.4-8-11.2c0-8.3,4.1-11.8,8.6-11.8c2.3,0,4.4,0.9,6,2.5L612.4,327.4z M611,337.8
	c0-2.6-1.2-3.9-3.1-3.9c-1.5,0.1-2.9,1-3.6,2.3c0.4,4,1.9,5.6,3.8,5.6C609.7,341.9,611,340.5,611,337.8L611,337.8z"/>
<path class="st0" d="M613.3,608.3c-0.9-1-2.1-1.6-3.4-1.6c-2.6,0-4.6,1.9-4.8,7.5c1.1-1.4,2.8-2.2,4.6-2.4c3.7,0,6.4,2.2,6.4,7
	c0,4.6-3.2,7.4-7,7.4c-4.2,0-8-3.4-8-11.2c0-8.3,4.1-11.8,8.6-11.8c2.3,0,4.4,0.9,6,2.5L613.3,608.3z M611.9,618.7
	c0-2.6-1.2-3.9-3.1-3.9c-1.5,0.1-2.9,1-3.6,2.3c0.4,4,1.9,5.6,3.8,5.6C610.6,622.8,611.9,621.4,611.9,618.7L611.9,618.7z"/>
</svg>
