<?xml version="1.0" encoding="utf-8"?>
<!-- Generator: Adobe Illustrator 22.1.0, SVG Export Plug-In . SVG Version: 6.00 Build 0)  -->
<svg version="1.1" id="图层_1" xmlns="http://www.w3.org/2000/svg" xmlns:xlink="http://www.w3.org/1999/xlink" x="0px" y="0px"
	 viewBox="0 0 750 1334" style="enable-background:new 0 0 750 1334;" xml:space="preserve">
<style type="text/css">
	.st0{fill:#333333;}
</style>
<title>手机版</title>
<path class="st0" d="M295.1,308.9l2-2.8c1.3,1.4,3,2.2,4.9,2.2c2.1,0.1,3.8-1.5,3.9-3.5c0-0.2,0-0.4,0-0.6c0-2.6-1.5-4-3.8-4
	c-1.2,0-2.4,0.4-3.3,1.2l-2-1.3l0.6-10.8h11.9v3.7h-8.1l-0.4,4.7c0.8-0.4,1.7-0.6,2.7-0.6c3.7,0,6.8,2.2,6.8,7
	c0.2,4.1-3.1,7.6-7.2,7.8c-0.2,0-0.4,0-0.6,0C299.8,312,297,310.9,295.1,308.9z"/>
<path class="st0" d="M313.7,306c0-2.5,1.5-4.8,3.8-5.8v-0.1c-1.8-1.1-2.9-3.1-2.9-5.3c0-3.6,2.8-5.9,6.7-5.9s6.5,2.4,6.5,5.9
	c-0.1,2-1.2,3.9-2.9,5.1v0.1c2.3,1.1,3.8,3.4,3.7,5.9c0,3.4-3,5.9-7.5,5.9C316.9,312,313.7,309.5,313.7,306z M324.4,305.9
	c0-2.3-2-3.3-4.9-4.4c-1.2,1-2,2.5-2,4.1c0,2,1.6,3.3,3.7,3.3C323.1,308.9,324.4,307.8,324.4,305.9z M324.1,295.1
	c0.1-1.6-1-2.9-2.6-3.1c-0.1,0-0.3,0-0.4,0c-1.4-0.1-2.6,1-2.7,2.5c0,0.1,0,0.2,0,0.3c0,2.1,1.7,3.1,4,4
	C323.5,297.9,324,296.5,324.1,295.1L324.1,295.1z"/>
<path class="st0" d="M347.1,305.8h-2.6v5.8h-4.1v-5.8h-9.5v-3l8.3-13.4h5.3v13.1h2.6L347.1,305.8L347.1,305.8z M340.3,302.4v-4.5
	c0-1.3,0.1-3.3,0.2-4.6h-0.1c-0.5,1.2-1.1,2.4-1.8,3.6l-3.5,5.5H340.3z"/>
<path d="M94.8,293.8h4.9c3.3,0,5.8,1.1,5.8,4.6s-2.5,4.9-5.7,4.9h-2v5.3h-3L94.8,293.8z M99.5,301c2,0,3-0.9,3-2.6s-1.1-2.3-3.1-2.3
	h-1.7v4.9H99.5z"/>
<path d="M107.9,292.6h2.9v4l-0.1,2.1c0.9-1,2.2-1.6,3.5-1.6c2.4,0,3.5,1.7,3.5,4.5v7h-2.9V302c0-1.7-0.5-2.3-1.6-2.3
	c-0.9,0.1-1.8,0.5-2.3,1.3v7.7H108L107.9,292.6z"/>
<path d="M120.9,293.8h4.1c4.5,0,7.3,2.3,7.3,7.3s-2.8,7.5-7.2,7.5h-4.2L120.9,293.8z M124.8,306.2c2.8,0,4.5-1.5,4.5-5.1
	s-1.7-5-4.5-5h-0.9v10.1H124.8z"/>
<path class="st0" d="M296.4,632.7c0-2.5,1.5-4.8,3.8-5.8v-0.2c-1.8-1.1-2.9-3.1-2.9-5.3c0-3.6,2.8-5.8,6.7-5.8s6.5,2.4,6.5,5.9
	c-0.1,2-1.2,3.9-2.9,5.1v0.2c2.3,1.1,3.8,3.4,3.7,5.9c0,3.4-3,5.9-7.5,5.9C299.6,638.6,296.4,636.1,296.4,632.7z M307.2,632.5
	c0-2.3-2-3.3-4.9-4.4c-1.2,1-2,2.5-2,4.1c0,2,1.6,3.3,3.7,3.3C305.8,635.5,307.2,634.4,307.2,632.5L307.2,632.5z M306.8,621.8
	c0.1-1.6-1-2.9-2.6-3.1c-0.1,0-0.3,0-0.4,0c-1.4-0.1-2.6,1-2.7,2.5c0,0.1,0,0.2,0,0.3c0,2.1,1.7,3.1,4,4
	C306.2,624.5,306.8,623.2,306.8,621.8z"/>
<path class="st0" d="M313.8,635.5l2.1-2.8c1.3,1.4,3.1,2.2,5,2.3c2.2,0,3.8-1.1,3.8-3.1c0-2.2-1.3-3.5-6.1-3.5v-3.2
	c4.1,0,5.4-1.4,5.4-3.4c0-1.7-1.1-2.8-3-2.8c-1.6,0.1-3.1,0.8-4.2,2l-2.2-2.7c1.8-1.7,4.2-2.7,6.7-2.7c4.3,0,7.2,2.1,7.2,5.9
	c0,2.3-1.5,4.4-3.7,5.1v0.2c2.6,0.5,4.5,2.8,4.4,5.5c0,4.1-3.6,6.5-7.8,6.5C318.4,638.8,315.7,637.6,313.8,635.5z"/>
<path d="M94.8,619.3h3.3l2.5,6.9c0.3,0.9,0.6,1.9,0.9,2.9h0.1c0.3-1,0.6-1.9,0.9-2.9l2.5-6.9h3.3v14.8h-2.7v-6.2
	c0-1.4,0.2-3.5,0.4-4.9h-0.1l-1.2,3.5l-2.3,6.2h-1.7l-2.3-6.2l-1.2-3.5h-0.1c0.1,1.4,0.4,3.5,0.4,4.9v6.2h-2.7L94.8,619.3
	L94.8,619.3z"/>
<path d="M111.1,631c0-2.4,2-3.7,6.4-4.1c0-1.1-0.5-1.9-1.9-1.9c-1.1,0.1-2.2,0.4-3.1,1.1l-1.1-1.9c1.4-0.9,3-1.4,4.7-1.5
	c2.8,0,4.3,1.7,4.3,4.9v6.5H118l-0.2-1.2h-0.1c-0.9,0.9-2.1,1.4-3.4,1.5c-1.8,0.1-3.2-1.3-3.3-3.1C111,631.2,111,631.1,111.1,631z
	 M117.5,630.9v-2.2c-2.7,0.4-3.6,1.1-3.6,2.1s0.6,1.3,1.5,1.3C116.2,632,117,631.6,117.5,630.9L117.5,630.9z"/>
<path d="M122.4,632.8l1.3-1.8c0.8,0.7,1.9,1.2,3,1.2s1.6-0.5,1.6-1.2s-1.2-1.2-2.3-1.7c-1.4-0.5-3.1-1.4-3.1-3.3
	c0-2,1.7-3.4,4.2-3.4c1.4,0,2.7,0.5,3.8,1.4l-1.3,1.8c-0.7-0.6-1.5-0.9-2.4-1c-1,0-1.5,0.4-1.5,1.1c0,0.8,1.1,1.1,2.3,1.6
	c1.5,0.6,3.1,1.3,3.1,3.4s-1.5,3.5-4.5,3.5C125.1,634.3,123.6,633.8,122.4,632.8z"/>
<path d="M133.3,630.2v-5h-1.6V623l1.7-0.1l0.3-3h2.5v3h2.8v2.3h-2.8v5c0,1.3,0.5,1.9,1.5,1.9c0.4,0,0.7-0.1,1.1-0.2l0.5,2.1
	c-0.8,0.3-1.6,0.4-2.4,0.4C134.3,634.4,133.3,632.7,133.3,630.2z"/>
<path d="M140.2,628.5c0-3.6,2.5-5.9,5.2-5.9c3.1,0,4.7,2.3,4.7,5.4c0,0.5,0,0.9-0.1,1.3h-7c0.1,1.6,1.5,2.9,3.1,2.8
	c0.9,0,1.8-0.3,2.5-0.8l1,1.8c-1.2,0.8-2.5,1.2-3.9,1.2C142.6,634.4,140.2,632.2,140.2,628.5z M147.6,627.4c0-1.5-0.7-2.5-2.1-2.5
	c-1.3,0-2.4,1.1-2.4,2.5H147.6z"/>
<path d="M152.5,622.9h2.4l0.2,2h0.1c0.6-1.3,1.8-2.1,3.2-2.3c0.5,0,0.9,0.1,1.3,0.2l-0.5,2.5c-0.4-0.1-0.8-0.2-1.2-0.2
	c-0.9,0-1.9,0.6-2.6,2.2v6.7h-2.9V622.9z"/>
<path class="st0" d="M295.8,1069.1l2-2.8c1.3,1.4,3,2.2,4.9,2.2c2.1,0.1,3.8-1.5,3.9-3.5c0-0.2,0-0.4,0-0.6c0-2.6-1.5-4-3.8-4
	c-1.2,0-2.4,0.4-3.3,1.2l-2-1.3l0.6-10.8H310v3.7h-8l-0.4,4.7c0.8-0.4,1.7-0.6,2.7-0.6c3.7,0,6.8,2.2,6.8,7c0.2,4.1-3,7.6-7.2,7.8
	c-0.2,0-0.4,0-0.6,0C300.5,1072.2,297.8,1071.1,295.8,1069.1z"/>
<path class="st0" d="M314.3,1069.1c6-5.4,9.6-9.6,9.6-13c0-2.2-1.2-3.6-3.3-3.6c-1.6,0.1-3.1,1-4.1,2.3l-2.4-2.4c2-2.2,4-3.4,7-3.4
	c4.2,0,7,2.7,7,6.8s-3.3,8.3-7.3,12.3c1.1-0.1,2.6-0.2,3.6-0.2h4.8v3.7h-14.9L314.3,1069.1L314.3,1069.1z"/>
<path d="M94.8,1053.3h4.9c3,0,5.4,0.9,5.4,3.6c0.1,1.4-0.7,2.6-2,3.2v0.1c1.7,0.3,2.9,1.8,2.8,3.5c0,3-2.5,4.4-5.7,4.4h-5.3v-14.8
	H94.8z M99.5,1059.3c1.9,0,2.7-0.8,2.7-1.9s-0.9-1.8-2.7-1.8h-1.8v3.8L99.5,1059.3z M99.8,1065.8c2,0,3.1-0.7,3.1-2.3s-1.1-2-3.1-2
	h-2.1v4.3H99.8z"/>
<path d="M107.6,1065.1c0-2.4,1.9-3.7,6.4-4.1c0-1.1-0.5-1.9-1.9-1.9c-1.1,0.1-2.2,0.4-3.1,1.1l-1.1-1.9c1.4-0.9,3-1.4,4.7-1.5
	c2.8,0,4.3,1.7,4.3,4.9v6.5h-2.4l-0.2-1.2h-0.1c-0.9,0.9-2.1,1.4-3.4,1.5c-1.8,0.1-3.2-1.3-3.3-3
	C107.6,1065.2,107.6,1065.1,107.6,1065.1z M114,1065v-2.3c-2.7,0.4-3.6,1.1-3.6,2.1s0.6,1.3,1.5,1.3
	C112.7,1066.1,113.5,1065.7,114,1065z"/>
<path d="M119.3,1062.5c-0.2-3.1,2.2-5.7,5.3-5.9c0.1,0,0.3,0,0.5,0c1.2,0,2.4,0.4,3.3,1.2l-1.4,1.9c-0.5-0.5-1.1-0.7-1.7-0.7
	c-1.7,0-2.9,1.4-2.9,3.5s1.2,3.5,2.8,3.5c0.8,0,1.6-0.4,2.2-0.9l1.2,1.9c-1,0.9-2.3,1.4-3.7,1.4
	C121.6,1068.4,119.3,1066.2,119.3,1062.5z"/>
<path d="M130.5,1052.1h2.9v4l-0.1,2.1c0.9-1,2.2-1.6,3.5-1.6c2.4,0,3.5,1.7,3.5,4.5v7h-2.9v-6.6c0-1.7-0.5-2.3-1.6-2.3
	c-0.9,0.1-1.8,0.5-2.3,1.3v7.7h-2.9L130.5,1052.1z"/>
<path d="M142.6,1062.5c0-3.6,2.5-5.9,5.2-5.9c3.1,0,4.7,2.3,4.7,5.4c0,0.5,0,0.9-0.1,1.3h-6.9c0.1,1.6,1.5,2.9,3.1,2.8l0,0
	c0.9,0,1.8-0.3,2.5-0.8l1,1.8c-1.2,0.8-2.5,1.2-3.9,1.2C145.1,1068.4,142.6,1066.2,142.6,1062.5z M150,1061.4c0-1.5-0.7-2.5-2.1-2.5
	c-1.3,0-2.4,1.1-2.4,2.5H150z"/>
<path d="M154.9,1065v-12.8h2.9v13c0,0.7,0.3,0.9,0.6,0.9c0.1,0,0.3,0,0.4,0l0.4,2.2c-0.5,0.2-1,0.3-1.5,0.3
	C155.7,1068.4,154.9,1067,154.9,1065z"/>
<path d="M160.5,1062.5c0-3.7,2.6-5.9,5.4-5.9s5.4,2.2,5.4,5.9s-2.6,5.9-5.4,5.9S160.5,1066.2,160.5,1062.5z M168.3,1062.5
	c0-2.1-0.9-3.5-2.4-3.5s-2.4,1.4-2.4,3.5s0.9,3.5,2.4,3.5S168.3,1064.6,168.3,1062.5L168.3,1062.5z"/>
<path d="M173.8,1056.9h2.4l0.2,2h0.1c0.6-1.3,1.8-2.1,3.2-2.3c0.5,0,0.9,0.1,1.3,0.2l-0.5,2.5c-0.4-0.1-0.8-0.2-1.2-0.2
	c-0.9,0-1.9,0.6-2.6,2.2v6.7h-2.9V1056.9z"/>
<path class="st0" d="M603.3,308.4h4.8v-14h-4v-2.8c1.8-0.3,3.6-0.9,5.2-1.9h3.3v18.6h4.2v3.6h-13.4L603.3,308.4L603.3,308.4z"/>
<path class="st0" d="M619.5,309.3l2.1-2.8c1.3,1.4,3.1,2.2,5,2.3c2.2,0,3.8-1.1,3.8-3.1c0-2.2-1.3-3.5-6.1-3.5V299
	c4.1,0,5.4-1.4,5.4-3.4c0-1.7-1.1-2.8-3-2.8c-1.6,0.1-3.1,0.8-4.2,2l-2.2-2.7c1.8-1.7,4.2-2.7,6.7-2.7c4.3,0,7.2,2.1,7.2,5.9
	c0,2.3-1.5,4.4-3.7,5.1v0.1c2.6,0.5,4.5,2.8,4.4,5.5c0,4.1-3.6,6.5-7.8,6.5C624.2,312.5,621.4,311.4,619.5,309.3z"/>
<path class="st0" d="M638.1,306.4c0-2.5,1.5-4.8,3.8-5.8v-0.1c-1.8-1.1-2.9-3.1-2.9-5.3c0-3.6,2.8-5.9,6.7-5.9s6.5,2.4,6.5,5.9
	c-0.1,2-1.2,3.9-2.8,5.1v0.1c2.3,1.1,3.8,3.4,3.7,5.9c0,3.4-3,5.9-7.5,5.9C641.3,312.4,638.1,309.9,638.1,306.4z M648.9,306.3
	c0-2.3-2-3.3-4.9-4.4c-1.2,1-2,2.5-2,4.1c0,2,1.7,3.3,3.7,3.3C647.5,309.2,648.9,308.2,648.9,306.3L648.9,306.3z M648.6,295.5
	c0.1-1.6-1-2.9-2.6-3.1c-0.1,0-0.3,0-0.4,0c-1.4-0.1-2.6,1-2.7,2.5c0,0.1,0,0.2,0,0.3c0,2.1,1.7,3.1,4,4
	C648,298.2,648.5,296.9,648.6,295.5L648.6,295.5z"/>
<path d="M407,303.1h-4.8l-1,3.8h-3l4.7-14.8h3.5l4.7,14.9H408L407,303.1z M406.4,300.9l-0.4-1.6c-0.5-1.5-0.9-3.2-1.3-4.8h-0.1
	c-0.4,1.6-0.8,3.3-1.3,4.8l-0.4,1.6H406.4z"/>
<path d="M412,305.7l1.3-1.9c0.8,0.7,1.9,1.2,3,1.2s1.6-0.5,1.6-1.2s-1.2-1.2-2.3-1.7c-1.4-0.5-3.1-1.4-3.1-3.3c0-2,1.6-3.4,4.2-3.4
	c1.4,0,2.7,0.5,3.8,1.4l-1.3,1.8c-0.7-0.6-1.5-0.9-2.4-1c-1,0-1.5,0.4-1.5,1.1c0,0.8,1.1,1.1,2.3,1.6c1.5,0.6,3.1,1.3,3.1,3.4
	s-1.5,3.5-4.5,3.5C414.7,307.2,413.2,306.6,412,305.7z"/>
<path d="M421.9,305.7l1.3-1.9c0.8,0.7,1.9,1.2,3,1.2s1.6-0.5,1.6-1.2s-1.2-1.2-2.3-1.7c-1.4-0.5-3.1-1.4-3.1-3.3
	c0-2,1.6-3.4,4.2-3.4c1.4,0,2.7,0.5,3.8,1.4l-1.3,1.8c-0.7-0.6-1.5-0.9-2.4-1c-1,0-1.5,0.4-1.5,1.1c0,0.8,1.1,1.1,2.3,1.6
	c1.5,0.6,3.1,1.3,3.1,3.4s-1.5,3.5-4.5,3.5C424.6,307.2,423.1,306.6,421.9,305.7z"/>
<path d="M432.1,301.4c0-3.7,2.6-5.9,5.4-5.9s5.4,2.2,5.4,5.9s-2.6,5.9-5.4,5.9S432.1,305.1,432.1,301.4z M439.9,301.4
	c0-2.1-0.9-3.5-2.4-3.5s-2.4,1.4-2.4,3.5s0.9,3.5,2.4,3.5S439.9,303.5,439.9,301.4z"/>
<path d="M444.6,301.4c-0.2-3.1,2.2-5.7,5.3-5.9c0.1,0,0.3,0,0.5,0c1.2,0,2.4,0.4,3.3,1.2l-1.4,1.9c-0.5-0.5-1.1-0.7-1.7-0.7
	c-1.7,0-2.9,1.4-2.9,3.5s1.2,3.5,2.8,3.5c0.8,0,1.6-0.4,2.2-0.9l1.2,2c-1,0.9-2.3,1.4-3.7,1.4C447,307.2,444.6,305.1,444.6,301.4z"
	/>
<path d="M455.6,292.4c0.1-1,1-1.7,1.9-1.6c0.8,0.1,1.5,0.7,1.6,1.6c-0.1,1-1,1.7-1.9,1.6C456.3,293.8,455.7,293.2,455.6,292.4z
	 M455.9,295.8h2.9V307h-2.9V295.8z"/>
<path d="M461.4,303.9c0-2.4,1.9-3.7,6.4-4.1c0-1.1-0.5-1.9-1.9-1.9c-1.1,0.1-2.2,0.4-3.1,1.1l-1.1-1.9c1.4-0.9,3-1.4,4.7-1.5
	c2.8,0,4.3,1.7,4.3,4.9v6.5h-2.4l-0.2-1.2H468c-0.9,0.9-2.1,1.4-3.4,1.5c-1.8,0.1-3.2-1.3-3.3-3C461.4,304.1,461.4,304,461.4,303.9z
	 M467.8,303.8v-2.3c-2.7,0.4-3.6,1.1-3.6,2.1s0.6,1.3,1.5,1.3C466.5,304.9,467.3,304.5,467.8,303.8L467.8,303.8z"/>
<path d="M473.8,303v-5h-1.6v-2.2l1.7-0.1l0.3-3h2.5v3h2.8v2.3h-2.8v5c0,1.3,0.5,1.9,1.5,1.9c0.4,0,0.7-0.1,1.1-0.2l0.5,2.1
	c-0.8,0.3-1.6,0.4-2.4,0.4C474.8,307.2,473.8,305.6,473.8,303z"/>
<path d="M480.7,301.4c0-3.6,2.5-5.9,5.2-5.9c3.1,0,4.7,2.3,4.7,5.4c0,0.5,0,0.9-0.1,1.3h-6.9c0.1,1.6,1.5,2.9,3.1,2.8l0,0
	c0.9,0,1.8-0.3,2.5-0.8l1,1.8c-1.2,0.8-2.5,1.2-3.9,1.2C483.1,307.2,480.7,305.1,480.7,301.4z M488.1,300.2c0-1.5-0.7-2.5-2.1-2.5
	c-1.3,0-2.4,1.1-2.4,2.5H488.1z"/>
<path d="M492.4,301.4c0-3.7,2.3-5.9,4.7-5.9c1.1,0,2.1,0.4,2.8,1.2l-0.1-1.8V291h2.9v16h-2.4l-0.2-1.2H500c-0.8,0.9-1.9,1.4-3.1,1.4
	C494.2,307.2,492.4,305,492.4,301.4z M499.8,303.6v-4.9c-0.6-0.5-1.3-0.8-2.1-0.8c-1.3,0-2.3,1.2-2.3,3.4s0.8,3.5,2.3,3.5
	C498.6,304.8,499.4,304.4,499.8,303.6L499.8,303.6z"/>
<path d="M510,299.6c0-4.9,3.1-7.7,6.9-7.7c1.6,0,3.2,0.7,4.3,1.9l-1.6,1.9c-0.7-0.8-1.7-1.2-2.7-1.2c-2.2,0-3.9,1.9-3.9,5.1
	s1.5,5.2,3.9,5.2c1.2,0,2.3-0.6,3.1-1.5l1.6,1.9c-1.2,1.4-2.9,2.2-4.7,2.2C513,307.2,510,304.6,510,299.6z"/>
<path d="M522.9,301.4c0-3.7,2.6-5.9,5.4-5.9s5.4,2.2,5.4,5.9s-2.6,5.9-5.4,5.9S522.9,305.1,522.9,301.4z M530.7,301.4
	c0-2.1-0.9-3.5-2.4-3.5s-2.4,1.4-2.4,3.5s0.9,3.5,2.4,3.5S530.7,303.5,530.7,301.4z"/>
<path d="M536.1,303.8V291h2.9v13c0,0.7,0.3,0.9,0.6,0.9c0.1,0,0.3,0,0.4,0l0.4,2.2c-0.5,0.2-1,0.3-1.5,0.3
	C536.8,307.2,536.1,305.9,536.1,303.8z"/>
<path d="M542.4,303.8V291h2.9v13c0,0.7,0.3,0.9,0.6,0.9c0.1,0,0.3,0,0.4,0l0.4,2.2c-0.5,0.2-1,0.3-1.5,0.3
	C543.1,307.2,542.4,305.9,542.4,303.8z"/>
<path d="M548,301.4c0-3.6,2.5-5.9,5.2-5.9c3.1,0,4.7,2.3,4.7,5.4c0,0.5,0,0.9-0.1,1.3h-6.9c0.1,1.6,1.4,2.9,3,2.8h0.1
	c0.9,0,1.8-0.3,2.5-0.8l1,1.8c-1.2,0.8-2.5,1.2-3.9,1.2C550.5,307.2,548,305.1,548,301.4z M555.4,300.2c0-1.5-0.7-2.5-2.1-2.5
	c-1.3,0-2.4,1.1-2.4,2.5H555.4z"/>
<path d="M559.3,308.9c0.1-1,0.7-1.9,1.6-2.3v-0.1c-0.6-0.4-1-1.1-1-1.9c0.1-0.9,0.5-1.6,1.2-2.1v-0.1c-0.9-0.7-1.5-1.8-1.5-2.9
	c0-2.6,2.1-4.1,4.5-4.1c0.6,0,1.1,0.1,1.7,0.3h4v2.2H568c0.4,0.5,0.5,1.1,0.5,1.7c0,2.5-1.9,3.8-4.3,3.8c-0.5,0-1-0.1-1.4-0.3
	c-0.3,0.2-0.5,0.6-0.5,1c0,0.6,0.4,0.9,1.8,0.9h2c2.7,0,4.2,0.8,4.2,2.8c0,2.3-2.3,4-6.1,4C561.4,311.8,559.3,310.9,559.3,308.9z
	 M567.3,308.3c0-0.8-0.7-1-1.9-1H564c-0.5,0-1,0-1.6-0.2c-0.4,0.3-0.7,0.8-0.7,1.3c0,0.9,1,1.5,2.7,1.5S567.3,309.2,567.3,308.3
	L567.3,308.3z M566,299.5c0-1.3-0.7-2.1-1.7-2.1s-1.8,0.7-1.8,2.1c-0.1,1,0.6,1.9,1.6,2c0.1,0,0.1,0,0.2,0
	C565.2,301.6,566,300.9,566,299.5z"/>
<path d="M571,301.4c0-3.6,2.5-5.9,5.2-5.9c3.1,0,4.7,2.3,4.7,5.4c0,0.5,0,0.9-0.1,1.3h-6.9c0.1,1.6,1.5,2.9,3.1,2.8l0,0
	c0.9,0,1.8-0.3,2.5-0.8l1,1.8c-1.2,0.8-2.5,1.2-3.9,1.2C573.4,307.2,571,305.1,571,301.4z M578.4,300.2c0-1.5-0.7-2.5-2.1-2.5
	c-1.3,0-2.4,1.1-2.4,2.5H578.4z"/>
<path d="M399.3,324.6c0-4.9,3.2-7.7,7.1-7.7c1.7,0,3.4,0.7,4.6,1.9l-1.6,1.9c-0.7-0.8-1.8-1.3-2.9-1.2c-2.5,0-4.2,1.9-4.2,5.1
	s1.5,5.2,4.4,5.2c0.7,0,1.3-0.2,1.9-0.6v-2.9H406v-2.4h5.3v6.7c-1.3,1.2-3,1.8-4.8,1.8C402.4,332.2,399.3,329.6,399.3,324.6z"/>
<path d="M414.1,320.8h2.4l0.2,2h0.1c0.6-1.3,1.8-2.1,3.2-2.3c0.5,0,0.9,0.1,1.3,0.2l-0.5,2.5c-0.4-0.1-0.8-0.2-1.2-0.2
	c-0.9,0-1.9,0.6-2.6,2.2v6.7h-2.9V320.8z"/>
<path d="M421.7,328.9c0-2.4,1.9-3.7,6.4-4.1c0-1.1-0.5-1.9-1.9-1.9c-1.1,0.1-2.2,0.4-3.1,1.1l-1.1-1.9c1.4-0.9,3-1.4,4.7-1.5
	c2.8,0,4.3,1.7,4.3,4.9v6.5h-2.4l-0.2-1.2h-0.1c-0.9,0.9-2.1,1.4-3.4,1.5c-1.8,0.1-3.2-1.3-3.3-3C421.7,329.1,421.7,329,421.7,328.9
	z M428.1,328.8v-2.3c-2.7,0.4-3.6,1.1-3.6,2.1s0.6,1.3,1.5,1.3C426.8,329.9,427.6,329.5,428.1,328.8L428.1,328.8z"/>
<path d="M433.4,326.4c0-3.7,2.3-5.9,4.7-5.9c1.1,0,2.1,0.4,2.8,1.2l-0.1-1.8V316h2.9v16h-2.4l-0.2-1.2H441c-0.8,0.9-1.9,1.4-3.1,1.4
	C435.2,332.2,433.4,330,433.4,326.4z M440.9,328.6v-4.9c-0.6-0.5-1.3-0.8-2.1-0.8c-1.3,0-2.3,1.2-2.3,3.4s0.8,3.5,2.3,3.5
	C439.6,329.8,440.4,329.4,440.9,328.6z"/>
<path d="M446.8,327.8v-7h2.9v6.6c0,1.7,0.5,2.3,1.6,2.3c1,0,1.8-0.6,2.3-1.4v-7.6h2.9V332h-2.4l-0.2-1.6h-0.1
	c-0.8,1.2-2.2,1.9-3.6,1.9C447.9,332.2,446.8,330.6,446.8,327.8z"/>
<path d="M459.1,328.9c0-2.4,1.9-3.7,6.4-4.1c0-1.1-0.5-1.9-1.9-1.9c-1.1,0.1-2.2,0.4-3.1,1.1l-1.1-1.9c1.4-0.9,3-1.4,4.7-1.5
	c2.8,0,4.3,1.7,4.3,4.9v6.5H466l-0.2-1.2h-0.1c-0.9,0.9-2.1,1.4-3.4,1.5c-1.8,0.1-3.2-1.3-3.3-3C459.1,329.1,459.1,329,459.1,328.9z
	 M465.6,328.8v-2.3c-2.7,0.4-3.6,1.1-3.6,2.1s0.6,1.3,1.5,1.3C464.3,329.9,465,329.5,465.6,328.8L465.6,328.8z"/>
<path d="M471.5,328v-5H470v-2.2l1.7-0.1l0.3-3h2.5v3h2.8v2.3h-2.8v5c0,1.3,0.5,1.9,1.5,1.9c0.4,0,0.7-0.1,1.1-0.2l0.5,2.1
	c-0.8,0.3-1.6,0.4-2.4,0.4C472.6,332.2,471.5,330.6,471.5,328z"/>
<path d="M478.5,326.4c0-3.6,2.5-5.9,5.2-5.9c3.1,0,4.7,2.3,4.7,5.4c0,0.5,0,0.9-0.1,1.3h-6.9c0.1,1.6,1.5,2.9,3.1,2.8l0,0
	c0.9,0,1.8-0.3,2.5-0.8l1,1.8c-1.2,0.8-2.5,1.2-3.9,1.2C480.9,332.2,478.5,330.1,478.5,326.4z M485.8,325.2c0-1.5-0.7-2.5-2.1-2.5
	c-1.3,0-2.4,1.1-2.4,2.5H485.8z"/>
<path class="st0" d="M599.7,486.8h4.8v-14h-4v-2.7c1.8-0.3,3.6-0.9,5.2-1.9h3.3v18.6h4.2v3.6h-13.4L599.7,486.8L599.7,486.8z"/>
<path class="st0" d="M617.7,486.8h4.8v-14h-4v-2.7c1.8-0.3,3.6-0.9,5.2-1.9h3.3v18.6h4.2v3.6h-13.4L617.7,486.8L617.7,486.8z"/>
<path class="st0" d="M650,484.6h-2.6v5.8h-4.1v-5.8h-9.5v-3l8.3-13.4h5.3v13.1h2.6V484.6z M643.3,481.3v-4.5c0-1.3,0.1-3.3,0.2-4.6
	h-0.1c-0.5,1.2-1.1,2.4-1.8,3.6l-3.5,5.5H643.3z"/>
<path d="M400,472h3v5.8h5.6V472h2.9v14.8h-2.9v-6.4H403v6.4h-3V472z"/>
<path d="M414.7,472.2c0.1-1,1-1.7,1.9-1.6c0.8,0.1,1.5,0.7,1.6,1.6c-0.1,1-1,1.7-1.9,1.6C415.4,473.7,414.8,473,414.7,472.2z
	 M415,475.6h2.9v11.2H415V475.6z"/>
<path d="M420.3,488.8c0.1-1,0.7-1.9,1.6-2.3v-0.1c-0.6-0.4-1-1.1-1-1.9c0.1-0.9,0.5-1.6,1.2-2.1v-0.1c-0.9-0.7-1.5-1.8-1.5-2.9
	c0-2.6,2.1-4.1,4.5-4.1c0.6,0,1.1,0.1,1.7,0.3h4v2.2H429c0.3,0.5,0.5,1.1,0.5,1.7c0,2.5-1.9,3.8-4.3,3.8c-0.5,0-1-0.1-1.4-0.3
	c-0.3,0.2-0.5,0.6-0.5,1c0,0.6,0.4,0.9,1.8,0.9h1.9c2.7,0,4.2,0.8,4.2,2.8c0,2.3-2.3,4-6.1,4C422.3,491.7,420.3,490.8,420.3,488.8z
	 M428.3,488.2c0-0.8-0.7-1-1.9-1H425c-0.5,0-1,0-1.6-0.2c-0.4,0.3-0.7,0.8-0.7,1.3c0,0.9,1,1.5,2.7,1.5S428.2,489.1,428.3,488.2
	L428.3,488.2z M426.9,479.4c0-1.3-0.7-2.1-1.7-2.1s-1.8,0.8-1.8,2.1c-0.1,1,0.6,1.9,1.6,2c0.1,0,0.1,0,0.2,0
	C426.1,481.4,426.9,480.7,426.9,479.4L426.9,479.4z"/>
<path d="M433,470.8h2.9v4l-0.1,2.1c0.9-1,2.2-1.6,3.5-1.6c2.4,0,3.5,1.7,3.5,4.5v7h-2.9v-6.6c0-1.7-0.5-2.4-1.6-2.4
	c-0.9,0.1-1.8,0.5-2.3,1.3v7.7h-3V470.8z"/>
<path d="M449.6,484.9l1.7-2c1,1,2.3,1.6,3.8,1.6s2.4-0.7,2.4-1.7s-0.9-1.4-2.2-2l-2-0.8c-1.8-0.6-3-2.2-3-4c0-2.4,2.1-4.3,5.1-4.3
	c1.7,0,3.4,0.7,4.6,1.9l-1.5,1.9c-0.9-0.8-2-1.2-3.1-1.2c-1.3,0-2.1,0.6-2.1,1.6s1.1,1.4,2.3,1.9l1.9,0.8c1.8,0.7,3,1.9,3,4
	c0,2.4-2,4.5-5.4,4.5C453,487.1,451,486.3,449.6,484.9z"/>
<path d="M462.1,481.2c-0.2-3.1,2.2-5.7,5.3-5.9c0.2,0,0.3,0,0.5,0c1.2,0,2.4,0.4,3.3,1.2l-1.4,1.9c-0.5-0.5-1.1-0.7-1.7-0.7
	c-1.7,0-2.9,1.4-2.9,3.5s1.2,3.5,2.8,3.5c0.8,0,1.6-0.4,2.2-0.9l1.2,1.9c-1,0.9-2.3,1.4-3.7,1.4
	C464.5,487.1,462.1,484.9,462.1,481.2z"/>
<path d="M473.3,470.8h2.9v4l-0.1,2.1c0.9-1,2.2-1.6,3.5-1.6c2.4,0,3.5,1.7,3.5,4.5v7h-2.9v-6.6c0-1.7-0.5-2.4-1.6-2.4
	c-0.9,0.1-1.8,0.5-2.3,1.3v7.7h-2.9v-16H473.3z"/>
<path d="M485.4,481.2c0-3.8,2.6-5.9,5.4-5.9s5.4,2.2,5.4,5.9s-2.6,5.9-5.4,5.9S485.4,484.9,485.4,481.2z M493.2,481.2
	c0-2.1-0.9-3.5-2.4-3.5s-2.4,1.4-2.4,3.5s0.9,3.5,2.4,3.5S493.2,483.3,493.2,481.2z"/>
<path d="M498,481.2c0-3.8,2.6-5.9,5.4-5.9s5.4,2.2,5.4,5.9s-2.6,5.9-5.4,5.9S498,484.9,498,481.2z M505.8,481.2
	c0-2.1-0.9-3.5-2.4-3.5s-2.4,1.4-2.4,3.5s0.9,3.5,2.4,3.5S505.7,483.3,505.8,481.2L505.8,481.2z"/>
<path d="M511.2,483.7v-12.8h2.9v13c0,0.7,0.3,0.9,0.6,0.9c0.1,0,0.3,0,0.4,0l0.4,2.2c-0.5,0.2-1,0.3-1.5,0.3
	C511.9,487.1,511.2,485.7,511.2,483.7z"/>
<path d="M399.3,504.5c0-4.9,3.2-7.7,7.1-7.7c1.7,0,3.4,0.7,4.6,1.9l-1.6,1.9c-0.7-0.8-1.8-1.3-2.9-1.2c-2.5,0-4.2,1.9-4.2,5.1
	s1.5,5.2,4.4,5.2c0.7,0,1.3-0.2,1.9-0.6v-3H406v-2.4h5.3v6.7c-1.3,1.2-3,1.8-4.8,1.8C402.4,512.1,399.3,509.4,399.3,504.5z"/>
<path d="M414.1,500.6h2.4l0.2,2h0.1c0.6-1.3,1.8-2.1,3.2-2.3c0.5,0,0.9,0.1,1.3,0.2l-0.5,2.5c-0.4-0.1-0.8-0.2-1.2-0.2
	c-0.9,0-1.9,0.6-2.6,2.2v6.7h-2.9V500.6z"/>
<path d="M421.7,508.8c0-2.4,1.9-3.7,6.4-4.1c0-1.1-0.5-2-1.9-2c-1.1,0.1-2.2,0.5-3.1,1.1l-1.1-2c1.4-0.9,3-1.4,4.7-1.5
	c2.8,0,4.3,1.7,4.3,5v6.5h-2.4l-0.2-1.2h-0.1c-0.9,0.9-2.1,1.4-3.4,1.5c-1.8,0.1-3.2-1.3-3.3-3C421.7,509,421.7,508.9,421.7,508.8z
	 M428.1,508.7v-2.3c-2.7,0.4-3.6,1.1-3.6,2.1s0.6,1.3,1.5,1.3C426.8,509.7,427.6,509.3,428.1,508.7L428.1,508.7z"/>
<path d="M433.4,506.2c0-3.7,2.3-5.9,4.7-5.9c1.1,0,2.1,0.4,2.8,1.2l-0.1-1.8v-3.9h2.9v16h-2.4l-0.2-1.2H441
	c-0.8,0.9-1.9,1.4-3.1,1.4C435.2,512.1,433.4,509.9,433.4,506.2z M440.9,508.5v-4.9c-0.6-0.5-1.3-0.8-2.1-0.9
	c-1.3,0-2.3,1.2-2.3,3.5s0.8,3.5,2.3,3.5C439.6,509.7,440.4,509.2,440.9,508.5z"/>
<path d="M446.8,507.6v-7h2.9v6.6c0,1.7,0.5,2.3,1.6,2.3c1,0,1.8-0.6,2.3-1.4v-7.6h2.9v11.2h-2.4l-0.2-1.6h-0.1
	c-0.8,1.2-2.2,1.9-3.6,1.9C447.9,512.1,446.8,510.4,446.8,507.6z"/>
<path d="M459.1,508.8c0-2.4,1.9-3.7,6.4-4.1c0-1.1-0.5-2-1.9-2c-1.1,0.1-2.2,0.5-3.1,1.1l-1.1-2c1.4-0.9,3-1.4,4.7-1.5
	c2.8,0,4.3,1.7,4.3,5v6.5H466l-0.2-1.2h-0.1c-0.9,0.9-2.1,1.4-3.4,1.5c-1.8,0.1-3.2-1.3-3.3-3C459.1,509,459.1,508.9,459.1,508.8z
	 M465.6,508.7v-2.3c-2.7,0.4-3.6,1.1-3.6,2.1s0.6,1.3,1.5,1.3C464.3,509.7,465,509.3,465.6,508.7L465.6,508.7z"/>
<path d="M471.5,507.9v-5H470v-2.2l1.7-0.1l0.3-3h2.5v3h2.8v2.3h-2.8v5c0,1.3,0.5,1.9,1.5,1.9c0.4,0,0.7-0.1,1.1-0.2l0.5,2.1
	c-0.8,0.3-1.6,0.4-2.4,0.4C472.6,512.1,471.5,510.4,471.5,507.9z"/>
<path d="M478.5,506.2c0-3.6,2.5-5.9,5.2-5.9c3.1,0,4.7,2.3,4.7,5.4c0,0.5,0,0.9-0.1,1.3h-6.9c0.1,1.6,1.5,2.9,3.1,2.8l0,0
	c0.9,0,1.8-0.3,2.5-0.8l1,1.8c-1.2,0.8-2.5,1.2-3.9,1.2C480.9,512.1,478.5,509.9,478.5,506.2z M485.8,505.1c0-1.5-0.7-2.5-2.1-2.5
	c-1.3,0-2.4,1.1-2.4,2.5H485.8z"/>
<path d="M494.6,506.2c0-3.8,2.6-5.9,5.4-5.9s5.4,2.2,5.4,5.9s-2.6,5.9-5.4,5.9S494.6,509.9,494.6,506.2z M502.4,506.2
	c0-2.1-0.9-3.5-2.4-3.5s-2.4,1.4-2.4,3.5s0.9,3.5,2.4,3.5S502.4,508.3,502.4,506.2z"/>
<path d="M507.8,500.6h2.4l0.2,2h0.1c0.6-1.3,1.8-2.1,3.2-2.3c0.5,0,0.9,0.1,1.3,0.2l-0.5,2.5c-0.4-0.1-0.8-0.2-1.2-0.2
	c-0.9,0-1.9,0.6-2.6,2.2v6.7h-2.9V500.6z"/>
<path d="M521.3,497h3v12.3h6v2.5h-9V497z"/>
<path d="M531.6,506.2c0-3.8,2.6-5.9,5.4-5.9s5.4,2.2,5.4,5.9s-2.6,5.9-5.4,5.9S531.6,509.9,531.6,506.2z M539.4,506.2
	c0-2.1-0.9-3.5-2.4-3.5s-2.4,1.4-2.4,3.5s0.9,3.5,2.4,3.5S539.4,508.3,539.4,506.2z"/>
<path d="M543.7,500.6h2.9l1.2,5.5c0.2,1.1,0.4,2.2,0.6,3.3h0.1c0.2-1.1,0.4-2.2,0.7-3.3l1.3-5.5h2.6l1.4,5.5
	c0.3,1.1,0.5,2.2,0.7,3.3h0.1c0.2-1.1,0.3-2.2,0.6-3.3l1.2-5.5h2.7l-2.8,11.2h-3.5l-1.2-4.9c-0.2-1.1-0.4-2.1-0.6-3.3h-0.1
	c-0.2,1.2-0.4,2.2-0.6,3.3l-1.1,4.9h-3.4L543.7,500.6z"/>
<path d="M561.1,506.2c0-3.6,2.5-5.9,5.2-5.9c3.1,0,4.7,2.3,4.7,5.4c0,0.5,0,0.9-0.1,1.3H564c0.1,1.6,1.5,2.9,3.1,2.8l0,0
	c0.9,0,1.8-0.3,2.5-0.8l1,1.8c-1.2,0.8-2.5,1.2-3.9,1.2C563.5,512.1,561.1,509.9,561.1,506.2z M568.5,505.1c0-1.5-0.7-2.5-2.1-2.5
	c-1.3,0-2.4,1.1-2.4,2.5H568.5z"/>
<path d="M573.4,500.6h2.4l0.2,2h0.1c0.6-1.3,1.8-2.1,3.2-2.3c0.5,0,0.9,0.1,1.3,0.2l-0.5,2.5c-0.4-0.1-0.8-0.2-1.2-0.2
	c-0.9,0-1.9,0.6-2.6,2.2v6.7h-2.9V500.6z"/>
<path class="st0" d="M611,619.8h-10v-3.7h14.8v2.7c-5.2,6.3-5.8,10.8-6.2,19.5h-4.5C605.5,630.6,606.7,625.7,611,619.8z"/>
<path class="st0" d="M629,619.8h-10v-3.7h14.8v2.7c-5.2,6.3-5.8,10.8-6.2,19.5H623C623.4,630.6,624.7,625.7,629,619.8z"/>
<path class="st0" d="M646.9,619.8h-10v-3.7h14.8v2.7c-5.2,6.3-5.8,10.8-6.2,19.5H641C641.4,630.6,642.7,625.7,646.9,619.8z"/>
<path d="M400,629.3v-8.1h3v8.4c0,3.1,1.1,4.1,2.8,4.1s2.9-1,2.9-4.1v-8.4h2.8v8.1c0,4.9-2.1,6.9-5.7,6.9S400,634.2,400,629.3z"/>
<path d="M414.8,624.8h2.4l0.2,1.5h0.1c0.9-1.1,2.2-1.7,3.6-1.8c2.4,0,3.5,1.7,3.5,4.5v7h-2.9v-6.6c0-1.7-0.5-2.3-1.6-2.3
	c-0.9,0.1-1.8,0.5-2.3,1.3v7.7h-2.9v-11.3H414.8z"/>
<path d="M427.6,620h2.9v9.6h0.1l3.9-4.8h3.2l-3.9,4.6l4.3,6.7h-3.2l-2.7-4.6l-1.6,1.8v2.8h-2.9L427.6,620z"/>
<path d="M439.7,624.8h2.4l0.2,1.5h0.1c0.9-1.1,2.2-1.7,3.6-1.8c2.4,0,3.5,1.7,3.5,4.5v7h-2.9v-6.6c0-1.7-0.5-2.3-1.6-2.3
	c-0.9,0.1-1.8,0.5-2.3,1.3v7.7h-2.9L439.7,624.8z"/>
<path d="M451.8,630.4c0-3.7,2.6-5.9,5.4-5.9s5.4,2.2,5.4,5.9s-2.6,5.9-5.4,5.9S451.8,634.1,451.8,630.4z M459.6,630.4
	c0-2.1-0.9-3.5-2.4-3.5s-2.4,1.4-2.4,3.5s0.9,3.5,2.4,3.5S459.6,632.5,459.6,630.4z"/>
<path d="M463.8,624.8h2.9l1.2,5.5c0.2,1.1,0.4,2.2,0.6,3.3h0.1c0.2-1.1,0.4-2.2,0.7-3.3l1.3-5.5h2.6l1.4,5.5
	c0.3,1.1,0.5,2.2,0.7,3.3h0.1c0.2-1.1,0.3-2.2,0.6-3.3l1.2-5.5h2.7l-2.8,11.2h-3.5l-1.2-4.9c-0.2-1.1-0.4-2.1-0.6-3.3h-0.1
	c-0.2,1.2-0.4,2.2-0.6,3.3L470,636h-3.4L463.8,624.8z"/>
<path d="M482.1,624.8h2.4l0.2,1.5h0.1c0.9-1.1,2.2-1.7,3.6-1.8c2.4,0,3.5,1.7,3.5,4.5v7H489v-6.6c0-1.7-0.5-2.3-1.6-2.3
	c-0.9,0.1-1.8,0.5-2.3,1.3v7.7h-2.9L482.1,624.8z"/>
<path class="st0" d="M344.1,620.8c-0.9-1-2.1-1.6-3.4-1.6c-2.6,0-4.6,1.9-4.8,7.5c1.1-1.4,2.8-2.2,4.6-2.4c3.7,0,6.4,2.2,6.4,7
	c0,4.6-3.2,7.4-7,7.4c-4.2,0-8-3.4-8-11.2c0-8.3,4.1-11.8,8.6-11.8c2.3,0,4.4,0.9,6,2.5L344.1,620.8z M342.7,631.2
	c0-2.6-1.2-3.9-3.1-3.9c-1.5,0.1-2.9,1-3.6,2.3c0.4,4,1.9,5.6,3.8,5.6C341.4,635.3,342.7,633.9,342.7,631.2L342.7,631.2z"/>
<path class="st0" d="M344.6,1053.9c-0.9-1-2.1-1.6-3.4-1.6c-2.6,0-4.6,1.9-4.8,7.5c1.1-1.4,2.8-2.2,4.6-2.4c3.7,0,6.4,2.2,6.4,7
	c0,4.6-3.2,7.4-7,7.4c-4.2,0-8-3.4-8-11.2c0-8.3,4.1-11.8,8.6-11.8c2.3,0,4.4,0.9,6,2.5L344.6,1053.9z M343.2,1064.3
	c0-2.6-1.2-3.9-3.1-3.9c-1.5,0.1-2.9,1-3.6,2.3c0.4,4,1.9,5.6,3.8,5.6C341.9,1068.4,343.2,1067,343.2,1064.3L343.2,1064.3z"/>
</svg>
