<svg xmlns="http://www.w3.org/2000/svg" viewBox="0 0 750 1334"><title>手机版</title><g id="内容"><path d="M641.69,1059.53h-10v-3.69h14.76v2.67c-5.16,6.3-5.85,10.83-6.21,19.53h-4.47C636.17,1070.33,637.46,1065.41,641.69,1059.53Z" fill="#333"/><path d="M665,1072.28h-2.64V1078h-4.11v-5.76H648.8v-3l8.28-13.44h5.28v13.08H665Zm-6.75-3.36v-4.53c0-1.29.12-3.3.18-4.59h-.12c-.54,1.17-1.14,2.4-1.77,3.6l-3.45,5.52Z" fill="#333"/><path d="M667.43,1075.49c6-5.4,9.6-9.57,9.6-13,0-2.25-1.23-3.6-3.33-3.6a5.75,5.75,0,0,0-4.08,2.28l-2.4-2.4c2-2.16,4-3.36,7-3.36,4.2,0,7,2.7,7,6.84s-3.33,8.34-7.38,12.3c1.11-.12,2.58-.24,3.6-.24h4.83V1078H667.43Z" fill="#333"/><path d="M603.47,348.32c6-5.4,9.6-9.57,9.6-13,0-2.25-1.23-3.6-3.33-3.6a5.75,5.75,0,0,0-4.08,2.28l-2.4-2.4c2-2.16,4-3.36,7-3.36,4.2,0,7,2.7,7,6.84s-3.33,8.34-7.38,12.3c1.11-.12,2.58-.24,3.6-.24h4.83v3.72H603.47Z" fill="#333"/><path d="M621.74,354.86c2.31-.87,3.6-2.37,3.6-4.11h-.27a2.59,2.59,0,0,1-2.76-2.61,2.65,2.65,0,0,1,2.85-2.61c2,0,3.18,1.62,3.18,4.35,0,3.51-2.07,6.18-5.67,7.38Z" fill="#333"/><path d="M631.49,348.32c6-5.4,9.6-9.57,9.6-13,0-2.25-1.23-3.6-3.33-3.6a5.75,5.75,0,0,0-4.08,2.28l-2.4-2.4c2-2.16,4-3.36,7.05-3.36,4.2,0,7,2.7,7,6.84s-3.33,8.34-7.38,12.3c1.11-.12,2.58-.24,3.6-.24h4.83v3.72H631.49Z" fill="#333"/><path d="M649,348.2l2.07-2.79a7.05,7.05,0,0,0,5,2.28c2.25,0,3.78-1.11,3.78-3.09,0-2.19-1.29-3.54-6.12-3.54v-3.18c4.08,0,5.4-1.41,5.4-3.39,0-1.74-1.08-2.76-3-2.79a6.33,6.33,0,0,0-4.2,2l-2.25-2.7a9.85,9.85,0,0,1,6.66-2.73c4.29,0,7.2,2.1,7.2,5.91a5.26,5.26,0,0,1-3.72,5.07v.15a5.55,5.55,0,0,1,4.44,5.46c0,4.08-3.57,6.45-7.8,6.45A9.44,9.44,0,0,1,649,348.2Z" fill="#333"/><path d="M666.92,348.2l2.07-2.79a7.05,7.05,0,0,0,5,2.28c2.25,0,3.78-1.11,3.78-3.09,0-2.19-1.29-3.54-6.12-3.54v-3.18c4.08,0,5.4-1.41,5.4-3.39,0-1.74-1.08-2.76-3-2.79a6.33,6.33,0,0,0-4.2,2l-2.25-2.7a9.85,9.85,0,0,1,6.66-2.73c4.29,0,7.2,2.1,7.2,5.91a5.26,5.26,0,0,1-3.72,5.07v.15a5.55,5.55,0,0,1,4.44,5.46c0,4.08-3.57,6.45-7.8,6.45A9.44,9.44,0,0,1,666.92,348.2Z" fill="#333"/><rect x="84.98" y="320.39" width="149.65" height="39.9" rx="19.95" fill="#e6e6e6"/><path d="M112.92,355.61c-.36-1.6-.57-3.24-.85-4.87-.53-3.06-2.71-4.56-5.35-5.56-1.68-.63-3.42-1.07-5.12-1.63-1.51-.51-3-1.17-4.52-1.58a21.32,21.32,0,0,1-5.39-2.36c-.5-.33-.48-2.56-.89-3-1.35-1.47-1.27-1.05-.14-2.7A13.17,13.17,0,0,0,92.57,328c0-.27,0-.54.08-.8,2.8-1.72,3.09-5.12,2.38-6.24a1.1,1.1,0,0,0-1.43-.57l1.13-2.57a7.06,7.06,0,0,0-.57-6.9c-1.19-1.83-5.52-8.27-14.83-5.35-.08,0-3.73,1.3-5.38,3.76a7,7,0,0,0-1.31,2.51,11.15,11.15,0,0,0,.13,4.6c.22,1,.5,1.94.65,2.93a3.68,3.68,0,0,1,.09,1.09,1.11,1.11,0,0,0-1.58.5c-.72,1.14-.4,4.61,2.5,6.31a18.12,18.12,0,0,0,1.78,5.82c.33.5,1.05,1.62,1.34,2.15a1.46,1.46,0,0,1-.1,1.88c-.6.95-.09,1.55-.61,2.59s-5.27,1.76-6,2c-2.85,1-5.73,1.83-8.58,2.79a36.4,36.4,0,0,0-3.89,1.58,5.16,5.16,0,0,0-2.85,3,19.71,19.71,0,0,0-.84,2.88c-.43,2.46-.77,4.94-1.11,7.41a.72.72,0,0,0,.65.87,5.55,5.55,0,0,0,.91,0h57a10.78,10.78,0,0,0,1.12-.12A18.19,18.19,0,0,0,112.92,355.61Z" fill="#3fa9f5"/><path d="M131.77,330.44h3.28l2.52,6.92c.32.92.6,1.9.9,2.86h.1c.32-1,.58-1.94.9-2.86l2.46-6.92h3.28v14.8h-2.7v-6.18c0-1.4.22-3.46.36-4.86h-.08l-1.2,3.48-2.28,6.22h-1.7l-2.3-6.22-1.18-3.48h-.08c.14,1.4.38,3.46.38,4.86v6.18h-2.66Z"/><path d="M148.05,342.2c0-2.4,1.94-3.66,6.44-4.14,0-1.1-.52-1.94-1.9-1.94a6.33,6.33,0,0,0-3.08,1.06l-1.06-1.94a9,9,0,0,1,4.68-1.48c2.84,0,4.3,1.7,4.3,4.94v6.54H155l-.22-1.2h-.06a5.27,5.27,0,0,1-3.38,1.48A3.18,3.18,0,0,1,148.05,342.2Zm6.44-.08v-2.26c-2.72.36-3.64,1.1-3.64,2.1s.62,1.26,1.48,1.26A3,3,0,0,0,154.49,342.12Z"/><path d="M160.43,342.1V329.28h2.92v13c0,.66.32.88.6.88a1.66,1.66,0,0,0,.4,0l.36,2.18a4,4,0,0,1-1.52.26C161.15,345.52,160.43,344.18,160.43,342.1Z"/><path d="M166,339.66c0-3.64,2.54-5.9,5.22-5.9,3.08,0,4.68,2.26,4.68,5.36a5.46,5.46,0,0,1-.14,1.34h-6.9a2.94,2.94,0,0,0,3.1,2.8,4.62,4.62,0,0,0,2.52-.78l1,1.8a7.07,7.07,0,0,1-3.92,1.24C168.47,345.52,166,343.34,166,339.66Zm7.38-1.14c0-1.52-.68-2.48-2.12-2.48a2.53,2.53,0,0,0-2.44,2.48Z"/><rect x="87.14" y="1047" width="149.65" height="39.9" rx="19.95" fill="#e6e6e6"/><path d="M113,1086.67c-1.15.26-57.3.34-59.27.08-.55-1,0-1.94.25-2.87a19.1,19.1,0,0,1,.94-2.32c1-2.79,3.16-4.68,5.5-6.36a2.33,2.33,0,0,1,.72-.32c1.54-.48,3.07-1,4.63-1.41,2.27-.6,9.37-2.77,10.42-4.93.19-.38.27-1.92.42-2.37-1.22-.33-12.86-2.9-10.05-10.08,1-3.21,4.25-13.86,5-16.93a10.68,10.68,0,0,1,7.85-8,8.18,8.18,0,0,1,4.22.11,8,8,0,0,0,2.32.36,6,6,0,0,1,4.51,1.86,14.27,14.27,0,0,1,3.42,5.87c.92,2.6,5.31,17,5.73,21.53-1.68,4.15-8.9,4.77-9.91,5.07a3.51,3.51,0,0,0,1.06,2.53c1.54,1.69,4.95,2.82,7.07,3.68,1.89.77,3.78,1.49,5.69,2.18.59.21,1.26.16,1.84.37a10.51,10.51,0,0,1,4.4,3.46,17.11,17.11,0,0,1,3.37,7.84.81.81,0,0,1,0,.31A1.45,1.45,0,0,1,113,1086.67Z" fill="#f46fa9"/><path d="M131.77,1059.48h9.12v2.46h-6.16v3.86H140v2.48h-5.26v6h-3Z"/><path d="M142.15,1068.7c0-3.64,2.54-5.9,5.22-5.9,3.08,0,4.68,2.26,4.68,5.36a5.46,5.46,0,0,1-.14,1.34H145a2.94,2.94,0,0,0,3.1,2.8,4.62,4.62,0,0,0,2.52-.78l1,1.8a7,7,0,0,1-3.92,1.25C144.59,1074.57,142.15,1072.38,142.15,1068.7Zm7.38-1.14c0-1.52-.68-2.48-2.12-2.48a2.53,2.53,0,0,0-2.44,2.48Z"/><path d="M154.47,1063.08h2.4l.2,1.5h.08a4.72,4.72,0,0,1,3.44-1.78,3,3,0,0,1,3.08,2,5,5,0,0,1,3.56-2c2.38,0,3.48,1.68,3.48,4.5v7h-2.94v-6.63c0-1.72-.5-2.34-1.56-2.34a3.27,3.27,0,0,0-2.16,1.26v7.71h-2.94v-6.63c0-1.72-.5-2.34-1.56-2.34a3.27,3.27,0,0,0-2.16,1.26v7.71h-2.92Z"/><path d="M173.19,1071.24c0-2.4,1.94-3.66,6.44-4.14,0-1.1-.52-1.94-1.9-1.94a6.33,6.33,0,0,0-3.08,1.06l-1.06-1.94a9,9,0,0,1,4.68-1.48c2.84,0,4.3,1.7,4.3,4.94v6.55h-2.4l-.22-1.21h-.06a5.28,5.28,0,0,1-3.38,1.49A3.19,3.19,0,0,1,173.19,1071.24Zm6.44-.08v-2.26c-2.72.36-3.64,1.1-3.64,2.1s.62,1.26,1.48,1.26A3,3,0,0,0,179.63,1071.16Z"/><path d="M185.57,1071.14v-12.82h2.92v13c0,.66.32.88.6.88a1.66,1.66,0,0,0,.4,0l.36,2.19a4,4,0,0,1-1.52.26C186.29,1074.57,185.57,1073.22,185.57,1071.14Z"/><path d="M191.17,1068.7c0-3.64,2.54-5.9,5.22-5.9,3.08,0,4.68,2.26,4.68,5.36a5.46,5.46,0,0,1-.14,1.34H194a2.94,2.94,0,0,0,3.1,2.8,4.62,4.62,0,0,0,2.52-.78l1,1.8a7,7,0,0,1-3.92,1.25C193.61,1074.57,191.17,1072.38,191.17,1068.7Zm7.38-1.14c0-1.52-.68-2.48-2.12-2.48a2.53,2.53,0,0,0-2.44,2.48Z"/></g></svg>