<?xml version="1.0" encoding="utf-8"?>
<!-- Generator: Adobe Illustrator 22.1.0, SVG Export Plug-In . SVG Version: 6.00 Build 0)  -->
<svg version="1.1" id="图层_1" xmlns="http://www.w3.org/2000/svg" xmlns:xlink="http://www.w3.org/1999/xlink" x="0px" y="0px"
	 viewBox="0 0 1280 800" style="enable-background:new 0 0 1280 800;" xml:space="preserve">
<style type="text/css">
	.st0{fill:#E6E6E6;}
	.st1{fill:#F46FA9;}
	.st2{fill:#3FA9F5;}
	.st3{fill:#333333;}
	.st4{fill:#4D4D4D;}
</style>
<title>性别</title>
<path class="st0" d="M823,141.6h109.7c11,0,20,8.9,20,19.9l0,0c0,11-8.9,19.9-20,19.9H823c-11,0-20-8.9-20-19.9l0,0
	C803.1,150.5,812,141.6,823,141.6z"/>
<path class="st1" d="M828.9,181.2c-1.1,0.3-57.3,0.3-59.3,0.1c-0.6-1,0-1.9,0.2-2.9c0.3-0.8,0.6-1.6,1-2.3c1-2.8,3.2-4.7,5.5-6.4
	c0.2-0.1,0.5-0.3,0.7-0.3c1.5-0.5,3.1-1,4.6-1.4c2.3-0.6,9.4-2.8,10.4-4.9c0.2-0.4,0.3-1.9,0.4-2.4c-1.2-0.3-12.9-2.9-10.1-10.1
	c1-3.2,4.2-13.9,5-16.9c0.5-2,1.5-3.8,3-5.2c1.4-1.3,3-2.3,4.9-2.7c1.4-0.3,2.8-0.3,4.2,0.1c0.8,0.2,1.5,0.4,2.3,0.4
	c1.7,0,3.3,0.6,4.5,1.9c1.6,1.7,2.8,3.7,3.4,5.9c0.9,2.6,5.3,17,5.7,21.5c-1.7,4.2-8.9,4.8-9.9,5.1c0,0.9,0.3,1.9,1,2.5
	c1.5,1.7,5,2.8,7.1,3.7c1.9,0.8,3.8,1.5,5.7,2.2c0.6,0.2,1.3,0.1,1.8,0.4c1.7,0.7,3.3,1.9,4.4,3.5c1.8,2.3,2.9,5,3.4,7.8
	c0,0.1,0,0.2,0,0.3C829.1,181,829,181.1,828.9,181.2z"/>
<path class="st0" d="M298.2,141.1h109.7c11,0,20,8.9,20,19.9v0c0,11-8.9,19.9-20,19.9H298.2c-11,0-20-8.9-20-19.9v0
	C278.2,150,287.1,141.1,298.2,141.1z"/>
<path class="st2" d="M306.2,176.3c-0.4-1.6-0.6-3.2-0.9-4.9c-0.5-3.1-2.7-4.6-5.4-5.6c-1.7-0.6-3.4-1.1-5.1-1.6
	c-1.5-0.5-3-1.2-4.5-1.6c-1.9-0.5-3.7-1.3-5.4-2.4c-0.5-0.3-0.5-2.6-0.9-3c-1.4-1.5-1.3-1-0.1-2.7c1.1-1.8,1.8-3.8,1.9-5.9
	c0-0.3,0-0.5,0.1-0.8c2.8-1.7,3.1-5.1,2.4-6.2c-0.2-0.5-0.9-0.8-1.4-0.6l1.1-2.6c1-2.2,0.8-4.9-0.6-6.9c-1.2-1.8-5.5-8.3-14.8-5.3
	c-0.1,0-3.7,1.3-5.4,3.8c-0.6,0.7-1,1.6-1.3,2.5c-0.3,1.5-0.2,3.1,0.1,4.6c0.2,1,0.5,2,0.6,2.9c0.1,0.4,0.1,0.7,0.1,1.1
	c-0.5-0.3-1.2-0.1-1.5,0.4c0,0,0,0.1,0,0.1c-0.7,1.1-0.4,4.6,2.5,6.3c0.3,2,0.9,4,1.8,5.8c0.3,0.5,1,1.6,1.3,2.1
	c0.4,0.6,0.4,1.4-0.1,1.9c-0.6,0.9-0.1,1.6-0.6,2.6c-0.5,1-5.3,1.8-6,2c-2.9,1-5.7,1.8-8.6,2.8c-1.3,0.5-2.6,1-3.9,1.6
	c-1.3,0.6-2.4,1.6-2.9,3c-0.4,0.9-0.6,1.9-0.8,2.9c-0.4,2.5-0.8,4.9-1.1,7.4c-0.1,0.4,0.2,0.8,0.6,0.9c0,0,0.1,0,0.1,0
	c0.3,0,0.6,0,0.9,0h57c0.4,0,0.7-0.1,1.1-0.1C306.5,179.3,306.4,177.8,306.2,176.3z"/>
<path class="st3" d="M981.6,154h-10v-3.7h14.8v2.7c-5.2,6.3-5.8,10.8-6.2,19.5h-4.5C976.1,164.8,977.4,159.8,981.6,154z"/>
<path class="st3" d="M1004.9,166.7h-2.6v5.8h-4.1v-5.8h-9.5v-3l8.3-13.4h5.3v13.1h2.6L1004.9,166.7z M998.2,163.3v-4.5
	c0-1.3,0.1-3.3,0.2-4.6h-0.1c-0.5,1.2-1.1,2.4-1.8,3.6l-3.5,5.5H998.2z"/>
<path class="st3" d="M1007.4,169.9c6-5.4,9.6-9.6,9.6-13c0-2.2-1.2-3.6-3.3-3.6c-1.6,0.1-3.1,1-4.1,2.3l-2.4-2.4c2-2.2,4-3.4,7-3.4
	c4.2,0,7,2.7,7,6.8s-3.3,8.3-7.4,12.3c1.1-0.1,2.6-0.2,3.6-0.2h4.8v3.7h-14.9L1007.4,169.9z"/>
<path class="st3" d="M447.1,169.9c6-5.4,9.6-9.6,9.6-13c0-2.2-1.2-3.6-3.3-3.6c-1.6,0.1-3.1,1-4.1,2.3l-2.4-2.4c2-2.2,4-3.4,7-3.4
	c4.2,0,7,2.7,7,6.8s-3.3,8.3-7.4,12.3c1.1-0.1,2.6-0.2,3.6-0.2h4.8v3.7h-14.9V169.9z"/>
<path class="st3" d="M465.4,176.4c2.3-0.9,3.6-2.4,3.6-4.1h-0.2c-1.4,0.1-2.7-1-2.8-2.4c0-0.1,0-0.1,0-0.2c0-1.5,1.2-2.6,2.7-2.6
	c0.1,0,0.1,0,0.2,0c2,0,3.2,1.6,3.2,4.4c0,3.5-2.1,6.2-5.7,7.4L465.4,176.4z"/>
<path class="st3" d="M475.1,169.9c6-5.4,9.6-9.6,9.6-13c0-2.2-1.2-3.6-3.3-3.6c-1.6,0.1-3.1,1-4.1,2.3l-2.4-2.4c2-2.2,4-3.4,7-3.4
	c4.2,0,7,2.7,7,6.8s-3.3,8.3-7.4,12.3c1.1-0.1,2.6-0.2,3.6-0.2h4.8v3.7h-14.9V169.9z"/>
<path class="st3" d="M492.6,169.8l2.1-2.8c1.3,1.4,3.1,2.2,5,2.3c2.2,0,3.8-1.1,3.8-3.1c0-2.2-1.3-3.5-6.1-3.5v-3.2
	c4.1,0,5.4-1.4,5.4-3.4c0-1.7-1.1-2.8-3-2.8c-1.6,0.1-3.1,0.8-4.2,2l-2.2-2.7c1.8-1.7,4.2-2.7,6.7-2.7c4.3,0,7.2,2.1,7.2,5.9
	c0,2.3-1.5,4.4-3.7,5.1v0.2c2.6,0.5,4.5,2.8,4.4,5.5c0,4.1-3.6,6.4-7.8,6.4C497.2,173,494.5,171.9,492.6,169.8z"/>
<path class="st3" d="M510.5,169.8l2.1-2.8c1.3,1.4,3.1,2.2,5,2.3c2.2,0,3.8-1.1,3.8-3.1c0-2.2-1.3-3.5-6.1-3.5v-3.2
	c4.1,0,5.4-1.4,5.4-3.4c0-1.7-1.1-2.8-3-2.8c-1.6,0.1-3.1,0.8-4.2,2l-2.3-2.7c1.8-1.7,4.2-2.7,6.7-2.7c4.3,0,7.2,2.1,7.2,5.9
	c0,2.3-1.5,4.4-3.7,5.1v0.2c2.6,0.5,4.5,2.8,4.4,5.5c0,4.1-3.6,6.4-7.8,6.4C515.2,173,512.4,171.9,510.5,169.8z"/>
<path class="st4" d="M326.7,153.7h3.6l2.8,7.6c0.4,1,0.7,2.1,1,3.1h0.1c0.4-1.1,0.6-2.1,1-3.1l2.7-7.6h3.6V170h-3v-6.8
	c0-1.5,0.2-3.8,0.4-5.4h-0.1l-1.3,3.8l-2.5,6.8h-1.9l-2.5-6.8l-1.3-3.8h-0.1c0.1,1.5,0.4,3.8,0.4,5.4v6.8h-2.9V153.7z"/>
<path class="st4" d="M344.6,166.6c0-2.6,2.1-4,7.1-4.6c0-1.2-0.6-2.1-2.1-2.1c-1.2,0.1-2.4,0.5-3.4,1.2l-1.2-2.1
	c1.5-1,3.3-1.6,5.1-1.6c3.1,0,4.7,1.9,4.7,5.4v7.2h-2.6l-0.2-1.3H352c-1,1-2.3,1.5-3.7,1.6c-1.9,0.1-3.6-1.4-3.7-3.3
	C344.6,166.8,344.6,166.7,344.6,166.6z M351.7,166.5V164c-3,0.4-4,1.2-4,2.3s0.7,1.4,1.6,1.4C350.3,167.6,351.1,167.2,351.7,166.5
	L351.7,166.5z"/>
<path class="st4" d="M358.3,166.5v-14.1h3.2v14.3c0,0.7,0.4,1,0.7,1c0.1,0,0.3,0,0.4,0l0.4,2.4c-0.5,0.2-1.1,0.3-1.7,0.3
	C359.1,170.2,358.3,168.8,358.3,166.5z"/>
<path class="st4" d="M364.4,163.8c0-4,2.8-6.5,5.8-6.5c3.4,0,5.1,2.5,5.1,5.9c0,0.5,0,1-0.2,1.5h-7.6c0.1,1.8,1.6,3.2,3.4,3.1
	c0,0,0,0,0,0c1,0,1.9-0.3,2.8-0.9l1.1,2c-1.3,0.9-2.8,1.3-4.3,1.4C367.1,170.2,364.4,167.9,364.4,163.8z M372.5,162.5
	c0-1.7-0.8-2.7-2.3-2.7c-1.5,0-2.7,1.2-2.7,2.7H372.5z"/>
<path class="st4" d="M850.8,153.7h10v2.7H854v4.2h5.8v2.7H854v6.6h-3.2L850.8,153.7z"/>
<path class="st4" d="M862.2,163.8c0-4,2.8-6.5,5.7-6.5c3.4,0,5.2,2.5,5.2,5.9c0,0.5,0,1-0.2,1.5h-7.6c0.1,1.8,1.6,3.2,3.4,3.1
	c1,0,2-0.3,2.8-0.9l1.1,2c-1.3,0.9-2.8,1.3-4.3,1.4C864.9,170.3,862.2,167.9,862.2,163.8z M870.3,162.6c0-1.7-0.8-2.7-2.3-2.7
	c-1.5,0-2.7,1.2-2.7,2.7H870.3z"/>
<path class="st4" d="M875.8,157.6h2.6l0.2,1.6h0.1c0.9-1.2,2.3-1.9,3.8-1.9c1.5-0.1,2.9,0.8,3.4,2.1c1.1-1.2,2.3-2.1,3.9-2.1
	c2.6,0,3.8,1.9,3.8,4.9v7.7h-3.2v-7.3c0-1.9-0.5-2.6-1.7-2.6c-0.9,0.1-1.8,0.6-2.4,1.4v8.5h-3.2v-7.3c0-1.9-0.5-2.6-1.7-2.6
	c-0.9,0.1-1.8,0.6-2.4,1.4v8.5h-3.2L875.8,157.6z"/>
<path class="st4" d="M896.3,166.6c0-2.6,2.1-4,7.1-4.6c0-1.2-0.6-2.1-2.1-2.1c-1.2,0.1-2.4,0.5-3.4,1.2l-1.2-2.1
	c1.5-1,3.3-1.6,5.2-1.6c3.1,0,4.7,1.9,4.7,5.4v7.2H904l-0.2-1.3h-0.1c-1,1-2.3,1.5-3.7,1.6c-1.9,0.1-3.6-1.4-3.6-3.4
	C896.3,166.8,896.3,166.7,896.3,166.6z M903.4,166.5V164c-3,0.4-4,1.2-4,2.3s0.7,1.4,1.6,1.4C902,167.7,902.8,167.2,903.4,166.5z"/>
<path class="st4" d="M910,166.5v-14.1h3.2v14.3c0,0.7,0.3,1,0.7,1c0.1,0,0.3,0,0.4,0l0.4,2.4c-0.5,0.2-1.1,0.3-1.7,0.3
	C910.8,170.3,910,168.8,910,166.5z"/>
<path class="st4" d="M916.1,163.8c0-4,2.8-6.5,5.7-6.5c3.4,0,5.2,2.5,5.2,5.9c0,0.5,0,1-0.2,1.5h-7.6c0.1,1.8,1.6,3.2,3.4,3.1
	c1,0,2-0.3,2.8-0.9l1.1,2c-1.3,0.9-2.8,1.3-4.3,1.4C918.8,170.3,916.1,167.9,916.1,163.8z M924.2,162.6c0-1.7-0.8-2.7-2.3-2.7
	c-1.5,0-2.7,1.2-2.7,2.7H924.2z"/>
</svg>
