<?xml version="1.0" encoding="utf-8"?>
<!-- Generator: Adobe Illustrator 22.1.0, SVG Export Plug-In . SVG Version: 6.00 Build 0)  -->
<svg version="1.1" id="图层_1" xmlns="http://www.w3.org/2000/svg" xmlns:xlink="http://www.w3.org/1999/xlink" x="0px" y="0px"
	 viewBox="0 0 750 1334" style="enable-background:new 0 0 750 1334;" xml:space="preserve">
<style type="text/css">
	.st0{fill:#333333;}
	.st1{fill:#666666;}
	.st2{fill:none;stroke:#B3B3B3;stroke-miterlimit:10;stroke-dasharray:2,2;}
	.st3{fill:none;stroke:#666666;stroke-miterlimit:10;}
	.st4{fill:none;stroke:#B3B3B3;stroke-width:2;stroke-miterlimit:10;}
	.st5{fill:#CCCCCC;}
</style>
<title>专业</title>
<path class="st0" d="M557.3,1015.1h5.1v-15h-4.3v-2.9c1.9-0.3,3.8-1,5.5-2h3.5v19.9h4.5v3.8h-14.2V1015.1z"/>
<path class="st0" d="M575.5,1023.2c2.5-0.9,3.8-2.5,3.8-4.4h-0.3c-1.5,0.1-2.8-1.1-2.9-2.6c0-0.1,0-0.1,0-0.2c0-1.6,1.3-2.8,2.9-2.8
	c0,0,0.1,0,0.1,0c2.2,0,3.4,1.7,3.4,4.6c0,3.7-2.2,6.6-6,7.9L575.5,1023.2z"/>
<path class="st0" d="M585.9,1016.2c6.4-5.8,10.2-10.2,10.2-13.9c0-2.4-1.3-3.8-3.5-3.8c-1.7,0.2-3.3,1-4.4,2.4l-2.6-2.6
	c2.2-2.3,4.3-3.6,7.5-3.6c4.5,0,7.5,2.9,7.5,7.3s-3.5,8.9-7.9,13.1c1.2-0.1,2.8-0.2,3.8-0.2h5.2v4h-15.9V1016.2z"/>
<path class="st0" d="M606.3,1015.1h5.1v-15h-4.3v-2.9c1.9-0.3,3.8-1,5.5-2h3.5v19.9h4.4v3.8h-14.2V1015.1z"/>
<path class="st0" d="M109.5,1012.1v-8.1h3v8.4c0,3.1,1.1,4.1,2.8,4.1s2.9-1,2.9-4.1v-8.4h2.8v8.1c0,4.9-2.1,6.9-5.7,6.9
	S109.5,1017,109.5,1012.1z"/>
<path class="st0" d="M124.3,1007.5h2.4l0.2,1.5h0.1c0.9-1.1,2.2-1.7,3.6-1.8c2.4,0,3.5,1.7,3.5,4.5v7h-2.9v-6.6
	c0-1.7-0.5-2.3-1.6-2.3c-0.9,0.1-1.8,0.5-2.3,1.3v7.7h-2.9L124.3,1007.5z"/>
<path class="st0" d="M137.1,1002.8h2.9v9.6h0.1l3.9-4.8h3.2l-3.9,4.6l4.2,6.6h-3.2l-2.7-4.6l-1.6,1.8v2.8h-2.9L137.1,1002.8z"/>
<path class="st0" d="M149.2,1007.5h2.4l0.2,1.5h0.1c0.9-1.1,2.2-1.7,3.6-1.8c2.4,0,3.5,1.7,3.5,4.5v7h-3v-6.6c0-1.7-0.5-2.3-1.6-2.3
	c-0.9,0.1-1.8,0.5-2.3,1.3v7.7h-2.9L149.2,1007.5z"/>
<path class="st0" d="M161.3,1013.1c0-3.7,2.6-5.9,5.4-5.9s5.4,2.2,5.4,5.9s-2.6,5.9-5.4,5.9S161.3,1016.8,161.3,1013.1z
	 M169.1,1013.1c0-2.1-0.9-3.5-2.4-3.5s-2.4,1.4-2.4,3.5s0.9,3.5,2.4,3.5S169.1,1015.2,169.1,1013.1z"/>
<path class="st0" d="M173.3,1007.5h2.9l1.2,5.5c0.2,1.1,0.4,2.2,0.6,3.3h0.1c0.2-1.1,0.4-2.2,0.7-3.3l1.3-5.5h2.6l1.4,5.5
	c0.3,1.1,0.5,2.2,0.7,3.3h0.1c0.2-1.1,0.3-2.2,0.6-3.3l1.2-5.5h2.7l-2.8,11.2h-3.5l-1.2-4.9c-0.2-1.1-0.4-2.1-0.6-3.3h-0.1
	c-0.2,1.2-0.4,2.2-0.6,3.3l-1.1,4.9h-3.4L173.3,1007.5z"/>
<path class="st0" d="M191.6,1007.5h2.4l0.2,1.5h0.1c0.9-1.1,2.2-1.7,3.6-1.8c2.4,0,3.5,1.7,3.5,4.5v7h-2.9v-6.6
	c0-1.7-0.5-2.3-1.6-2.3c-0.9,0.1-1.8,0.5-2.3,1.3v7.7h-2.9L191.6,1007.5z"/>
<path class="st1" d="M211.6,1011.9c0-3.2,1.3-6.3,3.6-8.6l1.1,0.5c-4.4,4.4-4.5,11.5-0.1,15.9c0,0,0.1,0.1,0.1,0.1l-1.1,0.6
	C212.9,1018.2,211.6,1015.1,211.6,1011.9z"/>
<path class="st1" d="M217.4,1013.8c0-3.2,2-5.2,4.2-5.2c1,0,2,0.4,2.8,1.2l-0.1-1.7v-3.8h1.6v14.3h-1.3l-0.2-1.2l0,0
	c-0.8,0.8-1.9,1.3-3,1.4C218.9,1019,217.4,1017.1,217.4,1013.8z M224.2,1016.2v-5.1c-0.6-0.6-1.5-1-2.4-1c-1.6,0-2.8,1.5-2.8,3.7
	s1,3.8,2.7,3.8C222.7,1017.5,223.7,1017,224.2,1016.2L224.2,1016.2z"/>
<path class="st1" d="M228.5,1013.8c0-3.2,2.1-5.2,4.4-5.2c2.5,0,3.9,1.8,3.9,4.6c0,0.3,0,0.6-0.1,0.9h-6.6c0.1,2.1,1.4,3.4,3.2,3.4
	c0.9,0,1.7-0.3,2.4-0.8l0.6,1.1c-1,0.6-2.1,1-3.2,1C230.6,1019,228.5,1017.1,228.5,1013.8z M235.3,1013.1c0-2-0.9-3-2.4-3
	s-2.6,1.1-2.8,3H235.3z"/>
<path class="st1" d="M238.2,1020.6c0.1-0.9,0.6-1.8,1.5-2.2v-0.1c-0.6-0.3-0.9-0.9-0.9-1.6c0.1-0.7,0.5-1.4,1.1-1.8v-0.1
	c-0.8-0.6-1.3-1.6-1.3-2.6c0-1.9,1.5-3.5,3.5-3.5c0.1,0,0.1,0,0.2,0c0.5,0,0.9,0.1,1.4,0.2h3.4v1.3h-2c0.5,0.5,0.8,1.3,0.8,2
	c-0.1,1.9-1.7,3.5-3.6,3.4c-0.5,0-0.9-0.1-1.4-0.3c-0.4,0.3-0.6,0.7-0.6,1.2c0,0.6,0.4,1.1,1.7,1.1h1.9c2.3,0,3.4,0.7,3.4,2.3
	c0,1.8-1.9,3.4-4.9,3.4C239.9,1023.2,238.2,1022.3,238.2,1020.6z M245.6,1020.1c0-0.9-0.7-1.2-2-1.2h-1.7c-0.4,0-0.8-0.1-1.3-0.2
	c-0.6,0.4-1,1-1,1.7c0,1,1.1,1.7,2.9,1.7S245.6,1021.1,245.6,1020.1L245.6,1020.1z M244.4,1012.2c0.1-1.1-0.7-2.2-1.9-2.3
	c-1.1-0.1-2.2,0.7-2.3,1.9c0,0.1,0,0.3,0,0.4c-0.1,1.1,0.7,2.2,1.9,2.3c1.1,0.1,2.2-0.7,2.3-1.9
	C244.4,1012.5,244.4,1012.3,244.4,1012.2z"/>
<path class="st1" d="M249.1,1008.9h1.4l0.1,1.8l0,0c0.5-1.1,1.6-1.9,2.8-2c0.3,0,0.7,0.1,1,0.2l-0.3,1.4c-0.3-0.1-0.7-0.2-1-0.2
	c-0.8,0-1.8,0.6-2.5,2.2v6.3H249L249.1,1008.9z"/>
<path class="st1" d="M255.2,1013.8c0-3.2,2.1-5.2,4.4-5.2c2.5,0,3.9,1.8,3.9,4.6c0,0.3,0,0.6-0.1,0.9h-6.6c0.1,2.1,1.4,3.4,3.2,3.4
	c0.9,0,1.7-0.3,2.5-0.8l0.6,1.1c-1,0.7-2.1,1-3.2,1C257.3,1019,255.2,1017.1,255.2,1013.8z M262,1013.1c0-2-0.9-3-2.4-3
	s-2.6,1.1-2.8,3H262z"/>
<path class="st1" d="M265.1,1013.8c0-3.2,2.1-5.2,4.4-5.2c2.5,0,3.9,1.8,3.9,4.6c0,0.3,0,0.6-0.1,0.9h-6.6c0.1,2.1,1.4,3.4,3.2,3.4
	c0.9,0,1.7-0.3,2.5-0.8l0.6,1.1c-1,0.6-2.1,1-3.2,1C267.2,1019,265.1,1017.1,265.1,1013.8z M272,1013.1c0-2-0.9-3-2.4-3
	c-1.4,0-2.6,1.1-2.8,3H272z"/>
<path class="st1" d="M279.1,1013.8c0-3.3,2.1-5.2,4.5-5.2s4.5,1.9,4.5,5.2s-2.1,5.1-4.5,5.1S279.1,1017.1,279.1,1013.8z
	 M286.5,1013.8c0-2.2-1.1-3.8-2.9-3.8s-2.8,1.5-2.8,3.8s1.1,3.7,2.8,3.7S286.5,1016.1,286.5,1013.8z"/>
<path class="st1" d="M290.8,1008.9h1.4l0.1,1.8l0,0c0.5-1.1,1.6-1.9,2.8-2c0.4,0,0.7,0.1,1,0.2l-0.3,1.4c-0.3-0.1-0.7-0.2-1-0.2
	c-0.8,0-1.8,0.6-2.5,2.2v6.3h-1.6L290.8,1008.9z"/>
<path class="st1" d="M301.8,1008.9h1.4l0.1,1.4h0.1c0.7-0.9,1.8-1.6,3-1.7c1.2-0.1,2.4,0.7,2.7,1.9c0.8-1,1.9-1.7,3.2-1.9
	c2,0,3,1.3,3,3.8v6.2h-1.6v-6c0-1.8-0.6-2.6-1.8-2.6c-1,0.1-1.9,0.7-2.5,1.5v7.1h-1.6v-6c0-1.8-0.6-2.6-1.8-2.6
	c-1,0.1-1.9,0.7-2.5,1.5v7.1h-1.6L301.8,1008.9z"/>
<path class="st1" d="M317.9,1016.2c0-2.1,1.9-3.2,6-3.7c0-1.3-0.4-2.5-2-2.5c-1.1,0-2.1,0.4-2.9,1l-0.6-1.1c1.1-0.8,2.5-1.2,3.9-1.3
	c2.4,0,3.4,1.6,3.4,4v6h-1.4l-0.1-1.2l0,0c-0.9,0.8-2,1.3-3.2,1.4c-1.5,0.1-2.8-0.9-2.9-2.4C317.9,1016.4,317.9,1016.3,317.9,1016.2
	z M323.9,1016.3v-2.7c-3.3,0.4-4.4,1.2-4.4,2.5s0.8,1.6,1.7,1.6C322.2,1017.6,323.2,1017.1,323.9,1016.3L323.9,1016.3z"/>
<path class="st1" d="M326.2,1022.8l0.3-1.3c0.3,0.1,0.6,0.2,0.9,0.2c1,0,1.2-0.7,1.2-1.9v-10.9h1.6v10.9c0,2-0.7,3.2-2.7,3.2
	C327.1,1023.1,326.6,1023,326.2,1022.8z M328.3,1005.8c0.1-0.6,0.6-1.1,1.2-1c0.5,0.1,1,0.5,1,1c-0.1,0.6-0.6,1.1-1.2,1
	C328.8,1006.8,328.4,1006.4,328.3,1005.8z"/>
<path class="st1" d="M332.8,1013.8c0-3.3,2.1-5.2,4.5-5.2s4.5,1.9,4.5,5.2s-2.1,5.1-4.5,5.1S332.8,1017.1,332.8,1013.8z
	 M340.2,1013.8c0-2.2-1.1-3.8-2.8-3.8s-2.8,1.5-2.8,3.8s1.1,3.7,2.8,3.7S340.2,1016.1,340.2,1013.8z"/>
<path class="st1" d="M344.5,1008.9h1.4l0.1,1.8h0c0.5-1.1,1.6-1.9,2.8-2c0.3,0,0.7,0.1,1,0.2l-0.3,1.4c-0.3-0.1-0.7-0.2-1-0.2
	c-0.8,0-1.8,0.6-2.5,2.2v6.3h-1.6L344.5,1008.9z"/>
<path class="st1" d="M350.6,1021.8c3.1-5.4,3.1-12,0-17.3l1-0.5c3.6,5.6,3.6,12.7,0,18.3L350.6,1021.8z"/>
<circle class="st2" cx="119.4" cy="875.1" r="17.7"/>
<circle class="st2" cx="119.4" cy="875.1" r="34.8"/>
<circle class="st2" cx="119.4" cy="875.1" r="51.9"/>
<circle class="st2" cx="119.4" cy="875.1" r="68.9"/>
<path class="st0" d="M207.8,950.9h2.9c2.3,0,3.9,0.8,3.9,3s-1.6,3.2-3.8,3.2h-1.7v4.1h-1.3V950.9z M210.6,956.1
	c1.8,0,2.7-0.7,2.7-2.1s-0.9-2-2.7-2h-1.5v4.1L210.6,956.1z"/>
<path class="st0" d="M216.5,950h1.3v3l-0.1,1.6c0.6-0.8,1.5-1.2,2.5-1.3c1.6,0,2.3,1,2.3,3v4.8h-1.3v-4.7c0-1.4-0.4-2-1.4-2
	c-0.8,0.1-1.6,0.5-2.1,1.2v5.5h-1.3V950z"/>
<path class="st0" d="M225.1,950.9h2.6c3.1,0,4.9,1.8,4.9,5.1s-1.7,5.2-4.8,5.2h-2.6L225.1,950.9z M227.6,960.1
	c2.4,0,3.6-1.5,3.6-4.1s-1.2-4-3.6-4h-1.2v8.2L227.6,960.1z"/>
<path class="st0" d="M207.8,933.3h1.6l2,5.5c0.2,0.7,0.5,1.4,0.7,2.1h0.1c0.2-0.7,0.5-1.4,0.7-2.1l2-5.5h1.6v10.3h-1.2v-5.7
	c0-0.9,0.1-2.1,0.2-3h-0.1l-0.8,2.3l-1.9,5.3h-0.9l-1.9-5.3l-0.8-2.3h-0.1c0.1,0.9,0.1,2.1,0.1,3v5.7h-1.2L207.8,933.3z"/>
<path class="st0" d="M218.6,941.6c0-1.7,1.4-2.5,4.7-2.8c0-1-0.3-1.9-1.6-1.9c-0.8,0-1.6,0.3-2.3,0.8l-0.5-0.9c0.9-0.6,1.9-1,3-1
	c1.8,0,2.6,1.2,2.6,3.1v4.7h-1.1l-0.1-0.9h-0.1c-0.7,0.6-1.6,1-2.5,1.1c-1.1,0.1-2.1-0.8-2.2-1.9
	C218.5,941.8,218.5,941.7,218.6,941.6z M223.2,941.7v-2.1c-2.6,0.3-3.4,0.9-3.4,1.9s0.6,1.2,1.4,1.2
	C221.9,942.7,222.7,942.3,223.2,941.7L223.2,941.7z"/>
<path class="st0" d="M226.1,942.7l0.6-0.8c0.6,0.6,1.4,0.9,2.3,0.9c1,0,1.5-0.5,1.5-1.2s-0.9-1.1-1.7-1.4c-1.1-0.4-2.3-0.9-2.3-2.2
	s1-2.2,2.6-2.2c0.9,0,1.7,0.3,2.4,0.8l-0.6,0.8c-0.5-0.4-1.1-0.7-1.8-0.7c-0.9,0-1.4,0.5-1.4,1.1s0.8,1,1.7,1.3
	c1.1,0.4,2.3,0.9,2.3,2.3c0,1.2-1,2.3-2.8,2.3C227.9,943.7,226.9,943.4,226.1,942.7z"/>
<path class="st0" d="M233.4,941.2V937h-1.1v-1l1.2-0.1l0.2-2.1h1.1v2.2h2.1v1h-2.1v4.2c0,0.9,0.3,1.5,1.2,1.5c0.3,0,0.6-0.1,0.9-0.2
	l0.2,1c-0.5,0.2-0.9,0.3-1.4,0.3C233.9,943.8,233.4,942.7,233.4,941.2z"/>
<path class="st0" d="M237.7,939.8c0-2.5,1.7-4,3.4-4c1.9,0,3,1.4,3,3.6c0,0.2,0,0.5-0.1,0.7h-5.1c-0.1,1.4,1,2.6,2.4,2.7
	c0,0,0.1,0,0.1,0c0.7,0,1.3-0.2,1.9-0.6l0.5,0.8c-0.7,0.5-1.6,0.8-2.5,0.8c-2,0-3.6-1.6-3.6-3.6C237.6,940,237.6,939.9,237.7,939.8z
	 M243,939.2c0-1.5-0.7-2.4-1.9-2.4c-1.2,0.1-2.2,1.1-2.2,2.4H243z"/>
<path class="st0" d="M246,936h1l0.1,1.4l0,0c0.4-0.9,1.2-1.5,2.2-1.6c0.3,0,0.6,0,0.8,0.2l-0.2,1.1c-0.2-0.1-0.5-0.1-0.7-0.1
	c-0.6,0-1.4,0.5-1.9,1.8v4.9H246V936z"/>
<path class="st0" d="M207.8,914.2h3c2.1,0,3.5,0.7,3.5,2.5c0,1-0.6,1.9-1.5,2.2v0c1.2,0.1,2.1,1.2,2.1,2.5c0,2-1.6,3-3.9,3h-3.3
	L207.8,914.2z M210.6,918.6c1.8,0,2.5-0.7,2.5-1.7c0-1.2-0.8-1.7-2.4-1.7h-1.6v3.3L210.6,918.6z M210.9,923.5c1.8,0,2.8-0.6,2.8-2
	s-1-1.8-2.8-1.8h-1.8v3.9L210.9,923.5z"/>
<path class="st0" d="M216.4,922.5c0-1.7,1.4-2.5,4.7-2.8c0-1-0.3-1.9-1.6-1.9c-0.8,0-1.6,0.3-2.3,0.8l-0.5-0.9c0.9-0.6,1.9-1,3-1
	c1.8,0,2.6,1.2,2.6,3.1v4.7h-1.1l-0.1-0.9l0,0c-0.7,0.7-1.6,1-2.5,1.1c-1.1,0.1-2.1-0.7-2.3-1.8
	C216.4,922.7,216.4,922.6,216.4,922.5z M221.1,922.7v-2.1c-2.6,0.3-3.4,0.9-3.4,1.9s0.6,1.2,1.4,1.2
	C219.8,923.6,220.5,923.2,221.1,922.7z"/>
<path class="st0" d="M224.2,920.7c-0.2-2,1.4-3.8,3.4-4c0.1,0,0.2,0,0.3,0c0.8,0,1.6,0.3,2.2,0.9l-0.7,0.8c-0.4-0.4-0.9-0.7-1.5-0.7
	c-1.4,0-2.4,1.2-2.4,2.9s1,2.9,2.4,2.9c0.7,0,1.3-0.3,1.8-0.8l0.6,0.8c-0.7,0.6-1.5,1-2.4,1C225.7,924.7,224.2,923.2,224.2,920.7z"
	/>
<path class="st0" d="M231.9,913.3h1.3v3.1v1.6c0.6-0.8,1.5-1.2,2.5-1.3c1.6,0,2.3,1,2.3,3v4.8h-1.3v-4.7c0-1.4-0.4-2-1.4-2
	c-0.8,0.1-1.6,0.5-2.1,1.2v5.5h-1.3L231.9,913.3z"/>
<path class="st0" d="M239.8,920.7c0-2.5,1.7-4,3.4-4c1.9,0,3,1.4,3,3.6c0,0.2,0,0.5-0.1,0.7H241c-0.1,1.4,1,2.6,2.4,2.7
	c0,0,0.1,0,0.1,0c0.7,0,1.4-0.2,1.9-0.6l0.5,0.8c-0.7,0.5-1.6,0.8-2.5,0.8c-2,0-3.6-1.6-3.6-3.6
	C239.8,920.9,239.8,920.8,239.8,920.7z M245.1,920.1c0-1.5-0.7-2.4-1.9-2.4c-1.2,0.1-2.2,1.1-2.2,2.4H245.1z"/>
<path class="st0" d="M248.1,923v-9.6h1.3v9.7c0,0.4,0.2,0.5,0.4,0.5c0.1,0,0.2,0,0.3,0l0.2,1c-0.2,0.1-0.5,0.1-0.7,0.1
	C248.5,924.7,248.1,924.1,248.1,923z"/>
<path class="st0" d="M251.5,920.7c0-2.5,1.7-4,3.5-4s3.5,1.5,3.5,4s-1.7,4-3.5,4S251.5,923.2,251.5,920.7z M257.3,920.7
	c0-1.8-0.9-2.9-2.2-2.9s-2.2,1.2-2.2,2.9s0.9,2.9,2.2,2.9S257.3,922.5,257.3,920.7L257.3,920.7z"/>
<path class="st0" d="M260.6,916.9h1l0.1,1.4h0c0.4-0.9,1.2-1.5,2.1-1.6c0.3,0,0.6,0,0.8,0.2l-0.2,1.1c-0.2-0.1-0.5-0.1-0.8-0.1
	c-0.6,0-1.4,0.5-1.9,1.8v4.9h-1.2V916.9z"/>
<path class="st0" d="M212.5,898.7h-3.8l-1,3.1h-1.3l3.5-10.3h1.4l3.5,10.3h-1.4L212.5,898.7z M212.1,897.7l-0.5-1.6
	c-0.4-1.2-0.7-2.3-1-3.5h-0.1c-0.3,1.2-0.7,2.3-1,3.5l-0.5,1.6H212.1z"/>
<path class="st0" d="M215.7,901l0.6-0.8c0.6,0.6,1.4,0.9,2.3,0.9c1,0,1.5-0.5,1.5-1.2s-0.9-1.1-1.7-1.5c-1.1-0.4-2.3-0.9-2.3-2.2
	s1-2.2,2.6-2.2c0.9,0,1.7,0.3,2.4,0.8l-0.6,0.8c-0.5-0.4-1.1-0.7-1.8-0.7c-0.9,0-1.4,0.5-1.4,1.1s0.8,1,1.7,1.3
	c1.1,0.4,2.3,0.9,2.3,2.3c0,1.2-1,2.2-2.8,2.2C217.5,902,216.5,901.7,215.7,901z"/>
<path class="st0" d="M222.2,901l0.6-0.8c0.6,0.6,1.4,0.9,2.3,0.9c1,0,1.5-0.5,1.5-1.2s-0.9-1.1-1.7-1.5c-1.1-0.4-2.3-0.9-2.3-2.2
	s1-2.2,2.6-2.2c0.9,0,1.7,0.3,2.4,0.8l-0.6,0.8c-0.5-0.4-1.1-0.7-1.8-0.7c-1,0-1.4,0.5-1.4,1.1s0.8,1,1.7,1.3
	c1.1,0.4,2.3,0.9,2.3,2.3c0,1.2-1,2.2-2.8,2.2C224,902,223,901.7,222.2,901z"/>
<path class="st0" d="M229.1,898c0-2.5,1.7-4,3.5-4s3.5,1.5,3.5,4s-1.7,4-3.5,4S229.1,900.6,229.1,898z M234.8,898
	c0-1.8-0.9-2.9-2.2-2.9s-2.2,1.2-2.2,2.9s0.9,2.9,2.2,2.9S234.8,899.8,234.8,898L234.8,898z"/>
<path class="st0" d="M237.5,898c-0.2-2,1.4-3.8,3.4-4c0.1,0,0.2,0,0.3,0c0.8,0,1.6,0.3,2.2,0.9l-0.7,0.9c-0.4-0.4-0.9-0.7-1.5-0.7
	c-1.4,0-2.4,1.2-2.4,2.9s0.9,2.9,2.4,2.9c0.7,0,1.3-0.3,1.8-0.8l0.5,0.8c-0.7,0.6-1.5,1-2.4,1C239.1,902,237.5,900.6,237.5,898z"/>
<path class="st0" d="M245,891.8c0.1-0.5,0.5-0.8,1-0.8c0.4,0,0.7,0.4,0.8,0.8c-0.1,0.5-0.5,0.8-1,0.8
	C245.4,892.6,245,892.3,245,891.8z M245.2,894.2h1.3v7.6h-1.3V894.2z"/>
<path class="st0" d="M248.6,899.9c0-1.7,1.4-2.5,4.7-2.8c0-1-0.3-1.9-1.6-1.9c-0.8,0-1.6,0.3-2.3,0.8l-0.5-0.9c0.9-0.6,1.9-1,3-1
	c1.9,0,2.6,1.2,2.6,3.1v4.7h-1.1l-0.1-0.9l0,0c-0.7,0.6-1.6,1-2.5,1.1c-1.1,0.1-2.1-0.7-2.3-1.8C248.6,900.1,248.6,900,248.6,899.9z
	 M253.3,900v-2.1c-2.6,0.3-3.4,0.9-3.4,1.9s0.6,1.2,1.3,1.2C252,901,252.7,900.6,253.3,900z"/>
<path class="st0" d="M257,899.5v-4.2h-1.1v-1l1.2-0.1l0.2-2.1h1.1v2.1h2.1v1h-2.1v4.2c0,0.9,0.3,1.5,1.2,1.5c0.3,0,0.6-0.1,0.9-0.2
	l0.2,1c-0.5,0.2-0.9,0.3-1.4,0.3C257.5,902,257,901,257,899.5z"/>
<path class="st0" d="M261.3,898c0-2.5,1.7-4,3.4-4c1.9,0,3,1.4,3,3.6c0,0.2,0,0.5,0,0.7h-5.1c-0.1,1.4,1,2.6,2.4,2.7
	c0,0,0.1,0,0.1,0c0.7,0,1.3-0.2,1.9-0.6l0.5,0.8c-0.7,0.5-1.6,0.8-2.5,0.8c-2,0-3.7-1.6-3.7-3.6C261.2,898.3,261.2,898.2,261.3,898z
	 M266.6,897.4c0-1.5-0.7-2.4-1.9-2.4c-1.2,0.1-2.2,1.1-2.2,2.4H266.6z"/>
<path class="st0" d="M269,898c0-2.5,1.6-4,3.3-4c0.8,0,1.6,0.3,2.1,0.9l-0.1-1.3v-2.9h1.3v11.2h-1l-0.1-0.9l0,0
	c-0.6,0.6-1.4,1-2.3,1.1C270.3,902,269,900.6,269,898z M274.4,899.9v-4c-0.5-0.5-1.2-0.8-1.9-0.8c-1.2,0-2.2,1.2-2.2,2.9
	s0.8,2.9,2.1,2.9C273.2,900.9,273.9,900.6,274.4,899.9L274.4,899.9z"/>
<path class="st0" d="M280.9,896.7c0-3.3,1.9-5.3,4.5-5.3c1.1,0,2.1,0.5,2.8,1.3l-0.7,0.8c-0.5-0.6-1.3-1-2.1-1
	c-1.9,0-3.2,1.6-3.2,4.2s1.2,4.2,3.2,4.2c0.9,0,1.8-0.4,2.4-1.2l0.7,0.8c-0.8,0.9-1.9,1.5-3.1,1.5
	C282.9,902,280.9,900.1,280.9,896.7z"/>
<path class="st0" d="M289.8,898c0-2.5,1.7-4,3.5-4s3.5,1.5,3.5,4s-1.7,4-3.5,4S289.8,900.6,289.8,898z M295.5,898
	c0-1.8-0.9-2.9-2.2-2.9s-2.2,1.2-2.2,2.9s0.9,2.9,2.2,2.9S295.5,899.8,295.5,898z"/>
<path class="st0" d="M298.8,900.3v-9.6h1.3v9.7c0,0.4,0.2,0.5,0.4,0.5c0.1,0,0.2,0,0.3,0l0.2,1c-0.2,0.1-0.5,0.1-0.8,0.1
	C299.2,902,298.8,901.4,298.8,900.3z"/>
<path class="st0" d="M302.8,900.3v-9.6h1.3v9.7c0,0.4,0.2,0.5,0.4,0.5c0.1,0,0.2,0,0.3,0l0.2,1c-0.2,0.1-0.5,0.1-0.8,0.1
	C303.2,902,302.8,901.4,302.8,900.3z"/>
<path class="st0" d="M306.2,898c0-2.5,1.7-4,3.4-4c1.9,0,3,1.4,3,3.6c0,0.2,0,0.5,0,0.7h-5.1c-0.1,1.4,1,2.6,2.4,2.6
	c0,0,0.1,0,0.1,0c0.7,0,1.3-0.2,1.9-0.6l0.5,0.8c-0.7,0.5-1.6,0.8-2.5,0.8c-2,0-3.6-1.6-3.6-3.6C306.2,898.3,306.2,898.2,306.2,898z
	 M311.6,897.4c0-1.5-0.7-2.4-1.9-2.4c-1.2,0.1-2.2,1.1-2.2,2.4H311.6z"/>
<path class="st0" d="M313.8,903.3c0.1-0.7,0.5-1.4,1.1-1.7v0c-0.4-0.3-0.7-0.7-0.7-1.2c0-0.6,0.4-1.1,0.9-1.4v0
	c-1.2-0.9-1.3-2.6-0.4-3.8c0.5-0.7,1.4-1,2.3-1c0.4,0,0.7,0.1,1.1,0.2h2.6v1h-1.6c0.4,0.4,0.6,1,0.6,1.6c0,1.4-1.1,2.6-2.6,2.7
	c-0.1,0-0.1,0-0.2,0c-0.4,0-0.8-0.1-1.1-0.3c-0.3,0.2-0.5,0.5-0.5,0.9c0,0.5,0.3,0.8,1.3,0.8h1.5c1.8,0,2.6,0.6,2.6,1.8
	c0,1.4-1.5,2.6-3.8,2.6C315.1,905.3,313.8,904.6,313.8,903.3z M319.6,902.9c0-0.7-0.5-0.9-1.6-0.9h-1.3c-0.3,0-0.7,0-1-0.1
	c-0.5,0.3-0.8,0.8-0.8,1.3c0,0.8,0.8,1.3,2.2,1.3S319.6,903.7,319.6,902.9z M318.6,896.8c0.1-0.9-0.5-1.7-1.4-1.8
	c-0.9-0.1-1.7,0.5-1.8,1.4c0,0.1,0,0.2,0,0.4c-0.1,0.9,0.5,1.7,1.4,1.8c0.9,0.1,1.7-0.5,1.8-1.4C318.6,897,318.6,896.9,318.6,896.8z
	"/>
<path class="st0" d="M321.5,898c0-2.5,1.7-4,3.4-4c1.9,0,3,1.4,3,3.6c0,0.2,0,0.5-0.1,0.7h-5.1c-0.1,1.4,1,2.6,2.4,2.7
	c0,0,0.1,0,0.1,0c0.7,0,1.3-0.2,1.9-0.6l0.5,0.8c-0.7,0.5-1.6,0.8-2.5,0.8c-2,0-3.6-1.6-3.6-3.6C321.5,898.3,321.5,898.2,321.5,898z
	 M326.8,897.4c0-1.5-0.7-2.4-1.9-2.4c-1.2,0.1-2.2,1.1-2.2,2.4H326.8z"/>
<path class="st0" d="M332.5,896.7c0-3.3,2-5.3,4.7-5.3c1.1,0,2.2,0.4,3,1.3l-0.7,0.8c-0.6-0.6-1.4-1-2.2-1c-2.1,0-3.4,1.6-3.4,4.2
	s1.2,4.2,3.4,4.2c0.7,0,1.3-0.2,1.9-0.6v-2.7H337v-1.1h3.4v4.3c-0.9,0.8-2,1.2-3.2,1.2C334.4,902,332.5,900.1,332.5,896.7z"/>
<path class="st0" d="M342.6,894.2h1l0.1,1.4l0,0c0.4-0.9,1.2-1.5,2.2-1.6c0.3,0,0.6,0,0.8,0.2l-0.2,1.1c-0.2-0.1-0.5-0.1-0.8-0.1
	c-0.6,0-1.4,0.5-1.9,1.8v4.9h-1.3L342.6,894.2z"/>
<path class="st0" d="M347.2,899.9c0-1.7,1.4-2.5,4.7-2.8c0-1-0.3-1.9-1.6-1.9c-0.8,0-1.6,0.3-2.3,0.8l-0.5-0.9c0.9-0.6,1.9-1,3-1
	c1.9,0,2.6,1.2,2.6,3.1v4.7h-1l-0.1-0.9l0,0c-0.7,0.6-1.6,1-2.5,1.1c-1.1,0.1-2.1-0.7-2.3-1.8C347.2,900.1,347.2,900,347.2,899.9z
	 M351.9,900v-2.1c-2.6,0.3-3.4,0.9-3.4,1.9s0.6,1.2,1.4,1.2C350.6,900.9,351.3,900.6,351.9,900z"/>
<path class="st0" d="M355,898c0-2.5,1.6-4,3.3-4c0.8,0,1.6,0.3,2.1,0.9l-0.1-1.3v-2.9h1.3v11.2h-1l-0.1-0.9l0,0
	c-0.6,0.6-1.4,1-2.3,1.1C356.2,902,355,900.6,355,898z M360.4,899.9v-4c-0.5-0.5-1.2-0.8-1.9-0.8c-1.2,0-2.2,1.2-2.2,2.9
	s0.8,2.9,2.1,2.9C359.2,900.9,359.9,900.5,360.4,899.9L360.4,899.9z"/>
<path class="st0" d="M364.1,899.1v-4.8h1.3v4.7c0,1.4,0.4,2,1.4,2c0.8,0,1.3-0.4,2.1-1.3v-5.4h1.3v7.6h-1.1l-0.1-1.2l0,0
	c-0.6,0.8-1.5,1.3-2.5,1.4C364.9,902,364.1,901,364.1,899.1z"/>
<path class="st0" d="M372.3,899.9c0-1.7,1.4-2.5,4.7-2.8c0-1-0.3-1.9-1.6-1.9c-0.8,0-1.6,0.3-2.3,0.8l-0.5-0.9c0.9-0.6,1.9-1,3-1
	c1.9,0,2.6,1.2,2.6,3.1v4.7h-1l-0.1-0.9l0,0c-0.7,0.6-1.6,1-2.5,1.1c-1.1,0.1-2.2-0.7-2.3-1.8C372.3,900.1,372.3,900,372.3,899.9z
	 M376.9,900v-2.1c-2.6,0.3-3.4,0.9-3.4,1.9s0.6,1.2,1.3,1.2C375.7,901,376.4,900.6,376.9,900z"/>
<path class="st0" d="M380.6,899.5v-4.2h-1.1v-1l1.2-0.1l0.2-2.1h1.1v2.1h2.1v1h-2.1v4.2c0,0.9,0.3,1.5,1.2,1.5
	c0.3,0,0.6-0.1,0.9-0.2l0.2,1c-0.5,0.2-0.9,0.3-1.4,0.3C381.2,902,380.6,901,380.6,899.5z"/>
<path class="st0" d="M384.9,898c0-2.5,1.7-4,3.4-4c1.9,0,3,1.4,3,3.6c0,0.2,0,0.5,0,0.7h-5.1c-0.1,1.4,1,2.6,2.4,2.7
	c0,0,0.1,0,0.1,0c0.7,0,1.3-0.2,1.9-0.6l0.5,0.8c-0.7,0.5-1.6,0.8-2.5,0.8c-2,0-3.6-1.6-3.6-3.6C384.9,898.3,384.9,898.2,384.9,898z
	 M390.2,897.4c0-1.5-0.7-2.4-1.9-2.4c-1.2,0.1-2.2,1.1-2.2,2.4H390.2z"/>
<path class="st0" d="M395.8,898c0-2.5,1.7-4,3.5-4s3.5,1.5,3.5,4s-1.7,4-3.5,4S395.8,900.6,395.8,898z M401.5,898
	c0-1.8-0.9-2.9-2.2-2.9s-2.2,1.2-2.2,2.9s0.9,2.9,2.2,2.9S401.5,899.8,401.5,898z"/>
<path class="st0" d="M404.9,894.2h1l0.1,1.4l0,0c0.4-0.9,1.2-1.5,2.2-1.6c0.3,0,0.6,0,0.8,0.2l-0.2,1.1c-0.2-0.1-0.5-0.1-0.7-0.1
	c-0.6,0-1.4,0.5-1.9,1.8v4.9h-1.3L404.9,894.2z"/>
<path class="st0" d="M413.5,891.6h1.3v9.2h4.5v1.1h-5.8V891.6z"/>
<path class="st0" d="M420.3,898c0-2.5,1.7-4,3.5-4s3.5,1.5,3.5,4s-1.7,4-3.5,4S420.3,900.6,420.3,898z M426,898
	c0-1.8-0.9-2.9-2.2-2.9s-2.2,1.2-2.2,2.9s0.9,2.9,2.2,2.9S426,899.8,426,898L426,898z"/>
<path class="st0" d="M428.4,894.2h1.3l1.1,4.4c0.2,0.7,0.3,1.4,0.5,2.1h0.1c0.2-0.7,0.3-1.4,0.5-2.1l1.2-4.4h1.2l1.2,4.4
	c0.2,0.7,0.4,1.4,0.5,2.1l0,0c0.2-0.7,0.3-1.4,0.5-2.1l1.1-4.4h1.2l-2,7.6h-1.5l-1.1-4.1c-0.2-0.7-0.3-1.4-0.5-2.2h-0.1
	c-0.2,0.8-0.3,1.5-0.5,2.2l-1,4.1h-1.5L428.4,894.2z"/>
<path class="st0" d="M439.9,898c0-2.5,1.7-4,3.4-4c1.9,0,3,1.4,3,3.6c0,0.2,0,0.5,0,0.7h-5.1c-0.1,1.4,1,2.6,2.4,2.7
	c0,0,0.1,0,0.1,0c0.7,0,1.3-0.2,1.9-0.6l0.5,0.8c-0.7,0.5-1.6,0.8-2.5,0.8c-2,0-3.6-1.6-3.6-3.6C439.8,898.3,439.8,898.2,439.9,898z
	 M445.2,897.4c0-1.5-0.7-2.4-1.9-2.4c-1.2,0.1-2.2,1.1-2.2,2.4H445.2z"/>
<path class="st0" d="M448.2,894.2h1l0.1,1.4l0,0c0.4-0.9,1.2-1.5,2.2-1.6c0.3,0,0.6,0,0.8,0.2l-0.2,1.1c-0.2-0.1-0.5-0.1-0.7-0.1
	c-0.6,0-1.4,0.5-1.9,1.8v4.9h-1.3L448.2,894.2z"/>
<polyline class="st3" points="120.8,936.9 139.9,955 197.1,955 "/>
<circle class="st1" cx="120.8" cy="936.9" r="2.7"/>
<polyline class="st3" points="120.8,918 142.1,938.2 197.1,938.2 "/>
<circle class="st1" cx="120.8" cy="918" r="2.7"/>
<polyline class="st3" points="120.8,901.7 141,920.9 198.4,920.9 "/>
<circle class="st1" cx="120.8" cy="901.6" r="2.7"/>
<polyline class="st3" points="120.8,875 148,900.7 199.4,900.7 "/>
<circle class="st1" cx="120.8" cy="875" r="2.7"/>
<line class="st4" x1="373.9" y1="340.1" x2="375.8" y2="578.9"/>
<line class="st2" x1="375.8" y1="578.9" x2="320.6" y2="811.5"/>
<line class="st2" x1="485.3" y1="365.6" x2="375.8" y2="578.9"/>
<line class="st2" x1="375.8" y1="578.9" x2="218.9" y2="759.3"/>
<line class="st2" x1="570.8" y1="441.3" x2="375.8" y2="578.9"/>
<line class="st2" x1="375.8" y1="578.9" x2="153.4" y2="665.3"/>
<line class="st2" x1="613.5" y1="547.3" x2="375.8" y2="578.9"/>
<line class="st2" x1="375.8" y1="578.9" x2="138" y2="552.4"/>
<line class="st4" x1="599.8" y1="660.6" x2="375.8" y2="578.9"/>
<line class="st2" x1="375.8" y1="578.9" x2="177.5" y2="444.7"/>
<line class="st2" x1="536.4" y1="755.2" x2="375.8" y2="578.9"/>
<line class="st2" x1="375.8" y1="578.9" x2="262.9" y2="367.8"/>
<line class="st2" x1="436.4" y1="809.3" x2="375.8" y2="578.9"/>
<path class="st5" d="M375.6,837c-19.3,0-38.6-2.2-57.5-6.5l3-13.2c37.4,8.5,76.2,8.2,113.4-1.1l3.3,13.2
	C417.5,834.5,396.6,837,375.6,837z M314.4,829.7c-30.6-7.5-59.6-20.6-85.6-38.6c-7.2-5-14.2-10.4-20.9-16.1l8.8-10.3
	c6.4,5.4,13,10.5,19.9,15.3c24.5,17,52,29.4,81,36.6L314.4,829.7z M441.6,828.5l-3.5-13.1c37.1-9.8,71.3-28.1,100-53.5l9,10.2
	C516.9,798.8,480.8,818.2,441.6,828.5z M205,772.4c-30.4-26.8-54-60.3-69-97.9l12.6-5c14.2,35.6,36.6,67.3,65.4,92.7L205,772.4z
	 M550.1,769.4l-9.2-10c28.2-25.9,50.1-58.1,63.7-93.9l12.7,4.8C603,708.1,579.9,742.1,550.1,769.4L550.1,769.4z M134.6,670.9
	c-11.3-29.5-17-60.7-17-92.3c0-8.8,0.5-17.6,1.4-26.4l13.5,1.4c-3.9,38.1,1.2,76.7,14.8,112.5L134.6,670.9z M618.7,666.7l-12.8-4.6
	c9.6-26.6,14.6-54.7,14.5-83c0-9.9-0.6-19.9-1.8-29.7l13.5-1.6c1.3,10.4,1.9,20.9,1.9,31.4C634,608.9,628.9,638.6,618.7,666.7z
	 M132.9,550l-13.5-1.6c4.7-40.2,18.9-78.8,41.4-112.4l11.3,7.5C150.8,475.4,137.3,511.9,132.9,550z M618.2,545.8
	c-5.2-38-19.3-74.2-41-105.8l11.2-7.7c22.9,33.3,37.7,71.6,43.2,111.7L618.2,545.8z M174.2,440.5l-11.2-7.7l0.6-0.9
	c22.9-33.3,53.5-60.8,89.1-80l6.5,11.9c-33.7,18.2-62.7,44.2-84.4,75.8L174.2,440.5z M575.2,437c-16.4-23-36.7-43-60-59.1
	c-8.2-5.7-16.7-10.8-25.5-15.5l6.3-12c9.3,4.9,18.3,10.3,26.9,16.3c24.5,17,45.9,38,63.3,62.3L575.2,437z M262.4,362.1l-6.3-12
	c35.9-18.7,75.6-28.8,116.1-29.4l0.2,13.6C334.1,334.9,296.4,344.4,262.4,362.1z M486.4,360.6c-34.2-17.3-72-26.4-110.3-26.4v-13.6
	c40.5,0,80.3,9.6,116.4,27.9L486.4,360.6z"/>
<circle class="st2" cx="375.8" cy="578.9" r="61.3"/>
<circle class="st2" cx="375.8" cy="578.9" r="120.4"/>
<circle class="st2" cx="375.8" cy="578.9" r="179.4"/>
<circle class="st2" cx="375.8" cy="578.9" r="238.5"/>
<path class="st0" d="M385.5,295.1l9.1,0.5l-0.1,2.5l-6.1-0.3l-0.2,3.4l5.2,0.3l-0.1,2.5l-5.2-0.3l-0.2,4l6.3,0.3l-0.1,2.5l-9.3-0.5
	L385.5,295.1z"/>
<path class="st0" d="M397.5,299.5l2.4,0.2l0.1,1.5h0.1c1-1,2.4-1.5,3.8-1.5c2.4,0.2,3.3,2,3.1,4.8l-0.6,7l-2.9-0.2l0.6-6.6
	c0.1-1.7-0.3-2.4-1.4-2.5c-0.9,0-1.8,0.4-2.4,1.1l-0.6,7.7l-2.9-0.2L397.5,299.5z"/>
<path class="st0" d="M408.2,313.7c0.2-1,0.9-1.8,1.9-2.1v-0.1c-0.6-0.5-0.9-1.2-0.8-2c0.2-0.8,0.7-1.5,1.5-1.9v-0.1
	c-0.8-0.8-1.2-2-1.1-3.1c0.4-2.6,2.7-3.7,5-3.4c0.6,0.1,1.1,0.3,1.6,0.5l4,0.6l-0.3,2.1l-1.9-0.3c0.3,0.5,0.4,1.2,0.3,1.8
	c-0.4,2.5-2.4,3.5-4.8,3.1c-0.5-0.1-1-0.2-1.4-0.5c-0.3,0.2-0.6,0.5-0.6,0.9c-0.1,0.6,0.3,1,1.6,1.2l1.9,0.3c2.7,0.4,4,1.4,3.7,3.4
	c-0.3,2.2-2.9,3.6-6.6,3.1C409.8,316.9,407.9,315.7,408.2,313.7z M416.2,314.2c0.1-0.8-0.5-1.1-1.7-1.2l-1.4-0.2
	c-0.5-0.1-1-0.2-1.5-0.4c-0.5,0.2-0.8,0.7-0.9,1.2c-0.1,0.9,0.8,1.6,2.5,1.9S416,315.1,416.2,314.2L416.2,314.2z M416.1,305.4
	c0.2-1.3-0.5-2.1-1.4-2.3s-1.9,0.5-2,1.8c-0.3,1,0.3,2,1.3,2.2c0.1,0,0.1,0,0.2,0C415,307.3,415.9,306.6,416.1,305.4L416.1,305.4z"
	/>
<path class="st0" d="M422.8,302.6l2.9,0.5l-1.9,11l-2.9-0.5L422.8,302.6z M423.1,299.2c0.2-0.9,1-1.5,1.9-1.3c0,0,0.1,0,0.1,0
	c0.9,0.1,1.5,0.8,1.5,1.7c0,0,0,0.1,0,0.1c-0.3,0.9-1.2,1.5-2.2,1.2C423.6,300.8,423.1,300,423.1,299.2L423.1,299.2z"/>
<path class="st0" d="M429.1,303.7l2.4,0.5l-0.1,1.5h0.1c1.1-0.9,2.5-1.2,3.9-1c2.4,0.5,3,2.4,2.5,5.1l-1.4,6.8l-2.9-0.6l1.4-6.5
	c0.4-1.7,0-2.4-1.1-2.6c-0.9-0.1-1.8,0.1-2.5,0.8l-1.6,7.5l-2.9-0.6L429.1,303.7z"/>
<path class="st0" d="M439.9,311.8c0.9-3.5,3.9-5.1,6.5-4.4c3,0.8,4,3.4,3.2,6.4c-0.1,0.4-0.3,0.9-0.5,1.3l-6.7-1.7
	c-0.3,1.6,0.7,3.1,2.3,3.5c0,0,0,0,0,0c0.9,0.2,1.8,0.2,2.6-0.1l0.5,2c-1.3,0.5-2.7,0.6-4.1,0.2C440.8,318,438.9,315.3,439.9,311.8z
	 M447.3,312.5c0.4-1.5,0-2.6-1.4-2.9c-1.3-0.3-2.6,0.5-3,1.8L447.3,312.5z"/>
<path class="st0" d="M451.2,314.7c1.1-3.5,4.1-4.9,6.7-4.1c3,0.9,3.8,3.5,2.9,6.5c-0.1,0.4-0.3,0.9-0.5,1.2l-6.6-2
	c-0.4,1.6,0.5,3.2,2.1,3.6c0,0,0,0,0.1,0c0.9,0.3,1.8,0.3,2.6,0l0.4,2c-1.3,0.4-2.8,0.4-4.1,0C451.8,321,450.1,318.2,451.2,314.7z
	 M458.6,315.8c0.5-1.5,0.1-2.6-1.3-3c-1.3-0.3-2.6,0.4-3.1,1.7L458.6,315.8z"/>
<path class="st0" d="M464.9,313.1l2.3,0.8l-0.5,1.9h0.1c1-1,2.4-1.4,3.7-1.1c0.4,0.1,0.8,0.4,1.2,0.6l-1.3,2.2
	c-0.3-0.2-0.6-0.4-1-0.5c-0.8-0.3-2-0.1-3.2,1.2l-2.2,6.3l-2.8-1L464.9,313.1z"/>
<path class="st0" d="M473.2,316l2.7,1l-3.9,10.5l-2.7-1L473.2,316z M474.2,312.7c0.4-0.9,1.5-1.2,2.4-0.8c0.8,0.4,1.1,1.2,0.9,2
	c-0.4,0.9-1.5,1.2-2.4,0.8C474.4,314.4,474,313.5,474.2,312.7z"/>
<path class="st0" d="M479.2,318.3l2.2,0.9l-0.4,1.4h0.1c1.2-0.6,2.7-0.7,4-0.2c2.2,0.9,2.5,2.9,1.5,5.5l-2.7,6.4l-2.7-1.1l2.5-6.1
	c0.7-1.6,0.5-2.3-0.6-2.8c-0.9-0.3-1.8-0.2-2.6,0.3l-3,7.1l-2.7-1.1L479.2,318.3z"/>
<path class="st0" d="M485,335c0.5-0.9,1.4-1.4,2.4-1.4v-0.1c-0.4-0.6-0.5-1.5-0.1-2.1c0.4-0.7,1.2-1.2,2-1.4v-0.1
	c-0.5-1-0.6-2.2-0.1-3.3c1.1-2.4,3.7-2.8,5.8-1.8c0.5,0.3,1,0.6,1.4,1l3.7,1.7l-0.9,2l-1.7-0.8c0.1,0.6,0,1.2-0.2,1.8
	c-1.1,2.3-3.4,2.6-5.5,1.6c-0.4-0.2-0.8-0.5-1.2-0.9c-0.4,0.1-0.7,0.3-0.8,0.7c-0.3,0.5,0,1,1.2,1.6l1.7,0.8
	c2.5,1.1,3.4,2.5,2.6,4.3c-1,2-3.8,2.6-7.2,1C485.7,338.5,484.2,336.8,485,335z M492.5,337.8c0.3-0.7-0.2-1.2-1.3-1.7l-1.2-0.6
	c-0.5-0.2-0.9-0.5-1.4-0.8c-0.5,0.1-1,0.4-1.2,0.9c-0.4,0.9,0.3,1.8,1.8,2.5S492.1,338.6,492.5,337.8L492.5,337.8z M495,329.3
	c0.3-0.9-0.3-1.9-1.2-2.2c-0.9-0.3-1.9,0.3-2.2,1.2c-0.2,0.8,0.2,1.7,1,2.1c0.9,0.4,2,0,2.4-0.9C495,329.4,495,329.4,495,329.3z"/>
<path class="st0" d="M528.5,354.8l2.6-0.7c0.3,1.4,1,2.6,2.1,3.5c1.3,0.9,2.3,0.8,2.9,0s0.1-1.7-0.7-2.9l-1.1-1.8
	c-1.1-1.5-1.2-3.5-0.2-5c1.4-2,4.2-2.3,6.7-0.5c1.4,1,2.4,2.5,2.7,4.2l-2.3,0.6c-0.3-1.1-0.9-2.1-1.9-2.8c-1.1-0.8-2.1-0.8-2.6,0
	s0,1.8,0.8,2.9l1.1,1.8c1,1.6,1.3,3.3,0.1,5c-1.4,2-4.2,2.5-7,0.5C530.1,358.5,529,356.8,528.5,354.8z"/>
<path class="st0" d="M540.9,359.2c1.8-2.5,5.2-3.2,7.8-1.4c0.1,0.1,0.2,0.2,0.4,0.3c1,0.7,1.6,1.8,1.8,3l-2.3,0.6
	c-0.1-0.6-0.4-1.2-0.9-1.6c-1.3-1-3.1-0.6-4.4,1s-1.2,3.5,0.1,4.4c0.7,0.5,1.5,0.7,2.3,0.6l-0.3,2.2c-1.3,0.1-2.7-0.3-3.7-1.2
	C539.2,365.2,538.7,362.1,540.9,359.2z"/>
<path class="st0" d="M553.4,361.8l2.3,1.9l-7.1,8.6l-2.2-1.9L553.4,361.8z M555.4,359c0.7-0.7,1.8-0.8,2.5-0.1
	c0.7,0.6,0.8,1.6,0.2,2.3c-0.7,0.7-1.8,0.8-2.5,0.1C554.9,360.7,554.8,359.7,555.4,359z"/>
<path class="st0" d="M554,369.6c2.4-2.7,5.8-2.8,7.8-1c2.3,2,2,4.8,0,7.1c-0.3,0.3-0.6,0.6-1,0.9l-5.2-4.5c-1,1.3-0.8,3.1,0.5,4.1
	c0,0,0,0,0,0c0.7,0.6,1.5,1,2.4,1.1l-0.4,2c-1.4-0.2-2.7-0.7-3.8-1.6C552,375.6,551.6,372.4,554,369.6z M560.3,373.6
	c1-1.1,1.1-2.3,0-3.3c-1-0.9-2.6-0.7-3.5,0.2L560.3,373.6z"/>
<path class="st0" d="M567.2,373.8l1.7,1.7l-0.9,1.2l0,0c1.4-0.1,2.8,0.3,3.8,1.3c1.7,1.7,1.3,3.6-0.6,5.6l-4.8,5l-2.1-2l4.6-4.8
	c1.2-1.2,1.3-2,0.5-2.8c-0.7-0.6-1.6-0.9-2.6-0.7l-5.3,5.5l-2.1-2L567.2,373.8z"/>
<path class="st0" d="M572,386.3c2.1-2.3,5.6-2.4,7.9-0.3c0.1,0.1,0.2,0.2,0.3,0.3c0.8,0.9,1.3,2,1.4,3.2l-2.3,0.3
	c0-0.6-0.2-1.3-0.7-1.8c-1.2-1.2-3-1.1-4.5,0.4s-1.7,3.2-0.6,4.4c0.6,0.6,1.4,0.9,2.2,1l-0.6,2.2c-1.3-0.1-2.6-0.7-3.5-1.7
	C569.4,392.1,569.4,388.9,572,386.3z"/>
<path class="st0" d="M579,393.6c2.7-2.4,6.1-2,7.9,0c2,2.3,1.4,5-0.9,7.1c-0.3,0.3-0.7,0.6-1.1,0.8l-4.6-5.2c-1.1,1.2-1.1,3,0,4.2
	c0.6,0.7,1.4,1.1,2.3,1.4l-0.7,1.9c-1.4-0.3-2.6-1.1-3.5-2.1C576.2,399.3,576.2,396,579,393.6z M584.8,398.3c1.1-1,1.4-2.2,0.5-3.2
	c-0.9-1-2.5-1.1-3.5-0.2L584.8,398.3z"/>
<path class="st0" d="M614.4,449.2l2.6,0.6c-0.4,1.4-0.3,2.8,0.3,4.1c0.7,1.4,1.7,1.8,2.6,1.3s0.9-1.5,0.7-2.9l-0.2-2.1
	c-0.3-1.8,0.5-3.6,2.1-4.5c2.2-1.1,4.8-0.1,6.2,2.5c0.8,1.5,1,3.3,0.5,5l-2.3-0.5c0.3-1.1,0.2-2.3-0.4-3.3c-0.6-1.1-1.5-1.6-2.4-1.2
	s-0.8,1.6-0.6,3l0.2,2.1c0.2,1.9-0.3,3.5-2.2,4.5c-2.2,1.1-4.9,0.3-6.5-2.7C614.1,453.2,613.9,451.2,614.4,449.2z"/>
<path class="st0" d="M623.5,458.7c2.7-1.5,6.1-0.5,7.6,2.2c0.1,0.1,0.1,0.3,0.2,0.4c0.5,1.1,0.6,2.3,0.3,3.5l-2.3-0.5
	c0.2-0.6,0.2-1.3-0.1-1.9c-0.7-1.5-2.5-2-4.4-1.1s-2.6,2.5-1.9,4c0.4,0.7,1,1.3,1.8,1.6l-1.3,1.9c-1.2-0.5-2.2-1.5-2.8-2.7
	C619.2,463.3,620.2,460.3,623.5,458.7z"/>
<path class="st0" d="M633.4,466.7l1.2,2.7l-10.3,4.5l-1.2-2.7L633.4,466.7z M636.4,465.1c0.9-0.5,1.9-0.1,2.4,0.7
	c0.5,0.9,0.1,1.9-0.7,2.4c-0.9,0.5-1.9,0.1-2.4-0.7c0,0,0-0.1-0.1-0.1c-0.4-0.8-0.1-1.8,0.6-2.2
	C636.3,465.1,636.4,465.1,636.4,465.1L636.4,465.1z"/>
<path class="st0" d="M630.5,473.9c3.4-1.4,6.4,0.2,7.4,2.7c1.1,2.9-0.4,5.2-3.2,6.3c-0.4,0.2-0.8,0.3-1.3,0.4l-2.6-6.4
	c-1.5,0.7-2.1,2.4-1.5,3.9c0,0,0,0,0,0c0.3,0.8,0.9,1.5,1.7,2l-1.3,1.6c-1.2-0.8-2.1-1.9-2.6-3.2C625.9,478.4,627,475.3,630.5,473.9
	z M634.2,480.4c1.4-0.6,2-1.5,1.5-2.9c-0.5-1.2-2-1.8-3.2-1.4L634.2,480.4z"/>
<path class="st0" d="M640.3,483.6l0.8,2.3l-1.3,0.7v0.1c1.3,0.5,2.3,1.6,2.9,2.9c0.8,2.3-0.5,3.8-3.1,4.8l-6.6,2.3l-1-2.8l6.3-2.2
	c1.6-0.6,2-1.2,1.7-2.3c-0.3-0.9-0.9-1.3-2-1.8l-7.3,2.5l-1-2.8L640.3,483.6z"/>
<path class="st0" d="M638.9,497c2.9-1.1,6.1,0.4,7.2,3.3c0.1,0.1,0.1,0.3,0.1,0.4c0.3,1.2,0.3,2.4-0.2,3.5l-2.2-0.8
	c0.3-0.6,0.4-1.2,0.2-1.9c-0.5-1.6-2.1-2.3-4.2-1.7s-3,2.1-2.5,3.6c0.3,0.8,0.8,1.4,1.5,1.8l-1.5,1.6c-1.1-0.7-2-1.8-2.4-3.1
	C634,501,635.4,498.1,638.9,497z"/>
<path class="st0" d="M641.8,506.6c3.5-0.9,6.3,1,7,3.6c0.8,3-1,5.1-4,5.9c-0.4,0.1-0.9,0.2-1.3,0.2l-1.7-6.7
	c-1.5,0.5-2.4,2.2-1.9,3.7c0.2,0.9,0.7,1.6,1.4,2.2l-1.5,1.5c-1.1-0.9-1.8-2.1-2.2-3.5C636.7,510.5,638.2,507.5,641.8,506.6z
	 M644.8,513.5c1.5-0.4,2.2-1.3,1.9-2.7c-0.4-1.3-1.7-2-3-1.7L644.8,513.5z"/>
<path class="st0" d="M649.4,562.1l-0.4-4.8l-3.9-0.8l-0.2-3l15.1,3.6l0.3,3.5l-14.4,5.8l-0.2-3.1L649.4,562.1z M651.6,561.2l1.6-0.6
	c1.5-0.6,3.2-1.1,4.7-1.7v0c-1.6-0.3-3.3-0.6-4.9-0.9l-1.7-0.3L651.6,561.2z"/>
<path class="st0" d="M643.9,567.1c1,0,1.9,0.6,2.4,1.5h0.1c0.4-0.7,1.1-1.1,1.8-1.1c0.9,0,1.6,0.5,2.1,1.2h0.1
	c0.7-0.9,1.7-1.5,2.9-1.6c2.6-0.1,4.1,2,4.2,4.4c0,0.6-0.1,1.1-0.2,1.7l0.1,4l-2.2,0.1l-0.1-1.9c-0.5,0.4-1.1,0.6-1.7,0.6
	c-2.5,0.1-3.8-1.8-3.9-4.2c0-0.5,0.1-1,0.2-1.4c-0.2-0.3-0.6-0.5-1-0.5c-0.6,0-0.9,0.5-0.9,1.8l0.1,1.9c0.1,2.7-0.7,4.2-2.7,4.2
	c-2.3,0.1-4-2.2-4.2-6C641.1,569.2,641.9,567.2,643.9,567.1z M644.7,575.1c0.8,0,1-0.7,1-1.9v-1.4c0-0.5,0-1,0.1-1.6
	c-0.3-0.4-0.8-0.7-1.3-0.7c-0.9,0-1.5,1.1-1.4,2.7S643.9,575.1,644.7,575.1z M653.5,573.4c1.3,0,2-0.8,2-1.8c0-1-0.9-1.8-1.9-1.7
	c-0.1,0-0.1,0-0.2,0c-1.3,0-2,0.8-2,1.8S652.2,573.5,653.5,573.4z"/>
<path class="st0" d="M657.4,579.7v2.4l-2,0.2v0.1c1.3,0.6,2.1,1.8,2.2,3.2c0,0.5-0.1,0.9-0.2,1.3l-2.5-0.5c0.1-0.4,0.2-0.8,0.2-1.2
	c0-0.9-0.6-1.9-2.2-2.6l-6.7,0v-2.9L657.4,579.7z"/>
<path class="st0" d="M657.2,588.6l-0.1,2.9l-11.2-0.4l0.1-2.9L657.2,588.6z M660.6,588.4c1,0.1,1.6,1,1.5,2
	c-0.1,0.8-0.8,1.5-1.6,1.5c-1-0.1-1.6-1-1.5-2C659.1,589.1,659.8,588.5,660.6,588.4z"/>
<path class="st0" d="M651.4,593.8c3.1,0,5.6,2.6,5.5,5.6c0,0.2,0,0.3,0,0.5c-0.1,1.2-0.6,2.3-1.5,3.2l-1.8-1.5
	c0.5-0.4,0.8-1,0.8-1.7c0.1-1.7-1.2-3-3.3-3.1s-3.5,0.9-3.6,2.5c0,0.8,0.3,1.6,0.8,2.2l-2,1c-0.8-1.1-1.2-2.4-1.1-3.7
	C645.4,595.8,647.7,593.6,651.4,593.8z"/>
<path class="st0" d="M649.3,604.9l7,0.8l-0.3,2.9l-6.6-0.8c-1.7-0.2-2.4,0.2-2.5,1.3c-0.1,1,0.3,1.9,1.1,2.4l7.5,0.9l-0.3,2.9
	L644,614l0.3-2.4h1.6v-0.1c-1.1-1-1.6-2.4-1.5-3.8C644.8,605.4,646.6,604.6,649.3,604.9z"/>
<path class="st0" d="M646.8,617.5l12.7,1.8l-0.4,2.9l-12.8-1.8c-0.7-0.1-0.9,0.2-1,0.5c0,0.1,0,0.3,0,0.4l-2.2,0
	c-0.1-0.5-0.1-1,0-1.5C643.3,617.8,644.7,617.2,646.8,617.5z"/>
<path class="st0" d="M646.5,624.3l4.9,0.8l0.3-1.6l2.2,0.4l-0.2,1.7l2.9,0.8l-0.4,2.4l-3-0.5l-0.5,2.7l-2.3-0.4l0.5-2.7l-4.9-0.8
	c-1.3-0.2-1.9,0.2-2.1,1.2c0,0.4,0,0.8,0.1,1.1l-2.2,0.1c-0.1-0.8-0.1-1.6,0-2.4C642.2,624.6,644.1,623.9,646.5,624.3z"/>
<path class="st0" d="M645.5,632.1l6.8,1.4l-0.6,2.9l-6.5-1.4c-1.7-0.3-2.4,0-2.6,1c-0.2,0.9,0.2,1.9,0.9,2.5l7.4,1.5l-0.6,2.9
	l-11-2.3l0.5-2.3l1.6,0.1v-0.1c-1-1-1.4-2.5-1.1-3.9C640.9,632.2,642.8,631.5,645.5,632.1z"/>
<path class="st0" d="M649.6,646.4l-0.6,2.3l-2-0.3v0.1c1.1,0.9,1.6,2.3,1.4,3.6c-0.1,0.4-0.3,0.9-0.5,1.2l-2.3-1.1
	c0.2-0.3,0.4-0.7,0.5-1.1c0.2-0.8-0.1-2-1.5-3l-6.5-1.6l0.7-2.8L649.6,646.4z"/>
<path class="st0" d="M642.2,652.7c3.5,1,5,4.1,4.2,6.7c-0.9,3-3.5,3.9-6.5,3c-0.4-0.1-0.9-0.3-1.2-0.5l1.9-6.6
	c-1.6-0.4-3.2,0.6-3.5,2.2c0,0,0,0,0,0c-0.2,0.9-0.2,1.8,0,2.6l-2,0.5c-0.4-1.3-0.5-2.8-0.1-4.1
	C635.9,653.4,638.7,651.6,642.2,652.7z M641.2,660.1c1.5,0.4,2.6,0,3-1.3c0.3-1.3-0.4-2.6-1.7-3L641.2,660.1z"/>
<path class="st0" d="M101.2,660l-0.8-2.8l11.9-3.3l-1.6-5.8l2.4-0.7l2.4,8.6L101.2,660z"/>
<path class="st0" d="M98.5,649c-1,0.1-1.8-0.6-2-1.5c-0.1-0.8,0.4-1.6,1.1-1.9c1-0.1,1.8,0.6,2,1.5C99.7,647.9,99.3,648.7,98.5,649z
	 M101.7,647.9l-0.7-2.8l10.9-2.6l0.7,2.8L101.7,647.9z"/>
<path class="st0" d="M107.3,639.8l-4.8,1l0.3,1.5l-2.1,0.5l-0.5-1.7l-3,0.3l-0.5-2.4l2.9-0.6l-0.6-2.7l2.3-0.5l0.6,2.7l4.8-1
	c1.2-0.3,1.7-0.9,1.5-1.9c-0.1-0.4-0.2-0.7-0.5-1l2-0.9c0.4,0.7,0.7,1.4,0.9,2.2C111.2,638,109.8,639.3,107.3,639.8z"/>
<path class="st0" d="M104.2,633.4c-3.6,0.6-6.2-1.5-6.7-4.1c-0.5-3,1.4-5,4.5-5.5c0.4-0.1,0.9-0.1,1.3-0.1l1.2,6.8
	c1.6-0.4,2.6-2,2.2-3.5c-0.2-0.9-0.6-1.7-1.2-2.3l1.6-1.3c1,1,1.6,2.3,1.9,3.7C109.6,630,107.8,632.7,104.2,633.4z M101.8,626.3
	c-1.5,0.3-2.3,1.1-2.1,2.5c0.3,1.3,1.5,2.2,2.9,2L101.8,626.3z"/>
<path class="st0" d="M96.6,621.9l-0.3-2.4l1.9-0.5V619c-1.3-0.4-2.4-1.5-2.7-2.8c-0.1-0.4-0.1-0.9,0.1-1.3l2.6,0.2
	c-0.1,0.4-0.1,0.8,0,1.2c0.1,0.9,0.8,1.8,2.5,2.2l6.6-0.9l0.4,2.9L96.6,621.9z"/>
<path class="st0" d="M103.7,613.4c-2.4,0.2-3.8-1.6-4.8-6c-1,0-1.8,0.8-1.8,1.7c0,0.1,0,0.2,0,0.4c0.2,1.1,0.7,2.1,1.4,3l-1.8,1.3
	c-1.1-1.3-1.7-2.9-1.9-4.5c-0.3-2.8,1.2-4.5,4.5-4.8l6.5-0.7l0.2,2.4l-1.2,0.3v0.1c1,0.8,1.6,2,1.8,3.2c0.3,1.7-0.9,3.4-2.7,3.6
	C103.8,613.3,103.7,613.4,103.7,613.4z M102.9,607l-2.2,0.2c0.6,2.7,1.5,3.5,2.4,3.4s1.2-0.7,1.1-1.6
	C104.1,608.2,103.6,607.5,102.9,607L102.9,607z"/>
<path class="st0" d="M101.6,601.1l-5,0.3l0.1,1.6l-2.2,0.1l-0.2-1.7l-3-0.2l-0.2-2.5l3-0.2l-0.1-2.8l2.3-0.2l0.2,2.8l5-0.3
	c1.3-0.1,1.8-0.7,1.8-1.6c0-0.4-0.1-0.7-0.3-1.1l2.1-0.6c0.3,0.7,0.5,1.5,0.6,2.3C105.7,599.8,104.1,600.9,101.6,601.1z"/>
<path class="st0" d="M100.8,593.2l-7,0.2l-0.1-2.9l6.6-0.2c1.7,0,2.3-0.5,2.3-1.6c0-0.9-0.4-1.5-1.5-2.2l-7.6,0.2l-0.1-2.9l11.2-0.3
	l0.1,2.4l-1.6,0.3v0.1c1.2,0.8,1.9,2.1,2,3.5C105.3,592.1,103.6,593.1,100.8,593.2z"/>
<path class="st0" d="M93.6,580.2v-2.4l2-0.2v-0.1c-1.3-0.6-2.1-1.8-2.2-3.2c0-0.5,0.1-0.9,0.3-1.3l2.5,0.5c-0.1,0.4-0.2,0.8-0.2,1.2
	c0,0.9,0.6,2,2.2,2.6l6.7,0.1v2.9L93.6,580.2z"/>
<path class="st0" d="M99.3,572.5c-3.6-0.2-5.8-2.8-5.7-5.5c0.1-3.1,2.5-4.6,5.6-4.4c0.5,0,0.9,0.1,1.3,0.2l-0.3,6.9
	c1.6,0,2.9-1.3,2.9-2.9c0,0,0,0,0-0.1c0-0.9-0.2-1.8-0.7-2.5l1.8-0.9c0.7,1.2,1.1,2.6,1.1,4C105.3,570.3,103,572.7,99.3,572.5z
	 M98.5,565c-1.5-0.1-2.5,0.6-2.6,2c0,1.3,1,2.5,2.4,2.6L98.5,565z"/>
<path class="st0" d="M101.9,498.7l0.9-2.8l11.8,3.7l1.8-5.7l2.4,0.7l-2.7,8.6L101.9,498.7z"/>
<path class="st0" d="M116.3,492c-2.3-0.8-2.8-3.1-1.7-7.5c-0.9-0.4-1.9-0.1-2.3,0.8c-0.1,0.1-0.1,0.2-0.1,0.3
	c-0.3,1.1-0.3,2.2,0,3.3l-2.2,0.3c-0.4-1.6-0.3-3.3,0.2-4.9c1-2.7,3-3.5,6.1-2.4l6.2,2.2l-0.8,2.3l-1.2-0.2v0.1
	c0.5,1.2,0.6,2.5,0.2,3.7c-0.5,1.7-2.3,2.6-4,2.1C116.6,492.1,116.4,492,116.3,492z M118.4,485.9l-2.1-0.8c-0.6,2.7-0.2,3.8,0.7,4.1
	s1.4-0.2,1.7-1C119,487.5,118.9,486.6,118.4,485.9L118.4,485.9z"/>
<path class="st0" d="M112.6,478.2l1.1-2.7l5.6,1c1.1,0.2,2.1,0.5,3.2,0.8v-0.1c-0.9-0.6-1.9-1.2-2.7-1.9l-4.6-3.4l1-2.4l5.7,0.9
	c1.1,0.2,2.2,0.4,3.3,0.6v-0.1c-0.9-0.6-1.9-1.2-2.8-1.8l-4.6-3.3l1.1-2.5l9.2,6.9l-1.3,3.2l-5-0.8c-1.1-0.2-2.1-0.4-3.3-0.7v0.1
	c1,0.7,1.9,1.2,2.8,1.8l4.1,3l-1.3,3.1L112.6,478.2z"/>
<path class="st0" d="M154.7,399.4l5.9-6.9l1.9,1.6l-4,4.7l2.6,2.2l3.4-4l1.9,1.6l-3.4,4l3,2.6l4.1-4.8l1.9,1.6l-6,7.1L154.7,399.4z"
	/>
<path class="st0" d="M169,396.9c-2.4-2-2.7-5.5-0.8-7.9c0.1-0.1,0.2-0.2,0.3-0.3c0.8-0.9,1.9-1.4,3.1-1.6l0.5,2.3
	c-0.6,0-1.3,0.3-1.7,0.8c-1.1,1.3-0.9,3,0.6,4.5s3.3,1.5,4.4,0.3c0.5-0.6,0.8-1.4,0.8-2.2l2.2,0.5c0,1.3-0.6,2.6-1.5,3.6
	C174.9,399.1,171.7,399.4,169,396.9z"/>
<path class="st0" d="M175.8,389.5c-2.6-2.6-2.4-6-0.4-8s5.3-2.3,8,0.4s2.3,6,0.4,8S178.4,392.1,175.8,389.5z M181.2,384
	c-1.5-1.5-3.1-1.9-4.2-0.8s-0.7,2.7,0.8,4.1s3.1,1.8,4.1,0.8S182.7,385.5,181.2,384L181.2,384z"/>
<path class="st0" d="M181.4,376l1.8-1.6l1.1,1l0.1,0c0-1.4,0.5-2.8,1.5-3.8c1.8-1.6,3.7-1.1,5.6,1l4.7,5.1l-2.2,2l-4.5-4.9
	c-1.2-1.3-1.9-1.4-2.8-0.7c-0.6,0.7-1,1.6-0.9,2.5l5.2,5.7l-2.1,2L181.4,376z"/>
<path class="st0" d="M194.2,371.9c-2.4-2.9-1.8-6.2,0.4-8s5.5-1.8,7.9,1.1s1.8,6.1-0.4,8S196.6,374.8,194.2,371.9z M200.2,366.9
	c-1.4-1.6-2.9-2.1-4.1-1.2s-0.9,2.6,0.4,4.2s2.9,2.1,4.1,1.1S201.5,368.5,200.2,366.9L200.2,366.9z"/>
<path class="st0" d="M201.1,358.8l1.9-1.4l1.1,1.1h0.1c0-1.3,0.7-2.6,1.7-3.5c1-0.9,2.5-1,3.6-0.3c0-1.4,0.6-2.8,1.7-3.7
	c1.9-1.4,3.8-0.7,5.5,1.5l4.2,5.6l-2.4,1.8l-3.9-5.3c-1-1.4-1.8-1.6-2.6-1c-0.6,0.6-1,1.4-1,2.3l4.6,6.2l-2.4,1.8l-3.9-5.3
	c-1-1.4-1.8-1.6-2.6-1c-0.6,0.6-1,1.4-1,2.3l4.6,6.2l-2.4,1.7L201.1,358.8z"/>
<path class="st0" d="M214.9,344.7c-0.6-0.8-0.3-1.9,0.5-2.5c0.8-0.6,1.9-0.3,2.5,0.5s0.3,1.9-0.5,2.5
	C216.6,345.7,215.5,345.5,214.9,344.7z M217,347.3l2.4-1.6l6.2,9.3l-2.4,1.6L217,347.3z"/>
<path class="st0" d="M224.7,349c-1.8-2.5-1.2-6,1.4-7.8c0.1-0.1,0.2-0.1,0.3-0.2c1-0.6,2.2-0.9,3.4-0.7l-0.2,2.4
	c-0.6-0.1-1.3,0-1.9,0.3c-1.4,0.9-1.7,2.7-0.6,4.5s2.8,2.3,4.2,1.5c0.7-0.5,1.1-1.1,1.4-1.9l2,1c-0.4,1.3-1.2,2.4-2.4,3.1
	C229.8,352.6,226.6,352.1,224.7,349z"/>
<path class="st0" d="M235.5,347.2l0.2-2.3c1.1,0.2,2.2,0.1,3.2-0.5c1-0.6,1.2-1.2,0.8-1.8s-1.6-0.5-2.9-0.3
	c-1.5,0.2-3.4,0.3-4.3-1.3s-0.3-3.8,1.9-5.1c1.2-0.7,2.6-0.9,4-0.7l-0.2,2.2c-0.9-0.1-1.8,0-2.6,0.4c-0.9,0.5-1.1,1.1-0.7,1.7
	c0.4,0.7,1.5,0.4,2.8,0.2c1.6-0.3,3.4-0.4,4.4,1.4s0.4,3.8-2.1,5.3C238.6,347.2,237,347.5,235.5,347.2z"/>
<path class="st0" d="M276.7,326.3l0.9-2.5c1.3,0.6,2.7,0.7,4.1,0.2c1.5-0.5,2-1.4,1.6-2.4s-1.3-1-2.8-1.1l-2.1-0.1
	c-1.8,0.1-3.5-1-4.2-2.7c-0.8-2.3,0.5-4.8,3.3-5.8c1.6-0.6,3.4-0.5,5,0.2l-0.8,2.3c-1.1-0.4-2.3-0.5-3.4-0.1
	c-1.2,0.5-1.8,1.3-1.5,2.2s1.5,1,2.8,1l2.1,0.1c1.9,0.1,3.4,0.7,4.2,2.8c0.8,2.3-0.4,4.9-3.6,6.1
	C280.6,327.2,278.5,327.1,276.7,326.3z"/>
<path class="st0" d="M287.3,318.6c-1.1-2.9,0.3-6.1,3.2-7.2c0.1-0.1,0.3-0.1,0.4-0.1c1.1-0.4,2.4-0.3,3.5,0.2l-0.8,2.2
	c-0.6-0.3-1.2-0.4-1.9-0.2c-1.6,0.5-2.3,2.2-1.7,4.2s2.2,2.9,3.7,2.5c0.8-0.3,1.4-0.8,1.8-1.5l1.7,1.5c-0.7,1.1-1.8,2-3.1,2.4
	C291.3,323.4,288.4,322.1,287.3,318.6z"/>
<path class="st0" d="M295.3,306.6c-0.2-0.9,0.4-1.9,1.3-2.1c0.9-0.2,1.8,0.3,2.1,1.1c0.2,0.9-0.4,1.9-1.3,2.1
	C296.5,307.9,295.6,307.5,295.3,306.6z M296.5,309.8l2.8-0.8l3.1,10.8l-2.8,0.8L296.5,309.8z"/>
<path class="st0" d="M303.3,313.7c-0.9-3.5,1-6.4,3.6-7c3-0.8,5.1,1,5.9,4.1c0.1,0.4,0.2,0.9,0.2,1.3l-6.7,1.7
	c0.5,1.6,2.1,2.4,3.7,2c0.9-0.2,1.6-0.7,2.2-1.4l1.4,1.5c-0.9,1-2.1,1.8-3.5,2.2C307.1,318.8,304.2,317.3,303.3,313.7z M310.1,310.8
	c-0.4-1.5-1.3-2.2-2.7-1.9c-1.3,0.4-2.1,1.7-1.8,3L310.1,310.8z"/>
<path class="st0" d="M314.2,305.2l2.4-0.5l0.5,1.4h0.1c0.7-1.2,1.9-2.1,3.2-2.5c2.4-0.5,3.7,1,4.3,3.7l1.4,6.8l-2.9,0.6l-1.3-6.5
	c-0.3-1.7-0.9-2.2-2-2c-0.9,0.2-1.4,0.7-2,1.7l1.5,7.5l-2.9,0.6L314.2,305.2z"/>
<path class="st0" d="M327.3,308.3c-0.7-3,1.3-6,4.3-6.6c0.2,0,0.3-0.1,0.5-0.1c1.2-0.2,2.4,0.1,3.4,0.7l-1.1,2.1
	c-0.5-0.4-1.2-0.5-1.8-0.5c-1.7,0.3-2.6,1.8-2.3,3.9s1.7,3.2,3.3,3c0.8-0.2,1.5-0.6,2-1.2l1.5,1.7c-0.9,1-2.1,1.7-3.4,1.9
	C330.5,313.8,327.9,312,327.3,308.3z"/>
<path class="st0" d="M337.2,306.8c-0.4-3.6,1.8-6.2,4.5-6.5c3.1-0.4,4.9,1.7,5.3,4.8c0.1,0.4,0.1,0.9,0,1.4l-6.9,0.8
	c0.3,1.6,1.8,2.7,3.4,2.4c0.9-0.1,1.7-0.5,2.4-1.1l1.2,1.7c-1,0.9-2.4,1.5-3.7,1.7C340.3,312.3,337.6,310.4,337.2,306.8z
	 M344.4,304.8c-0.2-1.5-1-2.4-2.4-2.2c-1.3,0.2-2.3,1.4-2.1,2.8L344.4,304.8z"/>
<path class="st0" d="M238.3,306.9l3-1.4l5.2,5.2c0.7,0.7,1.4,1.5,2,2.2h0.1c-0.1-1-0.3-2-0.4-3l-0.7-7.3l3-1.4l6.3,13.4l-2.4,1.1
	l-2.6-5.6c-0.6-1.3-1.3-3.2-1.8-4.5h-0.1l0.4,3.7l0.6,6.6l-1.5,0.7l-4.7-4.6l-2.6-2.6h-0.1c0.7,1.2,1.8,3,2.4,4.2l2.6,5.6l-2.4,1.1
	L238.3,306.9z"/>
<path class="st0" d="M258,310.7c-0.9-2.2,0.4-4.1,4.4-6.3c-0.3-0.9-1.2-1.5-2.2-1.2c-0.1,0-0.2,0.1-0.3,0.1c-1,0.5-1.8,1.2-2.4,2.2
	l-1.7-1.4c0.9-1.4,2.2-2.5,3.8-3.2c2.6-1.1,4.6-0.1,5.9,2.9l2.5,6l-2.2,0.9l-0.7-1h0c-0.5,1.2-1.4,2.1-2.5,2.7
	c-1.6,0.8-3.5,0.1-4.3-1.5C258.1,310.8,258.1,310.7,258,310.7z M264,308.1l-0.9-2.1c-2.4,1.4-2.9,2.4-2.5,3.3s1,0.9,1.9,0.6
	C263.2,309.6,263.7,308.9,264,308.1L264,308.1z"/>
<path class="st0" d="M266.7,298.3l2.3-0.8l0.7,1.3h0.1c0.5-1.3,1.5-2.4,2.8-2.9c2.3-0.8,3.8,0.4,4.8,3l2.4,6.6l-2.8,1l-2.3-6.2
	c-0.6-1.6-1.3-2-2.3-1.6c-0.9,0.3-1.3,0.9-1.8,2l2.7,7.2l-2.7,1L266.7,298.3z"/>
<path class="st0" d="M281,301.8c-0.7-2.3,0.7-4.1,4.9-5.9c-0.2-0.9-1.1-1.6-2-1.4c-0.1,0-0.2,0.1-0.4,0.1c-1,0.4-1.9,1.1-2.6,2
	l-1.6-1.5c1-1.3,2.4-2.3,4-2.8c2.7-0.9,4.6,0.3,5.6,3.4l2,6.2l-2.3,0.7l-0.6-1.1h-0.1c-0.6,1.1-1.6,2-2.8,2.4
	c-1.6,0.6-3.5-0.2-4.1-1.9C281.1,302,281,301.9,281,301.8z M287.1,299.8l-0.7-2.1c-2.5,1.2-3.1,2.2-2.8,3.1s1,1,1.8,0.8
	C286.2,301.2,286.8,300.5,287.1,299.8L287.1,299.8z"/>
<path class="st0" d="M293.4,303.1c-0.2-1,0.1-2,0.9-2.7v-0.1c-0.7-0.2-1.3-0.8-1.5-1.5c-0.2-0.8,0.1-1.7,0.6-2.4v-0.1
	c-1.1-0.4-1.9-1.3-2.2-2.4c-0.7-2.5,1-4.5,3.3-5.1c0.6-0.1,1.1-0.2,1.7-0.2l3.9-1.1l0.6,2.1l-1.9,0.5c0.5,0.4,0.8,0.9,1,1.5
	c0.7,2.4-0.8,4.2-3.1,4.8c-0.5,0.1-1,0.2-1.5,0.1c-0.2,0.3-0.3,0.7-0.2,1c0.2,0.6,0.7,0.8,1.9,0.4l1.8-0.5c2.6-0.7,4.2-0.3,4.8,1.6
	c0.6,2.2-1.2,4.5-4.8,5.5C296.1,305.3,293.9,305,293.4,303.1z M297.2,292.2c-0.4-1.3-1.3-1.8-2.2-1.5c-1.1,0.1-2,1.1-1.9,2.3
	c0.1,1.1,1.1,2,2.3,1.9c1.1-0.1,2-1.1,1.9-2.3C297.3,292.5,297.3,292.4,297.2,292.2z M300.9,300.4c-0.2-0.8-0.9-0.8-2.1-0.5
	l-1.3,0.4c-0.5,0.2-1,0.2-1.5,0.3c-0.3,0.4-0.5,0.9-0.4,1.5c0.2,0.9,1.4,1.1,3,0.7S301.1,301.2,300.9,300.4z"/>
<path class="st0" d="M302.6,292.7c-0.8-3.5,1.1-6.3,3.7-7c3-0.7,5.1,1.1,5.8,4.1c0.1,0.4,0.2,0.9,0.2,1.3l-6.7,1.6
	c0.5,1.6,2.1,2.5,3.6,2c0,0,0,0,0,0c0.9-0.2,1.7-0.7,2.3-1.3l1.4,1.5c-0.9,1-2.2,1.8-3.5,2.1C306.3,297.8,303.5,296.3,302.6,292.7z
	 M309.5,289.9c-0.4-1.5-1.2-2.3-2.6-1.9c-1.3,0.4-2.1,1.7-1.8,3L309.5,289.9z"/>
<path class="st0" d="M313.7,284.3l2.4-0.4l0.5,1.4h0.1c0.6-1.2,1.7-2.1,3.1-2.4c1.3-0.3,2.7,0.2,3.4,1.4c0.6-1.3,1.8-2.2,3.1-2.6
	c2.3-0.4,3.7,1,4.2,3.8l1.2,6.9l-2.9,0.5l-1.2-6.5c-0.3-1.7-0.9-2.2-2-2c-0.8,0.3-1.5,0.8-1.9,1.6l1.4,7.6l-2.9,0.5l-1.2-6.5
	c-0.3-1.7-0.9-2.2-2-2c-0.8,0.3-1.5,0.8-1.9,1.6l1.4,7.6l-2.9,0.5L313.7,284.3z"/>
<path class="st0" d="M333.1,286.6c-0.5-3.6,1.8-6.2,4.4-6.5c3.1-0.4,4.9,1.6,5.3,4.7c0.1,0.4,0.1,0.9,0,1.4l-6.8,0.9
	c0.3,1.6,1.8,2.7,3.4,2.4c0,0,0,0,0,0c0.9-0.1,1.7-0.5,2.4-1.1l1.3,1.6c-1,0.9-2.3,1.5-3.7,1.7C336.3,292.1,333.6,290.3,333.1,286.6
	z M340.3,284.6c-0.2-1.5-1-2.4-2.4-2.2c-1.3,0.2-2.2,1.4-2.1,2.8L340.3,284.6z"/>
<path class="st0" d="M345,279.5l2.4-0.2l0.3,1.5h0.1c0.8-1.1,2.1-1.9,3.5-2.1c2.4-0.2,3.6,1.4,3.8,4.2l0.6,7l-2.9,0.2l-0.6-6.6
	c-0.1-1.7-0.7-2.3-1.8-2.2c-0.9,0.1-1.5,0.6-2.2,1.5l0.7,7.7l-2.9,0.2L345,279.5z"/>
<path class="st0" d="M358.8,285.8l-0.2-5l-1.6,0.1l-0.1-2.2l1.7-0.2l0.2-3l2.5-0.1l0.1,3l2.8-0.1l0.1,2.3l-2.8,0.1l0.2,5
	c0.1,1.3,0.6,1.9,1.6,1.8c0.4,0,0.7-0.1,1.1-0.3l0.6,2.1c-0.7,0.3-1.5,0.5-2.3,0.5C360,289.9,358.9,288.3,358.8,285.8z"/>
<path class="st0" d="M645.5,436.4l1.5,2.9l-5,5.4c-0.7,0.7-1.4,1.4-2.2,2.1v0.1c1-0.1,2-0.4,3-0.5l7.3-0.9l1.5,2.9l-13.2,6.7
	l-1.2-2.4l5.5-2.8c1.2-0.6,3.2-1.4,4.5-1.9V448l-3.7,0.5l-6.6,0.8l-0.8-1.5l4.5-4.9l2.6-2.6v-0.1c-1.2,0.8-2.9,1.9-4.2,2.5l-5.5,2.8
	l-1.2-2.4L645.5,436.4z"/>
<path class="st0" d="M644.6,455.1c3.3-1.5,6.4,0,7.5,2.5c1.2,2.8-0.2,5.2-3.1,6.4c-0.4,0.2-0.8,0.3-1.3,0.4l-2.7-6.3
	c-1.5,0.7-2.1,2.5-1.4,3.9c0,0,0,0.1,0,0.1c0.4,0.8,1,1.5,1.7,2l-1.3,1.6c-1.2-0.7-2.1-1.8-2.7-3.1
	C640.2,459.7,641.2,456.6,644.6,455.1z M648.6,461.4c1.4-0.6,2-1.6,1.4-2.9c-0.6-1.2-2-1.8-3.2-1.3L648.6,461.4z"/>
<path class="st0" d="M649.3,465.9c3.4-1.4,6.3-0.1,7.2,2.2c0.4,1,0.4,2.1-0.1,3.1l1.6-0.8l3.7-1.5l1.1,2.7l-14.8,5.9l-0.9-2.2l1-0.6
	v-0.1c-1.1-0.4-2-1.3-2.5-2.4C644.5,469.7,645.9,467.2,649.3,465.9z M649.9,473.6l4.6-1.8c0.3-0.7,0.3-1.5,0-2.2
	c-0.5-1.2-2-1.7-4-0.9s-2.9,2.1-2.4,3.4C648.4,472.9,649.1,473.5,649.9,473.6z"/>
<path class="st0" d="M659.5,476.6l1,2.7l-10.5,3.8l-1-2.8L659.5,476.6z M662.6,475.2c0.9-0.4,1.9,0,2.3,0.8c0.4,0.9,0,1.9-0.8,2.3
	s-1.9,0-2.3-0.8c0,0,0-0.1-0.1-0.1C661.3,476.6,661.7,475.6,662.6,475.2C662.5,475.2,662.6,475.2,662.6,475.2L662.6,475.2z"/>
<path class="st0" d="M656.1,483.7c2.9-1.1,6.1,0.3,7.3,3.2c0.1,0.1,0.1,0.3,0.1,0.4c0.4,1.1,0.3,2.4-0.2,3.5l-2.2-0.7
	c0.3-0.6,0.3-1.2,0.2-1.9c-0.5-1.6-2.2-2.3-4.2-1.6s-2.9,2.2-2.4,3.7c0.3,0.8,0.8,1.4,1.5,1.8l-1.5,1.7c-1.2-0.7-2-1.8-2.4-3
	C651.2,487.7,652.6,484.8,656.1,483.7z"/>
<path class="st0" d="M656.9,494.3c2.3-0.7,4.1,0.9,5.8,5c1-0.2,1.6-1.1,1.4-2c0-0.1,0-0.2-0.1-0.3c-0.4-1-1-2-1.9-2.7l1.6-1.6
	c1.3,1.1,2.2,2.5,2.7,4.1c0.8,2.7-0.4,4.6-3.5,5.5l-6.3,1.8l-0.7-2.3l1.1-0.5v-0.1c-1.1-0.6-1.9-1.6-2.4-2.8c-0.6-1.7,0.4-3.5,2-4
	C656.7,494.4,656.8,494.4,656.9,494.3z M658.8,500.5l2.2-0.6c-1.1-2.5-2.1-3.2-3-2.9s-1,1-0.8,1.8
	C657.4,499.5,658,500.2,658.8,500.5z"/>
<path class="st0" d="M660.3,506.2l12.4-3.2l0.7,2.8l-12.5,3.2c-0.6,0.2-0.8,0.5-0.7,0.8c0,0.1,0.1,0.3,0.1,0.4l-2,0.9
	c-0.3-0.4-0.5-0.9-0.6-1.4C657.2,507.8,658.3,506.7,660.3,506.2z"/>
<path class="st0" d="M126.5,672.9l1.2,3l-5.5,4.9c-0.7,0.6-1.6,1.3-2.3,1.9v0.1c1-0.1,2-0.2,3-0.2l7.3-0.3l1.2,3l-13.8,5.5l-1-2.5
	l5.7-2.3c1.3-0.5,3.3-1.1,4.7-1.5v-0.1l-3.7,0.2l-6.6,0.2l-0.6-1.6l4.9-4.4l2.8-2.4v-0.1c-1.2,0.7-3.1,1.6-4.4,2.2l-5.7,2.3l-1-2.5
	L126.5,672.9z"/>
<path class="st0" d="M129.4,689.3l1.2,2.7l-10.2,4.6l-1.2-2.7L129.4,689.3z M132.4,687.6c0.9-0.4,1.9,0.1,2.3,1
	c0.3,0.8,0,1.8-0.8,2.2c-0.9,0.4-1.9-0.1-2.3-1C131.2,689,131.6,688.1,132.4,687.6z"/>
<path class="st0" d="M124.4,697.8l11.6-5.5l1.2,2.6l-11.7,5.5c-0.6,0.3-0.7,0.7-0.5,0.9c0.1,0.1,0.1,0.2,0.2,0.3l-1.9,1.3
	c-0.4-0.4-0.7-0.8-0.9-1.3C121.6,699.9,122.5,698.7,124.4,697.8z"/>
<path class="st0" d="M134.1,699.5l1.3,2.6l-10,5l-1.3-2.6L134.1,699.5z M137.1,697.8c0.8-0.5,1.9-0.3,2.4,0.6
	c0.5,0.8,0.3,1.9-0.6,2.4c-0.8,0.5-1.9,0.3-2.4-0.6c0,0-0.1-0.1-0.1-0.1C136,699.3,136.2,698.3,137.1,697.8
	C137,697.8,137,697.8,137.1,697.8L137.1,697.8z"/>
<path class="st0" d="M130.4,708.2l4.4-2.3l-0.7-1.4l1.9-1l0.9,1.5l2.8-1.1l1.2,2.2l-2.7,1.4l1.3,2.4l-2,1.1l-1.3-2.4l-4.4,2.3
	c-1.1,0.6-1.4,1.3-0.9,2.2c0.2,0.3,0.4,0.6,0.7,0.9l-1.7,1.4c-0.6-0.5-1.1-1.2-1.5-1.9C127.2,711.1,128.2,709.4,130.4,708.2z"/>
<path class="st0" d="M132.7,714.5c2.1-1.2,4.1-0.1,6.8,3.5c0.9-0.4,1.3-1.4,0.9-2.3c0-0.1-0.1-0.2-0.2-0.3c-0.6-0.9-1.5-1.7-2.5-2.1
	l1.2-1.9c1.5,0.8,2.7,1.9,3.6,3.3c1.4,2.5,0.7,4.6-2.1,6.2l-5.7,3.3l-1.2-2.1l0.9-0.8v0c-1.2-0.3-2.3-1.1-3-2.2
	c-0.9-1.5-0.5-3.5,1-4.4C132.6,714.6,132.7,714.6,132.7,714.5z M136,720.1l2-1.1c-1.7-2.2-2.8-2.6-3.6-2.1c-0.6,0.3-0.8,1.1-0.5,1.7
	c0,0.1,0.1,0.1,0.1,0.2C134.5,719.5,135.2,720,136,720.1z"/>
<path class="st0" d="M145.8,720.7l1.3,2l-1.6,1.3v0.1c1.4-0.2,2.8,0.4,3.6,1.5c0.3,0.4,0.4,0.8,0.5,1.2l-2.4,0.9
	c-0.1-0.4-0.2-0.7-0.5-1.1c-0.5-0.8-1.5-1.3-3.2-1l-5.7,3.5l-1.5-2.5L145.8,720.7z"/>
<path class="st0" d="M137.1,736l2.2-0.8c0.1,0.3,0.2,0.5,0.3,0.7c0.6,0.8,1.6,1.2,2.6,0.8l0.7-0.2l6.7-9.8l1.7,2.5l-3.3,4.4
	c-0.6,0.8-1.4,1.7-2.1,2.5v0.1l3.1-1.1l5.2-1.6l1.6,2.3l-11.7,3.2c-2.7,0.7-4.7,0.5-6.1-1.5C137.5,737,137.2,736.5,137.1,736z"/>
<path class="st0" d="M150.9,745.1l2.6,0.1c-0.2,1.4,0.2,2.8,1,4c0.9,1.2,2,1.5,2.8,0.8s0.6-1.6,0.2-3L157,745
	c-0.6-1.7-0.1-3.7,1.3-4.8c1.9-1.5,4.7-0.9,6.5,1.5c1.1,1.4,1.5,3.1,1.3,4.8l-2.4-0.1c0.1-1.2-0.2-2.3-0.9-3.2
	c-0.8-1-1.8-1.3-2.5-0.8s-0.5,1.7-0.1,3l0.5,2c0.5,1.9,0.3,3.5-1.4,4.8c-1.9,1.5-4.8,1.1-6.9-1.6
	C151.2,749.1,150.7,747.1,150.9,745.1z"/>
<path class="st0" d="M161.2,752.5c2.3-2.1,5.8-2,7.9,0.3c0.1,0.1,0.2,0.2,0.3,0.3c0.8,0.9,1.2,2.1,1.1,3.3l-2.4,0.1
	c0.1-0.6-0.1-1.3-0.5-1.8c-1.1-1.3-2.9-1.3-4.5,0s-1.9,3.1-0.9,4.3c0.5,0.6,1.3,1,2.1,1.1l-0.8,2.1c-1.3-0.2-2.5-0.9-3.4-2
	C158.2,758.1,158.4,754.9,161.2,752.5z"/>
<path class="st0" d="M172.4,757.1l1.9,2.2l-8.4,7.4l-2-2.2L172.4,757.1z M174.8,754.6c0.8-0.6,1.9-0.5,2.5,0.3
	c0.5,0.7,0.5,1.7-0.1,2.3c-0.8,0.6-1.9,0.5-2.5-0.3C174.1,756.3,174.2,755.3,174.8,754.6z"/>
<path class="st0" d="M171.5,764.6c2.7-2.5,6-2.2,7.9-0.2c2.1,2.2,1.6,5-0.7,7.1c-0.3,0.3-0.7,0.6-1.1,0.8l-4.7-5
	c-1.1,1.2-1.1,3,0.1,4.2c0.6,0.6,1.4,1.1,2.3,1.3l-0.6,2c-1.4-0.3-2.6-1-3.6-2C168.9,770.4,168.8,767.1,171.5,764.6z M177.4,769.2
	c1.1-1,1.4-2.2,0.4-3.2c-1-0.9-2.5-1-3.5-0.1L177.4,769.2z"/>
<path class="st0" d="M183.6,769.3l1.7,1.7l-0.9,1.2l0.1,0.1c1.4-0.1,2.8,0.4,3.8,1.3c1.7,1.7,1.3,3.6-0.7,5.6l-4.9,5l-2.1-2.1
	l4.6-4.7c1.2-1.2,1.3-2,0.5-2.8c-0.7-0.6-1.6-0.9-2.6-0.7l-5.4,5.5l-2.1-2L183.6,769.3z"/>
<path class="st0" d="M188.2,781.5c1.9-2.4,5.5-2.8,7.9-0.8c0.1,0.1,0.2,0.2,0.3,0.3c0.9,0.8,1.5,1.9,1.6,3.1l-2.3,0.5
	c0-0.6-0.3-1.3-0.8-1.7c-1.3-1.1-3.1-0.9-4.5,0.7s-1.4,3.3-0.2,4.4c0.6,0.5,1.4,0.8,2.2,0.8l-0.4,2.2c-1.3,0-2.6-0.5-3.6-1.4
	C186,787.4,185.7,784.2,188.2,781.5z"/>
<path class="st0" d="M195.3,787.9c2.3-2.8,5.7-2.9,7.8-1.2c2.4,2,2.1,4.7,0.1,7.1c-0.3,0.4-0.6,0.7-1,0.9l-5.3-4.4
	c-1,1.3-0.7,3.1,0.6,4.1c0.7,0.6,1.5,0.9,2.4,1l-0.4,2c-1.4-0.1-2.7-0.7-3.8-1.6C193.4,793.9,192.9,790.7,195.3,787.9z M201.7,791.7
	c1-1.2,1.1-2.3,0-3.3c-1.1-0.8-2.6-0.7-3.5,0.3L201.7,791.7z"/>
<path class="st0" d="M244.2,823.7l-4.2-2.3l-2.8,2.8l-2.6-1.5l11.3-10.7l3.1,1.7l-3,15.2l-2.7-1.5L244.2,823.7z M244.7,821.4
	l0.4-1.6c0.3-1.6,0.8-3.2,1.2-4.9h-0.1c-1.1,1.2-2.3,2.5-3.4,3.6l-1.2,1.2L244.7,821.4z"/>
<path class="st0" d="M252.7,819.8l2.1,1.1l-0.7,1.9h0.1c1.1-0.9,2.6-1.1,3.9-0.6c0.4,0.2,0.8,0.5,1.1,0.8l-1.6,2
	c-0.3-0.3-0.6-0.5-1-0.7c-0.8-0.4-2-0.3-3.3,0.8l-3,6l-2.6-1.3L252.7,819.8z"/>
<path class="st0" d="M257.7,830.4l2.1-4.5l-1.4-0.7l0.9-2l1.6,0.6l1.6-2.6l2.2,1l-1.2,2.7l2.5,1.2l-1,2.1l-2.5-1.2l-2.1,4.5
	c-0.5,1.2-0.3,1.9,0.6,2.3c0.4,0.1,0.7,0.2,1.1,0.2l-0.5,2.1c-0.8-0.1-1.6-0.3-2.3-0.6C256.9,834.7,256.7,832.7,257.7,830.4z"/>
<path class="st0" d="M324.6,841l4.8,0.8c3.2,0.6,5.5,2.1,4.9,5.6s-3.4,4.4-6.5,3.8l-2-0.3l-0.9,5.2l-2.9-0.5L324.6,841z M328,848.9
	c2,0.3,3.1-0.3,3.4-2s-0.7-2.5-2.7-2.8l-1.7-0.3l-0.8,4.8L328,848.9z"/>
<path class="st0" d="M337.4,842l2.9,0.4l-0.5,4l-0.4,2.1c1-0.9,2.4-1.3,3.7-1.2c2.4,0.3,3.2,2.1,2.9,4.9l-0.9,6.9l-2.9-0.4l0.8-6.6
	c0.2-1.7-0.2-2.4-1.3-2.5c-0.9,0-1.8,0.3-2.5,1l-1,7.6l-2.9-0.4L337.4,842z"/>
<path class="st0" d="M349.5,848.2l2.9,0.3l-1,11.2l-2.9-0.3L349.5,848.2z M349.5,844.8c0.2-1,1.1-1.6,2.1-1.4
	c0.8,0.2,1.4,0.9,1.4,1.7c-0.2,1-1.1,1.6-2.1,1.4C350.1,846.4,349.5,845.7,349.5,844.8z"/>
<path class="st0" d="M354.9,856.8l0.9-12.8l2.9,0.2l-0.9,12.9c0,0.7,0.3,0.9,0.5,0.9c0.1,0,0.3,0,0.4,0l0.2,2.2
	c-0.5,0.2-1,0.2-1.5,0.2C355.4,860.3,354.8,858.9,354.9,856.8z"/>
<path class="st0" d="M360.8,854.8c0.1-3.7,2.8-5.8,5.6-5.7s5.3,2.3,5.2,6.1s-2.8,5.8-5.6,5.7S360.7,858.5,360.8,854.8z M368.5,855
	c0.1-2.1-0.7-3.5-2.3-3.6s-2.4,1.3-2.5,3.4s0.8,3.5,2.3,3.5S368.5,857.2,368.5,855z"/>
<path class="st0" d="M373,859.4l1.3-1.8c0.8,0.7,1.9,1.1,3,1.2c1.1,0,1.6-0.5,1.6-1.2s-1.2-1.2-2.4-1.7c-1.4-0.5-3.1-1.4-3.1-3.2
	c0-2,1.6-3.5,4.1-3.5c1.4,0,2.7,0.5,3.8,1.3l-1.3,1.8c-0.7-0.6-1.5-0.9-2.4-0.9c-1,0-1.5,0.5-1.5,1.1c0,0.8,1.1,1.1,2.3,1.5
	c1.5,0.5,3.1,1.3,3.1,3.3s-1.5,3.6-4.4,3.6C375.7,861,374.2,860.4,373,859.4z"/>
<path class="st0" d="M383.4,855.1c-0.2-3.7,2.3-6,5.1-6.2s5.5,1.9,5.7,5.6s-2.3,6-5.1,6.1S383.6,858.8,383.4,855.1z M391.1,854.7
	c-0.1-2.1-1-3.5-2.5-3.4s-2.3,1.5-2.2,3.6s1,3.4,2.5,3.3S391.2,856.8,391.1,854.7z"/>
<path class="st0" d="M396.2,848.7l2.4-0.2l0.3,1.1h0.1c0.8-0.9,1.9-1.6,3.1-1.8c2.8-0.3,4.6,1.8,4.9,5.3c0.4,3.8-1.7,6.2-4.2,6.5
	c-1.1,0-2.1-0.3-2.9-1l0.3,1.8l0.3,3.4l-2.9,0.3L396.2,848.7z M404.1,853.5c-0.2-2.1-1-3.2-2.5-3.1c-0.9,0.1-1.6,0.6-2.1,1.4
	l0.5,4.9c0.6,0.5,1.4,0.7,2.1,0.6C403.4,857.1,404.3,855.9,404.1,853.5L404.1,853.5z"/>
<path class="st0" d="M408.2,842.7l2.9-0.4l0.6,4l0.2,2.1c0.8-1.1,1.9-1.9,3.2-2.1c2.4-0.3,3.7,1.2,4.1,4l1,6.9l-2.9,0.4l-1-6.5
	c-0.2-1.7-0.8-2.2-1.9-2.1c-0.9,0.1-1.4,0.7-2.1,1.6l1.1,7.6l-2.9,0.4L408.2,842.7z"/>
<path class="st0" d="M423.9,860.8l0.1-2.3c0.3,0,0.5,0,0.8,0c1-0.2,1.7-1,1.7-2.1l0.1-0.7l-6.4-10l2.9-0.6l2.7,4.8
	c0.5,0.9,1,1.9,1.5,2.9h0.1c0.1-1.1,0.1-2.2,0.2-3.2l0.5-5.4l2.8-0.5l-1.7,12.1c-0.5,2.8-1.4,4.5-3.8,5
	C424.9,860.9,424.4,860.9,423.9,860.8z"/>
<path class="st0" d="M474.5,826.7l2.7-1.2l2.3,5.4l5.1-2.2l-2.3-5.3l2.7-1.2l5.8,13.6l-2.7,1.2l-2.5-5.9l-5.1,2.2l2.5,5.9l-2.7,1.2
	L474.5,826.7z"/>
<path class="st0" d="M487.8,821.1c-0.5-0.8-0.2-1.9,0.6-2.4s1.9-0.2,2.4,0.6c0.5,0.8,0.2,1.9-0.6,2.4c0,0-0.1,0.1-0.1,0.1
	c-0.8,0.5-1.8,0.2-2.2-0.6C487.8,821.2,487.8,821.2,487.8,821.1z M489.5,824.1l2.6-1.2l4.8,10.1l-2.6,1.2L489.5,824.1z"/>
<path class="st0" d="M498.5,830.8l0.4-2.2c1.1,0.3,2.2,0.2,3.2-0.3c1-0.5,1.2-1.2,0.9-1.8s-1.6-0.6-2.9-0.4
	c-1.5,0.2-3.4,0.1-4.2-1.5s-0.1-3.8,2.1-5c1.2-0.6,2.6-0.8,4-0.5l-0.4,2.2c-0.9-0.2-1.8-0.1-2.6,0.2c-0.9,0.5-1.1,1.1-0.8,1.6
	c0.4,0.7,1.5,0.5,2.7,0.3c1.6-0.2,3.4-0.3,4.3,1.6s0.2,3.8-2.4,5.2C501.5,830.9,500,831.1,498.5,830.8z"/>
<path class="st0" d="M507.1,823.3l-2.4-4.3l-1.4,0.8l-1-1.9l1.4-1l-1.1-2.8l2.2-1.2l1.4,2.6l2.4-1.3l1.1,2l-2.4,1.3l2.4,4.3
	c0.6,1.1,1.4,1.4,2.2,0.9c0.3-0.2,0.6-0.4,0.9-0.7l1.5,1.6c-0.5,0.6-1.2,1.1-1.9,1.5C510,826.5,508.3,825.5,507.1,823.3z"/>
<path class="st0" d="M512.5,818.5c-1.9-3.2-0.8-6.4,1.6-7.8s5.7-0.9,7.7,2.3s0.8,6.3-1.6,7.8S514.4,821.7,512.5,818.5z M519.1,814.5
	c-1.1-1.8-2.5-2.6-3.8-1.8s-1.3,2.4-0.3,4.3s2.5,2.5,3.8,1.7S520.2,816.3,519.1,814.5L519.1,814.5z"/>
<path class="st0" d="M520.8,806.8l2-1.3l1.3,1.5l0.1,0c-0.2-1.4,0.3-2.8,1.4-3.6c0.4-0.3,0.8-0.4,1.2-0.5l1,2.4
	c-0.4,0.1-0.7,0.3-1.1,0.5c-0.7,0.5-1.3,1.5-1,3.3l3.7,5.6l-2.4,1.6L520.8,806.8z"/>
<path class="st0" d="M536.7,814.9l-0.9-2.2c0.3-0.1,0.5-0.2,0.7-0.3c0.8-0.6,1.1-1.7,0.7-2.6l-0.2-0.7l-9.9-6.4l2.4-1.7l4.5,3.2
	c0.9,0.6,1.7,1.3,2.6,2l0.1-0.1c-0.4-1-0.8-2-1.2-3l-1.8-5.1l2.3-1.6l3.5,11.6c0.7,2.7,0.6,4.7-1.4,6.1
	C537.7,814.4,537.2,814.7,536.7,814.9z"/>
<path class="st0" d="M568.5,762.6l6.1-6.7l1.8,1.7l-4.1,4.5l2.5,2.3l3.5-3.8l1.8,1.7l-3.5,3.8l2.9,2.7l4.3-4.7l1.8,1.7l-6.3,6.9
	L568.5,762.6z"/>
<path class="st0" d="M582.9,760.4c-2.8-2.3-3.1-5.5-1.5-7.4c0.7-0.8,1.7-1.3,2.8-1.4l-1.4-1l-3-2.5l1.9-2.3l12.3,10.1l-1.5,1.8
	l-1-0.5l0,0c0.1,1.2-0.2,2.4-0.9,3.3C588.6,762.8,585.7,762.8,582.9,760.4z M589.4,756.2l-3.8-3.1c-0.8,0.1-1.5,0.5-2,1.1
	c-0.8,1-0.6,2.5,1.2,4s3.2,1.6,4.2,0.4C589.5,757.9,589.7,757,589.4,756.2z"/>
<path class="st0" d="M592.6,750.8l-5.6-4.2l1.8-2.3l5.3,4c1.4,1,2.2,1,2.8,0.2c0.5-0.8,0.6-1.8,0.2-2.7l-6-4.6l1.8-2.3l9,6.7
	l-1.5,1.9l-1.4-0.8l0,0.1c0.4,1.4,0.2,2.8-0.7,4C596.8,752.7,594.9,752.5,592.6,750.8z"/>
<path class="st0" d="M598.9,740.1c-2.6-1.6-3.5-5.1-1.9-7.7c0.1-0.1,0.2-0.3,0.2-0.4c0.7-1,1.7-1.7,2.9-2l0.8,2.2
	c-0.6,0.1-1.2,0.5-1.6,1c-1,1.4-0.5,3.1,1.3,4.3s3.5,1,4.4-0.3c0.4-0.7,0.6-1.5,0.5-2.3l2.2,0.2c0.1,1.3-0.2,2.7-1,3.8
	C605.1,741.5,602,742.2,598.9,740.1z"/>
<path class="st0" d="M607,732.7c-2-1.3-2.1-3.6-0.1-7.7c-0.7-0.6-1.8-0.5-2.4,0.2c-0.1,0.1-0.2,0.2-0.2,0.3c-0.5,1-0.8,2.1-0.8,3.2
	l-2.2-0.1c0-1.7,0.4-3.3,1.2-4.8c1.5-2.4,3.7-2.7,6.5-1l5.5,3.5l-1.3,2l-1.1-0.5l0,0c0.3,1.2,0.1,2.5-0.5,3.7
	c-0.8,1.5-2.8,2.1-4.3,1.3C607.2,732.9,607.1,732.8,607,732.7z M610.4,727.2l-1.9-1.2c-1.2,2.5-1,3.7-0.2,4.2s1.4,0.2,1.9-0.6
	C610.6,728.9,610.7,728,610.4,727.2L610.4,727.2z"/>
<path class="st0" d="M612.9,721.5l-4.3-2.5l-0.8,1.4l-1.8-1.1l0.7-1.6l-2.4-1.8l1.2-2.1l2.6,1.5l1.4-2.4l2,1.2l-1.4,2.4l4.3,2.5
	c1.1,0.6,1.9,0.5,2.4-0.4c0.2-0.3,0.3-0.7,0.3-1.1l2.1,0.7c-0.1,0.8-0.4,1.6-0.8,2.2C617.1,722.8,615.1,722.8,612.9,721.5z"/>
<path class="st0" d="M607.5,709.6c-0.8-0.6-1-1.7-0.4-2.5c0.5-0.7,1.4-0.9,2.1-0.6c0.8,0.6,1,1.7,0.4,2.5
	C609.1,709.7,608.2,710,607.5,709.6z M610.6,711l1.4-2.6l9.8,5.4l-1.4,2.6L610.6,711z"/>
<path class="st0" d="M618.2,708.9c-3.3-1.7-4.1-5-2.8-7.5s4.3-3.8,7.7-2.2s4.1,4.9,2.8,7.4S621.5,710.6,618.2,708.9z M621.7,702
	c-1.9-1-3.5-0.8-4.2,0.5s0.2,2.7,2.1,3.7s3.5,0.8,4.2-0.6S623.5,702.9,621.7,702L621.7,702z"/>
<path class="st0" d="M619,694.6l1-2.2l1.4,0.4v-0.1c-0.6-1.3-0.6-2.7-0.1-4c1-2.2,3-2.5,5.5-1.3l6.4,2.8L632,693l-6-2.7
	c-1.6-0.7-2.3-0.5-2.8,0.5c-0.3,0.9-0.2,1.8,0.2,2.7l7,3.1l-1.2,2.7L619,694.6z"/>
<path class="st0" d="M637.7,999.8c-1-1.1-2.2-1.7-3.6-1.7c-2.7,0-4.9,2-5.1,8c1.2-1.5,3-2.3,4.9-2.6c3.9,0,6.8,2.3,6.8,7.5
	c0,4.9-3.4,7.9-7.4,7.9c-4.4,0-8.5-3.6-8.5-12c0-8.9,4.3-12.6,9.1-12.6c2.4,0,4.6,1,6.3,2.7L637.7,999.8z M636.2,1010.9
	c0-2.8-1.3-4.2-3.3-4.2c-1.6,0.1-3.1,1.1-3.8,2.5c0.4,4.3,2,6,4,6C634.8,1015.3,636.2,1013.8,636.2,1010.9L636.2,1010.9z"/>
</svg>
