<?xml version="1.0" encoding="utf-8"?>
<!-- Generator: Adobe Illustrator 22.1.0, SVG Export Plug-In . SVG Version: 6.00 Build 0)  -->
<svg version="1.1" id="图层_1" xmlns="http://www.w3.org/2000/svg" xmlns:xlink="http://www.w3.org/1999/xlink" x="0px" y="0px"
	 viewBox="0 0 1280 800" style="enable-background:new 0 0 1280 800;" xml:space="preserve">
<style type="text/css">
	.st0{fill:none;stroke:#B3B3B3;stroke-width:2;stroke-miterlimit:10;}
	.st1{fill:none;stroke:#B3B3B3;stroke-miterlimit:10;stroke-dasharray:2,2;}
	.st2{fill:#CCCCCC;}
	.st3{fill:#333333;}
	.st4{fill:#666666;}
	.st5{fill:none;stroke:#666666;stroke-miterlimit:10;}
</style>
<title>专业</title>
<line class="st0" x1="360.9" y1="213.6" x2="362.9" y2="461.7"/>
<line class="st1" x1="362.9" y1="461.7" x2="305.5" y2="703.5"/>
<line class="st1" x1="476.6" y1="240.1" x2="362.9" y2="461.7"/>
<line class="st1" x1="362.9" y1="461.7" x2="199.8" y2="649.2"/>
<line class="st1" x1="565.5" y1="318.8" x2="362.9" y2="461.7"/>
<line class="st1" x1="362.9" y1="461.7" x2="131.7" y2="551.6"/>
<line class="st1" x1="609.9" y1="428.9" x2="362.9" y2="461.7"/>
<line class="st1" x1="362.9" y1="461.7" x2="115.8" y2="434.2"/>
<line class="st0" x1="595.7" y1="546.7" x2="362.9" y2="461.7"/>
<line class="st1" x1="362.9" y1="461.7" x2="156.8" y2="322.3"/>
<line class="st1" x1="529.7" y1="644.9" x2="362.9" y2="461.7"/>
<line class="st1" x1="362.9" y1="461.7" x2="245.5" y2="242.4"/>
<line class="st1" x1="425.9" y1="701.2" x2="362.9" y2="461.7"/>
<path class="st2" d="M362.7,730c-20.1,0-40.1-2.3-59.7-6.7l3.1-13.8c38.8,8.9,79.2,8.5,117.9-1.1l3.4,13.7
	C406.2,727.3,384.5,730,362.7,730z M299.1,722.3c-31.8-7.8-62-21.4-88.9-40.1c-7.5-5.2-14.8-10.8-21.8-16.8l9.2-10.7
	c6.6,5.6,13.5,10.9,20.6,15.9c25.5,17.7,54.1,30.6,84.2,38L299.1,722.3z M431.3,721.1l-3.6-13.7c38.5-10.2,74.1-29.2,103.9-55.6
	l9.4,10.5C509.5,690.3,471.9,710.4,431.3,721.1L431.3,721.1z M185.4,662.8c-31.5-27.8-56.1-62.7-71.6-101.7l13.1-5.2
	c14.8,37,38,70,67.9,96.3L185.4,662.8z M544,659.7l-9.5-10.4c29.4-26.9,52-60.3,66.2-97.6l13.2,5C598.9,596,575,631.3,544,659.7z
	 M112.2,557.4C97.3,518.1,91.7,475.8,96,434l14,1.4c-4.1,39.6,1.2,79.7,15.4,116.9L112.2,557.4z M615.2,553l-13.2-4.8
	c10-27.6,15.1-56.8,15.1-86.2c0-10.3-0.6-20.7-1.9-30.9l14-1.7c1.3,10.8,2,21.7,2,32.6C631.2,493,625.8,523.8,615.2,553L615.2,553z
	 M110.5,431.7l-14-1.7c4.9-41.8,19.6-81.8,43-116.8l11.7,7.8C129.1,354.2,115.1,392.1,110.5,431.7z M614.7,427.2
	c-5.4-39.5-20-77.1-42.5-109.9l11.6-8c23.8,34.6,39.2,74.4,44.9,116L614.7,427.2z M153.3,317.9l-11.6-8l0.7-1
	c23.9-34.6,55.6-63.1,92.6-83.1l6.7,12.4c-35.1,18.9-65.1,45.9-87.7,78.8L153.3,317.9z M570,314.2c-17.1-23.9-38.2-44.7-62.4-61.4
	c-8.5-5.9-17.3-11.3-26.5-16.1l6.6-12.5c9.6,5.1,19,10.8,27.9,17c25.5,17.6,47.8,39.6,65.8,64.8L570,314.2z M245,236.4l-6.5-12.4
	c37.3-19.4,78.6-29.9,120.6-30.5l0.2,14.1C319.5,208.2,280.4,218.1,245,236.4z M477.7,234.9c-35.5-18-74.8-27.4-114.6-27.4v-14.1
	c42,0,83.5,10,121,28.9L477.7,234.9z"/>
<circle class="st1" cx="362.9" cy="461.7" r="63.7"/>
<circle class="st1" cx="362.9" cy="461.7" r="125.1"/>
<circle class="st1" cx="362.9" cy="461.7" r="186.5"/>
<circle class="st1" cx="362.9" cy="461.7" r="247.9"/>
<circle class="st1" cx="857.7" cy="314" r="26.1"/>
<circle class="st1" cx="857.7" cy="314" r="51.2"/>
<circle class="st1" cx="857.7" cy="314" r="76.4"/>
<circle class="st1" cx="857.7" cy="314" r="101.5"/>
<path class="st3" d="M1150.6,488.3h4.8v-14h-4v-2.7c1.8-0.3,3.6-0.9,5.2-1.9h3.3v18.6h4.2v3.6h-13.3L1150.6,488.3z"/>
<path class="st3" d="M1167.7,495.9c2.3-0.9,3.6-2.4,3.6-4.1h-0.3c-1.4,0.1-2.7-1-2.8-2.4c0-0.1,0-0.1,0-0.2c0-1.5,1.2-2.6,2.7-2.6
	c0.1,0,0.1,0,0.2,0c2,0,3.2,1.6,3.2,4.4c0,3.5-2.1,6.2-5.7,7.4L1167.7,495.9z"/>
<path class="st3" d="M1177.5,489.3c6-5.4,9.6-9.6,9.6-13c0-2.2-1.2-3.6-3.3-3.6c-1.6,0.1-3.1,1-4.1,2.3l-2.4-2.4c2-2.2,4-3.4,7-3.4
	c4.2,0,7,2.7,7,6.8s-3.3,8.3-7.4,12.3c1.1-0.1,2.6-0.2,3.6-0.2h4.8v3.7h-14.9L1177.5,489.3z"/>
<path class="st3" d="M1196.6,488.3h4.8v-14h-4v-2.7c1.8-0.3,3.6-0.9,5.2-1.9h3.3v18.6h4.2v3.6h-13.3L1196.6,488.3z"/>
<path class="st3" d="M759.8,481.2V473h3v8.4c0,3.1,1.1,4.1,2.8,4.1s2.9-1,2.9-4.1V473h2.8v8.1c0,4.9-2.1,6.9-5.7,6.9
	S759.8,486.1,759.8,481.2z"/>
<path class="st3" d="M774.6,476.6h2.4l0.2,1.5h0.1c0.9-1.1,2.2-1.7,3.6-1.8c2.4,0,3.5,1.7,3.5,4.5v7h-2.9v-6.6
	c0-1.7-0.5-2.3-1.6-2.3c-0.9,0.1-1.8,0.5-2.3,1.3v7.7h-2.9L774.6,476.6z"/>
<path class="st3" d="M787.5,471.9h2.9v9.6h0.1l3.9-4.8h3.2l-3.9,4.6l4.2,6.6h-3.2l-2.7-4.6l-1.6,1.8v2.8h-2.9L787.5,471.9z"/>
<path class="st3" d="M799.5,476.6h2.5l0.2,1.5h0.1c0.9-1.1,2.2-1.7,3.6-1.8c2.4,0,3.5,1.7,3.5,4.5v7h-2.9v-6.6
	c0-1.7-0.5-2.3-1.6-2.3c-0.9,0.1-1.8,0.5-2.3,1.3v7.7h-2.9L799.5,476.6z"/>
<path class="st3" d="M811.7,482.3c0-3.7,2.6-5.9,5.4-5.9s5.4,2.2,5.4,5.9s-2.6,5.9-5.4,5.9S811.7,486,811.7,482.3z M819.4,482.3
	c0-2.1-0.9-3.5-2.4-3.5s-2.4,1.4-2.4,3.5s0.9,3.5,2.4,3.5S819.4,484.4,819.4,482.3z"/>
<path class="st3" d="M823.7,476.6h2.9l1.2,5.5c0.2,1.1,0.4,2.2,0.6,3.3h0.1c0.2-1.1,0.4-2.2,0.7-3.3l1.3-5.5h2.6l1.4,5.5
	c0.3,1.1,0.5,2.2,0.7,3.3h0.1c0.2-1.1,0.3-2.2,0.6-3.3l1.2-5.5h2.7l-2.8,11.2h-3.5l-1.2-4.9c-0.2-1.1-0.4-2.1-0.6-3.3h-0.1
	c-0.2,1.2-0.4,2.2-0.6,3.3l-1.1,4.9h-3.4L823.7,476.6z"/>
<path class="st3" d="M842,476.6h2.4l0.2,1.5h0.1c0.9-1.1,2.2-1.7,3.6-1.8c2.4,0,3.5,1.7,3.5,4.5v7h-2.9v-6.6c0-1.7-0.5-2.3-1.6-2.3
	c-0.9,0.1-1.8,0.5-2.3,1.3v7.7H842V476.6z"/>
<path class="st4" d="M861.9,481c0-3.2,1.3-6.3,3.6-8.6l1.1,0.5c-4.4,4.4-4.5,11.5-0.1,15.9c0,0,0.1,0.1,0.1,0.1l-1.1,0.6
	C863.2,487.3,861.9,484.2,861.9,481z"/>
<path class="st4" d="M867.7,483c0-3.2,2-5.1,4.2-5.1c1,0,2,0.4,2.8,1.1l-0.1-1.7v-3.8h1.6v14.3h-1.3l-0.2-1.1l0,0
	c-0.8,0.8-1.9,1.3-3,1.4C869.3,488.1,867.7,486.2,867.7,483z M874.6,485.4v-5.1c-0.6-0.6-1.5-1-2.4-1c-1.6,0-2.8,1.5-2.8,3.7
	s1,3.8,2.7,3.8C873.1,486.7,874,486.2,874.6,485.4L874.6,485.4z"/>
<path class="st4" d="M878.8,483c0-3.2,2.2-5.1,4.4-5.1c2.5,0,3.9,1.8,3.9,4.6c0,0.3,0,0.6-0.1,0.9h-6.6c0.1,2.1,1.4,3.4,3.2,3.4
	c0.9,0,1.7-0.3,2.5-0.8l0.6,1.1c-1,0.6-2.1,1-3.2,1C880.9,488.1,878.8,486.2,878.8,483z M885.7,482.2c0-2-0.9-3-2.4-3
	s-2.6,1.1-2.8,3H885.7z"/>
<path class="st4" d="M888.6,489.7c0.1-0.9,0.6-1.8,1.5-2.2v-0.1c-0.6-0.3-0.9-0.9-0.9-1.6c0.1-0.7,0.5-1.4,1.1-1.8v-0.1
	c-0.8-0.6-1.3-1.6-1.3-2.6c0-1.9,1.5-3.5,3.5-3.5c0.1,0,0.1,0,0.2,0c0.5,0,0.9,0.1,1.4,0.2h3.4v1.3h-2c0.5,0.5,0.8,1.3,0.8,2
	c0,1.8-1.4,3.4-3.3,3.4c-0.1,0-0.2,0-0.3,0c-0.5,0-1-0.1-1.5-0.3c-0.4,0.3-0.6,0.7-0.6,1.2c0,0.6,0.4,1.1,1.7,1.1h1.9
	c2.3,0,3.4,0.7,3.4,2.3c0,1.8-1.9,3.4-4.9,3.4C890.3,492.4,888.6,491.4,888.6,489.7z M896,489.2c0-0.9-0.7-1.2-2-1.2h-1.7
	c-0.4,0-0.8-0.1-1.3-0.2c-0.6,0.4-1,1-1,1.6c0,1,1.1,1.7,2.8,1.7S896,490.2,896,489.2z M894.7,481.3c0.1-1.1-0.7-2.2-1.9-2.3
	s-2.2,0.7-2.3,1.9c0,0.1,0,0.3,0,0.4c-0.1,1.1,0.7,2.2,1.9,2.3s2.2-0.7,2.3-1.9C894.7,481.6,894.7,481.4,894.7,481.3z"/>
<path class="st4" d="M899.5,478.1h1.3l0.2,1.8l0,0c0.5-1.1,1.6-1.9,2.8-2c0.4,0,0.7,0.1,1,0.2l-0.3,1.4c-0.3-0.1-0.6-0.2-1-0.2
	c-0.8,0-1.8,0.6-2.5,2.2v6.3h-1.6L899.5,478.1z"/>
<path class="st4" d="M905.5,483c0-3.2,2.1-5.1,4.4-5.1c2.5,0,3.9,1.8,3.9,4.6c0,0.3,0,0.6-0.1,0.9h-6.6c0.1,2.1,1.4,3.4,3.2,3.4
	c0.9,0,1.7-0.3,2.5-0.8l0.6,1.1c-1,0.6-2.1,1-3.2,1C907.6,488.1,905.5,486.2,905.5,483z M912.4,482.2c0-2-0.9-3-2.4-3
	s-2.6,1.1-2.8,3H912.4z"/>
<path class="st4" d="M915.5,483c0-3.2,2.1-5.1,4.4-5.1c2.5,0,3.9,1.8,3.9,4.6c0,0.3,0,0.6-0.1,0.9h-6.6c0.1,2.1,1.4,3.4,3.2,3.4
	c0.9,0,1.7-0.3,2.5-0.8l0.6,1.1c-1,0.6-2.1,1-3.2,1C917.6,488.1,915.5,486.2,915.5,483z M922.4,482.2c0-2-0.9-3-2.4-3
	s-2.6,1.1-2.8,3H922.4z"/>
<path class="st4" d="M929.5,483c0-3.3,2.2-5.1,4.5-5.1s4.5,1.9,4.5,5.1s-2.1,5.1-4.5,5.1S929.5,486.2,929.5,483z M936.9,483
	c0-2.2-1.2-3.8-2.8-3.8s-2.8,1.5-2.8,3.8s1.1,3.7,2.8,3.7S936.9,485.2,936.9,483z"/>
<path class="st4" d="M941.2,478.1h1.3l0.1,1.8h0.1c0.5-1.1,1.6-1.9,2.8-2c0.3,0,0.7,0.1,1,0.2l-0.3,1.4c-0.3-0.1-0.7-0.2-1-0.2
	c-0.8,0-1.8,0.6-2.5,2.2v6.3h-1.6L941.2,478.1z"/>
<path class="st4" d="M952.2,478.1h1.3l0.1,1.4h0c0.7-0.9,1.8-1.6,3-1.7c1.2-0.1,2.4,0.7,2.7,1.9c0.8-1,1.9-1.7,3.2-1.9
	c2,0,3,1.3,3,3.8v6.2H964v-6c0-1.8-0.6-2.6-1.8-2.6c-1,0.1-1.9,0.7-2.5,1.5v7.1h-1.6v-6c0-1.8-0.6-2.6-1.8-2.6
	c-1,0.1-1.9,0.7-2.5,1.5v7.1h-1.6V478.1z"/>
<path class="st4" d="M968.2,485.3c0-2.1,1.9-3.2,6-3.7c0-1.3-0.4-2.5-2-2.5c-1.1,0-2.1,0.4-2.9,1l-0.6-1.1c1.1-0.8,2.5-1.2,3.8-1.3
	c2.4,0,3.4,1.6,3.4,4v6h-1.3l-0.1-1.2l0,0c-0.9,0.8-2,1.3-3.2,1.4c-1.5,0.1-2.8-0.9-2.9-2.4C968.2,485.5,968.2,485.4,968.2,485.3z
	 M974.2,485.5v-2.7c-3.3,0.4-4.4,1.2-4.4,2.5s0.8,1.6,1.7,1.6C972.6,486.7,973.5,486.2,974.2,485.5L974.2,485.5z"/>
<path class="st4" d="M976.5,492l0.3-1.3c0.3,0.1,0.6,0.2,0.9,0.2c1,0,1.2-0.7,1.2-1.9v-10.9h1.6V489c0,2-0.7,3.3-2.7,3.3
	C977.5,492.3,977,492.2,976.5,492z M978.7,475c0-0.6,0.4-1,0.9-1.1c0.1,0,0.1,0,0.2,0c0.6-0.1,1.1,0.4,1.2,1c0,0,0,0.1,0,0.1
	c0,0.6-0.5,1.1-1.1,1.1c0,0,0,0,0,0C979.3,476.1,978.8,475.7,978.7,475C978.7,475,978.7,475,978.7,475L978.7,475z"/>
<path class="st4" d="M983.2,483c0-3.3,2.1-5.1,4.5-5.1s4.5,1.9,4.5,5.1s-2.1,5.1-4.5,5.1S983.2,486.2,983.2,483z M990.6,483
	c0-2.2-1.2-3.8-2.8-3.8s-2.8,1.5-2.8,3.8s1.1,3.7,2.8,3.7S990.6,485.2,990.6,483z"/>
<path class="st4" d="M994.8,478.1h1.3l0.2,1.8l0,0c0.5-1.1,1.6-1.9,2.8-2c0.4,0,0.7,0.1,1,0.2l-0.3,1.4c-0.3-0.1-0.6-0.2-1-0.2
	c-0.8,0-1.8,0.6-2.5,2.2v6.3h-1.6L994.8,478.1z"/>
<path class="st4" d="M1001,490.9c3.1-5.4,3.1-12,0-17.3l1-0.5c3.6,5.6,3.6,12.7,0,18.3L1001,490.9z"/>
<line class="st5" x1="857.7" y1="225.9" x2="980.2" y2="225.9"/>
<line class="st5" x1="857.7" y1="251.6" x2="980.2" y2="251.6"/>
<line class="st5" x1="857.7" y1="277.2" x2="980.2" y2="277.2"/>
<line class="st5" x1="857.7" y1="314.7" x2="980.2" y2="314.7"/>
<path class="st3" d="M988.7,219.6h2.9c2.3,0,3.8,0.8,3.8,3s-1.5,3.2-3.8,3.2H990v4.1h-1.3L988.7,219.6z M991.5,224.7
	c1.8,0,2.7-0.7,2.7-2.1s-0.9-2-2.7-2H990v4.1L991.5,224.7z"/>
<path class="st3" d="M997.5,218.7h1.3v3.1v1.6c0.6-0.8,1.5-1.2,2.5-1.3c1.6,0,2.3,1,2.3,3v4.8h-1.3v-4.7c0-1.4-0.4-2-1.4-2
	c-0.8,0-1.3,0.4-2.1,1.2v5.5h-1.3L997.5,218.7z"/>
<path class="st3" d="M1006.1,219.6h2.6c3.2,0,4.8,1.8,4.8,5.1s-1.7,5.2-4.8,5.2h-2.6V219.6z M1008.5,228.8c2.4,0,3.6-1.5,3.6-4.1
	s-1.2-4.1-3.6-4.1h-1.2v8.1L1008.5,228.8z"/>
<path class="st3" d="M988.7,246.8h1.6l2,5.5c0.2,0.7,0.5,1.4,0.7,2.1h0.1c0.2-0.7,0.5-1.4,0.7-2.1l2-5.5h1.6V257h-1.2v-5.7
	c0-0.9,0.1-2.1,0.2-3h0l-0.8,2.3l-2,5.4h-0.9l-2-5.3l-0.8-2.3h-0.1c0.1,0.9,0.2,2.1,0.2,3v5.7h-1.2L988.7,246.8z"/>
<path class="st3" d="M999.5,255.1c0-1.6,1.4-2.5,4.7-2.8c0-1-0.3-1.9-1.6-1.9c-0.8,0-1.6,0.3-2.3,0.8l-0.5-0.9c0.9-0.6,1.9-1,3-1
	c1.8,0,2.6,1.2,2.6,3.1v4.6h-1l-0.1-0.9l0,0c-0.7,0.6-1.6,1-2.5,1.1c-1.1,0.1-2.2-0.7-2.3-1.9C999.5,255.2,999.5,255.1,999.5,255.1z
	 M1004.2,255.2v-2.1c-2.6,0.3-3.4,0.9-3.4,1.9s0.6,1.2,1.3,1.2C1002.9,256.1,1003.6,255.8,1004.2,255.2z"/>
<path class="st3" d="M1007,256.2l0.6-0.8c0.6,0.6,1.4,0.9,2.2,0.9c1,0,1.5-0.5,1.5-1.2s-0.9-1.1-1.7-1.4c-1.1-0.4-2.3-0.9-2.3-2.2
	s1-2.2,2.6-2.2c0.9,0,1.7,0.3,2.4,0.9l-0.6,0.8c-0.5-0.4-1.1-0.6-1.8-0.7c-1,0-1.4,0.5-1.4,1.1s0.8,1,1.7,1.3
	c1.1,0.4,2.3,0.9,2.3,2.3c0,1.2-1,2.3-2.8,2.3C1008.8,257.2,1007.8,256.8,1007,256.2z"/>
<path class="st3" d="M1014.3,254.7v-4.2h-1.1v-1l1.2-0.1l0.2-2.1h1.1v2.1h2.1v1h-2.1v4.2c0,0.9,0.3,1.5,1.2,1.5
	c0.3,0,0.6-0.1,0.9-0.2l0.2,1c-0.5,0.2-0.9,0.3-1.4,0.3C1014.9,257.2,1014.3,256.2,1014.3,254.7z"/>
<path class="st3" d="M1018.6,253.2c0-2.5,1.7-4,3.4-4c1.9,0,3,1.4,3,3.6c0,0.2,0,0.5-0.1,0.7h-5.1c-0.1,1.4,1,2.6,2.4,2.7
	c0.1,0,0.1,0,0.2,0c0.7,0,1.3-0.2,1.9-0.6l0.5,0.8c-0.7,0.5-1.6,0.8-2.5,0.8c-2,0-3.6-1.6-3.6-3.6
	C1018.6,253.5,1018.6,253.4,1018.6,253.2z M1023.9,252.6c0-1.5-0.7-2.4-1.9-2.4c-1.2,0.1-2.2,1.1-2.2,2.4H1023.9z"/>
<path class="st3" d="M1026.9,249.4h1l0.1,1.4l0,0c0.4-0.9,1.2-1.5,2.2-1.6c0.3,0,0.6,0,0.8,0.2l-0.2,1.1c-0.2-0.1-0.5-0.1-0.8-0.1
	c-0.6,0-1.4,0.4-1.9,1.8v4.9h-1.3L1026.9,249.4z"/>
<path class="st3" d="M988.7,271.2h3c2.1,0,3.5,0.7,3.5,2.5c0,1-0.6,1.9-1.5,2.2v0c1.2,0.1,2.2,1.2,2.1,2.5c0,2-1.6,3-3.9,3h-3.3
	L988.7,271.2z M991.5,275.6c1.8,0,2.5-0.7,2.5-1.7c0-1.2-0.8-1.7-2.4-1.7H990v3.4H991.5z M991.8,280.4c1.8,0,2.8-0.6,2.8-2
	s-1-1.8-2.8-1.8H990v3.9L991.8,280.4z"/>
<path class="st3" d="M997.3,279.5c0-1.6,1.4-2.5,4.7-2.8c0-1-0.3-1.9-1.6-1.9c-0.8,0-1.6,0.3-2.3,0.8l-0.5-0.9c0.9-0.6,1.9-1,3-1
	c1.8,0,2.6,1.2,2.6,3.1v4.7h-1l-0.1-0.9l0,0c-0.7,0.6-1.6,1-2.5,1.1c-1.1,0.1-2.2-0.7-2.3-1.8C997.3,279.8,997.3,279.6,997.3,279.5z
	 M1002,279.6v-2.1c-2.6,0.3-3.4,0.9-3.4,1.9s0.6,1.2,1.3,1.2C1000.7,280.6,1001.5,280.2,1002,279.6z"/>
<path class="st3" d="M1005.1,277.7c-0.2-2,1.4-3.8,3.4-4c0.1,0,0.2,0,0.3,0c0.8,0,1.6,0.3,2.2,0.9l-0.7,0.9
	c-0.4-0.4-0.9-0.7-1.5-0.7c-1.4,0-2.4,1.2-2.4,2.9s1,2.9,2.3,2.9c0.7,0,1.3-0.3,1.8-0.8l0.5,0.9c-0.7,0.6-1.5,1-2.5,1
	C1006.7,281.7,1005.1,280.2,1005.1,277.7z"/>
<path class="st3" d="M1012.8,270.3h1.3v3v1.6c0.6-0.8,1.5-1.2,2.5-1.3c1.6,0,2.3,1,2.3,3v4.8h-1.3v-4.6c0-1.4-0.4-2-1.4-2
	c-0.8,0.1-1.6,0.5-2.1,1.2v5.5h-1.3L1012.8,270.3z"/>
<path class="st3" d="M1020.7,277.7c0-2.5,1.7-4,3.4-4c1.9,0,3,1.4,3,3.6c0,0.2,0,0.5-0.1,0.7h-5.1c-0.1,1.4,1,2.6,2.4,2.7
	c0.1,0,0.1,0,0.2,0c0.7,0,1.3-0.2,1.9-0.6l0.5,0.8c-0.7,0.5-1.6,0.8-2.5,0.8c-2,0-3.6-1.6-3.6-3.6
	C1020.7,277.9,1020.7,277.8,1020.7,277.7z M1026.1,277.1c0-1.5-0.7-2.4-1.9-2.4c-1.2,0.1-2.2,1.1-2.2,2.4H1026.1z"/>
<path class="st3" d="M1029.1,280v-9.6h1.3v9.7c0,0.4,0.2,0.5,0.4,0.5c0.1,0,0.2,0,0.3,0l0.2,1c-0.2,0.1-0.5,0.1-0.7,0.1
	C1029.5,281.7,1029.1,281,1029.1,280z"/>
<path class="st3" d="M1032.5,277.7c0-2.5,1.7-4,3.5-4s3.5,1.5,3.5,4s-1.7,4-3.5,4S1032.5,280.2,1032.5,277.7z M1038.2,277.7
	c0-1.8-0.9-2.9-2.2-2.9s-2.2,1.2-2.2,2.9s0.9,2.9,2.2,2.9S1038.2,279.4,1038.2,277.7z"/>
<path class="st3" d="M1041.5,273.9h1.1l0.1,1.4l0,0c0.4-0.9,1.2-1.5,2.2-1.6c0.3,0,0.6,0,0.8,0.2l-0.2,1.1c-0.2-0.1-0.5-0.1-0.7-0.1
	c-0.6,0-1.4,0.5-1.9,1.8v4.9h-1.3L1041.5,273.9z"/>
<path class="st3" d="M993.4,306.7h-3.8l-1,3.1h-1.3l3.5-10.3h1.4l3.5,10.3h-1.4L993.4,306.7z M993.1,305.7l-0.5-1.6
	c-0.4-1.2-0.7-2.3-1-3.5h-0.1c-0.3,1.2-0.7,2.3-1,3.5l-0.5,1.6H993.1z"/>
<path class="st3" d="M996.6,309l0.6-0.8c0.6,0.6,1.4,0.9,2.2,0.9c1,0,1.5-0.5,1.5-1.2s-0.9-1.1-1.7-1.5c-1.1-0.4-2.3-0.9-2.3-2.2
	s1-2.1,2.6-2.1c0.9,0,1.7,0.3,2.4,0.9l-0.6,0.8c-0.5-0.4-1.1-0.7-1.8-0.7c-1,0-1.4,0.5-1.4,1.1s0.8,1,1.7,1.3
	c1.1,0.4,2.3,0.9,2.3,2.3c0,1.2-1,2.2-2.8,2.2C998.4,310,997.4,309.7,996.6,309z"/>
<path class="st3" d="M1003.2,309l0.6-0.8c0.6,0.6,1.4,0.9,2.2,0.9c1,0,1.5-0.5,1.5-1.2s-0.9-1.1-1.7-1.5c-1.1-0.4-2.3-0.9-2.3-2.2
	s1-2.1,2.6-2.1c0.9,0,1.7,0.3,2.4,0.9l-0.6,0.8c-0.5-0.4-1.1-0.7-1.8-0.7c-1,0-1.4,0.5-1.4,1.1s0.8,1,1.7,1.3
	c1.1,0.4,2.3,0.9,2.3,2.3c0,1.2-1,2.2-2.8,2.2C1005,310,1004,309.7,1003.2,309z"/>
<path class="st3" d="M1010,306.1c0-2.5,1.7-4,3.5-4s3.5,1.5,3.5,4s-1.7,4-3.5,4S1010,308.6,1010,306.1z M1015.7,306.1
	c0-1.8-0.9-2.9-2.2-2.9s-2.2,1.2-2.2,2.9s0.9,2.9,2.2,2.9S1015.7,307.8,1015.7,306.1L1015.7,306.1z"/>
<path class="st3" d="M1018.5,306.1c-0.2-2,1.4-3.8,3.4-4c0.1,0,0.2,0,0.3,0c0.8,0,1.6,0.3,2.2,0.9l-0.7,0.9
	c-0.4-0.4-0.9-0.7-1.5-0.7c-1.4,0-2.4,1.2-2.4,2.9s1,2.9,2.4,2.9c0.7,0,1.3-0.3,1.8-0.8l0.6,0.9c-0.7,0.6-1.5,1-2.5,1
	C1020,310,1018.5,308.6,1018.5,306.1z"/>
<path class="st3" d="M1025.9,299.9c0.1-0.5,0.5-0.8,1-0.8c0.4,0,0.7,0.4,0.8,0.8c-0.1,0.5-0.5,0.8-1,0.8
	C1026.3,300.6,1026,300.3,1025.9,299.9z M1026.2,302.2h1.3v7.6h-1.3V302.2z"/>
<path class="st3" d="M1029.6,307.9c0-1.6,1.4-2.5,4.7-2.8c0-1-0.3-1.9-1.6-1.9c-0.8,0-1.6,0.3-2.3,0.8l-0.5-0.9c0.9-0.6,1.9-1,3-1
	c1.8,0,2.6,1.2,2.6,3.1v4.7h-1l-0.1-0.9l0,0c-0.7,0.6-1.6,1-2.5,1.1c-1.1,0.1-2.2-0.7-2.3-1.8C1029.5,308.1,1029.5,308,1029.6,307.9
	z M1034.2,308v-2.1c-2.6,0.3-3.4,0.9-3.4,1.9s0.6,1.2,1.3,1.2C1032.9,309,1033.7,308.6,1034.2,308L1034.2,308z"/>
<path class="st3" d="M1037.9,307.5v-4.2h-1.1v-1l1.2-0.1l0.2-2.1h1.1v2.1h2.1v1h-2.1v4.2c0,0.9,0.3,1.5,1.2,1.5
	c0.3,0,0.6-0.1,0.9-0.2l0.2,1c-0.4,0.2-0.9,0.3-1.4,0.3C1038.5,310,1037.9,309,1037.9,307.5z"/>
<path class="st3" d="M1042.2,306.1c0-2.5,1.7-4,3.4-4c1.9,0,3,1.4,3,3.6c0,0.2,0,0.5-0.1,0.7h-5.1c-0.1,1.4,1,2.6,2.4,2.6
	c0.1,0,0.1,0,0.2,0c0.7,0,1.3-0.2,1.9-0.6l0.5,0.8c-0.7,0.5-1.6,0.8-2.5,0.8c-2,0-3.6-1.6-3.7-3.6
	C1042.2,306.3,1042.2,306.2,1042.2,306.1z M1047.5,305.5c0-1.5-0.7-2.4-1.9-2.4c-1.2,0.1-2.2,1.1-2.2,2.4H1047.5z"/>
<path class="st3" d="M1050,306.1c0-2.5,1.6-4,3.3-4c0.8,0,1.6,0.3,2.1,0.9l-0.1-1.3v-2.9h1.3v11.1h-1l-0.1-0.9l0,0
	c-0.6,0.6-1.4,1-2.3,1.1C1051.2,310,1050,308.6,1050,306.1z M1055.4,307.9v-4c-0.5-0.5-1.2-0.8-1.8-0.8c-1.2,0-2.2,1.2-2.2,2.9
	s0.8,2.9,2.1,2.9C1054.2,308.9,1054.9,308.5,1055.4,307.9L1055.4,307.9z"/>
<path class="st3" d="M1061.9,304.7c0-3.3,2-5.3,4.6-5.3c1.1,0,2.1,0.5,2.8,1.3l-0.7,0.8c-0.5-0.6-1.3-1-2.1-1c-2,0-3.2,1.6-3.2,4.2
	s1.2,4.2,3.2,4.2c0.9,0,1.8-0.4,2.4-1.1l0.7,0.8c-0.8,0.9-1.9,1.5-3.2,1.5C1063.8,310,1061.9,308.1,1061.9,304.7z"/>
<path class="st3" d="M1070.7,306.1c0-2.5,1.7-4,3.5-4s3.5,1.5,3.5,4s-1.7,4-3.5,4S1070.7,308.6,1070.7,306.1z M1076.4,306.1
	c0-1.8-0.9-2.9-2.2-2.9s-2.2,1.2-2.2,2.9s0.9,2.9,2.2,2.9S1076.4,307.8,1076.4,306.1z"/>
<path class="st3" d="M1079.8,308.4v-9.6h1.2v9.7c0,0.4,0.2,0.5,0.4,0.5c0.1,0,0.2,0,0.3,0l0.2,1c-0.2,0.1-0.5,0.1-0.7,0.1
	C1080.2,310,1079.8,309.4,1079.8,308.4z"/>
<path class="st3" d="M1083.8,308.4v-9.6h1.2v9.7c0,0.4,0.2,0.5,0.4,0.5c0.1,0,0.2,0,0.3,0l0.2,1c-0.2,0.1-0.5,0.1-0.7,0.1
	C1084.2,310,1083.8,309.4,1083.8,308.4z"/>
<path class="st3" d="M1087.2,306.1c0-2.5,1.7-4,3.4-4c1.9,0,3,1.4,3,3.6c0,0.2,0,0.5-0.1,0.7h-5.1c-0.1,1.4,1,2.6,2.4,2.6
	c0.1,0,0.1,0,0.2,0c0.7,0,1.3-0.2,1.9-0.6l0.5,0.8c-0.7,0.5-1.6,0.8-2.5,0.8c-2,0-3.7-1.6-3.7-3.6
	C1087.2,306.3,1087.2,306.2,1087.2,306.1z M1092.5,305.5c0-1.5-0.7-2.4-1.9-2.4c-1.2,0.1-2.2,1.1-2.2,2.4H1092.5z"/>
<path class="st3" d="M1094.8,311.3c0.1-0.7,0.5-1.4,1.1-1.7l0,0c-0.4-0.3-0.7-0.7-0.7-1.2c0-0.6,0.4-1.1,0.9-1.4v-0.1
	c-0.6-0.5-1-1.3-1-2c0-1.5,1.2-2.7,2.7-2.7c0.1,0,0.1,0,0.2,0c0.4,0,0.7,0.1,1.1,0.2h2.7v1h-1.6c0.4,0.4,0.6,1,0.6,1.6
	c0,1.4-1.1,2.6-2.5,2.7c-0.1,0-0.2,0-0.2,0c-0.4,0-0.8-0.1-1.1-0.3c-0.3,0.2-0.5,0.5-0.5,0.9c0,0.5,0.3,0.8,1.3,0.8h1.5
	c1.8,0,2.7,0.6,2.7,1.8c0,1.4-1.5,2.6-3.8,2.6C1096.1,313.4,1094.8,312.6,1094.8,311.3z M1100.5,310.9c0-0.7-0.5-0.9-1.6-0.9h-1.3
	c-0.3,0-0.7,0-1-0.1c-0.5,0.3-0.7,0.8-0.8,1.3c0,0.8,0.8,1.3,2.2,1.3S1100.5,311.7,1100.5,310.9z M1099.5,304.8
	c0.1-0.9-0.5-1.7-1.4-1.8c-0.9-0.1-1.7,0.5-1.8,1.4c0,0.1,0,0.2,0,0.4c-0.1,0.9,0.5,1.7,1.4,1.8c0.9,0.1,1.7-0.5,1.8-1.4
	C1099.5,305,1099.5,304.9,1099.5,304.8z"/>
<path class="st3" d="M1102.4,306.1c0-2.5,1.7-4,3.4-4c1.9,0,3,1.4,3,3.6c0,0.2,0,0.5-0.1,0.7h-5.1c-0.1,1.4,1,2.6,2.4,2.7
	c0,0,0.1,0,0.1,0c0.7,0,1.3-0.2,1.9-0.6l0.5,0.8c-0.7,0.5-1.6,0.8-2.5,0.8c-2,0-3.6-1.6-3.6-3.6
	C1102.4,306.3,1102.4,306.2,1102.4,306.1z M1107.8,305.5c0-1.5-0.7-2.4-1.9-2.4c-1.2,0.1-2.2,1.1-2.2,2.4H1107.8z"/>
<path class="st3" d="M988.1,320.6c0-3.3,2-5.3,4.7-5.3c1.1,0,2.2,0.4,3,1.3l-0.7,0.8c-0.6-0.6-1.4-1-2.2-1c-2.1,0-3.4,1.6-3.4,4.2
	s1.2,4.2,3.4,4.2c0.7,0,1.3-0.2,1.9-0.6v-2.7h-2.2v-1.1h3.4v4.3c-0.9,0.8-2,1.2-3.2,1.2C990,326,988.1,324,988.1,320.6z"/>
<path class="st3" d="M998.2,318.2h1l0.1,1.4l0,0c0.4-0.9,1.2-1.5,2.2-1.6c0.3,0,0.6,0,0.8,0.2l-0.2,1.1c-0.2-0.1-0.5-0.1-0.7-0.1
	c-0.6,0-1.4,0.5-1.9,1.8v4.9h-1.3L998.2,318.2z"/>
<path class="st3" d="M1002.8,323.8c0-1.7,1.4-2.5,4.7-2.9c0-1-0.3-1.9-1.6-1.9c-0.8,0-1.6,0.3-2.3,0.8l-0.5-0.9c0.9-0.6,1.9-1,3-1
	c1.8,0,2.6,1.2,2.6,3.1v4.7h-1l-0.1-0.9l0,0c-0.7,0.6-1.6,1-2.5,1.1c-1.1,0.1-2.2-0.7-2.3-1.8C1002.8,324,1002.8,323.9,1002.8,323.8
	z M1007.5,323.9v-2.1c-2.6,0.3-3.4,0.9-3.4,1.9s0.6,1.2,1.3,1.2C1006.2,324.9,1007,324.5,1007.5,323.9z"/>
<path class="st3" d="M1010.7,322c0-2.5,1.5-4,3.3-4c0.8,0,1.6,0.3,2.1,0.9l-0.1-1.3v-2.9h1.3v11.1h-1l-0.1-0.9l0,0
	c-0.6,0.6-1.4,1-2.3,1.1C1011.9,326,1010.7,324.5,1010.7,322z M1016,323.9v-4c-0.5-0.5-1.2-0.8-1.8-0.8c-1.2,0-2.2,1.2-2.2,2.9
	s0.8,2.9,2.1,2.9C1014.8,324.9,1015.5,324.5,1016,323.9L1016,323.9z"/>
<path class="st3" d="M1019.8,323v-4.8h1.3v4.7c0,1.4,0.4,2,1.4,2c0.8,0,1.3-0.4,2.1-1.3v-5.4h1.3v7.6h-1.1l-0.1-1.2l0,0
	c-0.6,0.8-1.5,1.3-2.5,1.4C1020.5,326,1019.8,324.9,1019.8,323z"/>
<path class="st3" d="M1027.9,323.8c0-1.7,1.4-2.5,4.7-2.9c0-1-0.3-1.9-1.6-1.9c-0.8,0-1.6,0.3-2.3,0.8l-0.5-0.9c0.9-0.6,1.9-1,3-1
	c1.8,0,2.6,1.2,2.6,3.1v4.7h-1l-0.1-0.9l0,0c-0.7,0.6-1.6,1-2.5,1.1c-1.1,0.2-2.2-0.6-2.3-1.7
	C1027.9,324.1,1027.9,323.9,1027.9,323.8z M1032.6,323.9v-2.1c-2.6,0.3-3.4,0.9-3.4,1.9s0.6,1.2,1.3,1.2
	C1031.3,324.9,1032,324.5,1032.6,323.9L1032.6,323.9z"/>
<path class="st3" d="M1036.3,323.4v-4.2h-1.1v-1l1.2-0.1l0.2-2.1h1.1v2.1h2.1v1h-2.1v4.2c0,0.9,0.3,1.5,1.2,1.5
	c0.3,0,0.6-0.1,0.9-0.2l0.2,1c-0.4,0.2-0.9,0.3-1.4,0.3C1036.8,326,1036.3,325,1036.3,323.4z"/>
<path class="st3" d="M1040.6,322c0-2.5,1.7-4,3.4-4c1.9,0,3,1.4,3,3.6c0,0.2,0,0.5-0.1,0.7h-5.1c-0.1,1.4,1,2.6,2.4,2.7
	c0.1,0,0.1,0,0.2,0c0.7,0,1.3-0.2,1.9-0.6l0.5,0.8c-0.7,0.5-1.6,0.8-2.5,0.8c-2,0-3.6-1.6-3.6-3.7
	C1040.5,322.2,1040.5,322.1,1040.6,322z M1045.9,321.4c0-1.5-0.7-2.4-1.9-2.4c-1.2,0.1-2.2,1.1-2.2,2.4H1045.9z"/>
<path class="st3" d="M1051.4,322c0-2.5,1.7-4,3.5-4s3.5,1.5,3.5,4s-1.7,4-3.5,4S1051.4,324.5,1051.4,322z M1057.2,322
	c0-1.8-0.9-2.9-2.2-2.9s-2.2,1.2-2.2,2.9s0.9,2.9,2.2,2.9S1057.2,323.7,1057.2,322z"/>
<path class="st3" d="M1060.5,318.2h1l0.1,1.4l0,0c0.4-0.9,1.2-1.5,2.2-1.6c0.3,0,0.6,0,0.8,0.2l-0.2,1.1c-0.2-0.1-0.5-0.1-0.8-0.1
	c-0.6,0-1.4,0.5-1.9,1.8v4.9h-1.3L1060.5,318.2z"/>
<path class="st3" d="M1069.2,315.5h1.3v9.2h4.5v1.1h-5.8L1069.2,315.5z"/>
<path class="st3" d="M1075.9,322c0-2.5,1.7-4,3.5-4s3.5,1.5,3.5,4s-1.7,4-3.5,4S1075.9,324.5,1075.9,322z M1081.6,322
	c0-1.8-0.9-2.9-2.2-2.9s-2.2,1.2-2.2,2.9s0.9,2.9,2.2,2.9S1081.6,323.7,1081.6,322z"/>
<path class="st3" d="M1084,318.2h1.3l1.1,4.4c0.2,0.7,0.3,1.4,0.4,2.1h0.1c0.2-0.7,0.3-1.4,0.5-2.1l1.2-4.4h1.2l1.2,4.4
	c0.2,0.7,0.3,1.4,0.5,2.1h0.1c0.2-0.7,0.3-1.4,0.5-2.1l1.1-4.4h1.2l-2,7.6h-1.6l-1.1-4.1c-0.2-0.7-0.3-1.4-0.5-2.2h-0.1
	c-0.2,0.8-0.3,1.5-0.5,2.2l-1.1,4.1h-1.5L1084,318.2z"/>
<path class="st3" d="M1095.5,322c0-2.5,1.7-4,3.4-4c1.9,0,3,1.4,3,3.6c0,0.2,0,0.5-0.1,0.7h-5.1c-0.1,1.4,1,2.6,2.4,2.7
	c0.1,0,0.1,0,0.2,0c0.7,0,1.3-0.2,1.9-0.6l0.5,0.8c-0.7,0.5-1.6,0.8-2.5,0.8c-2,0-3.6-1.6-3.6-3.7
	C1095.5,322.2,1095.5,322.1,1095.5,322z M1100.8,321.4c0-1.5-0.7-2.4-1.9-2.4c-1.2,0.1-2.2,1.1-2.2,2.4H1100.8z"/>
<path class="st3" d="M1103.8,318.2h1.1l0.1,1.4l0,0c0.4-0.9,1.2-1.5,2.2-1.6c0.3,0,0.6,0,0.8,0.2l-0.2,1.1c-0.2-0.1-0.5-0.1-0.8-0.1
	c-0.6,0-1.4,0.5-1.9,1.8v4.9h-1.3L1103.8,318.2z"/>
<circle class="st4" cx="857.7" cy="225.9" r="2.1"/>
<circle class="st4" cx="857.7" cy="251.6" r="2.1"/>
<circle class="st4" cx="857.7" cy="277.3" r="2.1"/>
<circle class="st4" cx="857.7" cy="314.7" r="2.1"/>
<path class="st3" d="M376.8,167.6l9.1,0.6l-0.2,2.5l-6.1-0.4l-0.2,3.4l5.2,0.3l-0.2,2.5l-5.2-0.3l-0.3,4l6.3,0.4l-0.2,2.4l-9.3-0.6
	L376.8,167.6z"/>
<path class="st3" d="M389,172l2.4,0.3v1.5h0.1c1-0.9,2.4-1.4,3.8-1.3c2.4,0.3,3.2,2.1,2.9,4.9l-0.8,6.9l-2.9-0.4l0.8-6.6
	c0.2-1.7-0.2-2.4-1.3-2.5c-0.9,0-1.8,0.3-2.5,1l-0.9,7.6l-2.9-0.3L389,172z"/>
<path class="st3" d="M399.2,186.5c0.2-1,1-1.8,1.9-2.1v-0.1c-0.6-0.5-0.9-1.3-0.7-2c0.2-0.8,0.8-1.5,1.5-1.9v-0.1
	c-0.8-0.8-1.2-2-1-3.1c0.4-2.6,2.7-3.7,5.1-3.3c0.6,0.1,1.1,0.3,1.6,0.5l4,0.6l-0.3,2.1l-1.9-0.3c0.3,0.5,0.4,1.2,0.3,1.8
	c-0.4,2.5-2.5,3.5-4.8,3.1c-0.5-0.1-1-0.2-1.4-0.5c-0.3,0.2-0.6,0.5-0.6,0.9c-0.1,0.6,0.3,1,1.6,1.2l1.9,0.3c2.7,0.4,4,1.4,3.7,3.4
	c-0.3,2.2-2.9,3.6-6.6,3C400.8,189.6,399,188.4,399.2,186.5z M407.2,187.1c0.1-0.8-0.5-1.1-1.7-1.3l-1.3-0.2c-0.5-0.1-1-0.2-1.5-0.4
	c-0.5,0.2-0.8,0.7-0.9,1.2c-0.1,0.9,0.8,1.6,2.4,1.9S407.1,188,407.2,187.1L407.2,187.1z M407.2,178.2c0.3-0.9-0.2-1.9-1.2-2.2
	c-0.1,0-0.2,0-0.2-0.1c-1-0.1-1.9,0.5-2,1.8c-0.3,1,0.3,2,1.2,2.3c0.1,0,0.1,0,0.2,0C406.1,180.1,407,179.5,407.2,178.2L407.2,178.2
	z"/>
<path class="st3" d="M414,175.5l2.9,0.5l-2,11l-2.9-0.5L414,175.5z M414.3,172.1c0.1-1,0.9-1.7,1.9-1.6c1,0.1,1.7,0.9,1.6,1.9
	s-0.9,1.7-1.9,1.6c-0.1,0-0.1,0-0.2,0C414.9,173.9,414.2,173.1,414.3,172.1C414.3,172.1,414.3,172.1,414.3,172.1L414.3,172.1z"/>
<path class="st3" d="M420.2,176.6l2.4,0.5l-0.1,1.5h0.1c1.1-0.8,2.6-1.2,3.9-0.9c2.4,0.5,3,2.4,2.4,5.1l-1.5,6.8l-2.9-0.6l1.4-6.5
	c0.4-1.7,0-2.4-1-2.6c-0.9-0.1-1.8,0.1-2.5,0.7l-1.6,7.5l-2.9-0.6L420.2,176.6z"/>
<path class="st3" d="M430.9,184.8c0.9-3.5,4-5.1,6.5-4.4c3,0.8,4,3.4,3.2,6.4c-0.1,0.4-0.3,0.9-0.5,1.3l-6.7-1.8
	c-0.3,1.6,0.7,3.1,2.3,3.5c0,0,0,0,0,0c0.9,0.2,1.8,0.2,2.6-0.1l0.5,2c-1.3,0.5-2.7,0.5-4.1,0.2C431.8,191,430,188.3,430.9,184.8z
	 M438.4,185.5c0.4-1.5,0-2.6-1.4-2.9c-1.3-0.3-2.6,0.5-3,1.8L438.4,185.5z"/>
<path class="st3" d="M442.2,187.8c1.1-3.5,4.2-4.9,6.7-4.1c2.9,0.9,3.8,3.5,2.9,6.5c-0.1,0.4-0.3,0.9-0.5,1.2l-6.6-2
	c-0.4,1.6,0.6,3.2,2.1,3.6c0,0,0,0,0,0c0.9,0.3,1.8,0.3,2.6,0l0.4,2c-1.3,0.4-2.8,0.4-4.1,0C442.9,194.1,441.2,191.3,442.2,187.8z
	 M449.6,188.8c0.4-1.5,0.1-2.6-1.3-3c-1.3-0.3-2.6,0.4-3.1,1.7L449.6,188.8z"/>
<path class="st3" d="M455.9,186.2l2.3,0.8l-0.5,1.9h0.1c1-1,2.4-1.4,3.8-1.1c0.4,0.1,0.8,0.4,1.2,0.7l-1.3,2.2
	c-0.3-0.2-0.6-0.4-1-0.6c-0.8-0.3-2-0.1-3.2,1.2l-2.2,6.3l-2.8-1L455.9,186.2z"/>
<path class="st3" d="M464.3,189.1l2.7,1l-3.9,10.5l-2.7-1L464.3,189.1z M465.2,185.9c0.4-0.9,1.4-1.3,2.3-0.9c0.8,0.4,1.2,1.3,1,2.1
	c-0.4,0.9-1.4,1.3-2.3,0.9C465.4,187.6,465,186.7,465.2,185.9z"/>
<path class="st3" d="M470.2,191.4l2.2,0.9l-0.4,1.4h0.1c1.2-0.6,2.7-0.7,4-0.2c2.2,0.9,2.5,2.9,1.5,5.5l-2.6,6.5l-2.7-1.1l2.5-6.1
	c0.7-1.6,0.5-2.4-0.6-2.8c-0.9-0.3-1.8-0.2-2.6,0.3l-3,7.1l-2.7-1.1L470.2,191.4z"/>
<path class="st3" d="M476.1,208.1c0.5-0.9,1.4-1.4,2.4-1.4v-0.1c-0.4-0.6-0.5-1.4-0.1-2.1c0.4-0.7,1.2-1.2,2-1.4V203
	c-0.5-1-0.6-2.2-0.1-3.3c1.1-2.4,3.6-2.8,5.8-1.8c0.5,0.3,1,0.6,1.4,1l3.7,1.7l-0.9,2l-1.7-0.8c0.1,0.6,0,1.2-0.2,1.8
	c-1.1,2.3-3.4,2.6-5.5,1.6c-0.4-0.2-0.8-0.5-1.2-0.8c-0.4,0.1-0.7,0.3-0.8,0.7c-0.2,0.5,0,1,1.2,1.6l1.7,0.8
	c2.4,1.1,3.4,2.5,2.6,4.3c-1,2-3.8,2.6-7.2,1C476.7,211.6,475.3,209.9,476.1,208.1z M483.6,211c0.3-0.7-0.2-1.2-1.3-1.7l-1.2-0.6
	c-0.5-0.2-0.9-0.5-1.4-0.8c-0.5,0.1-1,0.4-1.2,0.9c-0.4,0.9,0.3,1.8,1.8,2.5S483.2,211.8,483.6,211L483.6,211z M486.1,202.4
	c0.5-0.8,0.3-1.9-0.5-2.5c-0.8-0.5-1.9-0.3-2.5,0.5c-0.1,0.1-0.2,0.3-0.2,0.5c-0.6,0.8-0.4,1.9,0.4,2.5c0.8,0.6,1.9,0.4,2.5-0.4
	C485.9,202.8,486,202.6,486.1,202.4z"/>
<path class="st3" d="M519.7,227.8l2.6-0.7c0.3,1.4,1,2.6,2.2,3.5c1.3,0.9,2.3,0.8,2.9-0.1s0.1-1.7-0.7-2.9l-1.2-1.8
	c-1.1-1.5-1.2-3.5-0.2-5c1.4-2,4.2-2.3,6.6-0.6c1.4,1,2.4,2.5,2.7,4.2l-2.3,0.7c-0.3-1.1-0.9-2.1-1.9-2.8c-1.1-0.7-2.1-0.7-2.7,0.1
	s0,1.8,0.8,2.9l1.1,1.8c1.1,1.6,1.4,3.2,0.2,5c-1.4,2-4.2,2.5-7,0.6C521.3,231.5,520.1,229.7,519.7,227.8z"/>
<path class="st3" d="M532.1,232c1.7-2.6,5.2-3.2,7.8-1.5c0.1,0.1,0.2,0.2,0.3,0.3c1,0.7,1.6,1.8,1.8,3l-2.3,0.7
	c-0.1-0.6-0.4-1.2-0.9-1.6c-1.3-1-3.1-0.6-4.4,1.1s-1.2,3.5,0.1,4.4c0.7,0.5,1.5,0.7,2.3,0.6l-0.2,2.2c-1.3,0.1-2.7-0.3-3.7-1.1
	C530.5,238.1,529.9,234.9,532.1,232z"/>
<path class="st3" d="M544.6,234.5l2.3,1.8l-7,8.7l-2.3-1.8L544.6,234.5z M546.5,231.7c0.5-0.8,1.6-1,2.4-0.5c0.8,0.5,1,1.6,0.5,2.4
	c-0.5,0.8-1.6,1-2.4,0.5c0,0-0.1-0.1-0.1-0.1c-0.7-0.5-0.9-1.5-0.4-2.2C546.5,231.8,546.5,231.7,546.5,231.7L546.5,231.7z"/>
<path class="st3" d="M545.3,242.3c2.4-2.8,5.8-2.8,7.8-1.1c2.3,2,2.1,4.8,0.1,7.1c-0.3,0.3-0.6,0.7-1,0.9l-5.2-4.5
	c-1,1.3-0.8,3.1,0.5,4.1c0,0,0,0,0,0c0.7,0.6,1.5,0.9,2.4,1.1l-0.4,2c-1.4-0.2-2.7-0.7-3.8-1.6C543.4,248.3,542.9,245.1,545.3,242.3
	z M551.7,246.2c1-1.2,1.1-2.3,0-3.3c-1-0.8-2.6-0.7-3.5,0.3L551.7,246.2z"/>
<path class="st3" d="M558.5,246.3l1.8,1.6l-0.9,1.2l0.1,0.1c1.4-0.1,2.8,0.3,3.9,1.2c1.8,1.7,1.4,3.6-0.5,5.6l-4.8,5.1l-2.1-2
	l4.5-4.8c1.2-1.3,1.2-2,0.4-2.8c-0.7-0.6-1.7-0.8-2.6-0.7l-5.3,5.6l-2.1-2L558.5,246.3z"/>
<path class="st3" d="M563.6,258.8c2.1-2.3,5.6-2.5,7.9-0.4c0.1,0.1,0.2,0.2,0.3,0.3c0.8,0.9,1.3,2,1.4,3.2l-2.3,0.3
	c0-0.6-0.2-1.3-0.7-1.7c-1.2-1.2-3-1.1-4.5,0.4s-1.7,3.2-0.5,4.4c0.6,0.6,1.4,0.9,2.2,0.9l-0.6,2.2c-1.3-0.1-2.6-0.7-3.5-1.6
	C561.1,264.6,560.9,261.4,563.6,258.8z"/>
<path class="st3" d="M570.6,265.9c2.7-2.5,6.1-2.1,7.9-0.1c2.1,2.3,1.5,5-0.8,7.1c-0.3,0.3-0.7,0.6-1.1,0.8l-4.7-5.1
	c-1.2,1.1-1.2,3,0,4.2c0,0,0,0,0,0c0.6,0.7,1.4,1.1,2.3,1.3l-0.7,2c-1.4-0.3-2.6-1-3.6-2C567.9,271.7,567.9,268.4,570.6,265.9z
	 M576.4,270.6c1.1-1,1.4-2.2,0.4-3.2c-0.9-1-2.5-1-3.5-0.1L576.4,270.6z"/>
<path class="st3" d="M611.6,328.7l2.6,0.6c-0.4,1.4-0.3,2.8,0.3,4.1c0.7,1.4,1.7,1.8,2.6,1.3s0.9-1.5,0.8-2.9l-0.2-2.1
	c-0.3-1.8,0.6-3.6,2.2-4.5c2.2-1.1,4.8-0.1,6.2,2.6c0.8,1.5,1,3.3,0.5,5l-2.3-0.5c0.3-1.1,0.2-2.3-0.4-3.4c-0.6-1.1-1.5-1.6-2.4-1.2
	s-0.8,1.6-0.7,3l0.2,2.1c0.2,1.9-0.3,3.5-2.2,4.5c-2.1,1.1-4.9,0.3-6.5-2.8C611.3,332.7,611.1,330.6,611.6,328.7z"/>
<path class="st3" d="M620.6,338.2c2.7-1.5,6.1-0.4,7.6,2.3c0.1,0.1,0.1,0.3,0.2,0.4c0.5,1.1,0.6,2.3,0.3,3.5l-2.3-0.5
	c0.2-0.6,0.2-1.3-0.1-1.9c-0.7-1.5-2.5-2-4.4-1.1s-2.6,2.5-2,4c0.4,0.7,1,1.3,1.7,1.6l-1.3,1.9c-1.2-0.5-2.2-1.5-2.8-2.7
	C616.3,342.8,617.3,339.8,620.6,338.2z"/>
<path class="st3" d="M630.5,346.2l1.2,2.7l-10.3,4.4l-1.2-2.7L630.5,346.2z M633.5,344.6c0.9-0.5,1.9-0.1,2.4,0.7
	c0.5,0.9,0.1,1.9-0.7,2.4c-0.9,0.5-1.9,0.1-2.4-0.7c0,0,0-0.1-0.1-0.1C632.3,346.1,632.6,345.1,633.5,344.6
	C633.5,344.7,633.5,344.6,633.5,344.6L633.5,344.6z"/>
<path class="st3" d="M627.5,353.5c3.4-1.3,6.4,0.2,7.4,2.7c1.1,2.9-0.4,5.2-3.3,6.3c-0.4,0.2-0.8,0.3-1.3,0.4l-2.5-6.4
	c-1.5,0.7-2.1,2.4-1.5,3.9c0.3,0.8,0.9,1.5,1.7,2l-1.3,1.6c-1.2-0.8-2.1-1.9-2.6-3.2C623,357.9,624.1,354.8,627.5,353.5z
	 M631.3,359.9c1.4-0.6,2.1-1.5,1.5-2.9c-0.5-1.2-1.9-1.8-3.2-1.4L631.3,359.9z"/>
<path class="st3" d="M637.3,363.2l0.8,2.3l-1.3,0.7v0.1c1.3,0.5,2.3,1.6,2.8,2.9c0.8,2.3-0.5,3.8-3.1,4.7l-6.5,2.3l-1-2.8l6.3-2.2
	c1.6-0.6,2-1.2,1.7-2.3c-0.3-0.9-0.9-1.3-2-1.8l-7.3,2.5l-1-2.8L637.3,363.2z"/>
<path class="st3" d="M636,376.6c2.9-1.1,6.1,0.4,7.2,3.3c0.1,0.1,0.1,0.3,0.1,0.4c0.4,1.2,0.3,2.4-0.2,3.5l-2.2-0.8
	c0.3-0.6,0.4-1.2,0.2-1.9c-0.5-1.6-2.1-2.3-4.2-1.7s-3,2.1-2.5,3.7c0.3,0.8,0.8,1.4,1.5,1.8l-1.5,1.7c-1.1-0.7-2-1.8-2.3-3.1
	C631,380.5,632.4,377.6,636,376.6z"/>
<path class="st3" d="M638.8,386.2c3.5-0.9,6.3,1,7,3.6c0.8,3-1,5.1-4,5.9c-0.4,0.1-0.9,0.2-1.3,0.2l-1.7-6.7
	c-1.5,0.5-2.4,2.2-1.9,3.7c0.2,0.9,0.7,1.6,1.4,2.2l-1.5,1.4c-1.1-0.9-1.8-2.1-2.2-3.5C633.8,390,635.3,387.1,638.8,386.2z
	 M641.8,393c1.5-0.4,2.2-1.3,1.9-2.7c-0.4-1.3-1.7-2-3-1.7L641.8,393z"/>
<path class="st3" d="M646.8,441.5l-0.4-4.8l-3.9-0.7l-0.2-3l15.1,3.5l0.3,3.5l-14.3,6l-0.3-3.1L646.8,441.5z M649,440.7l1.6-0.6
	c1.5-0.6,3.2-1.1,4.7-1.7v-0.1c-1.7-0.2-3.4-0.5-4.9-0.9l-1.7-0.3L649,440.7z"/>
<path class="st3" d="M641.3,446.7c1,0,1.9,0.6,2.4,1.5h0.1c0.4-0.7,1.1-1.1,1.8-1.1c0.9,0,1.6,0.5,2.2,1.1h0.1
	c0.7-0.9,1.7-1.5,2.9-1.6c2.6-0.1,4.1,2,4.2,4.4c0,0.6-0.1,1.1-0.2,1.7l0.2,4l-2.2,0.1l-0.1-1.9c-0.5,0.4-1.1,0.6-1.7,0.6
	c-2.5,0.1-3.9-1.8-4-4.2c0-0.5,0.1-1,0.2-1.5c-0.2-0.3-0.6-0.5-1-0.4c-0.6,0-0.9,0.5-0.8,1.8l0.1,1.9c0.1,2.7-0.7,4.2-2.6,4.3
	c-2.3,0.1-4.1-2.2-4.2-5.9C638.5,448.8,639.4,446.8,641.3,446.7z M642.3,454.6c0.8,0,1-0.7,0.9-1.9l-0.1-1.4c0-0.5,0-1,0.1-1.6
	c-0.3-0.4-0.8-0.7-1.3-0.7c-0.9,0-1.4,1.1-1.4,2.7S641.4,454.6,642.3,454.6z M651,452.9c1.3,0,2-0.8,2-1.8c-0.1-1-0.9-1.8-1.9-1.7
	c-0.1,0-0.1,0-0.2,0c-1.3,0.1-2,0.9-2,1.8S649.7,452.9,651,452.9z"/>
<path class="st3" d="M654.9,459.1v2.4l-2,0.2v0.1c1.3,0.6,2.1,1.8,2.3,3.2c0,0.5-0.1,0.9-0.2,1.3l-2.5-0.5c0.1-0.4,0.2-0.8,0.2-1.2
	c0-0.9-0.6-1.9-2.2-2.6h-6.7v-2.9L654.9,459.1z"/>
<path class="st3" d="M654.9,468l-0.1,2.9l-11.2-0.2l0.1-2.9L654.9,468z M658.3,467.8c1-0.1,1.8,0.7,1.9,1.6c0.1,1-0.7,1.8-1.6,1.9
	c-1,0.1-1.8-0.7-1.9-1.6c0,0,0-0.1,0-0.1C656.7,468.6,657.4,467.9,658.3,467.8C658.3,467.8,658.3,467.8,658.3,467.8L658.3,467.8z"/>
<path class="st3" d="M649.2,473.3c3.1,0,5.6,2.5,5.6,5.6c0,0.1,0,0.3,0,0.4c-0.1,1.2-0.6,2.3-1.4,3.2l-1.8-1.5
	c0.5-0.4,0.8-1,0.8-1.7c0.1-1.7-1.2-2.9-3.3-3s-3.5,1-3.6,2.6c0,0.8,0.3,1.6,0.8,2.2l-2,1.1c-0.8-1.1-1.2-2.4-1.2-3.7
	C643.2,475.4,645.5,473.1,649.2,473.3z"/>
<path class="st3" d="M647.2,484.4l7,0.6l-0.2,2.9l-6.6-0.6c-1.7-0.1-2.4,0.3-2.5,1.4c0,1,0.4,1.9,1.2,2.4l7.5,0.6l-0.2,2.9
	l-11.2-0.9l0.2-2.4l1.6-0.1v-0.1c-1.1-0.9-1.7-2.3-1.6-3.7C642.6,485,644.4,484.1,647.2,484.4z"/>
<path class="st3" d="M644.9,497l12.7,1.6l-0.4,2.9l-12.9-1.6c-0.7-0.1-0.9,0.2-1,0.5c0,0.1,0,0.3,0,0.4l-2.2,0.1
	c-0.1-0.5-0.2-1-0.1-1.5C641.4,497.3,642.8,496.8,644.9,497z"/>
<path class="st3" d="M644.8,503.8l4.9,0.7l0.2-1.6l2.2,0.3L652,505l2.9,0.8l-0.4,2.4l-3-0.5l-0.4,2.7l-2.3-0.4l0.4-2.7l-4.9-0.7
	c-1.3-0.2-1.9,0.2-2.1,1.2c0,0.4,0,0.8,0.1,1.1l-2.2,0.2c-0.2-0.8-0.2-1.6-0.1-2.4C640.5,504.2,642.3,503.4,644.8,503.8z"/>
<path class="st3" d="M643.9,511.7l6.9,1.3l-0.5,2.9l-6.5-1.2c-1.7-0.3-2.4,0-2.6,1.1c-0.1,1,0.2,1.9,1,2.5l7.4,1.4l-0.5,2.9l-11-2.1
	l0.5-2.4l1.6,0.1v-0.1c-1-1-1.4-2.5-1.2-3.9C639.3,511.9,641.1,511.1,643.9,511.7z"/>
<path class="st3" d="M648.2,525.9l-0.5,2.3l-2-0.2v0.1c1.1,0.8,1.7,2.2,1.5,3.6c-0.1,0.4-0.3,0.9-0.5,1.2l-2.4-1.1
	c0.2-0.3,0.3-0.7,0.4-1.1c0.2-0.8-0.1-2-1.6-3l-6.5-1.5l0.7-2.8L648.2,525.9z"/>
<path class="st3" d="M641,532.2c3.5,0.9,5.1,4,4.4,6.6c-0.8,3-3.4,4-6.4,3.2c-0.4-0.1-0.9-0.3-1.3-0.5l1.8-6.7
	c-1.6-0.3-3.2,0.7-3.5,2.3c0,0,0,0,0,0c-0.2,0.9-0.2,1.8,0.1,2.6l-2,0.5c-0.5-1.3-0.5-2.8-0.2-4.1
	C634.7,533.1,637.5,531.3,641,532.2z M640.2,539.7c1.5,0.4,2.6,0,2.9-1.4c0.3-1.3-0.5-2.6-1.8-3L640.2,539.7z"/>
<path class="st3" d="M78.6,547.8l-0.8-2.8l11.9-3.4l-1.7-5.8l2.4-0.7l2.4,8.6L78.6,547.8z"/>
<path class="st3" d="M75.8,536.8c-1,0.1-1.9-0.5-2-1.5c-0.1-0.8,0.4-1.6,1.2-1.9c1-0.1,1.9,0.5,2,1.5
	C77.1,535.7,76.6,536.5,75.8,536.8z M79,535.7l-0.7-2.8l10.9-2.7l0.7,2.8L79,535.7z"/>
<path class="st3" d="M84.6,527.6l-4.8,1.1l0.3,1.5l-2.1,0.5l-0.5-1.7l-3,0.3l-0.5-2.4l2.9-0.7l-0.6-2.7l2.3-0.5l0.6,2.7l4.8-1.1
	c1.2-0.3,1.7-0.9,1.5-1.9c-0.1-0.4-0.3-0.7-0.5-1l2-0.9c0.4,0.7,0.7,1.4,0.9,2.2C88.4,525.7,87,527.1,84.6,527.6z"/>
<path class="st3" d="M81.4,521.2c-3.6,0.7-6.3-1.4-6.8-4c-0.6-3,1.4-5,4.4-5.6c0.4-0.1,0.9-0.1,1.3-0.1l1.3,6.8
	c1.6-0.4,2.6-1.9,2.2-3.5c0,0,0,0,0,0c-0.2-0.9-0.6-1.7-1.2-2.3l1.6-1.4c1,1,1.7,2.3,1.9,3.6C86.7,517.7,85,520.5,81.4,521.2z
	 M78.9,514.2c-1.5,0.3-2.3,1.1-2,2.5c0.3,1.3,1.6,2.2,2.9,1.9L78.9,514.2z"/>
<path class="st3" d="M73.7,509.8l-0.4-2.4l1.9-0.5v-0.1c-1.3-0.4-2.4-1.5-2.7-2.8c-0.1-0.4-0.1-0.9,0-1.3l2.6,0.1
	c-0.1,0.4-0.1,0.8,0,1.2c0.1,0.9,0.9,1.8,2.6,2.2l6.6-1l0.4,2.9L73.7,509.8z"/>
<path class="st3" d="M80.6,501.1c-2.4,0.3-3.9-1.5-4.8-5.9c-1,0-1.8,0.7-1.8,1.7c0,0.1,0,0.3,0,0.4c0.2,1.1,0.7,2.1,1.4,2.9
	l-1.8,1.3c-1.1-1.3-1.8-2.8-2-4.5c-0.3-2.8,1.2-4.5,4.4-4.8l6.5-0.8l0.3,2.4l-1.2,0.4v0.1c1,0.8,1.6,1.9,1.9,3.2
	c0.3,1.7-0.9,3.4-2.6,3.6C80.8,501.1,80.7,501.1,80.6,501.1z M79.8,494.8l-2.2,0.3c0.7,2.7,1.5,3.5,2.5,3.4s1.2-0.8,1.1-1.6
	C81,495.9,80.5,495.2,79.8,494.8L79.8,494.8z"/>
<path class="st3" d="M78.4,488.9l-4.9,0.4l0.1,1.6l-2.2,0.2l-0.3-1.7l-3-0.1l-0.2-2.5l3-0.2l-0.2-2.8l2.3-0.2l0.2,2.8l4.9-0.4
	c1.3-0.1,1.8-0.7,1.8-1.7c-0.1-0.4-0.2-0.7-0.3-1.1l2.1-0.7c0.3,0.7,0.5,1.5,0.6,2.3C82.5,487.5,80.9,488.7,78.4,488.9z"/>
<path class="st3" d="M77.5,481.1l-7,0.3l-0.1-2.9l6.6-0.3c1.7-0.1,2.3-0.6,2.3-1.7c0-0.9-0.5-1.5-1.5-2.2l-7.6,0.3l-0.1-2.9
	l11.2-0.5l0.1,2.4l-1.6,0.3v0.1c1.2,0.8,1.9,2.1,2,3.5C81.9,479.8,80.3,481,77.5,481.1z"/>
<path class="st3" d="M70,468.2v-2.4l2-0.2v-0.1c-1.3-0.6-2.1-1.8-2.3-3.2c0-0.5,0.1-0.9,0.2-1.3l2.6,0.5c-0.1,0.4-0.2,0.8-0.2,1.2
	c0,0.9,0.6,1.9,2.2,2.6h6.7v2.9L70,468.2z"/>
<path class="st3" d="M75.6,460.4c-3.6-0.1-5.8-2.7-5.8-5.4c0.1-3.1,2.4-4.6,5.5-4.5c0.4,0,0.9,0.1,1.3,0.2l-0.2,6.9
	c1.6,0,2.9-1.4,2.9-3c0,0,0,0,0,0c0-0.9-0.2-1.8-0.7-2.5l1.8-1c0.8,1.2,1.2,2.6,1.1,4C81.5,458.1,79.3,460.5,75.6,460.4z M74.7,453
	c-1.5,0-2.5,0.6-2.5,2c0,1.3,1.1,2.4,2.4,2.5L74.7,453z"/>
<path class="st3" d="M81.9,368.6l1-2.8l11.6,4.1l2-5.7l2.3,0.8l-3,8.5L81.9,368.6z"/>
<path class="st3" d="M96.6,362.4c-2.2-0.9-2.7-3.2-1.5-7.5c-0.8-0.5-1.9-0.1-2.4,0.7c-0.1,0.1-0.1,0.2-0.1,0.3
	c-0.3,1.1-0.4,2.2-0.2,3.2l-2.2,0.3c-0.3-1.6-0.2-3.3,0.4-4.9c1.1-2.6,3.2-3.4,6.2-2.2l6.1,2.4L102,357l-1.2-0.2v0.1
	c0.5,1.2,0.5,2.5,0.1,3.7c-0.6,1.7-2.4,2.5-4.1,1.9C96.8,362.4,96.7,362.4,96.6,362.4z M98.9,356.4l-2.1-0.8
	c-0.7,2.7-0.3,3.8,0.6,4.2s1.4-0.1,1.7-0.9C99.4,358,99.4,357.1,98.9,356.4L98.9,356.4z"/>
<path class="st3" d="M93.4,348.4l1.2-2.7l5.5,1.2c1.1,0.2,2.1,0.6,3.2,0.9v-0.1c-0.9-0.7-1.8-1.3-2.7-2l-4.5-3.5l1.1-2.4l5.6,1
	c1.1,0.2,2.2,0.5,3.3,0.7v-0.1c-0.9-0.6-1.8-1.2-2.7-1.9l-4.4-3.4l1.1-2.5l9,7.2l-1.4,3.1l-4.9-1c-1.1-0.2-2.1-0.5-3.2-0.8v0.1
	c1,0.7,1.9,1.3,2.7,1.9l4,3.1l-1.4,3L93.4,348.4z"/>
<path class="st3" d="M131.4,278.2l5.8-7l1.9,1.6l-3.9,4.7l2.6,2.2l3.3-4l1.9,1.6l-3.3,4l3,2.5l4-4.9l1.9,1.6l-5.9,7.2L131.4,278.2z"
	/>
<path class="st3" d="M145.7,275.5c-2.4-1.9-2.8-5.5-0.9-7.9c0.1-0.1,0.2-0.2,0.3-0.3c0.8-0.9,1.9-1.5,3.1-1.6l0.5,2.3
	c-0.6,0-1.3,0.3-1.7,0.8c-1.1,1.3-0.9,3,0.7,4.5s3.4,1.5,4.4,0.2c0.5-0.6,0.8-1.4,0.8-2.2l2.2,0.4c0,1.3-0.5,2.6-1.4,3.6
	C151.6,277.6,148.5,277.9,145.7,275.5z"/>
<path class="st3" d="M152.4,268c-2.7-2.6-2.4-6-0.5-8s5.3-2.4,8,0.2s2.4,5.9,0.5,7.9S155.1,270.6,152.4,268z M157.8,262.4
	c-1.5-1.5-3.1-1.8-4.2-0.7s-0.7,2.7,0.9,4.1s3.1,1.8,4.1,0.7S159.3,263.9,157.8,262.4L157.8,262.4z"/>
<path class="st3" d="M157.8,254.4l1.7-1.6l1.2,0.9l0.1-0.1c-0.1-1.4,0.5-2.8,1.4-3.8c1.8-1.7,3.7-1.2,5.6,0.9l4.8,5.1l-2.1,2
	L166,253c-1.2-1.2-2-1.4-2.8-0.6c-0.6,0.7-0.9,1.6-0.8,2.5l5.3,5.6l-2.1,2L157.8,254.4z"/>
<path class="st3" d="M170.6,250.1c-2.4-2.8-1.9-6.1,0.2-8s5.5-1.9,7.9,0.9s1.9,6.1-0.2,7.9S173,252.9,170.6,250.1z M176.5,245
	c-1.4-1.6-2.9-2.1-4.1-1.1s-0.9,2.6,0.5,4.2s2.9,2.1,4.1,1.1S177.9,246.6,176.5,245L176.5,245z"/>
<path class="st3" d="M177.2,236.9l1.9-1.5l1.1,1.1l0.1-0.1c0-1.3,0.6-2.6,1.6-3.5c1-0.9,2.5-1,3.6-0.3c0-1.4,0.6-2.8,1.6-3.7
	c1.9-1.5,3.8-0.8,5.5,1.4l4.3,5.5l-2.3,1.8l-4.1-5.2c-1.1-1.4-1.8-1.5-2.7-0.9c-0.6,0.6-0.9,1.5-0.9,2.3l4.7,6.1l-2.3,1.8l-4.1-5.2
	c-1.1-1.4-1.8-1.6-2.7-0.9c-0.6,0.6-0.9,1.5-0.9,2.3l4.7,6l-2.3,1.8L177.2,236.9z"/>
<path class="st3" d="M190.7,222.5c-0.6-0.7-0.5-1.9,0.2-2.5s1.9-0.5,2.5,0.2s0.5,1.9-0.2,2.5c0,0-0.1,0.1-0.1,0.1
	C192.4,223.4,191.3,223.3,190.7,222.5C190.7,222.6,190.7,222.5,190.7,222.5z M192.9,225.1l2.4-1.7l6.5,9.1l-2.4,1.7L192.9,225.1z"/>
<path class="st3" d="M200.6,226.6c-1.8-2.5-1.3-6,1.1-7.8c0.1-0.1,0.2-0.2,0.4-0.2c1-0.7,2.2-0.9,3.4-0.8l-0.1,2.4
	c-0.6-0.1-1.3,0-1.9,0.3c-1.4,0.9-1.6,2.7-0.4,4.5s2.9,2.2,4.2,1.3c0.7-0.5,1.1-1.2,1.3-1.9l2,1c-0.4,1.3-1.2,2.4-2.3,3.1
	C205.8,230.1,202.6,229.7,200.6,226.6z"/>
<path class="st3" d="M211.4,224.6l0.2-2.3c1.1,0.2,2.2,0,3.2-0.5c1-0.6,1.1-1.2,0.8-1.9s-1.6-0.4-2.9-0.2c-1.5,0.3-3.3,0.4-4.3-1.2
	s-0.4-3.8,1.8-5.1c1.2-0.7,2.6-1,4-0.8l-0.2,2.2c-0.9-0.1-1.8,0-2.6,0.4c-0.9,0.5-1,1.1-0.7,1.7s1.5,0.4,2.8,0.1
	c1.6-0.3,3.3-0.5,4.4,1.2s0.5,3.8-2,5.4C214.4,224.5,212.9,224.8,211.4,224.6z"/>
<path class="st3" d="M256.1,200.9l0.9-2.5c1.3,0.6,2.8,0.6,4.1,0.2c1.4-0.6,2-1.5,1.6-2.4s-1.4-1-2.8-1.1l-2.1-0.1
	c-1.8,0.1-3.5-0.9-4.2-2.6c-0.9-2.3,0.4-4.8,3.2-5.8c1.6-0.6,3.4-0.6,5,0.1l-0.7,2.3c-1.1-0.4-2.3-0.4-3.4,0
	c-1.2,0.5-1.8,1.3-1.4,2.2c0.4,0.9,1.5,1,2.9,1l2.1,0.1c1.9,0,3.5,0.7,4.2,2.7c0.9,2.3-0.3,4.9-3.5,6.1
	C260.1,201.7,258,201.6,256.1,200.9z"/>
<path class="st3" d="M266.6,192.9c-1.1-2.9,0.2-6.1,3.1-7.3c0.1-0.1,0.3-0.1,0.4-0.2c1.1-0.4,2.4-0.3,3.5,0.1l-0.7,2.2
	c-0.6-0.3-1.2-0.3-1.9-0.1c-1.6,0.6-2.3,2.2-1.6,4.2s2.2,2.9,3.8,2.4c0.8-0.3,1.4-0.8,1.8-1.6l1.7,1.5c-0.7,1.2-1.7,2-3,2.5
	C270.7,197.7,267.8,196.4,266.6,192.9z"/>
<path class="st3" d="M274.4,180.9c-0.4-0.9,0.1-1.9,1-2.3c0.9-0.4,1.9,0.1,2.3,1c0.4,0.9-0.1,1.9-1,2.3c0,0-0.1,0-0.1,0
	C275.7,182.2,274.8,181.8,274.4,180.9C274.4,180.9,274.4,180.9,274.4,180.9z M275.7,184l2.8-0.9l3.3,10.7l-2.8,0.9L275.7,184z"/>
<path class="st3" d="M282.5,187.8c-1-3.5,0.9-6.4,3.5-7.1c3-0.8,5.1,1,5.9,4c0.1,0.4,0.2,0.9,0.2,1.3l-6.7,1.8
	c0.5,1.5,2.2,2.4,3.7,1.9c0.9-0.2,1.6-0.7,2.2-1.4l1.4,1.5c-0.9,1.1-2.1,1.8-3.5,2.2C286.4,192.8,283.5,191.4,282.5,187.8z
	 M289.3,184.8c-0.4-1.5-1.3-2.2-2.7-1.8c-1.3,0.4-2,1.7-1.7,3L289.3,184.8z"/>
<path class="st3" d="M293.3,179.1l2.3-0.5l0.5,1.4h0.1c0.7-1.2,1.8-2.1,3.2-2.5c2.4-0.5,3.8,0.9,4.4,3.6l1.5,6.8l-2.9,0.6l-1.4-6.5
	c-0.4-1.7-1-2.2-2.1-1.9c-0.9,0.2-1.4,0.8-2,1.7l1.7,7.5l-2.9,0.6L293.3,179.1z"/>
<path class="st3" d="M306.4,182c-0.7-3,1.1-6,4.1-6.7c0.1,0,0.3-0.1,0.4-0.1c1.2-0.2,2.4,0,3.4,0.6l-1,2.1c-0.5-0.4-1.2-0.5-1.8-0.4
	c-1.7,0.3-2.6,1.9-2.2,4s1.8,3.2,3.4,2.9c0.8-0.2,1.5-0.6,2-1.3l1.5,1.7c-0.8,1.1-2,1.8-3.4,2C309.8,187.3,307.1,185.6,306.4,182z"
	/>
<path class="st3" d="M316.3,180.2c-0.5-3.6,1.7-6.2,4.3-6.6c3-0.4,5,1.6,5.4,4.6c0.1,0.4,0.1,0.9,0.1,1.4l-6.8,1
	c0.3,1.6,1.9,2.6,3.4,2.3c0,0,0,0,0,0c0.9-0.1,1.7-0.5,2.4-1.1l1.2,1.6c-1,0.9-2.3,1.6-3.7,1.8C319.5,185.6,316.8,183.8,316.3,180.2
	z M323.4,178c-0.2-1.5-1-2.4-2.5-2.1c-1.3,0.2-2.2,1.5-2.1,2.8L323.4,178z"/>
<path class="st3" d="M221.1,175.2l3-1.4l5.2,5.2c0.7,0.7,1.3,1.5,2,2.2l0.1-0.1c-0.1-1-0.3-2-0.4-3l-0.7-7.3l3-1.4l6.2,13.4
	l-2.4,1.1l-2.6-5.6c-0.6-1.3-1.2-3.2-1.7-4.6h-0.1l0.4,3.7l0.6,6.6l-1.6,0.7l-4.7-4.7l-2.5-2.7h-0.1c0.7,1.2,1.8,3,2.4,4.2l2.6,5.6
	l-2.4,1.1L221.1,175.2z"/>
<path class="st3" d="M240.8,179.1c-0.9-2.2,0.4-4.1,4.4-6.3c-0.3-0.9-1.2-1.5-2.2-1.2c-0.1,0-0.2,0.1-0.3,0.1
	c-1,0.5-1.8,1.2-2.4,2.1l-1.7-1.4c0.9-1.4,2.2-2.5,3.8-3.1c2.6-1.1,4.6-0.1,5.9,2.9l2.5,6l-2.2,0.9l-0.7-1h-0.1
	c-0.5,1.2-1.4,2.1-2.6,2.6c-1.6,0.7-3.5,0.1-4.2-1.5C240.9,179.2,240.9,179.1,240.8,179.1z M246.8,176.6l-0.9-2.1
	c-2.4,1.4-2.9,2.4-2.6,3.3s1,0.9,1.8,0.6C245.9,178,246.5,177.4,246.8,176.6L246.8,176.6z"/>
<path class="st3" d="M249.5,166.8l2.3-0.8l0.7,1.3h0.1c0.5-1.3,1.5-2.4,2.8-2.9c2.3-0.8,3.8,0.4,4.8,3l2.4,6.6l-2.8,1l-2.3-6.2
	c-0.6-1.6-1.3-2-2.3-1.7c-0.9,0.3-1.3,0.9-1.8,2l2.6,7.2l-2.8,1L249.5,166.8z"/>
<path class="st3" d="M263.8,170.3c-0.7-2.3,0.7-4.1,4.9-5.9c-0.2-0.9-1.1-1.6-2-1.4c-0.1,0-0.2,0.1-0.4,0.1c-1,0.4-1.9,1.1-2.6,1.9
	l-1.6-1.5c1-1.3,2.4-2.3,4-2.8c2.7-0.9,4.6,0.3,5.6,3.4l2,6.2l-2.3,0.7l-0.6-1.1h0c-0.6,1.1-1.6,2-2.8,2.4c-1.6,0.6-3.5-0.2-4.1-1.9
	C263.8,170.4,263.8,170.4,263.8,170.3z M269.9,168.3l-0.7-2.1c-2.5,1.2-3.1,2.2-2.8,3.1s1,1,1.8,0.8
	C269,169.7,269.6,169,269.9,168.3L269.9,168.3z"/>
<path class="st3" d="M276.2,171.6c-0.2-1,0.1-2,0.9-2.7v-0.1c-0.7-0.2-1.3-0.8-1.5-1.5c-0.2-0.8,0.1-1.7,0.6-2.4v-0.1
	c-1.1-0.4-1.9-1.3-2.2-2.4c-0.7-2.5,1-4.5,3.3-5.1c0.6-0.2,1.1-0.2,1.7-0.2l3.9-1.1l0.6,2.1l-1.9,0.5c0.5,0.4,0.8,0.9,1,1.5
	c0.7,2.4-0.8,4.2-3.1,4.8c-0.5,0.1-1,0.2-1.5,0.1c-0.2,0.3-0.3,0.7-0.2,1.1c0.2,0.6,0.7,0.8,1.9,0.4l1.8-0.5
	c2.6-0.7,4.2-0.3,4.8,1.6c0.6,2.2-1.2,4.5-4.8,5.5C279,173.8,276.8,173.5,276.2,171.6z M280.1,160.8c-0.4-0.9-1.5-1.3-2.4-0.9
	s-1.3,1.5-0.9,2.4c0.4,0.8,1.3,1.2,2.1,1c1-0.3,1.5-1.3,1.2-2.3C280.1,160.9,280.1,160.8,280.1,160.8z M283.7,168.9
	c-0.2-0.8-0.9-0.8-2.1-0.5l-1.3,0.4c-0.5,0.2-1,0.2-1.5,0.3c-0.3,0.4-0.5,0.9-0.4,1.4c0.2,0.9,1.4,1.1,3,0.7S284,169.7,283.7,168.9z
	"/>
<path class="st3" d="M285.5,161.2c-0.9-3.5,1.1-6.3,3.7-7c3-0.7,5.1,1.1,5.8,4.1c0.1,0.4,0.2,0.9,0.2,1.3l-6.7,1.6
	c0.4,1.6,2.1,2.5,3.6,2c0,0,0,0,0,0c0.9-0.2,1.7-0.7,2.3-1.3l1.4,1.5c-0.9,1-2.2,1.8-3.5,2.1C289.2,166.3,286.3,164.8,285.5,161.2z
	 M292.4,158.4c-0.4-1.5-1.2-2.2-2.6-1.9c-1.3,0.4-2.1,1.7-1.8,3L292.4,158.4z"/>
<path class="st3" d="M296.5,152.8l2.4-0.4l0.5,1.4h0.1c0.6-1.2,1.7-2.1,3.1-2.4c1.3-0.4,2.7,0.2,3.4,1.4c0.6-1.3,1.8-2.2,3.1-2.6
	c2.3-0.4,3.7,1,4.2,3.8l1.3,6.9l-2.9,0.5l-1.2-6.5c-0.3-1.7-0.9-2.2-2-2c-0.8,0.3-1.5,0.9-1.9,1.6l1.5,7.5l-2.9,0.5l-1.2-6.5
	c-0.3-1.7-0.9-2.2-2-2c-0.8,0.3-1.5,0.9-1.9,1.6l1.4,7.6l-2.9,0.5L296.5,152.8z"/>
<path class="st3" d="M315.9,155c-0.5-3.6,1.7-6.2,4.4-6.5c3.1-0.4,4.9,1.6,5.4,4.7c0.1,0.4,0.1,0.9,0,1.4l-6.8,0.9
	c0.3,1.6,1.9,2.6,3.5,2.4c0.9-0.1,1.7-0.5,2.4-1.1l1.2,1.6c-1,0.9-2.3,1.6-3.7,1.8C319.1,160.5,316.4,158.7,315.9,155z M323.1,152.9
	c-0.2-1.5-1-2.4-2.4-2.2c-1.3,0.2-2.2,1.5-2.1,2.8L323.1,152.9z"/>
<path class="st3" d="M327.7,147.8l2.4-0.2l0.3,1.4h0.1c0.8-1.1,2.1-1.9,3.5-2.1c2.4-0.2,3.6,1.4,3.9,4.1l0.7,6.9l-2.9,0.3l-0.6-6.6
	c-0.2-1.7-0.7-2.3-1.8-2.2c-0.9,0.2-1.7,0.7-2.2,1.5l0.7,7.7l-2.9,0.3L327.7,147.8z"/>
<path class="st3" d="M341.6,153.9l-0.3-4.9l-1.6,0.1l-0.1-2.2l1.7-0.2l0.2-3l2.5-0.1l0.2,3l2.8-0.2l0.1,2.3l-2.8,0.2l0.3,4.9
	c0.1,1.3,0.6,1.9,1.6,1.8c0.4,0,0.7-0.1,1.1-0.3l0.6,2.1c-0.7,0.3-1.5,0.5-2.3,0.6C342.9,158,341.7,156.4,341.6,153.9z"/>
<path class="st3" d="M644.6,310.3l1.5,2.9l-5,5.4c-0.7,0.7-1.4,1.4-2.1,2.1v0.1c1-0.1,2-0.4,3-0.5l7.3-1l1.5,2.9l-13.2,6.8l-1.2-2.4
	l5.5-2.8c1.2-0.6,3.2-1.4,4.5-1.9v-0.1l-3.6,0.5l-6.6,0.8l-0.8-1.5l4.5-4.9l2.5-2.6V314c-1.2,0.8-2.9,1.9-4.2,2.6l-5.5,2.8l-1.2-2.4
	L644.6,310.3z"/>
<path class="st3" d="M643.8,329c3.3-1.5,6.4-0.1,7.5,2.3c1.3,2.8-0.1,5.2-2.9,6.5c-0.4,0.2-0.8,0.3-1.3,0.4l-2.9-6.3
	c-1.4,0.7-2,2.5-1.3,3.9c0,0,0,0,0,0.1c0.4,0.8,1,1.5,1.8,2l-1.2,1.7c-1.2-0.7-2.2-1.8-2.8-3C639.4,333.6,640.4,330.5,643.8,329z
	 M647.9,335.2c1.4-0.6,2-1.6,1.4-3c-0.6-1.2-2-1.7-3.3-1.2L647.9,335.2z"/>
<path class="st3" d="M648.6,339.7c3.4-1.4,6.3-0.1,7.2,2.1c0.4,1,0.4,2.1,0,3.1l1.6-0.8l3.7-1.5l1.1,2.7l-14.8,6.1l-0.9-2.2l1-0.7
	v-0.1c-1.1-0.4-2-1.3-2.5-2.3C643.9,343.6,645.2,341.1,648.6,339.7z M649.3,347.4l4.5-1.9c0.3-0.7,0.3-1.5,0-2.2
	c-0.5-1.2-2-1.7-4.1-0.8s-2.9,2.1-2.3,3.5C647.8,346.7,648.5,347.2,649.3,347.4L649.3,347.4z"/>
<path class="st3" d="M659,350.3l1,2.7l-10.5,4l-1-2.7L659,350.3z M662.1,348.8c0.8-0.3,1.8,0.1,2.1,0.9c0,0,0,0.1,0,0.1
	c0.4,0.8,0.1,1.7-0.7,2.1c0,0-0.1,0-0.1,0.1c-0.9,0.2-1.9-0.3-2.1-1.3C661,350,661.4,349.2,662.1,348.8z"/>
<path class="st3" d="M655.6,357.3c2.9-1.2,6.1,0.2,7.3,3c0.1,0.1,0.1,0.3,0.2,0.4c0.4,1.1,0.4,2.4-0.1,3.5l-2.3-0.7
	c0.3-0.6,0.3-1.3,0.1-1.9c-0.6-1.6-2.2-2.2-4.2-1.5s-2.9,2.2-2.3,3.8c0.3,0.8,0.9,1.4,1.6,1.8l-1.5,1.7c-1.2-0.7-2.1-1.7-2.5-3
	C650.9,361.5,652.1,358.5,655.6,357.3z"/>
<path class="st3" d="M656.6,368c2.3-0.7,4.1,0.8,5.9,4.9c0.9-0.2,1.6-1.1,1.4-2c0-0.1-0.1-0.3-0.1-0.4c-0.4-1-1.1-1.9-1.9-2.6
	l1.5-1.6c1.3,1,2.3,2.4,2.8,4c0.8,2.7-0.4,4.6-3.5,5.6l-6.2,1.9l-0.7-2.3l1.1-0.6v0c-1.1-0.6-2-1.6-2.4-2.8
	c-0.6-1.6,0.2-3.5,1.8-4.1C656.4,368.1,656.5,368,656.6,368z M658.6,374.1l2.2-0.7c-1.1-2.5-2.1-3.1-3.1-2.9s-1,1-0.8,1.8
	C657.2,373.2,657.8,373.8,658.6,374.1L658.6,374.1z"/>
<path class="st3" d="M660.3,379.9l12.4-3.4l0.8,2.8l-12.5,3.5c-0.6,0.2-0.8,0.5-0.7,0.8c0,0.1,0.1,0.3,0.1,0.4l-2,0.9
	c-0.3-0.4-0.5-0.9-0.7-1.4C657.2,381.5,658.3,380.4,660.3,379.9z"/>
<path class="st3" d="M103.7,560.5l1.2,3l-5.5,4.9c-0.7,0.6-1.5,1.3-2.3,1.9v0.1c1-0.1,2-0.2,3-0.2l7.3-0.3l1.2,3L95,578.5l-1-2.5
	l5.7-2.3c1.3-0.5,3.3-1.1,4.6-1.5v-0.1l-3.7,0.2l-6.6,0.2l-0.7-1.5l4.9-4.5l2.8-2.4v-0.1c-1.2,0.7-3.1,1.6-4.4,2.2l-5.7,2.3l-1-2.5
	L103.7,560.5z"/>
<path class="st3" d="M106.6,576.9l1.2,2.7l-10.2,4.6l-1.2-2.7L106.6,576.9z M109.6,575.2c0.8-0.5,1.9-0.2,2.4,0.7
	c0.5,0.8,0.2,1.9-0.7,2.4c-0.8,0.5-1.9,0.2-2.4-0.7c0,0,0-0.1-0.1-0.1C108.4,576.7,108.7,575.7,109.6,575.2
	C109.5,575.3,109.5,575.2,109.6,575.2L109.6,575.2z"/>
<path class="st3" d="M101.6,585.4l11.6-5.5l1.2,2.6l-11.7,5.5c-0.6,0.3-0.7,0.7-0.5,0.9c0.1,0.1,0.1,0.2,0.2,0.3l-1.8,1.3
	c-0.4-0.4-0.7-0.8-0.9-1.3C98.8,587.5,99.7,586.3,101.6,585.4z"/>
<path class="st3" d="M111.3,587.1l1.3,2.6l-10,5l-1.3-2.6L111.3,587.1z M114.2,585.3c0.9-0.3,1.9,0.1,2.3,1.1c0.3,0.8,0,1.6-0.7,2.1
	c-0.9,0.3-1.9-0.1-2.3-1.1C113.3,586.6,113.6,585.8,114.2,585.3z"/>
<path class="st3" d="M107.6,595.8l4.4-2.3l-0.7-1.4l1.9-1l0.9,1.5l2.8-1.1l1.2,2.2l-2.7,1.4l1.3,2.4l-2,1.1l-1.3-2.4l-4.4,2.3
	c-1.1,0.6-1.4,1.3-1,2.2c0.2,0.3,0.4,0.6,0.7,0.9l-1.7,1.4c-0.6-0.5-1.1-1.2-1.5-1.9C104.3,598.7,105.3,597,107.6,595.8z"/>
<path class="st3" d="M109.9,602.1c2.1-1.2,4.1-0.1,6.8,3.5c0.9-0.4,1.3-1.4,0.9-2.3c0-0.1-0.1-0.2-0.2-0.3c-0.6-0.9-1.5-1.7-2.4-2.2
	l1.2-1.9c1.5,0.7,2.7,1.9,3.6,3.3c1.4,2.5,0.7,4.6-2.2,6.2l-5.7,3.2l-1.2-2.1l0.9-0.8l0,0c-1.2-0.3-2.3-1.1-3-2.2
	c-1-1.5-0.5-3.5,1-4.4C109.7,602.2,109.8,602.2,109.9,602.1z M113.2,607.7l2-1.1c-1.7-2.2-2.8-2.6-3.6-2.1s-0.8,1.2-0.4,1.9
	C111.6,607.1,112.3,607.5,113.2,607.7z"/>
<path class="st3" d="M122.9,608.3l1.3,2l-1.6,1.2v0.1c1.4-0.2,2.8,0.4,3.6,1.5c0.3,0.4,0.4,0.8,0.5,1.2l-2.4,0.9
	c-0.1-0.4-0.3-0.7-0.5-1.1c-0.5-0.8-1.5-1.3-3.2-1l-5.7,3.5l-1.5-2.5L122.9,608.3z"/>
<path class="st3" d="M114.2,623.6l2.2-0.8c0.1,0.3,0.2,0.5,0.3,0.7c0.6,0.8,1.6,1.2,2.6,0.8l0.7-0.2l6.7-9.7l1.6,2.5l-3.3,4.4
	c-0.6,0.8-1.4,1.7-2.1,2.5l0.1,0.1l3.1-1.1l5.2-1.6l1.6,2.3l-11.8,3.1c-2.7,0.7-4.7,0.5-6.1-1.6
	C114.5,624.6,114.3,624.1,114.2,623.6z"/>
<path class="st3" d="M127.9,632.8l2.6,0.1c-0.2,1.4,0.2,2.8,1,4c0.9,1.2,1.9,1.5,2.8,0.9s0.6-1.6,0.3-3l-0.5-2.1
	c-0.6-1.7-0.1-3.7,1.4-4.8c1.9-1.5,4.7-0.9,6.5,1.5c1,1.4,1.5,3.1,1.3,4.8l-2.4-0.1c0.1-1.2-0.2-2.3-0.9-3.2c-0.8-1-1.7-1.4-2.5-0.8
	s-0.5,1.7-0.2,3l0.5,2c0.5,1.9,0.3,3.5-1.4,4.8c-1.9,1.5-4.8,1.1-6.9-1.7C128.2,636.7,127.7,634.7,127.9,632.8z"/>
<path class="st3" d="M138.2,640.2c2.3-2.1,5.8-1.9,7.9,0.4c0.1,0.1,0.2,0.2,0.3,0.3c0.8,0.9,1.1,2.1,1.1,3.3l-2.4,0.1
	c0.1-0.6-0.1-1.3-0.5-1.8c-1.1-1.3-2.9-1.3-4.5,0s-1.9,3.1-0.9,4.3c0.5,0.6,1.3,1,2.1,1.1l-0.8,2.1c-1.3-0.2-2.5-0.9-3.4-2
	C135.1,645.8,135.3,642.6,138.2,640.2z"/>
<path class="st3" d="M149.3,644.9l1.9,2.2l-8.5,7.3l-1.9-2.2L149.3,644.9z M151.7,642.5c0.7-0.7,1.8-0.7,2.5,0
	c0.7,0.7,0.7,1.8,0,2.5c-0.7,0.7-1.8,0.7-2.5,0c0,0-0.1-0.1-0.1-0.1C151,644.2,151,643.2,151.7,642.5
	C151.7,642.5,151.7,642.5,151.7,642.5z"/>
<path class="st3" d="M148.3,652.4c2.7-2.5,6.1-2.1,7.9-0.1c2.1,2.3,1.5,5-0.8,7.1c-0.3,0.3-0.7,0.6-1.1,0.8l-4.7-5.1
	c-1.1,1.2-1.1,3,0,4.2c0.6,0.7,1.4,1.1,2.3,1.3l-0.7,2c-1.4-0.3-2.6-1-3.6-2C145.6,658.2,145.6,654.9,148.3,652.4z M154.1,657.1
	c1.1-1,1.4-2.2,0.4-3.2c-0.9-1-2.5-1-3.5-0.1L154.1,657.1z"/>
<path class="st3" d="M160.4,657.2l1.7,1.7l-0.9,1.2l0.1,0.1c1.4-0.1,2.8,0.4,3.8,1.3c1.7,1.7,1.2,3.6-0.8,5.6l-5,4.9l-2-2.1l4.7-4.7
	c1.2-1.2,1.3-2,0.6-2.8c-0.7-0.6-1.6-0.9-2.6-0.8l-5.4,5.4l-2.1-2.1L160.4,657.2z"/>
<path class="st3" d="M164.7,669.5c2-2.4,5.5-2.7,7.9-0.7c0.1,0.1,0.2,0.2,0.3,0.3c0.9,0.8,1.4,1.9,1.5,3.1l-2.3,0.4
	c0-0.6-0.3-1.3-0.8-1.7c-1.2-1.2-3-0.9-4.5,0.6s-1.5,3.3-0.3,4.4c0.6,0.5,1.4,0.8,2.2,0.8l-0.5,2.2c-1.3,0-2.6-0.6-3.6-1.5
	C162.5,675.4,162.2,672.2,164.7,669.5z"/>
<path class="st3" d="M171.8,676c2.4-2.8,5.8-2.8,7.8-1c2.3,2,2.1,4.8,0,7.1c-0.3,0.3-0.6,0.7-1,0.9l-5.2-4.5c-1,1.3-0.8,3.1,0.5,4.2
	c0.7,0.6,1.5,0.9,2.4,1l-0.4,2c-1.4-0.2-2.7-0.7-3.8-1.6C169.8,682,169.3,678.8,171.8,676z M178.1,680c1-1.2,1.1-2.3,0-3.3
	c-1-0.8-2.6-0.7-3.5,0.3L178.1,680z"/>
<path class="st3" d="M219.9,712.8l-4.1-2.4l-2.8,2.8l-2.6-1.5l11.6-10.4l3,1.8l-3.3,15.2l-2.7-1.6L219.9,712.8z M220.5,710.5
	l0.4-1.6c0.4-1.6,0.9-3.2,1.3-4.8h-0.1c-1.1,1.2-2.4,2.4-3.5,3.5l-1.2,1.2L220.5,710.5z"/>
<path class="st3" d="M228.5,709.1l2.1,1.1l-0.8,1.8h0.1c1.1-0.9,2.6-1,3.9-0.5c0.4,0.2,0.8,0.5,1.1,0.8l-1.7,2
	c-0.3-0.3-0.6-0.5-0.9-0.7c-0.8-0.4-2-0.4-3.3,0.7l-3.1,5.9l-2.6-1.3L228.5,709.1z"/>
<path class="st3" d="M233.3,719.9l2.2-4.4l-1.4-0.7l1-2l1.6,0.6l1.6-2.5l2.2,1.1l-1.3,2.7l2.5,1.2l-1,2.1l-2.5-1.2l-2.2,4.4
	c-0.6,1.2-0.4,1.9,0.5,2.4c0.3,0.2,0.7,0.2,1.1,0.3l-0.5,2.1c-0.8-0.1-1.6-0.3-2.3-0.7C232.3,724.1,232.2,722.1,233.3,719.9z"/>
<path class="st3" d="M304.1,733.5l4.8,0.9c3.2,0.6,5.5,2.2,4.8,5.7s-3.5,4.3-6.6,3.7l-1.9-0.4l-1,5.2l-2.9-0.6L304.1,733.5z
	 M307.4,741.5c2,0.4,3.1-0.3,3.5-1.9s-0.6-2.5-2.6-2.9l-1.6-0.3l-0.9,4.8L307.4,741.5z"/>
<path class="st3" d="M317,734.8l2.9,0.4l-0.6,4l-0.4,2.1c1-0.8,2.4-1.2,3.7-1.1c2.4,0.4,3.2,2.2,2.8,5l-1,6.9l-2.9-0.4l1-6.5
	c0.3-1.7-0.1-2.4-1.2-2.5c-0.9-0.1-1.8,0.3-2.5,0.9l-1.2,7.5l-2.9-0.4L317,734.8z"/>
<path class="st3" d="M328.8,741.3l2.9,0.3l-1.3,11.1l-2.9-0.3L328.8,741.3z M328.9,737.9c0.2-1,1.1-1.6,2.1-1.3
	c0.8,0.2,1.4,0.9,1.4,1.8c-0.2,1-1.1,1.6-2.1,1.3C329.5,739.5,328.9,738.7,328.9,737.9z"/>
<path class="st3" d="M334.1,750l1.2-12.8l2.9,0.3l-1.2,12.9c-0.1,0.7,0.2,0.9,0.5,0.9c0.1,0,0.3,0,0.4,0l0.1,2.2
	c-0.5,0.1-1,0.2-1.5,0.1C334.5,753.5,333.9,752.1,334.1,750z"/>
<path class="st3" d="M340,748.1c0.2-3.7,2.9-5.7,5.7-5.6s5.2,2.5,5,6.2s-2.9,5.7-5.7,5.5S339.8,751.8,340,748.1z M347.8,748.6
	c0.1-2.1-0.6-3.5-2.2-3.6s-2.5,1.2-2.6,3.3s0.6,3.5,2.2,3.6S347.6,750.7,347.8,748.6L347.8,748.6z"/>
<path class="st3" d="M352.1,753.1l1.4-1.8c0.8,0.8,1.9,1.2,3,1.3c1.1,0,1.6-0.5,1.6-1.2s-1.1-1.2-2.3-1.7c-1.4-0.6-3-1.5-3-3.3
	c0-2,1.7-3.4,4.2-3.3c1.4,0,2.7,0.6,3.8,1.5l-1.4,1.8c-0.7-0.6-1.5-0.9-2.4-1c-1,0-1.5,0.4-1.5,1c0,0.8,1.1,1.1,2.2,1.6
	c1.5,0.6,3.1,1.4,3,3.4s-1.6,3.5-4.5,3.5C354.8,754.7,353.3,754.1,352.1,753.1z"/>
<path class="st3" d="M362.6,749c-0.1-3.7,2.5-6,5.3-6s5.4,2,5.5,5.8s-2.5,5.9-5.3,6S362.6,752.7,362.6,749z M370.3,748.8
	c0-2.1-0.9-3.5-2.5-3.5s-2.4,1.4-2.3,3.5s0.9,3.5,2.5,3.4S370.4,751,370.3,748.8L370.3,748.8z"/>
<path class="st3" d="M375.6,743.1l2.4-0.2l0.3,1.2h0.1c0.8-0.9,2-1.5,3.2-1.7c2.8-0.2,4.5,2,4.8,5.4c0.2,3.8-1.9,6.2-4.4,6.3
	c-1,0-2.1-0.3-2.9-1l0.2,1.8l0.2,3.4l-2.9,0.2L375.6,743.1z M383.3,748.1c-0.1-2.1-0.9-3.3-2.4-3.2c-0.9,0.1-1.6,0.6-2.1,1.3
	l0.3,4.9c0.6,0.5,1.3,0.7,2.1,0.7C382.5,751.7,383.4,750.5,383.3,748.1L383.3,748.1z"/>
<path class="st3" d="M387.8,737.4l2.9-0.3l0.4,4l0.1,2.1c0.8-1.1,2-1.8,3.3-2c2.4-0.3,3.6,1.3,3.9,4.1l0.8,6.9l-2.9,0.3l-0.7-6.6
	c-0.2-1.7-0.7-2.3-1.8-2.2c-0.9,0.1-1.4,0.6-2.2,1.5l0.9,7.7l-2.9,0.3L387.8,737.4z"/>
<path class="st3" d="M402.8,756.1l0.2-2.3c0.3,0,0.5,0,0.8,0c1-0.2,1.7-1,1.8-2l0.1-0.7l-6-10.2l2.9-0.5l2.6,4.9
	c0.5,0.9,0.9,2,1.4,3h0.1c0.1-1.1,0.2-2.2,0.3-3.2l0.7-5.4l2.8-0.4l-2.2,12c-0.6,2.8-1.5,4.4-4,4.8
	C403.8,756.2,403.3,756.2,402.8,756.1z"/>
<path class="st3" d="M446.3,726.6l2.8-0.9l1.8,5.5l5.3-1.8l-1.8-5.5l2.8-0.9l4.6,14.1L459,738l-2-6.1l-5.3,1.8l2,6.1l-2.8,0.9
	L446.3,726.6z"/>
<path class="st3" d="M459.9,722.2c-0.3-0.9,0.3-1.9,1.2-2.2c0.8-0.2,1.6,0.2,2,0.9c0.3,0.9-0.3,1.9-1.2,2.2
	C461.1,723.3,460.2,722.9,459.9,722.2z M461.3,725.2l2.7-1l4,10.5l-2.7,1L461.3,725.2z"/>
<path class="st3" d="M469.8,732.6l0.5-2.2c1,0.4,2.2,0.4,3.2,0c1-0.4,1.3-1.1,1-1.7s-1.6-0.7-2.8-0.7c-1.5,0-3.4-0.1-4.1-1.8
	s0.2-3.8,2.5-4.8c1.3-0.5,2.7-0.6,4-0.2l-0.5,2.2c-0.8-0.3-1.8-0.3-2.6,0c-0.9,0.4-1.2,1-1,1.6c0.3,0.8,1.5,0.6,2.7,0.6
	c1.6-0.1,3.4,0,4.2,1.9s-0.1,3.9-2.8,5C472.8,733,471.2,733,469.8,732.6z"/>
<path class="st3" d="M479,725.9l-2-4.5l-1.4,0.7l-0.9-2l1.5-0.8l-0.9-2.9l2.2-1l1.2,2.7l2.5-1.1l1,2.1l-2.5,1.1l2,4.5
	c0.5,1.2,1.2,1.5,2.2,1.1c0.3-0.2,0.6-0.4,0.9-0.7l1.3,1.8c-0.6,0.6-1.3,1-2,1.3C481.6,729.3,480,728.2,479,725.9z"/>
<path class="st3" d="M484.7,721.5c-1.7-3.3-0.3-6.4,2.2-7.7s5.8-0.5,7.4,2.9s0.3,6.4-2.2,7.6S486.3,724.8,484.7,721.5z M491.6,718
	c-0.9-1.9-2.3-2.8-3.7-2.1s-1.5,2.3-0.6,4.2s2.3,2.7,3.7,2S492.6,719.9,491.6,718L491.6,718z"/>
<path class="st3" d="M493.9,710.5l2.1-1.2l1.1,1.7h0.1c-0.1-1.4,0.6-2.7,1.7-3.5c0.4-0.2,0.8-0.4,1.3-0.4l0.8,2.5
	c-0.4,0.1-0.8,0.2-1.1,0.4c-0.8,0.4-1.4,1.4-1.2,3.2l3.2,5.9l-2.6,1.4L493.9,710.5z"/>
<path class="st3" d="M509.1,719.9l-0.7-2.2c0.3-0.1,0.5-0.1,0.7-0.3c0.9-0.5,1.3-1.6,1-2.5l-0.2-0.7l-9.4-7.2l2.5-1.5l4.2,3.6
	c0.8,0.7,1.6,1.5,2.4,2.2l0.1,0c-0.3-1-0.6-2.1-0.9-3.1l-1.3-5.3l2.4-1.4l2.4,12c0.5,2.8,0.2,4.7-1.9,6
	C510.1,719.6,509.7,719.8,509.1,719.9z"/>
<path class="st3" d="M542,673.6l6.8-6l1.6,1.8l-4.6,4l2.2,2.5l3.9-3.4l1.6,1.9l-3.9,3.4l2.6,3l4.8-4.2l1.6,1.9l-7,6.2L542,673.6z"/>
<path class="st3" d="M556.6,673c-2.5-2.6-2.5-5.8-0.7-7.5c0.8-0.7,1.8-1.1,2.9-1.1l-1.3-1.2l-2.7-2.8l2.1-2l11.1,11.5l-1.7,1.7
	l-1-0.7l0,0c0,1.2-0.4,2.3-1.2,3.2C561.9,675.9,559.1,675.6,556.6,673z M563.5,669.5l-3.4-3.5c-0.8,0-1.5,0.3-2.1,0.8
	c-0.9,0.9-0.8,2.5,0.7,4.1s3,1.9,4.1,0.9C563.4,671.2,563.7,670.3,563.5,669.5L563.5,669.5z"/>
<path class="st3" d="M567.3,664.4l-5.1-4.8l2-2.1l4.8,4.6c1.3,1.2,2,1.3,2.8,0.5c0.6-0.7,0.8-1.7,0.5-2.6l-5.5-5.2l2-2.1l8.1,7.7
	l-1.6,1.7l-1.3-0.9v0.1c0.3,1.4-0.1,2.8-1.1,3.9C571.2,666.8,569.3,666.4,567.3,664.4z"/>
<path class="st3" d="M574.7,654.5c-2.4-1.9-2.9-5.4-1-7.8c0.1-0.1,0.2-0.2,0.3-0.3c0.8-0.9,1.9-1.5,3.1-1.6l0.5,2.3
	c-0.6,0-1.2,0.3-1.7,0.8c-1.1,1.3-0.8,3.1,0.8,4.5s3.4,1.4,4.4,0.2c0.5-0.6,0.8-1.4,0.8-2.2l2.2,0.4c0,1.3-0.5,2.6-1.4,3.7
	C580.7,656.6,577.5,657,574.7,654.5z"/>
<path class="st3" d="M583.6,648.1c-1.9-1.5-1.6-3.8,0.8-7.6c-0.7-0.7-1.8-0.7-2.5,0c-0.1,0.1-0.2,0.2-0.2,0.3c-0.6,0.9-1,2-1.1,3.1
	l-2.2-0.4c0.2-1.7,0.8-3.2,1.8-4.6c1.8-2.2,4-2.3,6.5-0.2l5.1,4.1l-1.5,1.9l-1.1-0.6v0c0.1,1.3-0.2,2.5-1,3.6c-1,1.4-3,1.7-4.4,0.7
	C583.8,648.3,583.7,648.2,583.6,648.1z M587.6,643.1l-1.8-1.4c-1.4,2.3-1.4,3.5-0.7,4.2c0.5,0.4,1.3,0.4,1.8-0.2
	c0.1-0.1,0.1-0.1,0.1-0.2C587.6,644.7,587.8,643.9,587.6,643.1L587.6,643.1z"/>
<path class="st3" d="M590.8,637.7l-4-3l-1,1.3l-1.7-1.3l0.9-1.5l-2.2-2.1l1.5-2l2.4,1.8l1.7-2.2l1.8,1.4l-1.7,2.2l4,3
	c1,0.8,1.8,0.7,2.4-0.1c0.2-0.3,0.4-0.6,0.5-1l2,0.9c-0.2,0.8-0.6,1.5-1.1,2.1C594.7,639.4,592.8,639.2,590.8,637.7z"/>
<path class="st3" d="M586.7,625.2c-0.7-0.5-0.9-1.5-0.4-2.2c0,0,0.1-0.1,0.1-0.1c0.4-0.8,1.4-1,2.2-0.6c0,0,0.1,0.1,0.1,0.1
	c0.7,0.5,0.9,1.5,0.4,2.3c0,0,0,0.1-0.1,0.1C588.6,625.5,587.6,625.7,586.7,625.2C586.8,625.2,586.7,625.2,586.7,625.2z M589.7,627
	l1.7-2.4l9.1,6.5l-1.7,2.4L589.7,627z"/>
<path class="st3" d="M597.4,625.8c-3.1-2.1-3.5-5.4-2-7.8s4.8-3.3,7.9-1.2s3.5,5.4,1.9,7.7S600.5,627.8,597.4,625.8z M601.7,619.3
	c-1.8-1.2-3.4-1.2-4.2,0.1s-0.2,2.7,1.6,3.9s3.4,1.2,4.2-0.1S603.5,620.4,601.7,619.3z"/>
<path class="st3" d="M599.9,611.7l1.2-2.1l1.4,0.6v-0.1c-0.4-1.3-0.3-2.8,0.4-4c1.2-2.1,3.2-2.1,5.6-0.6l6,3.6l-1.5,2.5l-5.7-3.4
	c-1.5-0.9-2.3-0.8-2.8,0.2c-0.4,0.8-0.5,1.8-0.1,2.7l6.6,4l-1.5,2.5L599.9,611.7z"/>
<path class="st3" d="M1225.7,474.4c-0.9-1-2.1-1.6-3.4-1.6c-2.6,0-4.6,1.9-4.8,7.4c1.1-1.4,2.8-2.2,4.6-2.4c3.7,0,6.4,2.2,6.4,6.9
	c0,4.5-3.2,7.3-7,7.3c-4.2,0-8-3.4-8-11c0-8.2,4.1-11.6,8.6-11.6c2.3,0,4.4,0.9,6,2.5L1225.7,474.4z M1224.3,484.6
	c0-2.6-1.2-3.8-3.1-3.8c-1.5,0.1-2.9,1-3.6,2.3c0.4,3.9,1.9,5.5,3.8,5.5C1223,488.7,1224.3,487.3,1224.3,484.6L1224.3,484.6z"/>
</svg>
