<svg xmlns="http://www.w3.org/2000/svg" viewBox="0 0 59.65 55.35"><title>性别图标</title><g id="图层_1" data-name="图层 1"><path d="M59.41,50.8c-.36-1.61-.56-3.25-.84-4.88-.53-3.06-2.72-4.56-5.36-5.56-1.67-.62-3.42-1.07-5.11-1.63-1.52-.51-3-1.17-4.52-1.58a21.32,21.32,0,0,1-5.39-2.36c-.5-.33-.48-2.55-.89-3-1.36-1.47-1.28-1.05-.15-2.69a13.25,13.25,0,0,0,1.91-5.93c0-.27,0-.54.09-.8,2.79-1.72,3.08-5.11,2.37-6.24a1.09,1.09,0,0,0-1.42-.57c.38-.88.75-1.73,1.12-2.56a7,7,0,0,0-.57-6.91C39.46,4.27,35.13-2.17,25.83.75c-.09,0-3.73,1.3-5.39,3.76A6.94,6.94,0,0,0,19.14,7a11.15,11.15,0,0,0,.13,4.6c.21,1,.5,1.94.65,2.93A4.07,4.07,0,0,1,20,15.64a1.09,1.09,0,0,0-1.57.5c-.73,1.14-.41,4.61,2.49,6.31a18,18,0,0,0,1.78,5.82c.33.5,1.05,1.62,1.34,2.15a1.45,1.45,0,0,1-.1,1.88c-.59,1-.08,1.55-.61,2.59s-5.26,1.76-6,2c-2.84,1-5.73,1.83-8.57,2.79a35.73,35.73,0,0,0-3.9,1.58,5.16,5.16,0,0,0-2.85,3,19.71,19.71,0,0,0-.84,2.88C.7,49.61.36,52.09,0,54.56a.73.73,0,0,0,.66.87,5.38,5.38,0,0,0,.9,0h57a10.91,10.91,0,0,0,1.11-.12A17.63,17.63,0,0,0,59.41,50.8Z" fill="#3fa9f5"/></g></svg>