<svg xmlns="http://www.w3.org/2000/svg" viewBox="0 0 405.64 172.69"><title>0228男女比例图表</title><g id="图层_1" data-name="图层 1"><path d="M75,171h2.26v-7.18H75.44v-1a6.36,6.36,0,0,0,2.24-.78H78.9v9h2v1.33H75Z" fill="#333"/><path d="M82.47,167.13c0-3.57,1.3-5.31,3.33-5.31s3.34,1.75,3.34,5.31-1.32,5.38-3.34,5.38S82.47,170.72,82.47,167.13Zm5.13,0c0-3-.75-4-1.8-4s-1.79,1.07-1.79,4,.74,4.1,1.79,4.1S87.6,170.11,87.6,167.13Z" fill="#333"/><path d="M91.26,169.81v-3.9H90.14v-1.2l1.19-.09.18-2.13h1.36v2.13h2v1.29h-2v3.91c0,.92.32,1.4,1.12,1.4a2.28,2.28,0,0,0,.83-.18l.29,1.19a4.89,4.89,0,0,1-1.51.28C91.86,172.51,91.26,171.43,91.26,169.81Z" fill="#333"/><path d="M96.55,161.16h1.6v3l-.06,1.53a3.6,3.6,0,0,1,2.5-1.22c1.64,0,2.36,1.09,2.36,3v4.85h-1.61v-4.65c0-1.33-.39-1.87-1.3-1.87a2.66,2.66,0,0,0-1.89,1.05v5.47h-1.6Z" fill="#333"/><path d="M0,9.27l.78-1A3.34,3.34,0,0,0,3.26,9.37a1.73,1.73,0,0,0,2-1.71c0-1.15-.73-1.89-3-1.89V4.58c2,0,2.7-.77,2.7-1.81a1.45,1.45,0,0,0-1.58-1.5,3,3,0,0,0-2.06,1l-.84-1A4.32,4.32,0,0,1,3.34,0C5.19,0,6.49,1,6.49,2.66A2.5,2.5,0,0,1,4.72,5.09v.07A2.6,2.6,0,0,1,6.84,7.73c0,1.87-1.55,3-3.44,3A4.26,4.26,0,0,1,0,9.27Z" fill="#333"/><path d="M8.37,12.4a2.16,2.16,0,0,0,1.52-1.92H9.74a1,1,0,0,1-1.08-1,1.05,1.05,0,0,1,1.12-1c.79,0,1.25.66,1.25,1.74a3.29,3.29,0,0,1-2.3,3.15Z" fill="#333"/><path d="M12.46,5.31c0-3.57,1.3-5.31,3.33-5.31s3.33,1.75,3.33,5.31-1.31,5.38-3.33,5.38S12.46,8.9,12.46,5.31Zm5.12,0c0-3-.74-4-1.79-4S14,2.35,14,5.31s.74,4.1,1.79,4.1S17.58,8.29,17.58,5.31Z" fill="#333"/><path d="M20.44,5.31c0-3.57,1.3-5.31,3.33-5.31S27.1,1.75,27.1,5.31s-1.31,5.38-3.33,5.38S20.44,8.9,20.44,5.31Zm5.12,0c0-3-.74-4-1.79-4S22,2.35,22,5.31s.74,4.1,1.79,4.1S25.56,8.29,25.56,5.31Z" fill="#333"/><path d="M28.42,5.31c0-3.57,1.3-5.31,3.33-5.31s3.33,1.75,3.33,5.31-1.31,5.38-3.33,5.38S28.42,8.9,28.42,5.31Zm5.12,0c0-3-.74-4-1.79-4S30,2.35,30,5.31s.74,4.1,1.79,4.1S33.54,8.29,33.54,5.31Z" fill="#333"/><path d="M.26,55.65C3.3,53,4.87,51,4.87,49.26a1.68,1.68,0,0,0-1.75-1.89,2.79,2.79,0,0,0-2,1.15l-.91-.9a4,4,0,0,1,3.14-1.54,2.91,2.91,0,0,1,3.1,3.1c0,2-1.58,4-3.76,6.13.53-.05,1.17-.1,1.68-.1H6.92v1.38H.26Z" fill="#333"/><path d="M8.37,58.48a2.16,2.16,0,0,0,1.52-1.92H9.74a1,1,0,0,1-1.08-1,1.05,1.05,0,0,1,1.12-1c.79,0,1.25.66,1.25,1.74a3.29,3.29,0,0,1-2.3,3.15Z" fill="#333"/><path d="M12.46,51.39c0-3.57,1.3-5.31,3.33-5.31s3.33,1.75,3.33,5.31-1.31,5.38-3.33,5.38S12.46,55,12.46,51.39Zm5.12,0c0-3-.74-4-1.79-4S14,48.43,14,51.39s.74,4.1,1.79,4.1S17.58,54.37,17.58,51.39Z" fill="#333"/><path d="M20.44,51.39c0-3.57,1.3-5.31,3.33-5.31s3.33,1.75,3.33,5.31-1.31,5.38-3.33,5.38S20.44,55,20.44,51.39Zm5.12,0c0-3-.74-4-1.79-4S22,48.43,22,51.39s.74,4.1,1.79,4.1S25.56,54.37,25.56,51.39Z" fill="#333"/><path d="M28.42,51.39c0-3.57,1.3-5.31,3.33-5.31s3.33,1.75,3.33,5.31-1.31,5.38-3.33,5.38S28.42,55,28.42,51.39Zm5.12,0c0-3-.74-4-1.79-4S30,48.43,30,51.39s.74,4.1,1.79,4.1S33.54,54.37,33.54,51.39Z" fill="#333"/><path d="M.85,103.18H3.11V96H1.26V95A6.43,6.43,0,0,0,3.5,94.2H4.72v9h2v1.33H.85Z" fill="#333"/><path d="M8.37,106.4a2.16,2.16,0,0,0,1.52-1.92H9.74a1,1,0,0,1-1.08-1,1.05,1.05,0,0,1,1.12-1c.79,0,1.25.66,1.25,1.74a3.29,3.29,0,0,1-2.3,3.15Z" fill="#333"/><path d="M12.46,99.31c0-3.57,1.3-5.31,3.33-5.31s3.33,1.75,3.33,5.31-1.31,5.38-3.33,5.38S12.46,102.9,12.46,99.31Zm5.12,0c0-3-.74-4-1.79-4S14,96.35,14,99.31s.74,4.1,1.79,4.1S17.58,102.29,17.58,99.31Z" fill="#333"/><path d="M20.44,99.31c0-3.57,1.3-5.31,3.33-5.31s3.33,1.75,3.33,5.31-1.31,5.38-3.33,5.38S20.44,102.9,20.44,99.31Zm5.12,0c0-3-.74-4-1.79-4S22,96.35,22,99.31s.74,4.1,1.79,4.1S25.56,102.29,25.56,99.31Z" fill="#333"/><path d="M28.42,99.31c0-3.57,1.3-5.31,3.33-5.31s3.33,1.75,3.33,5.31-1.31,5.38-3.33,5.38S28.42,102.9,28.42,99.31Zm5.12,0c0-3-.74-4-1.79-4S30,96.35,30,99.31s.74,4.1,1.79,4.1S33.54,102.29,33.54,99.31Z" fill="#333"/><path d="M28.41,147.87c0-3.57,1.31-5.31,3.34-5.31s3.33,1.75,3.33,5.31-1.31,5.38-3.33,5.38S28.41,151.46,28.41,147.87Zm5.13,0c0-3-.74-4-1.79-4s-1.79,1.08-1.79,4,.74,4.1,1.79,4.1S33.54,150.85,33.54,147.87Z" fill="#333"/><path d="M164.05,171h2.25v-7.18h-1.85v-1a6.28,6.28,0,0,0,2.24-.78h1.22v9h2v1.33h-5.88Z" fill="#333"/><path d="M172,171h2.25v-7.18h-1.85v-1a6.28,6.28,0,0,0,2.24-.78h1.22v9h2v1.33H172Z" fill="#333"/><path d="M180.27,169.81v-3.9h-1.12v-1.2l1.19-.09.19-2.13h1.35v2.13h2v1.29h-2v3.91c0,.92.33,1.4,1.12,1.4a2.24,2.24,0,0,0,.83-.18l.3,1.19a5,5,0,0,1-1.52.28C180.88,172.51,180.27,171.43,180.27,169.81Z" fill="#333"/><path d="M185.57,161.16h1.59v3l0,1.53a3.55,3.55,0,0,1,2.49-1.22c1.64,0,2.37,1.09,2.37,3v4.85h-1.61v-4.65c0-1.33-.4-1.87-1.31-1.87a2.66,2.66,0,0,0-1.89,1.05v5.47h-1.59Z" fill="#333"/><path d="M253.06,171h2.26v-7.18h-1.85v-1a6.43,6.43,0,0,0,2.24-.78h1.22v9h2v1.33h-5.88Z" fill="#333"/><path d="M260.45,171.39c3-2.69,4.61-4.69,4.61-6.39a1.68,1.68,0,0,0-1.75-1.89,2.79,2.79,0,0,0-2,1.15l-.91-.9a4,4,0,0,1,3.13-1.54,2.91,2.91,0,0,1,3.11,3.1c0,2-1.58,4.05-3.76,6.13.53-.05,1.17-.1,1.68-.1h2.58v1.38h-6.66Z" fill="#333"/><path d="M269.29,169.81v-3.9h-1.12v-1.2l1.19-.09.18-2.13h1.36v2.13h2v1.29h-2v3.91c0,.92.32,1.4,1.12,1.4a2.23,2.23,0,0,0,.82-.18l.3,1.19a5,5,0,0,1-1.51.28C269.89,172.51,269.29,171.43,269.29,169.81Z" fill="#333"/><path d="M274.58,161.16h1.59v3l-.05,1.53a3.55,3.55,0,0,1,2.49-1.22c1.64,0,2.37,1.09,2.37,3v4.85h-1.61v-4.65c0-1.33-.39-1.87-1.3-1.87a2.67,2.67,0,0,0-1.9,1.05v5.47h-1.59Z" fill="#333"/><path d="M342.09,171h2.26v-7.18H342.5v-1a6.43,6.43,0,0,0,2.24-.78H346v9h2v1.33h-5.88Z" fill="#333"/><path d="M349.26,171.09l.78-1a3.36,3.36,0,0,0,2.44,1.13,1.73,1.73,0,0,0,2-1.71c0-1.15-.73-1.89-3.05-1.89V166.4c2,0,2.7-.77,2.7-1.81a1.43,1.43,0,0,0-1.58-1.49,3,3,0,0,0-2.06,1l-.84-1a4.32,4.32,0,0,1,2.95-1.25c1.85,0,3.16,1,3.16,2.66a2.51,2.51,0,0,1-1.78,2.43V167a2.61,2.61,0,0,1,2.13,2.57c0,1.87-1.56,3-3.45,3A4.23,4.23,0,0,1,349.26,171.09Z" fill="#333"/><path d="M358.32,169.81v-3.9H357.2v-1.2l1.19-.09.18-2.13h1.36v2.13h2v1.29h-2v3.91c0,.92.32,1.4,1.12,1.4a2.23,2.23,0,0,0,.82-.18l.3,1.19a5,5,0,0,1-1.51.28C358.92,172.51,358.32,171.43,358.32,169.81Z" fill="#333"/><path d="M363.61,161.16h1.6v3l-.06,1.53a3.55,3.55,0,0,1,2.49-1.22c1.64,0,2.37,1.09,2.37,3v4.85H368.4v-4.65c0-1.33-.39-1.87-1.3-1.87a2.63,2.63,0,0,0-1.89,1.05v5.47h-1.6Z" fill="#333"/><rect x="32.36" y="61.89" width="113.15" height="62.25" transform="translate(-4.09 181.94) rotate(-90)" fill="#3fa9f5" stroke="#fff" stroke-miterlimit="10"/><rect x="74.53" y="-9.08" width="28.8" height="62.25" transform="translate(66.89 110.97) rotate(-90)" fill="#f46fa9" stroke="#fff" stroke-miterlimit="10"/><rect x="122.1" y="62.63" width="111.67" height="62.25" transform="translate(84.19 271.69) rotate(-90)" fill="#3fa9f5" stroke="#fff" stroke-miterlimit="10"/><rect x="162.81" y="-8.34" width="30.27" height="62.25" transform="translate(155.16 200.72) rotate(-90)" fill="#f46fa9" stroke="#fff" stroke-miterlimit="10"/><rect x="212.59" y="64.1" width="108.73" height="62.25" transform="translate(171.73 362.18) rotate(-90)" fill="#3fa9f5" stroke="#fff" stroke-miterlimit="10"/><rect x="250.35" y="-6.87" width="33.22" height="62.25" transform="translate(242.7 291.21) rotate(-90)" fill="#f46fa9" stroke="#fff" stroke-miterlimit="10"/><rect x="302.91" y="65.41" width="106.11" height="62.25" transform="translate(259.44 452.5) rotate(-90)" fill="#3fa9f5" stroke="#fff" stroke-miterlimit="10"/><rect x="338.34" y="-5.28" width="35.26" height="62.25" transform="translate(330.12 381.81) rotate(-90)" fill="#f46fa9" stroke="#fff" stroke-miterlimit="10"/><line x1="40.55" y1="149.59" x2="405.64" y2="149.59" fill="none" stroke="#333" stroke-miterlimit="10"/><line x1="40.55" y1="102.07" x2="41.55" y2="102.07" fill="none" stroke="#666" stroke-miterlimit="10" stroke-width="0.75"/><line x1="43.55" y1="102.07" x2="402.77" y2="102.07" fill="none" stroke="#666" stroke-miterlimit="10" stroke-width="0.75" stroke-dasharray="2 2"/><line x1="403.77" y1="102.07" x2="404.77" y2="102.07" fill="none" stroke="#666" stroke-miterlimit="10" stroke-width="0.75"/><line x1="40.55" y1="54.55" x2="41.55" y2="54.55" fill="none" stroke="#666" stroke-miterlimit="10" stroke-width="0.75"/><line x1="43.55" y1="54.55" x2="402.77" y2="54.55" fill="none" stroke="#666" stroke-miterlimit="10" stroke-width="0.75" stroke-dasharray="2 2"/><line x1="403.77" y1="54.55" x2="404.77" y2="54.55" fill="none" stroke="#666" stroke-miterlimit="10" stroke-width="0.75"/><line x1="40.55" y1="7.03" x2="41.55" y2="7.03" fill="none" stroke="#666" stroke-miterlimit="10" stroke-width="0.75"/><line x1="43.55" y1="7.03" x2="402.77" y2="7.03" fill="none" stroke="#666" stroke-miterlimit="10" stroke-width="0.75" stroke-dasharray="2 2"/><line x1="403.77" y1="7.03" x2="404.77" y2="7.03" fill="none" stroke="#666" stroke-miterlimit="10" stroke-width="0.75"/><path d="M62.22,25.34C65.84,22.1,68,19.59,68,17.54a1.91,1.91,0,0,0-2-2.16,3.46,3.46,0,0,0-2.45,1.37l-1.44-1.44a5.4,5.4,0,0,1,4.23-2,3.91,3.91,0,0,1,4.2,4.11c0,2.41-2,5-4.43,7.38.66-.07,1.55-.15,2.16-.15h2.9v2.24H62.22Z" fill="#fff"/><path d="M72.84,20.15c0-4.61,1.8-6.86,4.52-6.86s4.5,2.27,4.5,6.86-1.8,7-4.5,7S72.84,24.74,72.84,20.15Zm6.51,0c0-3.73-.86-4.81-2-4.81s-2,1.08-2,4.81.86,4.9,2,4.9S79.35,23.9,79.35,20.15Z" fill="#fff"/><path d="M83.92,25.39a1.65,1.65,0,1,1,1.64,1.73A1.66,1.66,0,0,1,83.92,25.39Z" fill="#fff"/><path d="M89.27,25.34C92.89,22.1,95,19.59,95,17.54a1.91,1.91,0,0,0-2-2.16,3.46,3.46,0,0,0-2.45,1.37l-1.44-1.44a5.42,5.42,0,0,1,4.24-2,3.91,3.91,0,0,1,4.19,4.11c0,2.41-2,5-4.43,7.38.67-.07,1.55-.15,2.16-.15h2.9v2.24H89.27Z" fill="#fff"/><path d="M99.67,17.49c0-2.67,1.34-4.2,3.25-4.2s3.25,1.53,3.25,4.2-1.35,4.24-3.25,4.24S99.67,20.17,99.67,17.49Zm4.63,0c0-2-.61-2.71-1.38-2.71s-1.37.74-1.37,2.71.59,2.75,1.37,2.75S104.3,19.45,104.3,17.49Zm6.3-4.2h1.57l-7.26,13.83h-1.54Zm-1.24,9.58c0-2.68,1.35-4.21,3.24-4.21s3.26,1.53,3.26,4.21-1.37,4.25-3.26,4.25S109.36,25.53,109.36,22.87Zm4.63,0c0-2-.61-2.72-1.39-2.72s-1.38.76-1.38,2.72.61,2.74,1.38,2.74S114,24.83,114,22.87Z" fill="#fff"/><path d="M153,25.34c3.62-3.24,5.76-5.75,5.76-7.8a1.91,1.91,0,0,0-2-2.16,3.42,3.42,0,0,0-2.44,1.37l-1.44-1.44a5.38,5.38,0,0,1,4.23-2,3.91,3.91,0,0,1,4.19,4.11c0,2.41-2,5-4.43,7.38.67-.07,1.55-.15,2.16-.15h2.9v2.24H153Z" fill="#fff"/><path d="M164.27,24.72h2.86V16.3h-2.41V14.66a8.58,8.58,0,0,0,3.09-1.12h2V24.72h2.5v2.15h-8Z" fill="#fff"/><path d="M174.67,25.39a1.65,1.65,0,1,1,1.64,1.73A1.66,1.66,0,0,1,174.67,25.39Z" fill="#fff"/><path d="M179.71,25.26,181,23.59a4.26,4.26,0,0,0,3,1.37c1.35,0,2.27-.67,2.27-1.86S185.42,21,182.52,21V19.07c2.45,0,3.24-.85,3.24-2A1.59,1.59,0,0,0,184,15.36a3.8,3.8,0,0,0-2.52,1.19l-1.36-1.62a5.94,5.94,0,0,1,4-1.64c2.58,0,4.32,1.26,4.32,3.55a3.16,3.16,0,0,1-2.23,3V20a3.33,3.33,0,0,1,2.67,3.28c0,2.45-2.15,3.87-4.69,3.87A5.63,5.63,0,0,1,179.71,25.26Z" fill="#fff"/><path d="M190.42,17.49c0-2.67,1.33-4.2,3.24-4.2s3.26,1.53,3.26,4.2-1.35,4.24-3.26,4.24S190.42,20.17,190.42,17.49Zm4.63,0c0-2-.62-2.71-1.39-2.71s-1.37.74-1.37,2.71.6,2.75,1.37,2.75S195.05,19.45,195.05,17.49Zm6.3-4.2h1.56l-7.25,13.83h-1.55Zm-1.24,9.58c0-2.68,1.35-4.21,3.24-4.21s3.26,1.53,3.26,4.21-1.37,4.25-3.26,4.25S200.11,25.53,200.11,22.87Zm4.62,0c0-2-.61-2.72-1.38-2.72s-1.39.76-1.39,2.72.61,2.74,1.39,2.74S204.73,24.83,204.73,22.87Z" fill="#fff"/><path d="M240.24,25.34c3.62-3.24,5.76-5.75,5.76-7.8a1.91,1.91,0,0,0-2-2.16,3.42,3.42,0,0,0-2.44,1.37l-1.44-1.44a5.38,5.38,0,0,1,4.23-2,3.91,3.91,0,0,1,4.19,4.11c0,2.41-2,5-4.43,7.38.67-.07,1.55-.15,2.16-.15h2.9v2.24h-8.93Z" fill="#fff"/><path d="M250.54,25.26l1.24-1.67a4.24,4.24,0,0,0,3,1.37c1.35,0,2.27-.67,2.27-1.86S256.25,21,253.35,21V19.07c2.45,0,3.24-.85,3.24-2a1.6,1.6,0,0,0-1.79-1.68,3.84,3.84,0,0,0-2.52,1.19l-1.35-1.62a5.92,5.92,0,0,1,4-1.64c2.57,0,4.32,1.26,4.32,3.55a3.16,3.16,0,0,1-2.23,3V20a3.33,3.33,0,0,1,2.66,3.28c0,2.45-2.14,3.87-4.68,3.87A5.63,5.63,0,0,1,250.54,25.26Z" fill="#fff"/><path d="M262,25.39a1.65,1.65,0,1,1,1.64,1.73A1.66,1.66,0,0,1,262,25.39Z" fill="#fff"/><path d="M276.62,23.41H275v3.46h-2.47V23.41H266.9v-1.8l5-8.07H275v7.85h1.58Zm-4.05-2V18.67c0-.77.07-2,.11-2.75h-.07c-.33.7-.69,1.44-1.07,2.16l-2.07,3.31Z" fill="#fff"/><path d="M277.7,17.49c0-2.67,1.33-4.2,3.24-4.2s3.26,1.53,3.26,4.2-1.35,4.24-3.26,4.24S277.7,20.17,277.7,17.49Zm4.63,0c0-2-.62-2.71-1.39-2.71s-1.37.74-1.37,2.71.6,2.75,1.37,2.75S282.33,19.45,282.33,17.49Zm6.3-4.2h1.56l-7.25,13.83h-1.55Zm-1.24,9.58c0-2.68,1.35-4.21,3.24-4.21s3.26,1.53,3.26,4.21-1.37,4.25-3.26,4.25S287.39,25.53,287.39,22.87Zm4.62,0c0-2-.61-2.72-1.38-2.72s-1.39.76-1.39,2.72.61,2.74,1.39,2.74S292,24.83,292,22.87Z" fill="#fff"/><path d="M327.52,25.34c3.62-3.24,5.76-5.75,5.76-7.8a1.91,1.91,0,0,0-2-2.16,3.42,3.42,0,0,0-2.45,1.37l-1.44-1.44a5.38,5.38,0,0,1,4.23-2,3.91,3.91,0,0,1,4.19,4.11c0,2.41-2,5-4.43,7.38.67-.07,1.55-.15,2.16-.15h2.9v2.24h-8.93Z" fill="#fff"/><path d="M347.45,23.41h-1.58v3.46H343.4V23.41h-5.67v-1.8l5-8.07h3.17v7.85h1.58Zm-4.05-2V18.67c0-.77.07-2,.11-2.75h-.07c-.33.7-.69,1.44-1.07,2.16l-2.07,3.31Z" fill="#fff"/><path d="M349.23,25.39a1.65,1.65,0,1,1,1.64,1.73A1.66,1.66,0,0,1,349.23,25.39Z" fill="#fff"/><path d="M356.12,24a3.09,3.09,0,0,0,2.11.94c1.5,0,2.74-1.14,2.85-4.48a3.71,3.71,0,0,1-2.74,1.45c-2.22,0-3.82-1.37-3.82-4.19a4.18,4.18,0,0,1,4.2-4.45c2.52,0,4.79,2,4.79,6.61,0,5-2.47,7.22-5.12,7.22a5,5,0,0,1-3.65-1.51Zm4.92-5.4c-.23-2.43-1.15-3.33-2.29-3.33s-1.8.81-1.8,2.45.74,2.3,1.89,2.3A2.65,2.65,0,0,0,361,18.62Z" fill="#fff"/><path d="M365,17.49c0-2.67,1.33-4.2,3.24-4.2s3.26,1.53,3.26,4.2-1.35,4.24-3.26,4.24S365,20.17,365,17.49Zm4.63,0c0-2-.61-2.71-1.39-2.71s-1.37.74-1.37,2.71.6,2.75,1.37,2.75S369.61,19.45,369.61,17.49Zm6.3-4.2h1.57l-7.26,13.83h-1.55Zm-1.24,9.58c0-2.68,1.35-4.21,3.24-4.21s3.26,1.53,3.26,4.21-1.37,4.25-3.26,4.25S374.67,25.53,374.67,22.87Zm4.62,0c0-2-.61-2.72-1.38-2.72s-1.39.76-1.39,2.72.61,2.74,1.39,2.74S379.29,24.83,379.29,22.87Z" fill="#fff"/></g></svg>