<svg xmlns="http://www.w3.org/2000/svg" viewBox="0 0 519.76 167.19"><title>[英文]网页版1280*800</title><g id="图层_1" data-name="图层 1"><path d="M44.48,68.7c0,2.7,0,5.9.07,9.14l3.85.4v1.22H35.05V78.24l3.24-.32c.1-3.64.1-7.35.1-11.09V65.25c0-3.75,0-7.46-.1-11.16l-3.24-.29V52.58H46c8.18,0,11.45,2.91,11.45,8,0,4.5-3.06,8.13-11.63,8.13Zm.07-14.76c-.07,3.71-.07,7.49-.07,11.31v2.12h1.18c4.18,0,6.2-2.81,6.2-6.84,0-4.36-2.09-6.59-5.91-6.59Z" fill="#f14950"/><path d="M58.88,69.53c0-6.37,4.53-10.33,10.18-10.33s10.23,3.89,10.23,10.33S75.18,80.08,69.06,80.08,58.88,75.86,58.88,69.53Zm14.18.07c0-6.3-1.4-9.14-4-9.14s-4,2.84-4,9.14,1.44,9.22,4,9.22S73.06,75.86,73.06,69.6Z" fill="#f14950"/><path d="M90,64.74c1.08-3.67,3.52-5.54,5.68-5.54A3.15,3.15,0,0,1,99.2,62c-.15,1.59-.87,2.92-2.67,2.92-1.37,0-2.23-.87-3.2-2.16L93,62.37a10.3,10.3,0,0,0-3,5.54v3c0,2,0,5,.07,7.12l3.31.33v1.11H81.7V78.35l2.45-.25c0-2.09.07-5.19.07-7.2v-3c0-2.34,0-3.53-.11-5.26l-2.7-.28V61.5l7.81-2.27.51.36Z" fill="#f14950"/><path d="M114.1,77.09c-1.08,1.94-2.88,3-5.65,3-3.67,0-5.65-1.66-5.62-5.66,0-1.36,0-2.41,0-3.92V61.29H100V60.13l3.21-.36L105,54h3.71l-.08,5.79h4.47v1.48h-4.47v13.6c0,2,.94,2.77,2.38,2.77a3.59,3.59,0,0,0,2.45-1.15Z" fill="#f14950"/><path d="M123.46,64.74c1.08-3.67,3.53-5.54,5.69-5.54A3.15,3.15,0,0,1,132.64,62c-.15,1.59-.87,2.92-2.67,2.92-1.36,0-2.23-.87-3.2-2.16l-.32-.43a10.31,10.31,0,0,0-3,5.54v3c0,2,0,5,.07,7.12l3.31.33v1.11h-11.7V78.35l2.45-.25c0-2.09.07-5.19.07-7.2v-3c0-2.34,0-3.53-.1-5.26l-2.7-.28V61.5l7.81-2.27.5.36Z" fill="#f14950"/><path d="M153.34,77.27a4.42,4.42,0,0,1-4.57,2.81,4,4,0,0,1-4.25-3.14c-1.84,2-3.21,3.14-6.08,3.14-3.1,0-5.26-1.88-5.26-4.9,0-3.28,1.87-5,7.67-6.73,1-.29,2.26-.61,3.53-.94V65.32c0-3.75-.87-4.86-3.6-4.86a7.29,7.29,0,0,0-1.52.14L139,63.16c-.11,2.45-1.33,3.42-2.7,3.42a2.34,2.34,0,0,1-2.48-1.84c.29-3.38,3.42-5.54,9-5.54,5.11,0,7.16,2.19,7.16,7.41V76.3c0,1.36.43,1.83,1.12,1.83.54,0,.93-.29,1.62-1.37ZM137.25,61.11l-.58.21Zm7.13,7.38a15.75,15.75,0,0,0-2,.61c-2.52,1-3.86,2.73-3.86,5.36,0,2.16,1,3.17,2.7,3.17,1,0,1.8-.47,3.14-1.66Z" fill="#f14950"/><path d="M165.18,78.35v1.11H154.67V78.35l2.38-.22c0-2.12.07-5.22.07-7.23V68c0-2.31,0-3.64-.11-5.47l-2.7-.29v-.87l8.25-2.16.5.36-.14,5.76V70.9c0,2,0,5.14.07,7.23ZM156.8,52.72a3.12,3.12,0,1,1,3.09,2.91A3,3,0,0,1,156.8,52.72Z" fill="#f14950"/><path d="M180.88,77.09c-1.08,1.94-2.88,3-5.65,3-3.67,0-5.65-1.66-5.62-5.66,0-1.36,0-2.41,0-3.92V61.29h-2.92V60.13l3.21-.36L171.81,54h3.7l-.07,5.79h4.47v1.48h-4.47v13.6c0,2,.94,2.77,2.38,2.77a3.59,3.59,0,0,0,2.45-1.15Z" fill="#f14950"/><path d="M192.94,67.37c3.78,1.12,5.43,3.13,5.43,6.08,0,4.18-3.34,6.63-8.78,6.63a14,14,0,0,1-7.13-1.8l.29-4.9h2.3l1.12,4.75a7.57,7.57,0,0,0,3,.54c2.74,0,4.25-1,4.25-3,0-1.51-.68-2.59-3.56-3.49l-2.09-.61c-3.24-1-5.15-2.85-5.15-5.91,0-3.78,3-6.51,8.24-6.51a13.47,13.47,0,0,1,6.38,1.62l-.29,4.53h-2l-1.37-4.24a5.61,5.61,0,0,0-2.59-.54c-2.19,0-3.63,1.11-3.63,2.91,0,1.33.72,2.41,3.52,3.28Z" fill="#f14950"/><path d="M209.57,69.53c0-6.37,4.54-10.33,10.19-10.33S230,63.09,230,69.53s-4.1,10.55-10.22,10.55S209.57,75.86,209.57,69.53Zm14.18.07c0-6.3-1.4-9.14-4-9.14s-4,2.84-4,9.14,1.44,9.22,4,9.22S223.75,75.86,223.75,69.6Z" fill="#f14950"/><path d="M235.06,59.81c.43-4.1,1.76-6.34,3.35-7.88A9.41,9.41,0,0,1,245,49.34c2.16,0,4.14.72,4.6,2.66A2.36,2.36,0,0,1,247,54.45c-1.4,0-2.48-.69-3.42-2.7L243,50.63a2.46,2.46,0,0,0-.83.76c-1.23,1.8-1.55,4.32-1.4,8.42h4.67v1.48h-4.6V70.9c0,2.37,0,4.75.1,7.16l3.28.29v1.11H232.43V78.35l2.48-.22c0-2.41.08-4.82.08-7.23V61.29h-2.81V60.13Z" fill="#f14950"/><path d="M269.51,77.09c-1.08,1.94-2.88,3-5.65,3-3.67,0-5.65-1.66-5.62-5.66,0-1.36,0-2.41,0-3.92V61.29h-2.92V60.13l3.21-.36L260.44,54h3.7l-.07,5.79h4.47v1.48h-4.47v13.6c0,2,.94,2.77,2.38,2.77a3.59,3.59,0,0,0,2.45-1.15Z" fill="#f14950"/><path d="M293.66,78.35v1.11H283.22V78.35l2.31-.22c0-2.09.07-5.15.07-7.23V65.71c0-2.8-1-3.81-2.63-3.81a6.39,6.39,0,0,0-4,1.94V70.9c0,2,0,5.14.07,7.27l2.09.18v1.11H270.7V78.35l2.37-.22c0-2.12.07-5.22.07-7.23V52.47l-2.62-.25v-.94l8-1.55.51.33-.11,5.79v7c2.16-2.55,4-3.63,6.69-3.63,3.49,0,5.87,2.12,5.87,7V70.9c0,2.12,0,5.18.07,7.27Z" fill="#f14950"/><path d="M314.22,75.22a8.48,8.48,0,0,1-8,4.86c-5.94,0-10.33-3.78-10.33-10.52a10,10,0,0,1,10.3-10.36c5.4,0,8.31,3.63,8.31,8.21a7.66,7.66,0,0,1-.22,2.19H302c.18,5.62,2.88,7.92,6.26,7.92a6,6,0,0,0,5.26-2.74Zm-7.31-6.91c1.69,0,2.13-.83,2.13-3.06,0-3.14-1.37-4.79-3.28-4.79s-3.6,2.23-3.74,7.81Z" fill="#f14950"/><path d="M347.84,78.35v1.11l-7.7.44-.29-2.24a7.7,7.7,0,0,1-5.58,2.42c-4.71,0-8.42-3.78-8.42-10.3,0-6.77,4-10.58,8.93-10.58a6.37,6.37,0,0,1,5.14,2.45V52.5L337,52.22v-.94l8.17-1.55.51.33-.15,5.75V78.2Zm-8.13-15.73a4.15,4.15,0,0,0-2.67-.94c-2.73,0-5,1.84-5,7.88,0,5.87,2.09,8,4.86,8a4.32,4.32,0,0,0,2.81-.94Z" fill="#f14950"/><path d="M368.43,75.22a8.46,8.46,0,0,1-8,4.86c-5.94,0-10.33-3.78-10.33-10.52A10,10,0,0,1,360.37,59.2c5.4,0,8.32,3.63,8.32,8.21a8,8,0,0,1-.22,2.19H356.23c.18,5.62,2.88,7.92,6.27,7.92a6,6,0,0,0,5.25-2.74Zm-7.3-6.91c1.69,0,2.12-.83,2.12-3.06,0-3.14-1.37-4.79-3.27-4.79s-3.6,2.23-3.75,7.81Z" fill="#f14950"/><path d="M379,61.9a8,8,0,0,1,6.19-2.7c4.39,0,7.88,3.67,7.88,10.33s-4,10.55-8.74,10.55a6.65,6.65,0,0,1-5.29-2.49v2.13c0,2.16,0,4.89.07,7.7l2.77.32v1.05h-11V87.74l2.41-.25c0-2.84.07-5.58.07-7.77V68c0-2.34,0-3.57-.1-5.3l-2.67-.28V61.5l7.7-2.27.51.36Zm.15,14.72a4.31,4.31,0,0,0,3,.9c2.81,0,4.79-1.94,4.79-8,0-5.86-1.73-7.88-4.57-7.88a4.21,4.21,0,0,0-3.2,1.26Z" fill="#f14950"/><path d="M418.26,78.42V79.5l-7.92.47-.18-3.6a8.86,8.86,0,0,1-6.66,3.71c-3.6,0-5.87-2-5.79-7.42L397.85,62l-2.52-.5v-1l8-1.08.47.36-.22,5.87V73.2c0,2.88,1.12,3.78,2.85,3.78a5.32,5.32,0,0,0,3.7-1.73l.15-13.32-2.41-.46v-.8l7.81-1.26.46.36L416,65.64v12.6Z" fill="#f14950"/><path d="M433.92,77.09c-1.08,1.94-2.88,3-5.65,3-3.67,0-5.65-1.66-5.62-5.66,0-1.36,0-2.41,0-3.92V61.29h-2.92V60.13l3.21-.36L424.85,54h3.71l-.08,5.79H433v1.48h-4.47v13.6c0,2,.94,2.77,2.38,2.77a3.59,3.59,0,0,0,2.45-1.15Z" fill="#f14950"/><path d="M445.66,78.35v1.11H435.14V78.35l2.38-.22c0-2.12.07-5.22.07-7.23V68c0-2.31,0-3.64-.11-5.47l-2.7-.29v-.87L443,59.23l.5.36-.14,5.76V70.9c0,2,0,5.14.07,7.23Zm-8.39-25.63a3.12,3.12,0,1,1,3.09,2.91A3,3,0,0,1,437.27,52.72Z" fill="#f14950"/><path d="M466.32,75.22a8.48,8.48,0,0,1-8,4.86c-5.94,0-10.33-3.78-10.33-10.52A10,10,0,0,1,458.25,59.2c5.4,0,8.32,3.63,8.32,8.21a8,8,0,0,1-.22,2.19H454.12c.17,5.62,2.88,7.92,6.26,7.92a6,6,0,0,0,5.25-2.74ZM459,68.31c1.69,0,2.12-.83,2.12-3.06,0-3.14-1.36-4.79-3.27-4.79s-3.6,2.23-3.74,7.81Z" fill="#f14950"/><path d="M479.71,67.37c3.78,1.12,5.44,3.13,5.44,6.08,0,4.18-3.35,6.63-8.79,6.63a13.92,13.92,0,0,1-7.12-1.8l.28-4.9h2.31l1.11,4.75a7.57,7.57,0,0,0,2.95.54c2.74,0,4.25-1,4.25-3,0-1.51-.68-2.59-3.56-3.49l-2.09-.61c-3.24-1-5.15-2.85-5.15-5.91,0-3.78,3-6.51,8.25-6.51A13.46,13.46,0,0,1,484,60.82l-.29,4.53h-2l-1.36-4.24a5.68,5.68,0,0,0-2.6-.54c-2.19,0-3.63,1.11-3.63,2.91,0,1.33.72,2.41,3.53,3.28Z" fill="#f14950"/><path d="M130.35,127.09c-1.08,1.94-2.88,3-5.65,3-3.67,0-5.65-1.66-5.61-5.66,0-1.36,0-2.41,0-3.92v-9.21h-2.91v-1.16l3.2-.36,1.87-5.76H125l-.07,5.8h4.46v1.48h-4.46v13.6c0,2,.93,2.77,2.37,2.77a3.58,3.58,0,0,0,2.45-1.15Z" fill="#f14950"/><path d="M131.4,119.53c0-6.37,4.53-10.33,10.19-10.33s10.22,3.89,10.22,10.33-4.11,10.55-10.22,10.55S131.4,125.86,131.4,119.53Zm14.18.07c0-6.3-1.4-9.14-4-9.14s-4,2.84-4,9.14,1.44,9.22,4,9.22S145.58,125.86,145.58,119.6Z" fill="#f14950"/><path d="M176.61,127.09c-1.08,1.94-2.88,3-5.65,3-3.67,0-5.65-1.66-5.61-5.66,0-1.36,0-2.41,0-3.92v-9.21h-2.91v-1.16l3.2-.36,1.87-5.76h3.71l-.07,5.8h4.46v1.48h-4.46v13.6c0,2,.93,2.77,2.37,2.77a3.59,3.59,0,0,0,2.45-1.15Z" fill="#f14950"/><path d="M200.77,128.35v1.11H190.33v-1.11l2.3-.22c0-2.09.07-5.15.07-7.23v-5.19c0-2.8-1-3.81-2.62-3.81a6.39,6.39,0,0,0-4,1.94v7.06c0,2,0,5.14.08,7.27l2.08.18v1.11H177.8v-1.11l2.38-.22c0-2.12.07-5.22.07-7.23V102.47l-2.63-.26v-.93l8-1.55.5.33-.11,5.79v7c2.16-2.55,4-3.63,6.7-3.63,3.49,0,5.87,2.12,5.87,7v4.68c0,2.12,0,5.18.07,7.27Z" fill="#f14950"/><path d="M221.32,125.22a8.46,8.46,0,0,1-8,4.86c-5.94,0-10.33-3.78-10.33-10.51a10,10,0,0,1,10.29-10.37c5.4,0,8.32,3.63,8.32,8.21a8,8,0,0,1-.22,2.19H209.12c.18,5.62,2.88,7.92,6.26,7.92a6,6,0,0,0,5.26-2.74Zm-7.3-6.91c1.69,0,2.12-.83,2.12-3.06,0-3.14-1.37-4.79-3.28-4.79s-3.59,2.23-3.74,7.81Z" fill="#f14950"/><path d="M250.77,128.35v1.11h-16v-1.11l5.15-.65c0-2.27.07-4.57.07-6.77V106.35l-4.25.4v-1.33l9.76-2.23.54.39-.14,5.87v11.48c0,2.2,0,4.5.07,6.77Z" fill="#f14950"/><path d="M261.18,107.9a2.57,2.57,0,0,1-2.7,2.38,2.28,2.28,0,0,1-2-1.08c.11-4.32,3.89-6.16,8.24-6.16,5.73,0,8.43,2.63,8.43,6.37,0,3.06-1.84,5.48-6.81,6.45,5.62.83,7.6,3.34,7.6,6.84,0,4.35-3.75,7.38-9.9,7.38-5.47,0-8.35-2.38-8.68-6.41a2.24,2.24,0,0,1,2.24-1.62c1.44,0,2.34.68,2.66,3.09l.58,3.53a5.06,5.06,0,0,0,1.33.15c3.74,0,5.79-2,5.79-6s-2-6-5.65-6h-1.4v-1.41h1.22c3.21,0,5.29-1.8,5.29-5.79,0-3.49-1.58-5.29-4.35-5.29a7.44,7.44,0,0,0-1.19.1Z" fill="#f14950"/><path d="M290.12,127.09c-1.08,1.94-2.88,3-5.65,3-3.67,0-5.65-1.66-5.62-5.66,0-1.36,0-2.41,0-3.92v-9.21H276v-1.16l3.21-.36,1.87-5.76h3.71l-.08,5.8h4.47v1.48h-4.47v13.6c0,2,.94,2.77,2.38,2.77a3.59,3.59,0,0,0,2.45-1.15Z" fill="#f14950"/><path d="M314.27,128.35v1.11H303.83v-1.11l2.31-.22c0-2.09.07-5.15.07-7.23v-5.19c0-2.8-1-3.81-2.63-3.81a6.39,6.39,0,0,0-4,1.94v7.06c0,2,0,5.14.07,7.27l2.09.18v1.11h-10.4v-1.11l2.37-.22c0-2.12.08-5.22.08-7.23V102.47l-2.63-.26v-.93l7.95-1.55.51.33-.11,5.79v7c2.16-2.55,4-3.63,6.69-3.63,3.5,0,5.87,2.12,5.87,7v4.68c0,2.12,0,5.18.07,7.27Z" fill="#f14950"/><path d="M352.61,103.8l-3.31.47-.25,25.27h-3.17L330,107.15l.21,20.55,4.83.54v1.22H325v-1.22l3.31-.5.22-22.65-.69-1-2.55-.29v-1.22H334l13.64,18.86-.18-17.14-4.78-.5v-1.22h9.93Z" fill="#f14950"/><path d="M364.39,118.7c0,2.7,0,5.9.07,9.14l3.85.4v1.22H355v-1.22l3.24-.32c.1-3.64.1-7.35.1-11.09v-1.58c0-3.75,0-7.46-.1-11.16L355,103.8v-1.22h11c8.18,0,11.45,2.91,11.45,8,0,4.5-3.06,8.13-11.63,8.13Zm.07-14.76c-.07,3.71-.07,7.49-.07,11.31v2.12h1.19c4.17,0,6.19-2.81,6.19-6.84,0-4.36-2.09-6.59-5.91-6.59Z" fill="#f14950"/><path d="M402.62,128.06a15.59,15.59,0,0,1-8.17,2.12c-8,0-14.33-4.68-14.33-14.18s6.8-14.14,14.61-14.14a14.58,14.58,0,0,1,7.63,2l-.14,6.55H400.1l-2-6.88a9,9,0,0,0-2.63-.36c-5,0-9,4-9,12.82s3.92,12.74,9.14,12.74a7.94,7.94,0,0,0,2.81-.47l1.91-6.73h2.12Z" fill="#f14950"/><line x1="8.19" y1="157.54" x2="511.57" y2="157.54" fill="none" stroke="#f14950" stroke-miterlimit="10" stroke-width="3"/><line x1="8.19" y1="151.62" x2="511.57" y2="151.62" fill="none" stroke="#f14950" stroke-miterlimit="10" stroke-width="1.5"/><line x1="8.19" y1="24.99" x2="511.57" y2="24.99" fill="none" stroke="#f14950" stroke-miterlimit="10" stroke-width="3"/><line x1="8.19" y1="30.75" x2="511.57" y2="30.75" fill="none" stroke="#f14950" stroke-miterlimit="10" stroke-width="1.5"/><polygon points="259.87 33.93 246.57 40.91 249.12 26.11 238.37 15.61 253.24 13.46 259.9 0 266.53 13.48 281.4 15.65 270.63 26.12 273.16 40.93 259.87 33.93" fill="#fff"/><polygon points="255.89 17.12 259.89 9.04 263.87 17.13 272.8 18.43 266.33 24.72 267.85 33.62 259.87 29.41 251.88 33.6 253.42 24.71 246.96 18.41 255.89 17.12" fill="#f14950"/></g></svg>