<svg xmlns="http://www.w3.org/2000/svg" viewBox="0 0 519.76 167.19"><title>[英文]网页版1280*800</title><g id="图层_1" data-name="图层 1"><path d="M44.48,69.18c0,2.7,0,5.9.07,9.14l3.85.39v1.23H35.05V78.71l3.24-.32c.1-3.64.1-7.34.1-11.09V65.72c0-3.74,0-7.45-.1-11.16l-3.24-.29V53.05H46c8.18,0,11.45,2.92,11.45,8,0,4.5-3.06,8.14-11.63,8.14Zm.07-14.76c-.07,3.7-.07,7.48-.07,11.3v2.12h1.18c4.18,0,6.2-2.8,6.2-6.84,0-4.35-2.09-6.58-5.91-6.58Z" fill="#fff"/><path d="M58.88,70c0-6.37,4.53-10.33,10.18-10.33S79.29,63.56,79.29,70,75.18,80.55,69.06,80.55,58.88,76.34,58.88,70Zm14.18.08c0-6.3-1.4-9.15-4-9.15s-4,2.85-4,9.15,1.44,9.21,4,9.21S73.06,76.34,73.06,70.08Z" fill="#fff"/><path d="M90,65.22c1.08-3.68,3.52-5.55,5.68-5.55a3.16,3.16,0,0,1,3.5,2.85c-.15,1.58-.87,2.91-2.67,2.91-1.37,0-2.23-.86-3.2-2.16L93,62.84a10.3,10.3,0,0,0-3,5.54v3c0,2,0,5,.07,7.13l3.31.32v1.12H81.7V78.82l2.45-.25c0-2.09.07-5.18.07-7.2v-3c0-2.34,0-3.52-.11-5.25l-2.7-.29V62l7.81-2.27.51.36Z" fill="#fff"/><path d="M114.1,77.56c-1.08,2-2.88,3-5.65,3-3.67,0-5.65-1.66-5.62-5.65,0-1.37,0-2.41,0-3.92V61.76H100V60.61l3.21-.36L105,54.49h3.71l-.08,5.8h4.47v1.47h-4.47V75.37c0,1.94.94,2.77,2.38,2.77A3.59,3.59,0,0,0,113.49,77Z" fill="#fff"/><path d="M123.46,65.22c1.08-3.68,3.53-5.55,5.69-5.55a3.16,3.16,0,0,1,3.49,2.85c-.15,1.58-.87,2.91-2.67,2.91-1.36,0-2.23-.86-3.2-2.16l-.32-.43a10.31,10.31,0,0,0-3,5.54v3c0,2,0,5,.07,7.13l3.31.32v1.12h-11.7V78.82l2.45-.25c0-2.09.07-5.18.07-7.2v-3c0-2.34,0-3.52-.1-5.25l-2.7-.29V62l7.81-2.27.5.36Z" fill="#fff"/><path d="M153.34,77.74a4.42,4.42,0,0,1-4.57,2.81,4,4,0,0,1-4.25-3.13c-1.84,2-3.21,3.13-6.08,3.13-3.1,0-5.26-1.87-5.26-4.9,0-3.27,1.87-5,7.67-6.73,1-.28,2.26-.61,3.53-.93v-2.2c0-3.74-.87-4.86-3.6-4.86a7.32,7.32,0,0,0-1.52.15L139,63.63c-.11,2.45-1.33,3.42-2.7,3.42a2.34,2.34,0,0,1-2.48-1.83c.29-3.39,3.42-5.55,9-5.55,5.11,0,7.16,2.2,7.16,7.42v9.68c0,1.37.43,1.84,1.12,1.84.54,0,.93-.29,1.62-1.37ZM137.25,61.58l-.58.22ZM144.38,69a17.64,17.64,0,0,0-2,.61c-2.52,1.05-3.86,2.74-3.86,5.36,0,2.16,1,3.17,2.7,3.17,1,0,1.8-.47,3.14-1.65Z" fill="#fff"/><path d="M165.18,78.82v1.12H154.67V78.82l2.38-.21c0-2.13.07-5.22.07-7.24V68.49c0-2.3,0-3.63-.11-5.47l-2.7-.29v-.86l8.25-2.16.5.36-.14,5.76v5.54c0,2,0,5.15.07,7.24ZM156.8,53.19a3.12,3.12,0,1,1,3.09,2.92A3,3,0,0,1,156.8,53.19Z" fill="#fff"/><path d="M180.88,77.56c-1.08,2-2.88,3-5.65,3-3.67,0-5.65-1.66-5.62-5.65,0-1.37,0-2.41,0-3.92V61.76h-2.92V60.61l3.21-.36,1.87-5.76h3.7l-.07,5.8h4.47v1.47h-4.47V75.37c0,1.94.94,2.77,2.38,2.77A3.59,3.59,0,0,0,180.27,77Z" fill="#fff"/><path d="M192.94,67.84c3.78,1.12,5.43,3.14,5.43,6.09,0,4.17-3.34,6.62-8.78,6.62a13.88,13.88,0,0,1-7.13-1.8l.29-4.89h2.3l1.12,4.75a7.57,7.57,0,0,0,3,.54c2.74,0,4.25-1,4.25-3,0-1.51-.68-2.59-3.56-3.49l-2.09-.61c-3.24-1-5.15-2.84-5.15-5.9,0-3.78,3-6.52,8.24-6.52a13.58,13.58,0,0,1,6.38,1.62l-.29,4.54h-2l-1.37-4.25a5.61,5.61,0,0,0-2.59-.54c-2.19,0-3.63,1.12-3.63,2.92,0,1.33.72,2.41,3.52,3.27Z" fill="#fff"/><path d="M209.57,70c0-6.37,4.54-10.33,10.19-10.33S230,63.56,230,70s-4.1,10.55-10.22,10.55S209.57,76.34,209.57,70Zm14.18.08c0-6.3-1.4-9.15-4-9.15s-4,2.85-4,9.15,1.44,9.21,4,9.21S223.75,76.34,223.75,70.08Z" fill="#fff"/><path d="M235.06,60.29c.43-4.11,1.76-6.34,3.35-7.89A9.41,9.41,0,0,1,245,49.81c2.16,0,4.14.72,4.6,2.66A2.36,2.36,0,0,1,247,54.92c-1.4,0-2.48-.68-3.42-2.7L243,51.11a2.34,2.34,0,0,0-.83.75c-1.23,1.8-1.55,4.32-1.4,8.43h4.67v1.47h-4.6v9.61c0,2.38,0,4.75.1,7.16l3.28.29v1.12H232.43V78.82l2.48-.21c0-2.42.08-4.83.08-7.24V61.76h-2.81V60.61Z" fill="#fff"/><path d="M269.51,77.56c-1.08,2-2.88,3-5.65,3-3.67,0-5.65-1.66-5.62-5.65,0-1.37,0-2.41,0-3.92V61.76h-2.92V60.61l3.21-.36,1.87-5.76h3.7l-.07,5.8h4.47v1.47h-4.47V75.37c0,1.94.94,2.77,2.38,2.77A3.59,3.59,0,0,0,268.9,77Z" fill="#fff"/><path d="M293.66,78.82v1.12H283.22V78.82l2.31-.21c0-2.09.07-5.15.07-7.24V66.19c0-2.81-1-3.82-2.63-3.82a6.36,6.36,0,0,0-4,1.95v7.05c0,2,0,5.15.07,7.27l2.09.18v1.12H270.7V78.82l2.37-.21c0-2.13.07-5.22.07-7.24V52.94l-2.62-.25v-.94l8-1.54.51.32-.11,5.8v7c2.16-2.56,4-3.64,6.69-3.64,3.49,0,5.87,2.13,5.87,7v4.68c0,2.12,0,5.18.07,7.27Z" fill="#fff"/><path d="M314.22,75.69a8.46,8.46,0,0,1-8,4.86c-5.94,0-10.33-3.78-10.33-10.51a10,10,0,0,1,10.3-10.37c5.4,0,8.31,3.64,8.31,8.21a7.77,7.77,0,0,1-.22,2.2H302c.18,5.61,2.88,7.91,6.26,7.91a6,6,0,0,0,5.26-2.73Zm-7.31-6.91c1.69,0,2.13-.83,2.13-3.06,0-3.13-1.37-4.79-3.28-4.79s-3.6,2.23-3.74,7.81Z" fill="#fff"/><path d="M347.84,78.82v1.12l-7.7.43-.29-2.23a7.73,7.73,0,0,1-5.58,2.41c-4.71,0-8.42-3.78-8.42-10.29,0-6.77,4-10.59,8.93-10.59a6.37,6.37,0,0,1,5.14,2.45V53L337,52.69v-.94l8.17-1.54.51.32-.15,5.76V78.68Zm-8.13-15.73a4.2,4.2,0,0,0-2.67-.93c-2.73,0-5,1.83-5,7.88,0,5.87,2.09,7.95,4.86,7.95a4.36,4.36,0,0,0,2.81-.93Z" fill="#fff"/><path d="M368.43,75.69a8.44,8.44,0,0,1-8,4.86c-5.94,0-10.33-3.78-10.33-10.51a10,10,0,0,1,10.29-10.37c5.4,0,8.32,3.64,8.32,8.21a8.15,8.15,0,0,1-.22,2.2H356.23c.18,5.61,2.88,7.91,6.27,7.91a6,6,0,0,0,5.25-2.73Zm-7.3-6.91c1.69,0,2.12-.83,2.12-3.06,0-3.13-1.37-4.79-3.27-4.79s-3.6,2.23-3.75,7.81Z" fill="#fff"/><path d="M379,62.37a8,8,0,0,1,6.19-2.7c4.39,0,7.88,3.67,7.88,10.33s-4,10.55-8.74,10.55a6.67,6.67,0,0,1-5.29-2.48v2.12c0,2.16,0,4.9.07,7.7l2.77.33v1h-11v-1l2.41-.25c0-2.85.07-5.58.07-7.78V68.42c0-2.34,0-3.56-.1-5.29l-2.67-.29V62l7.7-2.27.51.36Zm.15,14.72a4.31,4.31,0,0,0,3,.9c2.81,0,4.79-1.94,4.79-7.95s-1.73-7.88-4.57-7.88a4.21,4.21,0,0,0-3.2,1.26Z" fill="#fff"/><path d="M418.26,78.89V80l-7.92.47-.18-3.6a8.86,8.86,0,0,1-6.66,3.71c-3.6,0-5.87-1.94-5.79-7.41l.14-10.7-2.52-.5V61l8-1.08.47.36-.22,5.87v7.56c0,2.87,1.12,3.77,2.85,3.77a5.35,5.35,0,0,0,3.7-1.72l.15-13.32-2.41-.47v-.79l7.81-1.26.46.36L416,66.12V78.71Z" fill="#fff"/><path d="M433.92,77.56c-1.08,2-2.88,3-5.65,3-3.67,0-5.65-1.66-5.62-5.65,0-1.37,0-2.41,0-3.92V61.76h-2.92V60.61l3.21-.36,1.87-5.76h3.71l-.08,5.8H433v1.47h-4.47V75.37c0,1.94.94,2.77,2.38,2.77A3.59,3.59,0,0,0,433.31,77Z" fill="#fff"/><path d="M445.66,78.82v1.12H435.14V78.82l2.38-.21c0-2.13.07-5.22.07-7.24V68.49c0-2.3,0-3.63-.11-5.47l-2.7-.29v-.86L443,59.71l.5.36-.14,5.76v5.54c0,2,0,5.15.07,7.24Zm-8.39-25.63a3.12,3.12,0,1,1,3.09,2.92A3,3,0,0,1,437.27,53.19Z" fill="#fff"/><path d="M466.32,75.69a8.46,8.46,0,0,1-8,4.86C452.35,80.55,448,76.77,448,70a10,10,0,0,1,10.29-10.37c5.4,0,8.32,3.64,8.32,8.21a8.15,8.15,0,0,1-.22,2.2H454.12c.17,5.61,2.88,7.91,6.26,7.91a6,6,0,0,0,5.25-2.73ZM459,68.78c1.69,0,2.12-.83,2.12-3.06,0-3.13-1.36-4.79-3.27-4.79s-3.6,2.23-3.74,7.81Z" fill="#fff"/><path d="M479.71,67.84c3.78,1.12,5.44,3.14,5.44,6.09,0,4.17-3.35,6.62-8.79,6.62a13.82,13.82,0,0,1-7.12-1.8l.28-4.89h2.31l1.11,4.75a7.57,7.57,0,0,0,2.95.54c2.74,0,4.25-1,4.25-3,0-1.51-.68-2.59-3.56-3.49l-2.09-.61c-3.24-1-5.15-2.84-5.15-5.9,0-3.78,3-6.52,8.25-6.52A13.57,13.57,0,0,1,484,61.29l-.29,4.54h-2l-1.36-4.25a5.68,5.68,0,0,0-2.6-.54c-2.19,0-3.63,1.12-3.63,2.92,0,1.33.72,2.41,3.53,3.27Z" fill="#fff"/><path d="M130.35,127.56c-1.08,1.95-2.88,3-5.65,3-3.67,0-5.65-1.66-5.61-5.65,0-1.37,0-2.41,0-3.92v-9.22h-2.91v-1.15l3.2-.36,1.87-5.76H125l-.07,5.8h4.46v1.47h-4.46v13.61c0,1.94.93,2.77,2.37,2.77a3.58,3.58,0,0,0,2.45-1.15Z" fill="#fff"/><path d="M131.4,120c0-6.37,4.53-10.33,10.19-10.33s10.22,3.89,10.22,10.33-4.11,10.55-10.22,10.55S131.4,126.34,131.4,120Zm14.18.08c0-6.3-1.4-9.15-4-9.15s-4,2.85-4,9.15,1.44,9.21,4,9.21S145.58,126.34,145.58,120.08Z" fill="#fff"/><path d="M176.61,127.56c-1.08,1.95-2.88,3-5.65,3-3.67,0-5.65-1.66-5.61-5.65,0-1.37,0-2.41,0-3.92v-9.22h-2.91v-1.15l3.2-.36,1.87-5.76h3.71l-.07,5.8h4.46v1.47h-4.46v13.61c0,1.94.93,2.77,2.37,2.77A3.59,3.59,0,0,0,176,127Z" fill="#fff"/><path d="M200.77,128.82v1.12H190.33v-1.12l2.3-.21c0-2.09.07-5.15.07-7.24v-5.18c0-2.81-1-3.82-2.62-3.82a6.36,6.36,0,0,0-4,1.95v7.05c0,2,0,5.15.08,7.27l2.08.18v1.12H177.8v-1.12l2.38-.21c0-2.13.07-5.22.07-7.24V102.94l-2.63-.25v-.94l8-1.54.5.32-.11,5.8v7c2.16-2.56,4-3.64,6.7-3.64,3.49,0,5.87,2.13,5.87,7v4.68c0,2.12,0,5.18.07,7.27Z" fill="#fff"/><path d="M221.32,125.69a8.44,8.44,0,0,1-8,4.86c-5.94,0-10.33-3.78-10.33-10.51a10,10,0,0,1,10.29-10.37c5.4,0,8.32,3.64,8.32,8.21a8.15,8.15,0,0,1-.22,2.2H209.12c.18,5.61,2.88,7.91,6.26,7.91a6,6,0,0,0,5.26-2.73Zm-7.3-6.91c1.69,0,2.12-.83,2.12-3.06,0-3.13-1.37-4.79-3.28-4.79s-3.59,2.23-3.74,7.81Z" fill="#fff"/><path d="M250.77,128.82v1.12h-16v-1.12l5.15-.65c0-2.26.07-4.57.07-6.76V106.83l-4.25.4v-1.34l9.76-2.23.54.4-.14,5.86v11.49c0,2.19,0,4.5.07,6.76Z" fill="#fff"/><path d="M261.18,108.38a2.57,2.57,0,0,1-2.7,2.37,2.26,2.26,0,0,1-2-1.08c.11-4.32,3.89-6.15,8.24-6.15,5.73,0,8.43,2.63,8.43,6.37,0,3.06-1.84,5.47-6.81,6.44,5.62.83,7.6,3.35,7.6,6.84,0,4.36-3.75,7.38-9.9,7.38-5.47,0-8.35-2.38-8.68-6.41a2.24,2.24,0,0,1,2.24-1.62c1.44,0,2.34.69,2.66,3.1l.58,3.53a5.54,5.54,0,0,0,1.33.14c3.74,0,5.79-2,5.79-6s-2-6-5.65-6h-1.4v-1.4h1.22c3.21,0,5.29-1.8,5.29-5.8,0-3.49-1.58-5.29-4.35-5.29a7.52,7.52,0,0,0-1.19.11Z" fill="#fff"/><path d="M290.12,127.56c-1.08,1.95-2.88,3-5.65,3-3.67,0-5.65-1.66-5.62-5.65,0-1.37,0-2.41,0-3.92v-9.22H276v-1.15l3.21-.36,1.87-5.76h3.71l-.08,5.8h4.47v1.47h-4.47v13.61c0,1.94.94,2.77,2.38,2.77a3.59,3.59,0,0,0,2.45-1.15Z" fill="#fff"/><path d="M314.27,128.82v1.12H303.83v-1.12l2.31-.21c0-2.09.07-5.15.07-7.24v-5.18c0-2.81-1-3.82-2.63-3.82a6.36,6.36,0,0,0-4,1.95v7.05c0,2,0,5.15.07,7.27l2.09.18v1.12h-10.4v-1.12l2.37-.21c0-2.13.08-5.22.08-7.24V102.94l-2.63-.25v-.94l7.95-1.54.51.32-.11,5.8v7c2.16-2.56,4-3.64,6.69-3.64,3.5,0,5.87,2.13,5.87,7v4.68c0,2.12,0,5.18.07,7.27Z" fill="#fff"/><path d="M352.61,104.27l-3.31.47L349.05,130h-3.17L330,107.62l.21,20.55,4.83.54v1.23H325v-1.23l3.31-.5.22-22.64-.69-1-2.55-.29v-1.22H334l13.64,18.86-.18-17.13-4.78-.51v-1.22h9.93Z" fill="#fff"/><path d="M364.39,119.18c0,2.7,0,5.9.07,9.14l3.85.39v1.23H355v-1.23l3.24-.32c.1-3.64.1-7.34.1-11.09v-1.58c0-3.74,0-7.45-.1-11.16l-3.24-.29v-1.22h11c8.18,0,11.45,2.92,11.45,8,0,4.5-3.06,8.14-11.63,8.14Zm.07-14.76c-.07,3.7-.07,7.48-.07,11.3v2.12h1.19c4.17,0,6.19-2.8,6.19-6.84,0-4.35-2.09-6.58-5.91-6.58Z" fill="#fff"/><path d="M402.62,128.53a15.59,15.59,0,0,1-8.17,2.13c-8,0-14.33-4.68-14.33-14.18s6.8-14.15,14.61-14.15a14.67,14.67,0,0,1,7.63,2l-.14,6.55H400.1l-2-6.87a9,9,0,0,0-2.63-.36c-5,0-9,4-9,12.81s3.92,12.74,9.14,12.74a8.16,8.16,0,0,0,2.81-.46l1.91-6.73h2.12Z" fill="#fff"/><line x1="8.19" y1="158.01" x2="511.57" y2="158.01" fill="none" stroke="#fdd3d4" stroke-miterlimit="10" stroke-width="3"/><line x1="8.19" y1="152.09" x2="511.57" y2="152.09" fill="none" stroke="#fdd3d4" stroke-miterlimit="10" stroke-width="1.5"/><line x1="8.19" y1="25.46" x2="511.57" y2="25.46" fill="none" stroke="#fdd3d4" stroke-miterlimit="10" stroke-width="3"/><line x1="8.19" y1="31.23" x2="511.57" y2="31.23" fill="none" stroke="#fdd3d4" stroke-miterlimit="10" stroke-width="1.5"/><polygon points="259.87 34.41 246.57 41.38 249.12 26.58 238.37 16.09 253.24 13.94 259.9 0.47 266.53 13.95 281.4 16.12 270.63 26.6 273.16 41.41 259.87 34.41" fill="#f14950"/><polygon points="255.89 17.6 259.89 9.51 263.87 17.6 272.8 18.91 266.33 25.2 267.85 34.09 259.87 29.89 251.88 34.08 253.42 25.19 246.96 18.89 255.89 17.6" fill="#fff"/></g></svg>