<svg id="分组_23" data-name="分组 23" xmlns="http://www.w3.org/2000/svg" viewBox="0 0 24 24">
  <defs>
    <style>
      .cls-1 {
        fill: #1da1f2;
      }

      .cls-2 {
        fill: none;
      }

      .cls-3 {
        fill: #fff;
      }
    </style>
  </defs>
  <circle id="椭圆形_copy_30" data-name="椭圆形 copy 30" class="cls-1" cx="12" cy="12" r="12"/>
  <g id="分组_31_copy_5" data-name="分组 31 copy 5" transform="translate(5 5)">
    <rect id="矩形_copy" data-name="矩形 copy" class="cls-2" width="14" height="14"/>
    <g id="分组_4" data-name="分组 4">
      <rect id="矩形" class="cls-2" width="14" height="14"/>
      <g id="推特" transform="translate(0.35 1.4)">
        <path id="路径" class="cls-3" d="M13.288,1.318a5.793,5.793,0,0,1-1.366,1.448h0a8.165,8.165,0,0,1-.312,2.614h0a8.239,8.239,0,0,1-.974,2.155h0A8.4,8.4,0,0,1,9.08,9.359,6.892,6.892,0,0,1,6.9,10.625a7.763,7.763,0,0,1-2.723.472A7.409,7.409,0,0,1,0,9.84a5.622,5.622,0,0,0,.658.035,5.238,5.238,0,0,0,3.381-1.2h0a2.608,2.608,0,0,1-1.585-.559h0a2.738,2.738,0,0,1-.961-1.383,3.365,3.365,0,0,0,.515.043,2.735,2.735,0,0,0,.716-.1A2.671,2.671,0,0,1,1.16,5.718,2.757,2.757,0,0,1,.54,3.936V3.9a2.657,2.657,0,0,0,1.231.355h0a2.77,2.77,0,0,1-.886-1h0A2.79,2.79,0,0,1,.556,1.924,2.8,2.8,0,0,1,.928.511h0A7.766,7.766,0,0,0,3.41,2.579h0a7.426,7.426,0,0,0,3.133.862h0A3.2,3.2,0,0,1,6.475,2.8a2.738,2.738,0,0,1,.8-1.981,2.679,2.679,0,0,1,3.916.066h0A5.251,5.251,0,0,0,12.917.208h0a2.707,2.707,0,0,1-1.2,1.543h0a5.309,5.309,0,0,0,1.568-.434Z" transform="translate(0.011 0.004)"/>
      </g>
    </g>
  </g>
</svg>
