<svg id="分组_25" data-name="分组 25" xmlns="http://www.w3.org/2000/svg" viewBox="0 0 24 24">
  <defs>
    <style>
      .cls-1 {
        fill: #00bb29;
      }

      .cls-2 {
        fill: none;
      }

      .cls-3 {
        fill: #fff;
      }
    </style>
  </defs>
  <circle id="椭圆形_copy_34" data-name="椭圆形 copy 34" class="cls-1" cx="12" cy="12" r="12"/>
  <g id="分组_38_copy_4" data-name="分组 38 copy 4" transform="translate(5 5)">
    <rect id="矩形_copy_12" data-name="矩形 copy 12" class="cls-2" width="14" height="14"/>
    <g id="微信" transform="translate(0.35 1.4)">
      <path id="形状" class="cls-3" d="M11.974,10.818h0L10.7,10.105l-.023.006-.009,0a5.584,5.584,0,0,1-1.37.237,4.359,4.359,0,0,1-2.843-1A3.168,3.168,0,0,1,5.287,6.933c0-1.884,1.8-3.416,4.008-3.416,2.159,0,3.983,1.565,3.983,3.416a3.637,3.637,0,0,1-1.647,2.7l.344,1.178ZM7.99,5.408a.522.522,0,0,0-.468.468.5.5,0,0,0,.468.467c.387,0,.59-.235.59-.467A.552.552,0,0,0,7.99,5.408Zm2.677-.1a.52.52,0,0,0-.471.462.506.506,0,0,0,.471.462.535.535,0,0,0,.595-.462A.553.553,0,0,0,10.667,5.306ZM1.4,8.555v0h0l.466-1.4A3.833,3.833,0,0,1,0,3.983C0,1.787,2.106,0,4.7,0A5.446,5.446,0,0,1,7.778.937,3.955,3.955,0,0,1,9.44,3.294,2.713,2.713,0,0,0,9,3.27,4.108,4.108,0,0,0,6.168,4.361,3.58,3.58,0,0,0,5.014,6.982a3.344,3.344,0,0,0,.148.984,3.2,3.2,0,0,1-.468.024A6.267,6.267,0,0,1,3.29,7.8l-.244-.052L1.4,8.554ZM6.466,1.991a.665.665,0,0,0-.713.59.661.661,0,0,0,.713.589.57.57,0,0,0,.589-.589A.552.552,0,0,0,6.466,1.991ZM3.212,1.923a.659.659,0,0,0-.718.584.662.662,0,0,0,.718.583.6.6,0,0,0,.433-.168.578.578,0,0,0,.161-.415A.57.57,0,0,0,3.212,1.923Z" transform="translate(0.018 0.186)"/>
    </g>
  </g>
</svg>
