<svg xmlns="http://www.w3.org/2000/svg" viewBox="0 0 59.5 55.69"><title>性别图标</title><g id="图层_1" data-name="图层 1"><path d="M59.5,55.69C58.35,56,2.21,56,.23,55.76c-.55-1,0-1.93.25-2.86a23,23,0,0,1,.94-2.32c1.06-2.8,3.17-4.68,5.5-6.36a2.62,2.62,0,0,1,.72-.33c1.54-.48,3.07-1,4.63-1.4,2.27-.6,9.37-2.77,10.42-4.93.19-.38.28-1.92.43-2.38-1.23-.32-12.87-2.9-10.06-10.07,1-3.21,4.25-13.86,5-16.94A10.36,10.36,0,0,1,21,2.94,10.54,10.54,0,0,1,25.91.22a8.29,8.29,0,0,1,4.22.11A8.27,8.27,0,0,0,32.45.7,6,6,0,0,1,37,2.56a14.42,14.42,0,0,1,3.42,5.87c.91,2.59,5.31,17,5.72,21.53-1.68,4.15-8.89,4.77-9.91,5.07a3.51,3.51,0,0,0,1.06,2.53c1.54,1.69,5,2.82,7.08,3.68q2.82,1.14,5.69,2.18c.58.21,1.25.16,1.83.36a10.61,10.61,0,0,1,4.4,3.46,17,17,0,0,1,3.37,7.85.81.81,0,0,1,0,.31A1.78,1.78,0,0,1,59.5,55.69Z" fill="#f46fa9"/></g></svg>